<svg xmlns="http://www.w3.org/2000/svg" width="216" height="216" viewBox="0 0 216 216">
  <g fill="#757575" fill-rule="evenodd">
    <path d="M4.654 83.545L22.043 96.187 22.197 94.908 22.538 93.766 22.382 93.684C22.033 93.498 21.427 93.146 20.569 92.63 19.842 92.197 19.264 91.843 18.84 91.568L15.841 89.583 17.223 83.06 20.817 82.372C21.262 82.299 21.928 82.197 22.811 82.069 23.504 81.974 24.207 81.88 24.918 81.789L25.077 81.768 25.317 80.195 25.784 78.485 4.844 82.654 4.654 83.545zM15.556 83.309L14.438 88.575 8.89 84.66 15.556 83.309zM25.058 64.781C24.056 64.366 23.093 64.277 22.21 64.513 21.537 64.69 20.809 65.115 20.036 65.788 19.126 66.697 18.212 67.595 17.304 68.47 16.628 69.047 15.993 69.418 15.415 69.571 14.851 69.719 14.206 69.648 13.495 69.352 12.734 69.039 12.218 68.504 11.919 67.722 11.622 66.944 11.653 66.107 12.016 65.235 12.323 64.489 12.795 63.934 13.423 63.581 13.928 63.286 14.523 63.135 15.304 63.135 15.307 63.135 15.312 63.135 15.316 63.135L15.462 63.138 15.688 62.599 15.557 62.498C15.394 62.371 15.079 62.113 14.606 61.72 14.26 61.442 13.986 61.195 13.789 60.978L13.679 60.86 13.534 60.932C12.99 61.203 12.455 61.629 11.941 62.203 11.431 62.775 11.012 63.452 10.696 64.214 10.047 65.789 9.895 67.281 10.247 68.649 10.66 70.241 11.704 71.392 13.35 72.072 14.511 72.552 15.61 72.626 16.615 72.295 17.279 72.078 17.985 71.646 18.714 71.013 19.088 70.689 19.555 70.237 20.112 69.659 20.661 69.092 21.072 68.69 21.348 68.449 21.973 67.895 22.58 67.54 23.152 67.395 23.712 67.252 24.357 67.329 25.07 67.625 26.01 68.012 26.698 68.673 27.115 69.586 27.527 70.494 27.533 71.448 27.129 72.425 26.775 73.283 26.256 73.944 25.585 74.39 24.904 74.844 24.023 75.154 22.962 75.314L22.843 75.331 22.62 75.871 22.782 75.966C23.099 76.149 23.446 76.363 23.825 76.607 24.204 76.852 24.54 77.086 24.837 77.312L24.932 77.387 25.046 77.342C25.737 77.07 26.395 76.565 27.001 75.842 27.597 75.131 28.055 74.393 28.364 73.65 29.098 71.867 29.195 70.138 28.649 68.511 28.076 66.784 26.867 65.529 25.058 64.781M27.062 56.458C27.628 55.543 28.067 54.459 28.367 53.236 28.668 52.004 28.709 50.906 28.488 49.969 28.345 49.364 28.077 48.795 27.694 48.276 27.309 47.759 26.751 47.271 26.031 46.826 24.495 45.874 23.067 45.734 21.814 46.406 20.732 46.993 19.546 48.347 18.186 50.544L15.488 54.901 31.819 65.01 32.461 63.786 33.314 62.593 25.985 58.056 27.062 56.458zM18.21 53.244L19.11 51.794C19.735 50.785 20.255 50.062 20.659 49.645 21.045 49.247 21.525 48.978 22.087 48.846 22.856 48.665 23.706 48.859 24.616 49.423 25.148 49.752 25.571 50.137 25.873 50.566 26.175 50.998 26.392 51.483 26.515 52.008 26.666 52.649 26.644 53.314 26.451 53.986 26.253 54.676 25.896 55.441 25.393 56.254L24.711 57.268 18.21 53.244z"/>
    <polyline points="25.88 39.738 24.906 40.797 39.907 52.814 40.708 51.654 41.683 50.595 26.682 38.578 25.88 39.738"/>
    <path d="M50.048 36.976L42.496 35.902C43.208 34.873 43.685 33.85 43.913 32.853 44.333 31.065 43.922 29.504 42.689 28.215 41.634 27.111 40.401 26.701 39.046 27.017 37.896 27.285 36.624 28.077 35.268 29.374L30.81 33.635 44.077 47.52 45.045 46.458 46.132 45.557 39.773 38.901 40.303 38.395C41.339 38.482 42.319 38.588 43.246 38.71 43.789 38.774 44.746 38.91 46.119 39.117 47.493 39.324 48.436 39.471 48.954 39.561 49.739 39.697 50.661 39.867 51.717 40.073L51.834 40.095 52.966 38.891 54.533 37.541 52.58 37.289C51.166 37.126 50.325 37.022 50.048 36.976zM38.783 29.169L38.849 29.374C39.537 29.388 40.233 29.758 40.918 30.475 41.604 31.193 41.939 32.049 41.914 33.019 41.893 33.757 41.717 34.414 41.393 34.973 41.061 35.545 40.498 36.214 39.721 36.957L38.76 37.84 33.856 32.709 35.403 31.128C36.086 30.475 36.702 30.009 37.231 29.747 37.727 29.499 38.25 29.374 38.78 29.374L38.78 29.169C38.782 29.169 38.782 29.169 38.783 29.169zM63.164 29.23L62.96 29.426C61.964 30.379 60.016 31.842 57.166 33.778L52.914 27.504 56.233 25.254C56.353 25.173 56.667 24.992 57.182 24.709 57.711 24.417 58.108 24.183 58.368 24.006L58.567 23.872 57.94 23.14 57.497 22.291 57.297 22.424C57.222 22.476 56.951 22.681 56.489 23.04 56.037 23.39 55.683 23.651 55.428 23.823L51.997 26.15 48.375 20.806 49.695 19.91C50.88 19.106 51.83 18.502 52.516 18.114 53.203 17.725 53.841 17.396 54.428 17.13L54.684 17.015 53.983 16.176 53.493 15.262 45.057 20.979 55.778 36.796 64.347 30.988 63.675 30.184 63.164 29.23M78.152 23.262C77.82 23.495 77.608 23.641 77.513 23.697 77.427 23.751 77.314 23.805 77.175 23.862 76.551 24.117 76.036 24.09 75.606 23.781 75.151 23.453 74.71 22.767 74.292 21.743L71.331 14.473 74.046 13.367 73.704 12.737 73.492 12.005 70.779 13.11 69.392 9.71 67.348 11.643 68.348 14.1 66.75 14.75 67.084 15.356 67.308 16.111 68.902 15.462 72.029 23.138C72.528 24.362 73.137 25.197 73.84 25.619 74.19 25.829 74.593 25.936 75.043 25.936 75.523 25.936 76.065 25.814 76.658 25.572 76.994 25.434 77.364 25.221 77.756 24.94 78.149 24.659 78.455 24.412 78.673 24.201L78.777 24.101 78.372 23.108 78.152 23.262M87.226 9.826C85.762 8.883 84.02 8.669 82.064 9.196 80.71 9.559 79.545 10.216 78.602 11.15 77.657 12.085 77.046 13.179 76.789 14.398 76.65 15.039 76.601 15.627 76.643 16.146 76.682 16.662 76.823 17.361 77.071 18.288 77.547 20.05 78.566 21.377 80.103 22.232 81.069 22.77 82.117 23.042 83.215 23.042 83.862 23.042 84.539 22.948 85.229 22.762 87.2 22.232 88.673 21.156 89.609 19.561 90.542 17.965 90.74 16.13 90.194 14.104 89.685 12.206 88.686 10.767 87.226 9.826zM87.507 18.752C87.131 20.248 86.338 21.14 85.081 21.477 84.71 21.578 84.349 21.627 84.005 21.627L84.003 21.627C83.174 21.627 82.403 21.331 81.717 20.747 80.819 19.971 80.155 18.805 79.746 17.285 79.285 15.567 79.25 14.099 79.643 12.919 80.073 11.626 80.955 10.817 82.343 10.445 82.667 10.357 82.984 10.314 83.285 10.314 84.143 10.314 84.936 10.671 85.638 11.378 86.439 12.185 87.039 13.315 87.422 14.736 87.795 16.126 87.824 17.477 87.507 18.752zM112.271 17.29L111.996 17.34C110.639 17.593 108.205 17.751 104.763 17.812L104.642 10.232 108.672 10.168C108.833 10.168 109.188 10.189 109.74 10.23 110.285 10.272 110.775 10.278 111.121 10.292L111.359 10.288 111.236 9.332 111.33 8.378 111.09 8.382C110.998 8.384 110.658 8.408 110.076 8.455 109.508 8.499 109.068 8.525 108.76 8.53L104.616 8.597 104.512 2.142 106.104 2.116C107.544 2.094 108.658 2.107 109.449 2.157 110.24 2.208 110.953 2.282 111.588 2.38L111.865 2.423 111.74 1.338 111.828.305 101.642.471 101.95 19.575 112.301 19.407 112.178 18.368 112.271 17.29M124.65 10.744C125.514 9.999 126.504 9.161 127.631 8.232L128.059 7.883 126.584 7.806 125.555 7.566 125.469 7.653C124.887 8.253 124.305 8.844 123.725 9.429 122.666 10.514 121.814 11.364 121.16 11.977 120.684 11.147 120.266 10.386 119.91 9.696 119.406 8.729 118.938 7.717 118.516 6.69L118.467 6.568 116.961 6.447 115.135 6.079 119.293 13.609 113.596 19.068 113.523 19.574 114.547 19.611 115.477 19.839 115.563 19.739C116.611 18.515 117.494 17.534 118.186 16.819 118.549 16.425 119.17 15.79 120.051 14.91 120.637 15.97 121.145 16.931 121.568 17.795 121.971 18.606 122.428 19.6 122.943 20.778L122.996 20.895 124.383 21.001 125.873 21.309 125.92 20.679 121.887 13.235C122.787 12.376 123.707 11.546 124.65 10.744M140.785 12.595C140.18 11.929 139.566 11.425 138.971 11.094 138.377 10.766 137.66 10.477 136.844 10.237 134.854 9.656 133.035 9.729 131.432 10.454 129.691 11.24 128.496 12.707 127.879 14.813 127.303 16.79 127.447 18.607 128.307 20.21 129.172 21.816 130.711 22.952 132.883 23.586 133.555 23.783 134.229 23.882 134.883 23.882 135 23.882 135.115 23.88 135.229 23.874 135.996 23.833 136.727 23.686 137.402 23.435L138.07 22.005 137.719 21.681 137.586 21.743C136.785 22.124 136.182 22.361 135.791 22.448 135.068 22.616 134.357 22.598 133.66 22.395 132.221 21.974 131.264 21.139 130.738 19.84 130.209 18.542 130.176 17.083 130.639 15.506 131.096 13.948 131.867 12.79 132.938 12.062 133.996 11.341 135.197 11.174 136.514 11.56 137.039 11.713 137.572 12.025 138.084 12.477 138.291 12.681 138.479 12.943 138.643 13.258 138.815 13.586 138.967 13.937 139.1 14.31L139.137 14.413 139.6 14.547 140.9 12.722 140.785 12.595M147.17 27.176C146.506 27.176 145.875 27.042 145.301 26.775 143.977 26.162 143.133 25.265 142.797 24.108 142.455 22.942 142.592 21.68 143.197 20.366L143.359 20.061 146.992 21.743 149.184 22.838C149.941 23.218 150.771 23.614 151.668 24.029L151.855 24.116 152.299 23.237C153.027 21.665 153.189 20.135 152.775 18.689 152.334 17.12 151.264 15.935 149.605 15.166 147.748 14.304 145.971 14.244 144.34 14.986 142.848 15.662 141.668 16.916 140.834 18.714 139.906 20.716 139.754 22.585 140.387 24.269 140.982 25.852 142.19 27.076 143.977 27.903 144.725 28.25 145.551 28.468 146.434 28.548 146.734 28.575 147.033 28.59 147.332 28.59 147.902 28.59 148.477 28.538 149.037 28.436L149.143 28.417 150.035 26.585 149.547 26.752C148.783 27.014 148.027 27.155 147.17 27.176zM143.955 18.746C144.414 17.833 145.064 17.107 145.883 16.585 146.928 15.915 148.01 15.838 149.117 16.349 150.135 16.819 150.689 17.526 150.818 18.51 150.934 19.365 150.719 20.414 150.182 21.63L143.955 18.746z"/>
    <polyline points="163.158 14.244 162.08 13.467 151.088 31.434 152.244 32.024 153.326 32.802 164.315 14.835 163.158 14.244"/>
    <polyline points="169.801 18.658 168.781 17.802 156.482 34.896 157.588 35.572 158.607 36.429 170.908 19.333 169.801 18.658"/>
    <path d="M170.918 42.978C170.197 42.978 169.51 42.885 168.879 42.704 168.191 42.507 167.588 42.176 167.088 41.723 166.012 40.74 165.477 39.632 165.5 38.428 165.523 37.214 166.035 36.052 167.01 34.98L167.252 34.737 170.213 37.43 171.975 39.131C172.586 39.722 173.258 40.348 173.986 41.013L174.139 41.153 174.828 40.447C175.994 39.169 176.605 37.757 176.648 36.253 176.695 34.623 176.031 33.173 174.68 31.94 173.162 30.561 171.482 29.971 169.713 30.189 168.086 30.385 166.582 31.228 165.244 32.694 163.762 34.326 163.057 36.063 163.156 37.858 163.25 39.549 164.033 41.078 165.488 42.403 166.096 42.958 166.822 43.412 167.641 43.754 168.449 44.094 169.293 44.32 170.156 44.429L170.262 44.442 171.664 42.961 170.918 42.978zM168.215 33.661C168.928 32.929 169.766 32.43 170.701 32.177 171.924 31.852 172.947 32.096 173.857 32.922 174.686 33.676 175.004 34.517 174.834 35.494 174.689 36.342 174.168 37.279 173.291 38.279L168.215 33.661zM187.088 47.988C187.402 46.773 187.047 45.51 186.025 44.23 185.34 43.371 184.516 42.785 183.574 42.489 182.98 42.303 182.34 42.222 181.688 42.246L183.258 40.994 182.375 40.044 181.623 38.943 171.008 47.402 171.877 48.331 172.645 49.453 177.758 45.376C179.262 44.178 180.516 43.519 181.482 43.417 182.426 43.311 183.27 43.749 184.027 44.701 184.658 45.491 184.85 46.24 184.605 46.992 184.361 47.762 183.676 48.599 182.57 49.481L176.512 54.308 177.381 55.239 178.146 56.36 184.633 51.19C185.979 50.118 186.803 49.042 187.088 47.988M187.436 66.386L187.297 66.34C186.461 66.055 185.865 65.804 185.522 65.591 184.887 65.212 184.387 64.699 184.029 64.066 183.289 62.762 183.187 61.496 183.721 60.197 184.246 58.9 185.238 57.832 186.672 57.023 188.084 56.223 189.44 55.934 190.721 56.159 191.996 56.385 192.949 57.084 193.631 58.292 193.904 58.774 194.065 59.367 194.115 60.046 194.123 60.333 194.074 60.652 193.975 60.995 193.869 61.351 193.73 61.71 193.566 62.068L193.52 62.169 193.76 62.586 195.963 62.188 195.969 62.015C196.002 61.119 195.916 60.331 195.717 59.674 195.525 59.033 195.215 58.328 194.791 57.576 193.772 55.771 192.414 54.553 190.764 53.956 188.969 53.307 187.084 53.523 185.178 54.602 183.383 55.616 182.219 57.019 181.719 58.77 181.219 60.524 181.529 62.41 182.643 64.378 183.047 65.095 183.545 65.716 184.123 66.222 184.699 66.726 185.326 67.13 185.986 67.423L186.072 67.461 187.461 66.863 187.436 66.386M192.395 78.31C191.662 77.965 191.022 77.539 190.49 77.045 189.963 76.558 189.576 75.992 189.338 75.363 188.813 74.001 188.836 72.77 189.4 71.705 189.973 70.632 190.949 69.825 192.301 69.308L192.629 69.201 194.057 72.939 194.863 75.251C195.145 76.054 195.457 76.916 195.811 77.838L195.885 78.031 196.82 77.712C198.436 77.094 199.617 76.11 200.334 74.789 201.109 73.353 201.17 71.76 200.518 70.051 199.787 68.135 198.561 66.856 196.873 66.248 195.328 65.689 193.605 65.766 191.76 66.473 189.697 67.261 188.283 68.495 187.565 70.139 186.885 71.69 186.897 73.408 187.6 75.249 187.895 76.02 188.336 76.753 188.91 77.425 189.477 78.09 190.133 78.674 190.852 79.159L190.94 79.221 192.859 78.53 192.395 78.31zM193.975 68.673C194.939 68.341 195.904 68.271 196.861 68.47 198.094 68.725 198.906 69.408 199.342 70.559 199.742 71.604 199.65 72.498 199.055 73.292 198.541 73.985 197.656 74.587 196.42 75.083L193.975 68.673zM202.52 84.498L194.305 86.023 194.522 86.698 194.58 87.495 198.365 86.792 198.395 86.954C197.754 87.804 197.25 88.446 196.885 88.881 196.363 89.516 195.832 90.121 195.285 90.693L195.203 90.782 195.42 91.537 195.533 92.755 198.912 88.633C199.184 89.245 199.527 89.723 199.936 90.055 200.44 90.461 200.998 90.612 201.604 90.502 202.244 90.383 202.695 90.055 202.947 89.524 203.191 89.013 203.221 88.297 203.047 87.339L202.52 84.498zM201.744 86.165L202.008 87.593C202.086 88.015 202.061 88.355 201.928 88.604 201.805 88.834 201.555 88.986 201.18 89.056 200.773 89.131 200.447 89.048 200.176 88.796 199.893 88.533 199.705 88.179 199.627 87.742L199.412 86.599 201.744 86.165z"/>
    <path d="M206.352 86.786C205.975 84.757 204.924 83.123 203.225 81.932 201.525 80.74 199.623 80.326 197.602 80.703 195.557 81.082 193.924 82.143 192.748 83.854 191.572 85.564 191.168 87.475 191.551 89.533 191.92 91.511 192.938 93.104 194.576 94.271 195.873 95.188 197.297 95.654 198.812 95.654 199.299 95.654 199.801 95.605 200.309 95.512 202.359 95.133 203.988 94.079 205.156 92.383 206.326 90.688 206.727 88.806 206.352 86.786zM203.906 91.498C202.937 92.847 201.631 93.682 200.022 93.979 199.623 94.052 199.234 94.09 198.852 94.09 197.68 94.09 196.557 93.738 195.514 93.047 194.129 92.13 193.277 90.852 192.979 89.248 192.678 87.631 193.02 86.116 193.992 84.75 194.969 83.38 196.27 82.536 197.865 82.241 198.246 82.17 198.623 82.134 198.994 82.134 200.162 82.134 201.293 82.492 202.359 83.197 203.754 84.124 204.617 85.415 204.916 87.032 205.217 88.651 204.877 90.154 203.906 91.498zM71.376 114.43C70.124 116.369 68.371 117.95 66.017 119.261 63.689 120.516 61.081 121.152 58.278 121.152 55.671 121.096 53.193 120.409 50.921 119.116 48.724 117.811 46.975 116.064 45.724 113.935 44.492 111.775 43.869 109.368 43.869 106.786 43.907 104.405 44.502 102.132 45.641 100.025 46.75 97.929 48.367 96.198 50.455 94.879 52.501 93.542 54.951 92.779 57.71 92.613 60.821 92.613 63.458 93.204 65.767 94.419 68.052 95.622 69.88 97.361 71.198 99.589L71.324 99.799 78.015 99.799 77.778 99.211C76.094 95.009 73.391 91.82 69.742 89.733 66.13 87.67 62.077 86.623 57.678 86.623 55.257 86.712 52.855 87.237 50.545 88.181 48.231 89.091 46.085 90.431 44.17 92.166 42.276 93.887 40.742 96.018 39.611 98.5 38.466 101.013 37.849 103.906 37.825 106.867L37.818 107.835 37.85 107.807C37.971 110.471 38.536 112.88 39.529 114.979 40.676 117.425 42.266 119.578 44.254 121.379 46.218 123.164 48.459 124.568 50.917 125.556 53.329 126.5 55.888 126.978 58.523 126.978 67.126 126.978 73.599 122.901 77.762 114.859L78.085 114.234 71.502 114.234 71.376 114.43M116.447 93.912C113.342 89.233 108.501 86.783 102.031 86.623 99.471 86.623 97.021 87.091 94.537 88.052 92.036 89.017 89.859 90.361 87.88 92.161 85.93 93.928 84.349 96.116 83.182 98.666 82.019 101.206 81.406 104.049 81.362 107.117 81.362 110.009 81.918 112.718 83.012 115.173 84.096 117.601 85.617 119.704 87.526 121.422 89.438 123.177 91.623 124.546 94.021 125.488 96.391 126.424 98.939 126.926 101.594 126.978L101.602 126.978C105.089 126.978 108.227 126.24 110.922 124.792 113.199 123.618 115.053 122.004 116.447 119.979L116.447 126.202 122.307 126.202 122.307 87.631 116.447 87.631 116.447 93.912zM114.527 113.857C113.244 116.04 111.461 117.809 109.222 119.116 106.979 120.468 104.418 121.152 101.617 121.152 99.215 121.102 96.899 120.444 94.731 119.198 92.546 117.967 90.832 116.237 89.487 113.911 88.158 111.618 87.485 108.937 87.485 105.943 87.485 104.071 88.12 102.057 89.371 99.954 90.614 97.868 92.393 96.105 94.659 94.715 96.913 93.321 99.487 92.615 102.312 92.613 104.907 92.742 107.309 93.464 109.449 94.758 111.648 96.094 113.379 97.854 114.592 99.994 115.84 102.196 116.447 104.526 116.447 107.117 116.447 109.462 115.803 111.728 114.527 113.857zM132.707 92.377L132.707 87.855 127.055 87.855 127.055 126.59 132.959 126.59 132.959 102.909C132.959 101.576 133.272 100.285 133.889 99.071 134.488 97.88 135.291 96.859 136.338 95.949 137.412 95.028 138.529 94.346 139.76 93.859 141.01 93.363 142.172 93.122 143.307 93.122L143.736 93.122 143.736 87.005 143.307 87.005C138.512 87.005 134.953 88.811 132.707 92.377"/>
    <path d="M107.417,26.95 C63.56,26.95 27.878,62.631 27.878,106.49 C27.878,150.347 63.56,186.026 107.417,186.026 C151.272,186.026 186.953,150.347 186.953,106.49 C186.953,62.631 151.272,26.95 107.417,26.95 Z M107.417,182.598 C65.45,182.598 31.306,148.456 31.306,106.49 C31.306,64.522 65.45,30.379 107.417,30.379 C142.756,30.379 172.545,54.594 181.072,87.303 L161.557,87.303 C161.746,84.694 162.627,82.695 164.031,81.768 C165.707,80.661 167.941,80.1 170.668,80.1 L171.096,80.1 L171.096,74.405 L170.668,74.405 C161.061,74.405 156.045,78.751 155.717,87.303 L146.957,87.303 L146.957,93.25 L155.688,93.25 L155.688,126.202 L161.678,126.202 L161.678,93.25 L182.348,93.25 C183.105,97.554 183.523,101.973 183.523,106.49 C183.523,148.456 149.383,182.598 107.417,182.598 Z"/>
    <polyline points="185.744 170.811 184.346 161.62 175.326 159.375 183.633 155.215 182.982 145.94 189.512 152.557 198.123 149.068 193.848 157.324 199.83 164.436 190.656 162.924 185.744 170.811"/>
    <polyline points="151.365 199.231 154.289 190.409 147.268 184.318 156.559 184.378 160.182 175.814 163.002 184.672 172.258 185.467 164.701 190.888 166.811 199.94 159.326 194.429 151.365 199.231"/>
    <polyline points="109.004 216 105.783 207.278 96.493 206.909 103.788 201.154 101.273 192.201 109.004 197.363 116.736 192.201 114.223 201.154 121.514 206.909 112.225 207.278 109.004 216"/>
    <polyline points="65.865 199.156 57.876 194.408 50.421 199.961 52.475 190.9 44.886 185.52 54.146 184.669 56.91 175.796 60.583 184.342 69.875 184.225 62.885 190.357 65.865 199.156"/>
    <polyline points="29.227 170.734 24.684 162.622 15.45 163.703 21.761 156.879 17.88 148.428 26.322 152.318 33.157 146.021 32.063 155.256 40.166 159.805 31.048 161.62 29.227 170.734"/>
    <polyline points="206.152 129.584 200.855 121.943 191.766 123.902 197.4 116.51 192.723 108.472 201.504 111.534 207.703 104.608 207.496 113.905 216 117.654 207.092 120.333 206.152 129.584"/>
    <polyline points="10.761 129.002 9.087 119.865 0 117.896 8.176 113.487 7.24 104.233 13.97 110.649 22.472 106.893 18.449 115.28 24.647 122.205 15.433 120.974 10.761 129.002"/>
    <path d="M57.971 139.845C58.88 142.33 60.301 145.773 60.729 146.818 61.14 147.761 61.347 147.795 62.102 148.088 62.495 148.24 62.632 148.479 62.632 148.67 62.632 148.84 62.374 148.925 62.083 148.925 61.432 148.925 60.318 148.84 59.48 148.84 58.724 148.84 58.417 148.908 57.817 148.908 57.388 148.908 57.235 148.737 57.235 148.617 57.235 148.428 57.406 148.205 57.732 148.088 58.399 147.845 58.417 147.556 58.298 147.145 58.161 146.698 58.005 146.271 57.783 145.756 57.766 145.688 57.595 145.517 57.337 145.499 57.028 145.465 54.92 145.449 54.476 145.517 54.39 145.534 54.236 145.688 54.202 145.773 54.03 146.236 53.792 147.093 53.792 147.367 53.792 147.642 53.961 147.897 54.596 148.102 54.818 148.188 55.042 148.291 55.042 148.497 55.058 148.6 54.836 148.893 54.39 148.893 54.202 148.893 53.705 148.84 53.174 148.84 52.557 148.84 51.975 148.925 51.29 148.925 50.93 148.925 50.673 148.787 50.673 148.582 50.673 148.413 50.81 148.24 51.186 148.12 51.888 147.864 52.213 147.727 52.643 146.818 53.106 145.841 54.511 142.277 55.469 139.724 55.503 139.656 55.538 139.501 55.538 139.332 55.538 139.279 55.624 139.16 55.693 139.109 55.899 138.972 56.566 138.525 56.753 138.372 56.857 138.269 57.097 138.182 57.166 138.182 57.441 138.182 57.526 138.697 57.971 139.845zM57.251 144.232C57.012 143.391 56.224 141.403 56.086 141.131 56.018 141.027 55.915 141.062 55.863 141.131 55.556 141.815 54.904 143.682 54.733 144.232 54.717 144.316 54.785 144.436 54.904 144.436 55.162 144.454 56.857 144.454 57.132 144.436 57.201 144.436 57.286 144.3 57.251 144.232zM71.463 138.49C71.892 138.612 72.474 138.801 72.61 138.801 72.714 138.801 72.901 139.004 72.901 139.109 72.901 139.623 73.039 140.549 73.039 140.976 73.039 141.456 72.764 141.712 72.541 141.712 72.386 141.712 72.301 141.524 72.183 141.198 71.958 140.496 71.788 140.052 71.135 139.623 70.606 139.262 69.954 139.004 69.218 139.004 68.445 139.004 67.454 139.417 66.87 140.084 66.065 140.958 65.67 142.312 65.67 143.41 65.67 144.644 66.117 145.928 66.613 146.613 67.316 147.556 68.533 148.188 69.594 148.188 70.04 148.188 70.828 147.933 71.222 147.727 71.376 147.642 71.735 147.263 72.13 146.631 72.439 146.099 72.61 145.894 72.781 145.894 73.074 145.894 73.123 146.185 73.123 146.545 73.123 146.698 72.799 147.829 72.781 148.155 72.764 148.224 72.592 148.462 72.541 148.497 71.958 148.773 70.416 149.148 69.287 149.148 67.385 149.148 65.466 148.582 64.301 147.28 63.545 146.458 62.982 145.276 62.982 143.751 62.982 141.884 63.82 140.326 65.328 139.279 66.099 138.75 67.59 138.182 69.406 138.182 70.193 138.182 70.966 138.354 71.463 138.49M83.455 138.49C83.882 138.612 84.464 138.801 84.601 138.801 84.704 138.801 84.893 139.004 84.893 139.109 84.893 139.623 85.029 140.549 85.029 140.976 85.029 141.456 84.755 141.712 84.533 141.712 84.378 141.712 84.293 141.524 84.175 141.198 83.949 140.496 83.78 140.052 83.127 139.623 82.598 139.262 81.945 139.004 81.21 139.004 80.438 139.004 79.444 139.417 78.862 140.084 78.057 140.958 77.663 142.312 77.663 143.41 77.663 144.644 78.108 145.928 78.605 146.613 79.308 147.556 80.525 148.188 81.585 148.188 82.032 148.188 82.82 147.933 83.214 147.727 83.369 147.642 83.727 147.263 84.122 146.631 84.431 146.099 84.601 145.894 84.773 145.894 85.064 145.894 85.115 146.185 85.115 146.545 85.115 146.698 84.791 147.829 84.773 148.155 84.755 148.224 84.585 148.462 84.533 148.497 83.949 148.773 82.408 149.148 81.278 149.148 79.377 149.148 77.458 148.582 76.292 147.28 75.537 146.458 74.974 145.276 74.974 143.751 74.974 141.884 75.812 140.326 77.32 139.279 78.091 138.75 79.582 138.182 81.398 138.182 82.186 138.182 82.957 138.354 83.455 138.49M94.758 142.979C94.536 143.167 94.125 143.375 93.834 143.528 93.765 143.58 93.816 143.837 93.851 143.939 94.193 144.608 95.118 146.081 95.821 146.938 96.488 147.743 97.003 148.018 97.585 148.224 97.757 148.275 97.929 148.428 97.929 148.564 97.929 148.96 97.311 149.08 96.935 149.08 95.769 149.08 94.536 148.96 93.32 147.367 92.703 146.561 92.068 145.517 91.641 144.847 91.331 144.369 91.023 144.3 90.646 144.3 90.526 144.3 90.475 144.486 90.475 144.557 90.475 145.928 90.493 146.493 90.544 147.093 90.595 147.711 90.784 147.795 91.503 148.067 91.812 148.205 92.001 148.36 92.001 148.515 92.001 148.72 91.657 148.908 91.366 148.908 90.937 148.908 89.773 148.84 89.173 148.84 88.642 148.84 87.991 148.908 87.356 148.908 86.945 148.908 86.723 148.737 86.723 148.564 86.723 148.343 86.945 148.205 87.271 148.102 87.956 147.897 88.145 147.777 88.178 146.921 88.197 146.304 88.197 145.911 88.197 142.828 88.197 140.719 88.145 140.429 88.109 140.067 88.076 139.724 87.887 139.435 87.236 139.314 86.928 139.247 86.723 139.023 86.723 138.886 86.723 138.612 87.065 138.49 87.442 138.49 88.316 138.49 88.66 138.51 88.882 138.51 89.857 138.51 90.715 138.425 91.794 138.425 93.301 138.425 94.038 138.75 94.449 139.057 95.203 139.639 95.546 140.343 95.546 141.198 95.546 141.85 95.222 142.569 94.758 142.979zM91.108 139.262C91.006 139.262 90.699 139.332 90.577 139.399 90.509 139.435 90.44 139.554 90.44 139.708 90.44 140.343 90.475 142.021 90.475 143.066 90.475 143.152 90.544 143.305 90.612 143.34 90.903 143.442 91.161 143.495 91.468 143.495 91.794 143.495 92.532 143.135 92.719 142.979 92.874 142.843 93.232 142.244 93.232 141.456 93.232 140.343 92.514 139.262 91.108 139.262zM104.331 138.525C105.89 138.525 106.216 138.51 106.609 138.44 106.798 138.425 106.916 138.49 106.985 138.595 107.09 138.766 107.227 140.034 107.227 140.411 107.227 140.771 107.055 140.925 106.936 140.925 106.66 140.925 106.489 140.719 106.232 140.17 105.925 139.536 105.666 139.435 105.565 139.435 104.586 139.435 103.508 139.485 103.267 139.485 103.201 139.485 103.064 139.674 103.064 139.759 103.028 140.137 102.995 141.474 102.995 142.655 102.995 142.878 103.064 143.1 103.165 143.117 103.335 143.152 103.971 143.152 104.262 143.135 105.152 143.082 105.394 142.828 105.581 142.382 105.685 142.091 105.838 141.9 106.01 141.9 106.249 141.9 106.386 142.141 106.354 142.62 106.335 142.828 106.318 143.204 106.318 143.564 106.318 143.957 106.335 144.386 106.354 144.644 106.386 145.105 106.147 145.276 105.994 145.276 105.856 145.276 105.65 145.121 105.512 144.779 105.341 144.352 105.256 144.215 104.896 144.18 104.193 144.13 103.971 144.11 103.201 144.11 103.113 144.11 102.995 144.369 102.995 144.694 102.995 145.534 103.044 146.388 103.064 146.769 103.097 147.263 103.182 147.504 103.233 147.556 103.404 147.777 104.108 148.002 105.103 148.002 105.512 148.002 105.907 147.95 106.301 147.761 106.66 147.605 106.883 147.367 107.242 146.836 107.535 146.423 107.69 146.081 107.945 146.081 108.255 146.081 108.324 146.561 108.255 146.906 108.151 147.4 107.74 148.448 107.672 148.6 107.62 148.773 107.242 148.925 107.158 148.925 106.779 148.925 106.147 148.84 103.028 148.84 101.947 148.84 100.134 148.908 99.395 148.908 99.019 148.908 98.779 148.787 98.779 148.67 98.779 148.462 98.933 148.24 99.293 148.138 100.459 147.845 100.544 147.521 100.578 147.109 100.629 146.408 100.647 146.014 100.647 143.957 100.647 141.318 100.612 140.358 100.578 140.052 100.492 139.536 100.236 139.364 99.551 139.194 99.157 139.092 99.054 138.886 99.054 138.766 99.054 138.542 99.361 138.44 99.584 138.44 99.876 138.44 101.434 138.525 102.566 138.525L104.331 138.525M119.402 139.829C120.84 141.027 121.148 142.569 121.148 143.632 121.148 146.254 119.436 147.642 118.51 148.155 117.295 148.808 115.957 148.977 114.689 148.977 113.988 148.977 112.223 148.84 111.676 148.84 111.125 148.84 110.272 148.857 109.602 148.908 109.465 148.925 109.328 148.808 109.328 148.687 109.328 148.497 109.566 148.155 109.996 148.035 110.527 147.897 110.922 147.88 111.023 147.109 111.125 146.408 111.145 145.534 111.145 143.272 111.145 140.94 111.16 140.443 111.059 139.947 111.023 139.759 110.971 139.485 110.115 139.332 109.705 139.247 109.482 139.074 109.482 138.869 109.482 138.628 109.756 138.51 110.236 138.51L111.486 138.525C112.084 138.542 113.627 138.404 114.828 138.404 116.471 138.404 118.133 138.75 119.402 139.829zM113.816 139.399C113.748 139.417 113.561 139.708 113.561 139.794 113.523 140.326 113.473 141.266 113.473 142.553L113.473 143.751C113.473 145.943 113.523 146.236 113.592 146.749 113.645 147.245 113.885 147.573 114.055 147.727 114.262 147.864 114.947 148.155 115.271 148.155 115.531 148.155 116.66 147.864 117.414 147.128 118.201 146.374 118.563 145.019 118.563 143.751 118.563 142.482 118.219 141.233 117.344 140.376 116.576 139.606 115.547 139.247 114.775 139.247 114.621 139.247 113.971 139.314 113.816 139.399zM123.918 141.043C123.918 139.586 123.852 139.417 122.873 139.194 122.582 139.125 122.428 138.937 122.428 138.781 122.428 138.56 122.787 138.457 122.994 138.457 123.318 138.457 124.244 138.525 124.998 138.525 126.025 138.525 126.744 138.475 127.242 138.475 127.482 138.475 127.738 138.612 127.738 138.801 127.738 138.988 127.465 139.125 127.326 139.16 126.438 139.364 126.385 139.586 126.336 140.461 126.283 141.198 126.266 142.811 126.266 143.975 126.266 145.841 126.301 146.596 126.301 146.818 126.336 147.642 126.473 147.915 127.379 148.138 127.705 148.224 127.895 148.378 127.895 148.582 127.895 148.787 127.518 148.893 127.309 148.893 127.139 148.893 125.615 148.84 125.033 148.84 124.434 148.84 123.268 148.925 122.959 148.925 122.734 148.925 122.41 148.84 122.41 148.617 122.41 148.448 122.666 148.24 122.908 148.173 123.645 147.915 123.764 147.727 123.832 147.263 123.883 146.906 123.918 145.876 123.918 144.471L123.918 141.043M137.756 138.525C138.713 138.525 139.09 138.425 139.193 138.319 139.398 138.097 139.553 137.96 139.672 137.96 139.76 137.96 140.156 138.199 140.156 138.425 140.156 138.542 139.947 139.606 139.947 140.754 139.947 141.062 139.725 141.387 139.434 141.387 139.211 141.387 139.09 141.027 139.055 140.873 138.801 139.759 138.49 139.674 137.926 139.606 137.668 139.571 137.379 139.519 135.922 139.519 135.834 139.519 135.768 139.656 135.75 139.81 135.717 140.119 135.629 142.362 135.629 143.442 135.629 144.486 135.611 145.756 135.682 146.493 135.768 147.743 136.057 147.777 136.811 148.067 137.121 148.188 137.397 148.311 137.397 148.515 137.397 148.823 137.051 148.925 136.709 148.925 136.539 148.925 134.859 148.84 133.83 148.84 133.182 148.84 132.408 148.893 131.945 148.893 131.586 148.893 131.293 148.737 131.293 148.479 131.293 148.343 131.467 148.138 131.844 148.035 132.941 147.743 133.23 147.573 133.23 146.561 133.23 146.201 133.283 144.077 133.283 142.45 133.283 141.387 133.283 140.411 133.283 139.879 133.283 139.708 133.146 139.519 133.094 139.519 132.666 139.519 131.639 139.519 131.279 139.536 130.867 139.554 130.404 139.606 129.959 140.821 129.857 141.113 129.668 141.336 129.498 141.336 129.254 141.336 129.051 141.043 129.068 140.634 129.086 140.102 129.24 139.332 129.24 138.44 129.223 138.199 129.498 137.96 129.668 137.96 129.721 137.96 129.889 138.045 129.994 138.149 130.285 138.372 130.523 138.475 131.022 138.49 131.725 138.525 131.777 138.525 132.324 138.525L137.756 138.525M146.846 138.525C148.406 138.525 148.73 138.51 149.125 138.44 149.313 138.425 149.432 138.49 149.5 138.595 149.605 138.766 149.742 140.034 149.742 140.411 149.742 140.771 149.57 140.925 149.449 140.925 149.176 140.925 149.006 140.719 148.748 140.17 148.441 139.536 148.18 139.435 148.08 139.435 147.102 139.435 146.023 139.485 145.781 139.485 145.717 139.485 145.58 139.674 145.58 139.759 145.545 140.137 145.51 141.474 145.51 142.655 145.51 142.878 145.58 143.1 145.682 143.117 145.852 143.152 146.486 143.152 146.775 143.135 147.668 143.082 147.908 142.828 148.096 142.382 148.201 142.091 148.354 141.9 148.525 141.9 148.766 141.9 148.9 142.141 148.867 142.62 148.85 142.828 148.832 143.204 148.832 143.564 148.832 143.957 148.85 144.386 148.867 144.644 148.9 145.105 148.662 145.276 148.508 145.276 148.371 145.276 148.166 145.121 148.027 144.779 147.855 144.352 147.771 144.215 147.41 144.18 146.709 144.13 146.486 144.11 145.717 144.11 145.629 144.11 145.51 144.369 145.51 144.694 145.51 145.534 145.559 146.388 145.58 146.769 145.611 147.263 145.697 147.504 145.748 147.556 145.918 147.777 146.623 148.002 147.619 148.002 148.027 148.002 148.424 147.95 148.814 147.761 149.176 147.605 149.397 147.367 149.758 146.836 150.049 146.423 150.205 146.081 150.459 146.081 150.77 146.081 150.84 146.561 150.77 146.906 150.666 147.4 150.254 148.448 150.188 148.6 150.135 148.773 149.758 148.925 149.672 148.925 149.295 148.925 148.662 148.84 145.545 148.84 144.461 148.84 142.648 148.908 141.91 148.908 141.533 148.908 141.293 148.787 141.293 148.67 141.293 148.462 141.449 148.24 141.809 148.138 142.973 147.845 143.057 147.521 143.092 147.109 143.145 146.408 143.162 146.014 143.162 143.957 143.162 141.318 143.127 140.358 143.092 140.052 143.008 139.536 142.75 139.364 142.066 139.194 141.67 139.092 141.568 138.886 141.568 138.766 141.568 138.542 141.875 138.44 142.098 138.44 142.391 138.44 143.949 138.525 145.082 138.525L146.846 138.525M161.918 139.829C163.357 141.027 163.666 142.569 163.666 143.632 163.666 146.254 161.953 147.642 161.025 148.155 159.813 148.808 158.475 148.977 157.205 148.977 156.504 148.977 154.738 148.84 154.191 148.84 153.643 148.84 152.787 148.857 152.117 148.908 151.98 148.925 151.844 148.808 151.844 148.687 151.844 148.497 152.082 148.155 152.514 148.035 153.043 147.897 153.438 147.88 153.539 147.109 153.643 146.408 153.66 145.534 153.66 143.272 153.66 140.94 153.678 140.443 153.574 139.947 153.539 139.759 153.486 139.485 152.633 139.332 152.221 139.247 151.998 139.074 151.998 138.869 151.998 138.628 152.273 138.51 152.752 138.51L154.002 138.525C154.602 138.542 156.147 138.404 157.344 138.404 158.986 138.404 160.648 138.75 161.918 139.829zM156.334 139.399C156.264 139.417 156.076 139.708 156.076 139.794 156.041 140.326 155.988 141.266 155.988 142.553L155.988 143.751C155.988 145.943 156.041 146.236 156.111 146.749 156.16 147.245 156.4 147.573 156.57 147.727 156.779 147.864 157.463 148.155 157.787 148.155 158.049 148.155 159.178 147.864 159.93 147.128 160.719 146.374 161.078 145.019 161.078 143.751 161.078 142.482 160.736 141.233 159.861 140.376 159.092 139.606 158.063 139.247 157.293 139.247 157.139 139.247 156.486 139.314 156.334 139.399z"/>
  </g>
</svg>
