<svg id="Layer_1" data-name="Layer 1" xmlns="http://www.w3.org/2000/svg" viewBox="0 0 216 215.82"><title>Carf</title><path class="cls-1" d="M4.65,83.54,22,96.19l.15-1.28.34-1.14-.16-.08q-.52-.28-1.81-1.05c-.73-.43-1.31-.79-1.73-1.06l-3-2,1.38-6.52,3.59-.69,2-.3,2.11-.28H25l.24-1.57.47-1.71L4.84,82.65Zm10.9-.24-1.12,5.27L8.89,84.66Z" transform="translate(0 -0.18)"/><path class="cls-1" d="M25.06,64.78a4.4,4.4,0,0,0-2.85-.27A5.64,5.64,0,0,0,20,65.79c-.91.91-1.82,1.81-2.73,2.68a5,5,0,0,1-1.89,1.1,3,3,0,0,1-1.92-.22,2.73,2.73,0,0,1-1.58-1.63,3.41,3.41,0,0,1,3.38-4.59h.16l.23-.54-.13-.1-1-.78A7.29,7.29,0,0,1,13.7,61l-.11-.12-.14.07a5.44,5.44,0,0,0-1.59,1.27,7.58,7.58,0,0,0-1.69,6.43A5,5,0,0,0,13.27,72a4.61,4.61,0,0,0,3.27.22A6.3,6.3,0,0,0,18.71,71q.56-.49,1.4-1.35t1.24-1.21a4.5,4.5,0,0,1,1.8-1.05,3,3,0,0,1,1.92.23,3.74,3.74,0,0,1,2,2,3.44,3.44,0,0,1,0,2.84,4.21,4.21,0,0,1-1.54,2,6.42,6.42,0,0,1-2.62.92h-.12l-.22.54.16.09a11.82,11.82,0,0,1,1,.64c.34.24.72.48,1,.71l.1.07h.11a5,5,0,0,0,2-1.5,8.54,8.54,0,0,0,1.36-2.19,7.19,7.19,0,0,0,.29-5.14A6,6,0,0,0,25.06,64.78Z" transform="translate(0 -0.18)"/><path class="cls-1" d="M27.06,56.46a11.18,11.18,0,0,0,1.3-3.22A7,7,0,0,0,28.49,50a4.65,4.65,0,0,0-.79-1.69A5.94,5.94,0,0,0,26,46.83a4.05,4.05,0,0,0-4.22-.42c-1.08.59-2.27,1.94-3.63,4.14l-2.7,4.36L31.82,65l.64-1.22.85-1.19L26,58.06Zm-8.85-3.21.9-1.45a13.57,13.57,0,0,1,1.55-2.15,2.87,2.87,0,0,1,1.43-.8,3.34,3.34,0,0,1,2.53.58,4.23,4.23,0,0,1,1.26,1.14A4.13,4.13,0,0,1,26.51,52a3.87,3.87,0,0,1-.06,2,9.29,9.29,0,0,1-1.06,2.27l-.68,1Z" transform="translate(0 -0.18)"/><polygon class="cls-1" points="25.88 39.56 24.91 40.62 39.91 52.63 40.71 51.47 41.68 50.41 26.68 38.4 25.88 39.56"/><path class="cls-1" d="M50,37l-7.5-1.1a8.91,8.91,0,0,0,1.42-3,4.77,4.77,0,0,0-1.22-4.64A3.66,3.66,0,0,0,39,27a8.68,8.68,0,0,0-3.78,2.36l-4.46,4.26,13.32,13.9,1-1.06,1.09-.9-6.4-6.66.53-.51q1.55.13,2.94.31.81.1,2.87.41l2.83.44,2.76.51h.12L53,38.89l1.57-1.35-2-.25C51.17,37.13,50.32,37,50,37ZM38.78,29.17l.07.21a3,3,0,0,1,2.07,1.1,3.44,3.44,0,0,1,1,2.54,4.07,4.07,0,0,1-.52,2,9.64,9.64,0,0,1-1.67,2l-1,.88-4.9-5.13,1.55-1.58a7.92,7.92,0,0,1,1.83-1.38,3.45,3.45,0,0,1,1.55-.37v-.21Z" transform="translate(0 -0.18)"/><path class="cls-1" d="M63.16,29.23l-.2.2a51.08,51.08,0,0,1-5.79,4.35L52.91,27.5l3.32-2.25c.12-.08.43-.26,1-.54s.93-.53,1.19-.7l.2-.13-.63-.73-.44-.85-.2.13-.81.62q-.68.52-1.06.78L52,26.15l-3.62-5.34,1.32-.9c1.19-.8,2.13-1.41,2.82-1.8s1.33-.72,1.91-1l.26-.12-.7-.84-.49-.91L45.06,21,55.78,36.8,64.35,31l-.67-.8Z" transform="translate(0 -0.18)"/><path class="cls-1" d="M78.15,23.26l-.64.44a2.23,2.23,0,0,1-.34.16,1.53,1.53,0,0,1-1.57-.08,4.74,4.74,0,0,1-1.31-2l-3-7.27L74,13.37l-.34-.63L73.49,12l-2.71,1.1L69.39,9.7l-2,1.93,1,2.46-1.6.65.33.61.22.75,1.59-.65L72,23.14a5,5,0,0,0,1.81,2.48,2.3,2.3,0,0,0,1.2.32,4.35,4.35,0,0,0,1.62-.36,5.6,5.6,0,0,0,1.1-.63,8.22,8.22,0,0,0,.92-.74l.1-.1-.4-1Z" transform="translate(0 -0.18)"/><path class="cls-1" d="M87.23,9.83a6.21,6.21,0,0,0-5.16-.63,7.66,7.66,0,0,0-3.46,2,6.38,6.38,0,0,0-1.81,3.25,6,6,0,0,0-.15,1.75,12.46,12.46,0,0,0,.43,2.14,6.18,6.18,0,0,0,3,3.94,6.34,6.34,0,0,0,3.11.81,7.78,7.78,0,0,0,2-.28,6.74,6.74,0,0,0,5-8.66A7.05,7.05,0,0,0,87.23,9.83Zm.28,8.93a3.37,3.37,0,0,1-2.43,2.73,4.13,4.13,0,0,1-1.08.15h0a3.46,3.46,0,0,1-2.29-.88,6.78,6.78,0,0,1-2-3.46,7.65,7.65,0,0,1-.1-4.37,3.94,3.94,0,0,1,3.64-2.6,3.27,3.27,0,0,1,2.35,1.06,7.42,7.42,0,0,1,1.78,3.36,7.94,7.94,0,0,1,.13,4Z" transform="translate(0 -0.18)"/><path class="cls-1" d="M112.27,17.29l-.28,0a51.05,51.05,0,0,1-7.23.47l-.12-7.58,4-.06,1.07.06a9.38,9.38,0,0,1,1.38.06h.24l-.12-1,.09-1h-.24l-1,.07c-.57,0-1,.07-1.32.08l-4.14.07L104.5,2h4.93a9.6,9.6,0,0,1,2.14.22h.28l-.12-1.09.09-1L101.64.47l.31,19.1,10.35-.17-.12-1Z" transform="translate(0 -0.18)"/><path class="cls-1" d="M124.65,10.74c.86-.75,1.85-1.58,3-2.51l.43-.35-1.47-.08-1-.24-.09.09-1.74,1.78c-1.06,1.09-1.91,1.94-2.56,2.55q-.71-1.25-1.25-2.28c-.5-1-1-2-1.39-3V6.58L117,6.45l-1.83-.37,4.16,7.53-5.7,5.46-.07.51h1l.93.23.09-.1c1-1.22,1.93-2.21,2.62-2.92q.54-.59,1.87-1.91.88,1.59,1.52,2.89t1.38,3l.05.12,1.39.11,1.49.31v-.63l-4-7.44Q123.24,12,124.65,10.74Z" transform="translate(0 -0.18)"/><path class="cls-1" d="M140.79,12.59a7.35,7.35,0,0,0-1.81-1.5,10.61,10.61,0,0,0-2.13-.86,7.64,7.64,0,0,0-5.41.22,6.5,6.5,0,0,0-3.55,4.36,7,7,0,0,0,.43,5.4,7.19,7.19,0,0,0,4.58,3.38,7.13,7.13,0,0,0,2,.3h.35a7.35,7.35,0,0,0,2.17-.44l.67-1.43-.35-.32-.13.06a9.69,9.69,0,0,1-1.79.7,4.15,4.15,0,0,1-2.13,0,4.21,4.21,0,0,1-2.92-2.55,6.45,6.45,0,0,1-.1-4.33,6,6,0,0,1,2.3-3.44,4,4,0,0,1,3.58-.5,4.2,4.2,0,0,1,1.57.92,3.1,3.1,0,0,1,.56.78,8.16,8.16,0,0,1,.46,1.05v.1l.46.13,1.3-1.82Z" transform="translate(0 -0.18)"/><path class="cls-1" d="M147.17,27.18a4.42,4.42,0,0,1-1.87-.4,4.28,4.28,0,0,1-2.5-2.67,5.26,5.26,0,0,1,.4-3.74l.16-.31L147,21.74l2.19,1.1q1.14.57,2.48,1.19l.19.09.44-.88a6.41,6.41,0,0,0,.48-4.55,5.46,5.46,0,0,0-3.17-3.52,6.09,6.09,0,0,0-5.27-.18,7.21,7.21,0,0,0-3.51,3.73,7,7,0,0,0-.45,5.55A6.55,6.55,0,0,0,144,27.9a7.39,7.39,0,0,0,2.46.65h.9a9.59,9.59,0,0,0,1.71-.15h.11l.89-1.83-.49.17A7.7,7.7,0,0,1,147.17,27.18ZM144,18.75a5.38,5.38,0,0,1,1.93-2.16,3.19,3.19,0,0,1,3.23-.24,2.67,2.67,0,0,1,1.7,2.16,6,6,0,0,1-.64,3.12Z" transform="translate(0 -0.18)"/><polygon class="cls-1" points="163.16 14.06 162.08 13.29 151.09 31.25 152.24 31.84 153.33 32.62 164.31 14.66 163.16 14.06"/><polygon class="cls-1" points="169.8 18.48 168.78 17.62 156.48 34.72 157.59 35.39 158.61 36.25 170.91 19.15 169.8 18.48"/><path class="cls-1" d="M170.92,43a7.4,7.4,0,0,1-2-.27,4.48,4.48,0,0,1-1.79-1,4.3,4.3,0,0,1-1.59-3.3A5.25,5.25,0,0,1,167,35l.24-.24,3,2.69,1.76,1.7q.92.89,2,1.88l.15.14.69-.71a6.42,6.42,0,0,0,1.82-4.19,5.48,5.48,0,0,0-2-4.31,6.1,6.1,0,0,0-5-1.75,7.22,7.22,0,0,0-4.47,2.5,7,7,0,0,0-2.09,5.16,6.56,6.56,0,0,0,2.33,4.54,7.41,7.41,0,0,0,2.15,1.35,9.58,9.58,0,0,0,2.52.67h.11l1.4-1.48Zm-2.7-9.32a5.42,5.42,0,0,1,2.49-1.48,3.16,3.16,0,0,1,3.16.75,2.68,2.68,0,0,1,1,2.57,6,6,0,0,1-1.54,2.79Z" transform="translate(0 -0.18)"/><path class="cls-1" d="M187.09,48A4.22,4.22,0,0,0,186,44.23a5.07,5.07,0,0,0-2.45-1.74,5.63,5.63,0,0,0-1.89-.24l1.6-1.25-.88-1-.75-1.1L171,47.4l.87.93.77,1.12,5.11-4.08a8.08,8.08,0,0,1,3.72-2A2.81,2.81,0,0,1,184,44.7a2.36,2.36,0,0,1,.58,2.29,5.77,5.77,0,0,1-2,2.49l-6.06,4.83.87.93.77,1.12,6.49-5.17A6.6,6.6,0,0,0,187.09,48Z" transform="translate(0 -0.18)"/><path class="cls-1" d="M187.44,66.39h-.14a9.59,9.59,0,0,1-1.78-.75A4.1,4.1,0,0,1,184,64.07a4.19,4.19,0,0,1-.31-3.87,6.46,6.46,0,0,1,3-3.17,6,6,0,0,1,4-.86,4,4,0,0,1,2.91,2.13,4.17,4.17,0,0,1,.48,1.75,3.13,3.13,0,0,1-.08,1,8.17,8.17,0,0,1-.41,1.07v.1l.24.42,2.2-.4V62a7.21,7.21,0,0,0-.25-2.34,10.43,10.43,0,0,0-.93-2.1,7.63,7.63,0,0,0-4-3.62,6.49,6.49,0,0,0-5.59.65,6.93,6.93,0,0,0-3.46,4.17,7.18,7.18,0,0,0,.92,5.61,7,7,0,0,0,1.48,1.84,7.38,7.38,0,0,0,1.86,1.2h.09l1.39-.6Z" transform="translate(0 -0.18)"/><path class="cls-1" d="M192.39,78.31a7.43,7.43,0,0,1-1.9-1.26,4.41,4.41,0,0,1-1.15-1.68,4.27,4.27,0,0,1,.06-3.66,5.27,5.27,0,0,1,2.9-2.4l.33-.11,1.43,3.74.81,2.31c.28.8.59,1.66.95,2.59l.07.19.94-.32a6.44,6.44,0,0,0,3.51-2.92,5.48,5.48,0,0,0,.18-4.74,6.09,6.09,0,0,0-3.64-3.8,7.2,7.2,0,0,0-5.11.23,7,7,0,0,0-4.2,3.67,6.55,6.55,0,0,0,0,5.11,7.45,7.45,0,0,0,1.31,2.18,9.64,9.64,0,0,0,1.94,1.73l.09.06,1.92-.69ZM194,68.67a5.38,5.38,0,0,1,2.89-.2,3.15,3.15,0,0,1,2.48,2.09,2.66,2.66,0,0,1-.29,2.73,6,6,0,0,1-2.63,1.79Z" transform="translate(0 -0.18)"/><path class="cls-1" d="M202.52,84.5,194.3,86l.22.68.06.8,3.79-.7v.16l-1.51,1.93c-.52.63-1.05,1.24-1.6,1.81l-.08.09.22.75.11,1.22,3.38-4.12a3.76,3.76,0,0,0,1,1.42,2,2,0,0,0,1.67.45,1.74,1.74,0,0,0,1.34-1,3.65,3.65,0,0,0,.1-2.19Zm-.78,1.67L202,87.6a1.55,1.55,0,0,1-.08,1,1,1,0,0,1-.75.45,1.09,1.09,0,0,1-1-.26,1.84,1.84,0,0,1-.55-1.05l-.21-1.14Z" transform="translate(0 -0.18)"/><path class="cls-1" d="M206.35,86.79a7.39,7.39,0,0,0-3.13-4.85,7.2,7.2,0,0,0-5.62-1.23,7.55,7.55,0,0,0-3,13.57,7.21,7.21,0,0,0,4.24,1.38,8.26,8.26,0,0,0,1.5-.14,7.3,7.3,0,0,0,4.85-3.13A7.21,7.21,0,0,0,206.35,86.79ZM203.9,91.5A6,6,0,0,1,200,94a6.45,6.45,0,0,1-1.17.11,6,6,0,0,1-3.34-1,5.82,5.82,0,0,1-1.69-8.06l.17-.24a6,6,0,0,1,3.87-2.51,6.13,6.13,0,0,1,1.13-.11,6,6,0,0,1,3.37,1.06A5.71,5.71,0,0,1,204.92,87a5.62,5.62,0,0,1-1,4.5Z" transform="translate(0 -0.18)"/><path class="cls-1" d="M71.38,114.43A14.6,14.6,0,0,1,66,119.26a16.14,16.14,0,0,1-7.74,1.89,15.4,15.4,0,0,1-7.36-2A14.56,14.56,0,0,1,45.7,114a14.24,14.24,0,0,1-1.85-7.15A14.57,14.57,0,0,1,45.64,100a13.52,13.52,0,0,1,4.81-5.15,14.71,14.71,0,0,1,7.26-2.27,16.92,16.92,0,0,1,8.06,1.81,13.57,13.57,0,0,1,5.43,5.17l.13.21H78l-.24-.59a18.48,18.48,0,0,0-8-9.48A24,24,0,0,0,57.7,86.59a21.67,21.67,0,0,0-13.51,5.54,19.26,19.26,0,0,0-4.56,6.33,20.7,20.7,0,0,0-1.79,8.37v1h0A18.66,18.66,0,0,0,39.53,115a20.1,20.1,0,0,0,4.72,6.4,22.15,22.15,0,0,0,6.66,4.18A20.77,20.77,0,0,0,58.52,127c8.6,0,15.08-4.08,19.24-12.12l.32-.62H71.5Z" transform="translate(0 -0.18)"/><path class="cls-1" d="M116.45,93.91c-3.11-4.68-7.95-7.13-14.42-7.29a20.42,20.42,0,0,0-7.49,1.43,20.9,20.9,0,0,0-6.66,4.11,19.83,19.83,0,0,0-4.7,6.5,20.89,20.89,0,0,0-1.82,8.45A19.65,19.65,0,0,0,83,115.17a18.47,18.47,0,0,0,4.51,6.25A20.86,20.86,0,0,0,94,125.49a21.7,21.7,0,0,0,7.57,1.49h0a19.48,19.48,0,0,0,9.32-2.19,14.88,14.88,0,0,0,5.53-4.81v6.22h5.86V87.63h-5.86Zm-1.92,19.95a14.94,14.94,0,0,1-12.91,7.29,14.29,14.29,0,0,1-6.89-2,13.77,13.77,0,0,1-5.24-5.29,15.67,15.67,0,0,1-2-8,11.85,11.85,0,0,1,1.89-6,15.44,15.44,0,0,1,5.29-5.24,14.34,14.34,0,0,1,7.65-2.1,15.09,15.09,0,0,1,7.14,2.14,14.41,14.41,0,0,1,5.14,5.24,14.08,14.08,0,0,1,1.86,7.12A13,13,0,0,1,114.53,113.86Z" transform="translate(0 -0.18)"/><path class="cls-1" d="M132.71,92.38V87.86h-5.65v38.73H133V102.91a8.4,8.4,0,0,1,.93-3.84A10.09,10.09,0,0,1,136.38,96a11.93,11.93,0,0,1,3.42-2.09,9.53,9.53,0,0,1,3.55-.74h.43V87h-.43C138.51,87,135,88.81,132.71,92.38Z" transform="translate(0 -0.18)"/><path class="cls-1" d="M107.42,27A79.54,79.54,0,1,0,187,106.5h0A79.63,79.63,0,0,0,107.42,27Zm0,155.65A76.11,76.11,0,1,1,181.07,87.3H161.56c.19-2.61,1.07-4.61,2.47-5.54a11.92,11.92,0,0,1,6.64-1.67h.43V74.41h-.43c-9.61,0-14.62,4.35-15,12.9H147v5.95h8.73v33h6v-33H182.4a76,76,0,0,1-74.93,89.35Z" transform="translate(0 -0.18)"/><polygon class="cls-1" points="185.74 170.63 184.35 161.44 175.33 159.2 183.63 155.04 182.98 145.76 189.51 152.38 198.12 148.89 193.85 157.14 199.83 164.26 190.66 162.74 185.74 170.63"/><polygon class="cls-1" points="151.37 199.05 154.29 190.23 147.27 184.14 156.56 184.2 160.18 175.63 163 184.49 172.26 185.29 164.7 190.71 166.81 199.76 159.33 194.25 151.37 199.05"/><polygon class="cls-1" points="109 215.82 105.78 207.1 96.49 206.73 103.79 200.97 101.27 192.02 109 197.18 116.74 192.02 114.22 200.97 121.51 206.73 112.22 207.1 109 215.82"/><polygon class="cls-1" points="65.86 198.98 57.88 194.23 50.42 199.78 52.48 190.72 44.89 185.34 54.15 184.49 56.91 175.62 60.58 184.16 69.87 184.04 62.88 190.18 65.86 198.98"/><polygon class="cls-1" points="29.23 170.55 24.68 162.44 15.45 163.52 21.76 156.7 17.88 148.25 26.32 152.14 33.16 145.84 32.06 155.08 40.17 159.63 31.05 161.44 29.23 170.55"/><polygon class="cls-1" points="206.15 129.4 200.85 121.76 191.77 123.72 197.4 116.33 192.72 108.29 201.5 111.35 207.7 104.43 207.5 113.73 216 117.47 207.09 120.15 206.15 129.4"/><polygon class="cls-1" points="10.76 128.82 9.09 119.68 0 117.72 8.18 113.31 7.24 104.05 13.97 110.47 22.47 106.71 18.45 115.1 24.65 122.02 15.43 120.79 10.76 128.82"/><path class="cls-1" d="M58,139.84c.91,2.49,2.33,5.93,2.76,7a1.76,1.76,0,0,0,1.37,1.27c.39.15.53.39.53.58s-.26.25-.55.25c-.65,0-1.76-.09-2.6-.09s-1.06.07-1.66.07c-.43,0-.58-.17-.58-.29a.75.75,0,0,1,.5-.53c.67-.24.68-.53.57-.94a13.24,13.24,0,0,0-.52-1.39.54.54,0,0,0-.45-.26,27.06,27.06,0,0,0-2.86,0,.56.56,0,0,0-.27.26,7.48,7.48,0,0,0-.41,1.59c0,.27.17.53.8.74.22.09.45.19.45.39s-.21.4-.65.4c-.19,0-.68-.05-1.22-.05s-1.2.09-1.88.09c-.36,0-.62-.14-.62-.34s.14-.34.51-.46a2,2,0,0,0,1.46-1.3c.46-1,1.87-4.54,2.83-7.09a1,1,0,0,0,.07-.39.43.43,0,0,1,.15-.22c.21-.14.87-.58,1.06-.74a.87.87,0,0,1,.41-.19C57.44,138.18,57.53,138.7,58,139.84Zm-.72,4.39a28.8,28.8,0,0,0-1.16-3.1.13.13,0,0,0-.18,0l0,0a29.1,29.1,0,0,0-1.13,3.1.18.18,0,0,0,.16.2h2.24a.17.17,0,0,0,.08-.2Z" transform="translate(0 -0.18)"/><path class="cls-1" d="M71.46,138.49a10.92,10.92,0,0,0,1.15.31.43.43,0,0,1,.29.31c0,.51.14,1.44.14,1.87s-.27.74-.5.74-.24-.19-.36-.51a2.45,2.45,0,0,0-1-1.58,3.17,3.17,0,0,0-4.27.46,5.16,5.16,0,0,0-1.2,3.33,6,6,0,0,0,.94,3.2,4,4,0,0,0,3,1.58,4.53,4.53,0,0,0,1.63-.46,3.79,3.79,0,0,0,.91-1.1c.31-.53.48-.74.65-.74s.34.29.34.65c0,.15-.32,1.28-.34,1.61a1.26,1.26,0,0,1-.24.34,9.69,9.69,0,0,1-3.25.65,6.66,6.66,0,0,1-5-1.87A5.11,5.11,0,0,1,63,143.75a5.27,5.27,0,0,1,2.35-4.47,7.57,7.57,0,0,1,4.08-1.1A8.1,8.1,0,0,1,71.46,138.49Z" transform="translate(0 -0.18)"/><path class="cls-1" d="M83.46,138.49a10.83,10.83,0,0,0,1.15.31.44.44,0,0,1,.29.31c0,.51.14,1.44.14,1.87s-.27.74-.5.74-.24-.19-.36-.51a2.45,2.45,0,0,0-1-1.58,3.17,3.17,0,0,0-4.27.46,5.16,5.16,0,0,0-1.2,3.33,6,6,0,0,0,.94,3.2,4,4,0,0,0,3,1.58,4.53,4.53,0,0,0,1.63-.46,3.78,3.78,0,0,0,.91-1.1c.31-.53.48-.74.65-.74s.34.29.34.65c0,.15-.32,1.28-.34,1.61a1.25,1.25,0,0,1-.24.34,9.7,9.7,0,0,1-3.25.65,6.67,6.67,0,0,1-5-1.87A5.11,5.11,0,0,1,75,143.75a5.27,5.27,0,0,1,2.35-4.47,7.56,7.56,0,0,1,4.08-1.1A8.1,8.1,0,0,1,83.46,138.49Z" transform="translate(0 -0.18)"/><path class="cls-1" d="M94.76,143a6,6,0,0,1-.92.55c-.07.05,0,.31,0,.41a21.54,21.54,0,0,0,2,3,3.67,3.67,0,0,0,1.76,1.29c.17.05.34.2.34.34,0,.4-.62.52-1,.52a4,4,0,0,1-3.61-1.71c-.62-.81-1.25-1.85-1.68-2.52a1,1,0,0,0-1-.55c-.12,0-.17.19-.17.26a22.41,22.41,0,0,0,.07,2.54c.07.6.24.7,1,1,.31.14.5.29.5.45s-.34.39-.63.39-1.59-.07-2.19-.07-1.18.07-1.82.07c-.41,0-.63-.17-.63-.34s.22-.36.55-.46c.68-.2.87-.33.91-1.18V142.9a21.76,21.76,0,0,0-.09-2.76c0-.34-.22-.63-.87-.75-.31-.07-.51-.29-.51-.43s.34-.4.72-.4h1.44c1,0,1.83-.09,2.91-.09a4.28,4.28,0,0,1,2.65.63,2.57,2.57,0,0,1,1.1,2.14A2.52,2.52,0,0,1,94.76,143Zm-3.65-3.72a1.67,1.67,0,0,0-.53.14.35.35,0,0,0-.14.31v3.36a.39.39,0,0,0,.14.27,2.45,2.45,0,0,0,.86.16,3.14,3.14,0,0,0,1.25-.52,2.33,2.33,0,0,0,.51-1.52,2.07,2.07,0,0,0-1.91-2.21h-.18Z" transform="translate(0 -0.18)"/><path class="cls-1" d="M104.33,138.53a13.15,13.15,0,0,0,2.28-.08.38.38,0,0,1,.38.15,8.54,8.54,0,0,1,.24,1.82c0,.36-.17.51-.29.51-.28,0-.45-.21-.7-.75s-.57-.74-.67-.74c-1,0-2.06.05-2.3.05-.07,0-.2.19-.2.27,0,.38-.07,1.71-.07,2.9,0,.22.07.44.17.46a7.32,7.32,0,0,0,1.1,0c.89-.05,1.13-.31,1.32-.75.1-.29.26-.48.43-.48s.38.24.34.72v2c0,.46-.21.63-.36.63s-.34-.16-.48-.5-.26-.56-.62-.6c-.7,0-.93-.07-1.7-.07-.09,0-.21.26-.21.58a16.28,16.28,0,0,0,.07,2.07,1.67,1.67,0,0,0,.17.79,2.86,2.86,0,0,0,1.87.45,2.67,2.67,0,0,0,1.2-.24,2.17,2.17,0,0,0,.94-.92c.29-.41.45-.75.7-.75s.38.48.31.83a13.4,13.4,0,0,1-.58,1.69c-.05.17-.43.33-.51.33-.38,0-1-.09-4.13-.09-1.08,0-2.89.07-3.63.07-.38,0-.62-.12-.62-.24a.68.68,0,0,1,.51-.53c1.17-.29,1.25-.62,1.29-1,.05-.7.07-1.1.07-3.15a36.57,36.57,0,0,0-.07-3.91c-.09-.52-.34-.69-1-.86-.39-.1-.5-.31-.5-.43s.31-.33.53-.33,1.85.08,3,.08Z" transform="translate(0 -0.18)"/><path class="cls-1" d="M119.4,139.83a4.83,4.83,0,0,1,1.75,3.8,5.1,5.1,0,0,1-2.64,4.52,8,8,0,0,1-3.82.82c-.7,0-2.47-.14-3-.14s-1.4,0-2.07.07a.25.25,0,0,1-.27-.22A.86.86,0,0,1,110,148c.53-.14.93-.16,1-.93a29.6,29.6,0,0,0,.12-3.84,20.57,20.57,0,0,0-.09-3.33c0-.19-.09-.46-.94-.62-.41-.08-.63-.26-.63-.46s.27-.36.75-.36h1.25c.6,0,2.14-.12,3.34-.12A6.92,6.92,0,0,1,119.4,139.83Zm-5.59-.43a.8.8,0,0,0-.26.39c0,.53-.09,1.47-.09,2.76v1.2a18.36,18.36,0,0,0,.12,3,1.54,1.54,0,0,0,.46,1,3.31,3.31,0,0,0,1.22.43,4,4,0,0,0,2.14-1,4.82,4.82,0,0,0,1.15-3.38,4.64,4.64,0,0,0-1.22-3.37,3.82,3.82,0,0,0-2.57-1.13,3.76,3.76,0,0,0-.94.1Z" transform="translate(0 -0.18)"/><path class="cls-1" d="M123.92,141c0-1.46-.07-1.63-1-1.85-.29-.07-.45-.26-.45-.41s.36-.32.57-.32,1.25.07,2,.07c1,0,1.75-.05,2.24-.05.24,0,.5.14.5.33s-.27.32-.41.36c-.89.2-.94.43-1,1.3s-.07,2.35-.07,3.51v2.84c0,.82.17,1.1,1.08,1.32.33.09.52.24.52.44s-.38.31-.59.31-1.69-.05-2.28-.05-1.77.09-2.07.09-.55-.09-.55-.31.26-.38.5-.44c.74-.26.86-.45.92-.91a27,27,0,0,0,.09-2.79Z" transform="translate(0 -0.18)"/><path class="cls-1" d="M137.76,138.53c1,0,1.33-.1,1.44-.21s.36-.36.48-.36.48.24.48.46a17.67,17.67,0,0,0-.21,2.33.6.6,0,0,1-.51.63c-.22,0-.34-.36-.38-.51-.25-1.11-.56-1.2-1.13-1.27a12.28,12.28,0,0,0-2-.09c-.09,0-.15.14-.17.29,0,.31-.12,2.55-.12,3.63s0,2.31.05,3.05c.09,1.25.38,1.28,1.13,1.57.31.12.59.24.59.45s-.35.41-.69.41c-.17,0-1.85-.09-2.88-.09-.65,0-1.42.05-1.88.05s-.65-.16-.65-.41.17-.34.55-.44c1.1-.29,1.39-.46,1.39-1.47,0-.36.05-2.48.05-4.11v-2.57c0-.17-.14-.36-.19-.36H131.3c-.35,0-.87.07-1.32,1.29-.1.29-.29.51-.46.51s-.45-.29-.43-.7.17-1.3.17-2.19a.51.51,0,0,1,.43-.48.73.73,0,0,1,.33.19,1.53,1.53,0,0,0,1,.34h1.3Z" transform="translate(0 -0.18)"/><path class="cls-1" d="M146.85,138.53a13.15,13.15,0,0,0,2.28-.08.38.38,0,0,1,.38.15,8.47,8.47,0,0,1,.24,1.82c0,.36-.17.51-.29.51-.27,0-.44-.21-.7-.75s-.57-.74-.67-.74c-1,0-2.06.05-2.3.05-.06,0-.2.19-.2.27,0,.38-.07,1.71-.07,2.9,0,.22.07.44.17.46a7.28,7.28,0,0,0,1.09,0c.89-.05,1.13-.31,1.32-.75.11-.29.26-.48.43-.48s.38.24.34.72v2c0,.46-.21.63-.36.63s-.34-.16-.48-.5-.26-.56-.62-.6c-.7,0-.92-.07-1.69-.07-.09,0-.21.26-.21.58a16.28,16.28,0,0,0,.07,2.07,1.66,1.66,0,0,0,.17.79,2.86,2.86,0,0,0,1.87.45,2.66,2.66,0,0,0,1.2-.24,2.17,2.17,0,0,0,.94-.92c.29-.41.45-.75.7-.75s.38.48.31.83a13.74,13.74,0,0,1-.58,1.69c-.05.17-.43.33-.52.33-.38,0-1-.09-4.13-.09-1.08,0-2.9.07-3.63.07-.38,0-.62-.12-.62-.24a.7.7,0,0,1,.52-.53c1.16-.29,1.25-.62,1.28-1,.05-.7.07-1.1.07-3.15a36.57,36.57,0,0,0-.07-3.91c-.08-.52-.34-.69-1-.86-.4-.1-.5-.31-.5-.43s.31-.33.53-.33,1.85.08,3,.08Z" transform="translate(0 -0.18)"/><path class="cls-1" d="M161.92,139.83a4.83,4.83,0,0,1,1.75,3.8,5.1,5.1,0,0,1-2.64,4.52,8,8,0,0,1-3.82.82c-.7,0-2.47-.14-3-.14s-1.4,0-2.07.07a.25.25,0,0,1-.27-.22.86.86,0,0,1,.67-.65c.53-.14.92-.16,1-.93a29.23,29.23,0,0,0,.12-3.84,20.3,20.3,0,0,0-.09-3.33c0-.19-.09-.46-.94-.62-.41-.08-.63-.26-.63-.46s.28-.36.75-.36H154c.6,0,2.14-.12,3.34-.12A6.92,6.92,0,0,1,161.92,139.83Zm-5.58-.43a.79.79,0,0,0-.26.39c0,.53-.09,1.47-.09,2.76v1.2a17.83,17.83,0,0,0,.12,3,1.53,1.53,0,0,0,.46,1,3.33,3.33,0,0,0,1.22.43,4,4,0,0,0,2.14-1,4.81,4.81,0,0,0,1.15-3.38,4.64,4.64,0,0,0-1.22-3.37,3.83,3.83,0,0,0-2.57-1.13,3.75,3.75,0,0,0-1,.1Z" transform="translate(0 -0.18)"/></svg>