<svg xmlns="http://www.w3.org/2000/svg" width="512" height="256" viewBox="0 0 512 256">
  <g fill="#4A4A4A" fill-rule="evenodd">
    <path d="M111.837891,80.9109901 C111.837891,81.3667215 111.780925,81.9201014 111.666992,82.5711463 C111.553059,83.2221912 111.382163,83.8976402 111.154297,84.5975135 C110.926431,85.2973868 110.674155,85.9646978 110.397461,86.5994666 C110.120767,87.2342354 109.803387,87.7469256 109.445312,88.1375526 L109.494141,88.1375526 C108.452469,89.3745379 105.994811,89.9930213 102.121094,89.9930213 C102.121094,88.5932747 102.064128,87.3807218 101.950195,86.355326 C101.836262,85.3299303 101.64909,84.5079984 101.388672,83.8895057 C101.160806,83.3686698 100.753909,82.929221 100.167969,82.5711463 C99.5820283,82.2130716 98.9228552,81.9201058 98.1904297,81.6922401 C97.4580042,81.4643744 96.7174517,81.2934776 95.96875,81.1795448 C95.2200483,81.0656119 94.5690132,81.0086463 94.015625,81.0086463 C92.6158784,81.0086463 91.2487046,81.0411981 89.9140625,81.1063026 C88.5794204,81.1714071 87.2692122,81.3016141 85.9833984,81.4969276 C84.6975847,81.6922411 83.3955144,81.968931 82.0771484,82.3270057 C80.7587825,82.6850804 79.4160225,83.140805 78.0488281,83.6941932 C77.0722607,84.0848202 76.0387424,84.5730965 74.9482422,85.1590369 C73.8577419,85.7449774 72.8404995,86.4041505 71.8964844,87.136576 C70.9524692,87.8690015 70.1468132,88.6665196 69.4794922,89.5291541 C68.8121711,90.3917887 68.3971362,91.3113758 68.234375,92.2879432 L68.2832031,92.1902869 C68.2832031,92.9715409 68.5436172,93.8423004 69.0644531,94.8025916 C69.5852891,95.7628829 70.2932898,96.7068839 71.1884766,97.6346229 C72.0836633,98.5623619 73.1171816,99.4087076 74.2890625,100.173685 C75.4609434,100.938663 76.6979102,101.500181 78,101.858256 C78.0976567,101.890808 78.3743467,101.988463 78.8300781,102.151224 C79.2858096,102.313986 79.8391895,102.501158 80.4902344,102.712748 C81.1412793,102.924337 81.8330042,103.160338 82.5654297,103.420756 C83.2978552,103.681174 83.9814421,103.917174 84.6162109,104.128764 C85.2509797,104.340353 85.7880837,104.519388 86.2275391,104.665873 C86.6669944,104.812358 86.9192705,104.901875 86.984375,104.934428 C94.5364961,106.85501 100.135398,109.166185 103.78125,111.868021 C107.427102,114.569858 109.25,117.890137 109.25,121.828959 C109.25,123.098496 108.97331,124.359877 108.419922,125.613139 C107.866534,126.8664 107.166671,128.062677 106.320312,129.202006 C105.473954,130.341334 104.554367,131.391129 103.561523,132.35142 C102.56868,133.311711 101.632817,134.117367 100.753906,134.768412 L100.802734,134.719584 C99.8587192,135.468285 98.7926492,136.233252 97.6044922,137.014506 C96.4163352,137.79576 95.1386787,138.560726 93.7714844,139.309428 C92.40429,140.058129 90.9882886,140.757992 89.5234375,141.409037 C88.0585864,142.060082 86.5612056,142.629738 85.03125,143.118021 C83.5989512,143.573753 82.0934324,144.005064 80.5146484,144.411967 C78.9358645,144.81887 77.3652422,145.168801 75.8027344,145.461771 C74.2402266,145.754742 72.7347078,145.982604 71.2861328,146.145365 C69.8375579,146.308126 68.5273496,146.389506 67.3554688,146.389506 C66.7369761,146.389506 65.9801477,146.316264 65.0849609,146.169779 C64.1897742,146.023294 63.2457732,145.819846 62.2529297,145.559428 C61.2600862,145.29901 60.2672576,144.989768 59.2744141,144.631693 C58.2815706,144.273618 57.3945352,143.866722 56.6132812,143.41099 C55.8320273,142.955259 55.1972681,142.466982 54.7089844,141.946146 C54.2207007,141.42531 53.9765625,140.871931 53.9765625,140.28599 C53.9765625,139.765154 54.0742178,139.130395 54.2695312,138.381693 C54.4648447,137.632992 54.7496726,136.908715 55.1240234,136.208842 C55.4983743,135.508968 55.937823,134.906761 56.4423828,134.402201 C56.9469426,133.897641 57.4921846,133.645365 58.078125,133.645365 C58.8919312,133.645365 59.6568975,133.74302 60.3730469,133.938334 C61.0891963,134.133647 61.8948523,134.353372 62.7900391,134.597514 C63.6852258,134.841655 64.7268821,135.069518 65.9150391,135.281107 C67.103196,135.492697 68.5761631,135.59849 70.3339844,135.59849 C72.0918057,135.59849 73.922842,135.411317 75.8271484,135.036967 C77.7314548,134.662616 79.6113188,134.158064 81.4667969,133.523295 C83.3222749,132.888526 85.0963457,132.164249 86.7890625,131.350443 C88.4817793,130.536637 90.0117119,129.690291 91.3789062,128.811381 C91.9648467,128.420754 92.6077439,127.973167 93.3076172,127.468607 C94.0074905,126.964047 94.6585256,126.410668 95.2607422,125.808451 C95.8629587,125.206234 96.367511,124.579613 96.7744141,123.928568 C97.1813171,123.277523 97.3847656,122.610212 97.3847656,121.926615 C97.3847656,121.145361 96.798834,120.396671 95.6269531,119.680521 L95.6269531,119.729349 C93.9016841,118.687678 92.1927168,117.89016 90.5,117.336771 C88.8072832,116.783383 87.3261782,116.327659 86.0566406,115.969584 C82.4758936,115.058121 78.113958,113.609568 72.9707031,111.623881 L73.0195312,111.623881 C70.871083,110.777522 68.7877705,109.687038 66.7695312,108.352396 C64.751292,107.017754 63.0097729,105.618029 61.5449219,104.153178 C58.2896973,100.539878 56.6621094,96.3732533 56.6621094,91.6531776 C56.6621094,89.7976995 57.1829375,87.991077 58.2246094,86.2332557 C59.2662812,84.4754344 60.6822827,82.8234327 62.4726562,81.277201 C64.2630298,79.7309693 66.3382043,78.3068299 68.6982422,77.0047401 C71.05828,75.7026502 73.5729033,74.5877525 76.2421875,73.6600135 C78.9114717,72.7322745 81.6376814,72.0079979 84.4208984,71.4871619 C87.2041155,70.966326 89.8977734,70.7059119 92.5019531,70.7059119 C93.3157593,70.7059119 94.3330017,70.7628775 95.5537109,70.8768104 C96.7744202,70.9907432 98.0276628,71.153502 99.3134766,71.3650916 C100.59929,71.5766812 101.828119,71.8370953 103,72.1463416 C104.171881,72.455588 105.099606,72.8055194 105.783203,73.1961463 L105.734375,73.1961463 C107.622405,74.205266 109.111648,75.409681 110.202148,76.8094276 C111.292649,78.2091742 111.837891,79.576348 111.837891,80.9109901 L111.837891,80.9109901 Z M173.653464,95.0711463 C173.653464,96.2430272 173.506981,97.5125457 173.21401,98.8797401 C172.92104,100.246934 172.546695,101.695488 172.090964,103.225443 C171.635232,104.755399 171.13068,106.366711 170.577292,108.059428 C170.023903,109.752144 169.470524,111.509939 168.917135,113.332865 C167.549941,117.759971 166.272285,122.024251 165.084128,126.125834 C163.895971,130.227417 162.846176,134.019697 161.934714,137.502787 C161.023251,140.985877 160.307112,144.102708 159.786276,146.853373 C159.26544,149.604038 159.005026,151.841971 159.005026,153.56724 C159.005026,153.957867 159.053854,154.356626 159.15151,154.763529 C159.249167,155.170432 159.297995,155.504088 159.297995,155.764506 C159.297995,155.992371 159.143374,156.537613 158.834128,157.400248 C158.524881,158.262882 158.166812,159.18247 157.759909,160.159037 C157.353006,161.135604 156.937971,162.038916 156.514792,162.868998 C156.091612,163.69908 155.782371,164.21177 155.587057,164.407084 C155.391744,164.667502 155.009261,164.887226 154.439596,165.066264 C153.869932,165.245301 153.145655,165.334818 152.266745,165.334818 C148.620893,165.334818 146.797995,163.446816 146.797995,159.670756 C146.797995,158.498875 146.93634,157.099149 147.213034,155.471537 C147.489728,153.843925 147.823383,152.175647 148.21401,150.466654 C148.604637,148.757661 149.003396,147.113797 149.410299,145.535014 C149.817203,143.95623 150.150858,142.646021 150.411276,141.604349 C150.574037,141.050961 150.818175,140.261581 151.143698,139.236185 C151.46922,138.21079 151.859841,137.055202 152.315573,135.769389 C152.771304,134.483575 153.259581,133.116401 153.780417,131.667826 C154.301253,130.219251 154.838357,128.795112 155.391745,127.395365 C155.945133,125.995618 156.490375,124.677272 157.027487,123.440287 C157.564599,122.203302 158.044737,121.161645 158.467917,120.315287 C157.36114,121.910347 155.928863,123.464693 154.171042,124.978373 C152.41322,126.492052 150.51708,127.826674 148.482565,128.982279 C146.44805,130.137884 144.397289,131.065609 142.330221,131.765482 C140.263154,132.465356 138.38329,132.815287 136.690573,132.815287 C134.704886,132.815287 132.881987,132.440942 131.221823,131.69224 C129.561658,130.943538 128.137519,129.958848 126.949362,128.738139 C125.761205,127.517429 124.841618,126.125842 124.190573,124.563334 C123.539528,123.000826 123.21401,121.389514 123.21401,119.729349 C123.21401,118.42726 123.344217,117.019396 123.604635,115.505717 C123.865053,113.992037 124.223123,112.348173 124.678854,110.574076 C125.134586,108.799979 125.696103,106.855011 126.363424,104.739115 C127.030746,102.623219 127.771298,100.32832 128.585104,97.8543494 C128.910627,96.8777821 129.203592,95.9581949 129.46401,95.0955604 C129.724428,94.2329259 130.066222,93.4679596 130.489401,92.8006385 C130.91258,92.1333175 131.449684,91.6043514 132.100729,91.2137244 C132.751774,90.8230975 133.614396,90.6277869 134.68862,90.6277869 C136.348784,90.6277869 137.553199,91.1486151 138.301901,92.1902869 C139.050603,93.2319588 139.424948,94.5340291 139.424948,96.0965369 C139.424948,97.3335223 139.164534,98.8390411 138.643698,100.613139 C138.122862,102.387236 137.439275,104.494962 136.592917,106.936381 C135.779111,109.182486 135.144351,111.111177 134.68862,112.722514 C134.232888,114.33385 134.005026,115.709161 134.005026,116.84849 C134.005026,118.801625 134.281716,120.315282 134.835104,121.389506 C135.388492,122.46373 136.299942,123.000834 137.569479,123.000834 C139.001778,123.000834 140.491021,122.724144 142.037253,122.170756 C143.583484,121.617368 145.137831,120.868677 146.700339,119.924662 C148.262846,118.980647 149.792779,117.857611 151.290182,116.555521 C152.787586,115.253431 154.179173,113.869982 155.464987,112.405131 C156.750801,110.94028 157.906388,109.410347 158.931784,107.815287 C159.95718,106.220227 160.779111,104.641467 161.397604,103.078959 C162.016097,101.549003 162.536925,99.970243 162.960104,98.3426307 C163.383283,96.7150184 163.847146,95.2339134 164.351706,93.8992713 C164.856266,92.5646292 165.482887,91.4578695 166.231589,90.5789588 C166.98029,89.7000482 167.973119,89.2605994 169.210104,89.2605994 C170.186672,89.2605994 170.967914,89.4233582 171.553854,89.7488807 C172.139795,90.0744032 172.587381,90.5138519 172.896628,91.0672401 C173.205874,91.6206283 173.409322,92.2391117 173.506979,92.9227088 C173.604636,93.606306 173.653464,94.3224447 173.653464,95.0711463 L173.653464,95.0711463 Z M265.254193,113.625834 C265.775029,113.625834 266.141236,113.690937 266.352826,113.821146 C266.564415,113.951355 266.670208,114.260597 266.670208,114.748881 C266.670208,115.985866 266.263311,117.27166 265.449505,118.606303 C264.635699,119.940945 263.520801,121.234877 262.104779,122.488139 C260.688756,123.7414 259.036754,124.929539 257.148724,126.052592 C255.260694,127.175644 253.250623,128.168473 251.118451,129.031107 C248.986278,129.893742 246.797173,130.569191 244.551068,131.057474 C242.304963,131.545758 240.091443,131.789896 237.910443,131.789896 C235.436472,131.789896 233.27178,131.415551 231.416302,130.666849 C229.560824,129.918148 227.95765,128.941595 226.606732,127.737162 C225.255814,126.532729 224.12464,125.157417 223.213177,123.611185 C222.301714,122.064954 221.553024,120.478056 220.967083,118.850443 C220.381143,117.222831 219.91728,115.635933 219.575482,114.089701 C219.233683,112.543469 218.948855,111.168158 218.72099,109.963724 C218.655885,109.638202 218.590782,109.304546 218.525677,108.962748 C218.460573,108.620949 218.23271,108.450053 217.842083,108.450053 C217.64677,108.450053 217.313114,108.783708 216.841107,109.451029 C216.369099,110.11835 215.823857,110.964696 215.205365,111.990092 C214.586872,113.015487 213.935837,114.154799 213.25224,115.40806 C212.568642,116.661322 211.933883,117.890151 211.347943,119.094584 C210.241166,121.340689 209.085579,123.611174 207.881146,125.906107 C206.676713,128.201041 205.399056,130.268077 204.048138,132.107279 C202.69722,133.946481 201.240529,135.452 199.678021,136.623881 C198.115513,137.795762 196.422822,138.381693 194.599896,138.381693 C192.907179,138.381693 191.556281,137.836451 190.547161,136.745951 C189.538042,135.655451 188.781213,134.255725 188.276654,132.546732 C187.772094,130.837739 187.446576,128.909048 187.300091,126.760599 C187.153606,124.612151 187.080365,122.496287 187.080365,120.412943 C187.080365,117.90642 187.112916,115.660349 187.178021,113.674662 C187.243125,111.688975 187.275677,109.703318 187.275677,107.717631 C187.275677,106.480645 187.454712,105.308782 187.812786,104.202006 C188.170861,103.095229 188.642862,102.118677 189.228802,101.272318 C189.814743,100.42596 190.473916,99.7586488 191.206341,99.2703651 C191.938767,98.7820814 192.679319,98.5379432 193.428021,98.5379432 C194.209275,98.5379432 194.966103,98.6030467 195.698529,98.7332557 C196.430954,98.8634647 197.081989,99.1482926 197.651654,99.5877479 C198.221318,100.027203 198.668905,100.678238 198.994427,101.540873 C199.31995,102.403507 199.482708,103.567233 199.482708,105.032084 C199.482708,106.496935 199.360639,108.002454 199.116497,109.548685 C198.872356,111.094917 198.603804,112.746919 198.310833,114.50474 C198.017863,116.262561 197.741173,118.174977 197.480755,120.242045 C197.220337,122.309112 197.073854,124.628425 197.041302,127.200053 C197.464481,126.776873 197.969034,126.093286 198.554974,125.149271 C199.140914,124.205256 199.767536,123.12291 200.434857,121.902201 C201.102178,120.681492 201.761351,119.395697 202.412396,118.044779 C203.063441,116.693861 203.681924,115.399929 204.267865,114.162943 C205.79782,110.842614 207.246373,107.986197 208.613568,105.593607 C209.980762,103.201017 211.421177,101.239774 212.934857,99.7098182 C214.448536,98.1798626 216.0924,97.048689 217.866497,96.3162635 C219.640595,95.583838 221.715769,95.2176307 224.092083,95.2176307 C224.710576,95.2176307 225.272094,95.3803895 225.776654,95.7059119 C226.281213,96.0314344 226.720662,96.4464693 227.095013,96.9510291 C227.469364,97.455589 227.754192,98.0333827 227.949505,98.6844276 C228.144819,99.3354725 228.242474,99.9865077 228.242474,100.637553 C228.242474,104.381061 228.49475,107.595547 228.99931,110.281107 C229.50387,112.966668 230.309526,115.163911 231.416302,116.872904 C232.523078,118.581897 233.947218,119.83514 235.688763,120.63267 C237.430308,121.4302 239.538035,121.828959 242.012005,121.828959 C242.760707,121.763854 243.729122,121.641785 244.917279,121.462748 C246.105436,121.283711 247.399368,121.031434 248.799115,120.705912 C250.198861,120.380389 251.631139,119.957217 253.09599,119.436381 C254.560841,118.915545 255.94429,118.297061 257.24638,117.580912 C257.409141,117.483255 257.856728,117.222841 258.589154,116.799662 C259.321579,116.376483 260.135373,115.928896 261.03056,115.456889 C261.925747,114.984881 262.78023,114.561708 263.594036,114.187357 C264.407843,113.813006 264.961222,113.625834 265.254193,113.625834 L265.254193,113.625834 Z M281.268984,99.8563026 C281.268984,98.4240037 281.04926,97.4148993 280.609805,96.8289588 C280.170349,96.2430184 279.673935,95.9500526 279.120547,95.9500526 C278.632263,95.9500526 278.062607,96.2430184 277.411563,96.8289588 C276.760518,97.4148993 276.085069,98.2042794 275.385195,99.1971229 C274.685322,100.189966 273.985459,101.345554 273.285586,102.66392 C272.585713,103.982286 271.934677,105.373873 271.332461,106.838724 C270.730244,108.303576 270.225692,109.809094 269.818789,111.355326 C269.411886,112.901558 269.127058,114.390801 268.964297,115.823099 C269.908312,115.041846 270.762796,114.333845 271.527773,113.699076 C272.292751,113.064307 273.017028,112.388858 273.700625,111.672709 C274.384222,110.989112 275.157326,110.150904 276.019961,109.15806 C276.882595,108.165217 277.704527,107.131699 278.485781,106.057474 C279.267035,104.98325 279.926208,103.909042 280.46332,102.834818 C281.000432,101.760594 281.268984,100.767765 281.268984,99.8563026 L281.268984,99.8563026 Z M318.866641,106.350443 C318.671327,106.903831 318.34581,107.554867 317.890078,108.303568 C316.620541,110.321807 315.033642,112.519051 313.129336,114.895365 C311.22503,117.271679 309.125441,119.639819 306.830508,121.999857 C304.535574,124.359895 302.077917,126.638518 299.457461,128.835795 C296.837005,131.033071 294.184037,132.978039 291.498477,134.670756 C288.812916,136.363472 286.135534,137.722508 283.46625,138.747904 C280.796966,139.7733 278.257929,140.28599 275.849063,140.28599 C272.789151,140.28599 270.119907,139.862817 267.84125,139.016459 C265.562593,138.1701 263.674591,136.941272 262.177188,135.329935 C260.679784,133.718599 259.556749,131.749218 258.808047,129.421732 C258.059345,127.094247 257.685,124.449416 257.685,121.487162 C257.685,119.241057 257.855897,116.864779 258.197695,114.358256 C258.539494,111.851733 259.166115,109.304558 260.077578,106.716654 C260.989041,104.128751 262.21787,101.52461 263.764102,98.9041541 C265.310333,96.2836983 267.287853,93.7527992 269.696719,91.3113807 C271.552197,89.4233504 273.55413,87.9910731 275.702578,87.0145057 C277.851026,86.0379383 279.901787,85.5496619 281.854922,85.5496619 C282.212997,85.5496619 282.668721,85.6229034 283.222109,85.7693885 C283.775498,85.9158736 284.328877,86.1193221 284.882266,86.3797401 C285.435654,86.640158 285.972758,86.9493997 286.493594,87.3074744 C287.01443,87.6655492 287.437603,88.0561702 287.763125,88.4793494 C288.804797,89.8139915 289.586039,91.0753722 290.106875,92.2635291 C290.627711,93.4516861 290.888125,94.7944461 290.888125,96.2918494 C290.888125,98.6356112 290.562607,100.751475 289.911563,102.639506 C289.260518,104.527536 288.373482,106.293469 287.25043,107.937357 C286.127377,109.581246 284.800893,111.168144 283.270938,112.698099 C281.740982,114.228055 280.097118,115.823091 278.339297,117.483256 C277.265073,118.492375 275.930451,119.590997 274.335391,120.779154 C272.740331,121.967311 271.031363,123.261243 269.208438,124.66099 C269.468855,125.67011 269.794373,126.540869 270.185,127.273295 C270.575627,128.00572 271.063903,128.616066 271.649844,129.104349 C272.235784,129.592633 272.943785,129.95884 273.773867,130.202982 C274.603949,130.447124 275.58864,130.569193 276.727969,130.569193 C278.257924,130.569193 279.89365,130.308779 281.635195,129.787943 C283.37674,129.267107 285.126397,128.599796 286.884219,127.78599 C288.414174,127.069841 289.927831,126.166529 291.425234,125.076029 C292.922638,123.985529 294.436294,122.854355 295.96625,121.682474 C296.910265,120.966325 298.122818,119.932807 299.603945,118.581889 C301.085073,117.23097 302.590591,115.823107 304.120547,114.358256 C305.162219,113.381688 306.203875,112.429549 307.245547,111.50181 C308.287219,110.574071 309.393979,109.540553 310.565859,108.401224 L313.15375,105.862162 C315.04178,104.332206 316.571713,103.56724 317.743594,103.56724 C318.362086,103.56724 318.752708,103.746275 318.915469,104.104349 C319.07823,104.462424 319.159609,104.804218 319.159609,105.12974 C319.159609,105.390158 319.061954,105.797055 318.866641,106.350443 Z M359.441979,102.834818 C359.441979,103.127788 359.376876,103.51841 359.246667,104.006693 C359.116458,104.494977 358.921147,104.983253 358.660729,105.471537 C358.400311,105.959821 358.066656,106.382993 357.659753,106.741068 C357.25285,107.099143 356.756435,107.294453 356.170495,107.327006 C356.040286,107.327006 355.763596,107.318868 355.340417,107.302592 C354.917237,107.286316 354.461513,107.261902 353.973229,107.229349 C353.484945,107.196797 353.029221,107.172383 352.606042,107.156107 C352.182862,107.139831 351.873621,107.131693 351.678307,107.131693 C346.242082,107.424663 341.538353,109.377769 337.566979,112.991068 C336.655516,113.804874 335.719653,114.765151 334.759362,115.871928 C333.799071,116.978704 332.85507,118.191257 331.927331,119.509623 C330.999592,120.827989 330.112556,122.235852 329.266198,123.733256 C328.41984,125.230659 327.654873,126.793143 326.971276,128.420756 C326.417888,129.755398 325.880784,131.13071 325.359948,132.546732 C324.839112,133.962755 324.383387,135.451998 323.99276,137.014506 C323.764895,137.860864 323.593998,138.601417 323.480065,139.236185 C323.366132,139.870954 323.17896,140.611507 322.918542,141.457865 C322.75578,141.978701 322.47909,142.426288 322.088464,142.800639 C321.697837,143.174989 321.242112,143.484231 320.721276,143.728373 C320.20044,143.972515 319.655198,144.159687 319.085534,144.289896 C318.51587,144.420105 317.954352,144.501485 317.400964,144.534037 C315.31762,144.534037 313.885342,143.590036 313.104089,141.702006 C312.322835,139.813975 311.932214,136.998248 311.932214,133.25474 C311.932214,132.408382 311.940351,131.610864 311.956628,130.862162 C311.972904,130.11346 312.005455,129.356632 312.054284,128.591654 C312.103112,127.826676 312.160078,127.029158 312.225182,126.199076 C312.290287,125.368994 312.371666,124.433131 312.469323,123.391459 C312.599532,121.861503 312.778567,120.046743 313.006432,117.947123 C313.234298,115.847503 313.478436,113.715363 313.738854,111.550639 C313.999272,109.385914 314.2841,107.294464 314.593346,105.276224 C314.902593,103.257985 315.219972,101.549018 315.545495,100.149271 C315.936122,98.4240023 316.595295,97.0731043 317.523034,96.0965369 C318.450773,95.1199696 319.809809,94.6316932 321.600182,94.6316932 C322.121018,94.6316932 322.649984,94.7700382 323.187096,95.0467323 C323.724208,95.3234264 324.204347,95.6570819 324.627526,96.0477088 C325.050705,96.4383358 325.408775,96.8615086 325.701745,97.3172401 C325.994715,97.7729715 326.157474,98.1798685 326.190026,98.5379432 L326.238854,99.4168494 C326.238854,100.328312 326.157475,101.40252 325.994714,102.639506 C325.831952,103.876491 325.612228,105.186699 325.335534,106.57017 C325.05884,107.95364 324.765874,109.353366 324.456628,110.769389 C324.147381,112.185411 323.83814,113.536309 323.528893,114.822123 C323.219647,116.107937 322.942957,117.296076 322.698815,118.386576 C322.454673,119.477076 322.267501,120.380388 322.137292,121.096537 C323.27662,118.687671 324.497311,116.368358 325.799401,114.138529 C327.101491,111.9087 328.501216,109.841664 329.99862,107.937357 C331.496023,106.033051 333.107335,104.332222 334.832604,102.834818 C336.557873,101.337415 338.413323,100.133 340.39901,99.2215369 C341.961518,98.5053875 343.393796,97.9601456 344.695885,97.5857948 C345.997975,97.2114439 347.169839,97.0242713 348.21151,97.0242713 C349.448496,97.0242713 350.726152,97.1544784 352.044518,97.4148963 C353.362884,97.6753143 354.567299,98.0577974 355.657799,98.5623573 C356.7483,99.0669171 357.651611,99.6772625 358.36776,100.393412 C359.08391,101.109561 359.441979,101.923355 359.441979,102.834818 L359.441979,102.834818 Z M399.138411,106.643412 C399.138411,108.336129 399.073308,110.395027 398.943099,112.82017 C398.81289,115.245312 398.617579,118.069177 398.357161,121.291849 C398.1944,123.277536 397.966538,125.613125 397.673568,128.298685 C397.380597,130.984246 397.01439,133.718593 396.574935,136.50181 C396.13548,139.285027 395.639065,141.994961 395.085677,144.631693 C394.532289,147.268425 393.913806,149.563324 393.230208,151.516459 C392.546611,153.437041 391.667714,155.25994 390.59349,156.985209 C389.519265,158.710478 388.241609,160.232273 386.760482,161.550639 C385.279355,162.869004 383.594801,163.910661 381.706771,164.675639 C379.818741,165.440616 377.735428,165.823099 375.456771,165.823099 C373.471084,165.823099 371.501702,165.554547 369.548568,165.017435 C367.595433,164.480323 365.739983,163.772323 363.982161,162.893412 C362.22434,162.014501 360.596752,161.013535 359.099349,159.890482 C357.601946,158.76743 356.299875,157.595566 355.193099,156.374857 C354.086323,155.154148 353.223701,153.941595 352.605208,152.737162 C351.986716,151.532729 351.677474,150.425969 351.677474,149.416849 C351.677474,147.496267 352.621475,146.53599 354.509505,146.53599 C354.965237,146.53599 355.380272,146.633645 355.754622,146.828959 C356.128973,147.024272 356.462629,147.252135 356.755599,147.512553 C357.048569,147.772971 357.317121,148.04966 357.561263,148.342631 C357.805405,148.635601 358.025129,148.879739 358.220443,149.075053 C359.652742,150.409695 361.060605,151.516454 362.444076,152.395365 C363.827546,153.274276 365.219134,153.982276 366.61888,154.519389 C368.018627,155.056501 369.442766,155.438984 370.891341,155.666849 C372.339916,155.894715 373.829159,156.008646 375.359115,156.008646 C377.247145,156.008646 378.793353,155.52037 379.997786,154.543803 C381.20222,153.567235 382.170634,152.297717 382.90306,150.735209 C383.635485,149.172701 384.205141,147.431182 384.612044,145.510599 C385.018947,143.590017 385.368879,141.702015 385.661849,139.846537 L385.661849,139.895365 C386.019924,137.551603 386.329165,135.289256 386.589583,133.108256 C386.850001,130.927255 387.061588,128.811391 387.224349,126.760599 C385.987364,128.095242 384.489983,129.332208 382.732161,130.471537 C380.97434,131.610866 379.127028,132.595556 377.190169,133.425639 C375.253311,134.255721 373.308343,134.906756 371.355208,135.378764 C369.402074,135.850771 367.595451,136.086771 365.935286,136.086771 C365.316794,136.086771 364.54369,136.005392 363.615951,135.842631 C362.688212,135.679869 361.809314,135.411317 360.979232,135.036967 C360.149149,134.662616 359.433011,134.158064 358.830794,133.523295 C358.228578,132.888526 357.927474,132.099146 357.927474,131.155131 C357.927474,129.299653 358.236716,127.159375 358.855208,124.734232 C359.473701,122.30909 360.263081,119.851432 361.223372,117.361185 C362.183664,114.870939 363.257872,112.478384 364.446029,110.183451 C365.634186,107.888518 366.814187,105.959826 367.986068,104.397318 C369.548576,102.24887 371.257543,100.295764 373.113021,98.5379432 C374.968499,96.7801219 376.832087,95.2664652 378.703841,93.9969276 C380.575595,92.72739 382.382218,91.7508372 384.123763,91.0672401 C385.865308,90.3836429 387.403379,90.0418494 388.738021,90.0418494 C389.812245,90.0418494 390.992246,90.1476427 392.27806,90.3592323 C393.563874,90.5708219 394.760151,90.9207533 395.866927,91.4090369 C396.973703,91.8973206 397.901429,92.5564937 398.65013,93.386576 C399.398832,94.2166583 399.773177,95.2501766 399.773177,96.4871619 C399.773177,97.1056546 399.740625,97.8136554 399.675521,98.6111854 C399.610416,99.4087154 399.537175,100.255061 399.455794,101.150248 C399.374414,102.045435 399.301172,102.965022 399.236068,103.909037 C399.170963,104.853052 399.138411,105.764501 399.138411,106.643412 L399.138411,106.643412 Z M388.054427,114.065287 C388.184636,113.284033 388.322981,112.364446 388.469466,111.306498 C388.615951,110.24855 388.746158,109.1011 388.860091,107.864115 C388.974024,106.62713 389.063541,105.333197 389.128646,103.982279 C389.19375,102.631361 389.226302,101.256049 389.226302,99.8563026 C389.226302,99.4982279 389.047267,99.1889862 388.689193,98.9285682 C388.331118,98.6681502 387.907945,98.5379432 387.419661,98.5379432 C386.866273,98.5379432 385.987376,99.0099437 384.782943,99.9539588 C383.57851,100.897974 382.23575,102.183768 380.754622,103.811381 C379.273495,105.438993 377.743563,107.335133 376.164779,109.499857 C374.585995,111.664582 373.145579,113.967618 371.84349,116.409037 C371.485415,117.060082 371.143621,117.833186 370.818099,118.728373 C370.492576,119.62356 370.199611,120.551285 369.939193,121.511576 C369.678775,122.471867 369.45905,123.440282 369.280013,124.416849 C369.100976,125.393417 368.962631,126.28859 368.864974,127.102396 C370.655347,126.711769 372.575901,126.174665 374.626693,125.491068 C376.677484,124.807471 378.500383,124.009953 380.095443,123.09849 C381.006906,122.577654 381.902079,121.959171 382.78099,121.243021 C383.6599,120.526872 384.465556,119.761906 385.197982,118.948099 C385.930407,118.134293 386.548891,117.312361 387.053451,116.482279 C387.55801,115.652197 387.891666,114.846541 388.054427,114.065287 L388.054427,114.065287 Z M460.661016,100.832865 C460.628463,101.386253 460.433153,102.257013 460.075078,103.44517 C459.717003,104.633327 459.269417,106.024914 458.732305,107.619974 C458.195193,109.215035 457.576709,110.964691 456.876836,112.868998 C456.176963,114.773304 455.4771,116.734548 454.777227,118.752787 C454.077353,120.771026 453.385628,122.797373 452.702031,124.831889 C452.018434,126.866404 451.416227,128.795096 450.895391,130.618021 C450.862838,130.715678 450.724493,131.163265 450.480352,131.960795 C450.23621,132.758325 449.91883,133.783705 449.528203,135.036967 C449.137576,136.290228 448.698127,137.70623 448.209844,139.285014 C447.72156,140.863797 447.225146,142.483247 446.720586,144.143412 C446.216026,145.803576 445.711474,147.423026 445.206914,149.00181 C444.702354,150.580594 444.254768,152.004734 443.864141,153.274271 C443.473514,154.543809 443.147996,155.593603 442.887578,156.423685 C442.62716,157.253768 442.480677,157.71763 442.448125,157.815287 C442.187707,158.694198 441.902879,159.719578 441.593633,160.891459 C441.284386,162.06334 440.861214,163.161962 440.324102,164.187357 C439.78699,165.212753 439.078989,166.083513 438.200078,166.799662 C437.321167,167.515811 436.16558,167.873881 434.733281,167.873881 C433.919475,167.873881 433.195198,167.711122 432.56043,167.385599 C431.925661,167.060077 431.388557,166.645042 430.949102,166.140482 C430.509646,165.635922 430.167853,165.066267 429.923711,164.431498 C429.679569,163.796729 429.5575,163.170108 429.5575,162.551615 C429.5575,161.835466 429.736535,160.883327 430.094609,159.69517 C430.452684,158.507013 430.900271,157.204942 431.437383,155.78892 C431.974495,154.372897 432.560427,152.875516 433.195195,151.296732 C433.829964,149.717948 434.424034,148.163602 434.977422,146.633646 C434.977422,146.633646 435.099491,146.316267 435.343633,145.681498 C435.587775,145.046729 435.905154,144.208521 436.295781,143.166849 C436.686408,142.125178 437.117719,140.953314 437.589727,139.651224 C438.061734,138.349135 438.541873,137.047064 439.030156,135.744974 C439.51844,134.442885 439.982302,133.205918 440.421758,132.034037 C440.861213,130.862156 441.22742,129.885603 441.520391,129.104349 C440.771689,129.722842 439.909067,130.390153 438.9325,131.106303 C437.955933,131.822452 436.922414,132.546729 435.831914,133.279154 C434.741414,134.01158 433.593964,134.711442 432.389531,135.378764 C431.185098,136.046085 429.988821,136.640154 428.800664,137.16099 C427.612507,137.681826 426.440644,138.096861 425.285039,138.406107 C424.129434,138.715354 423.030813,138.869974 421.989141,138.869974 C419.743036,138.869974 417.757378,138.495629 416.032109,137.746928 C414.30684,136.998226 412.858287,136.046087 411.686406,134.890482 C410.514525,133.734878 409.62749,132.465359 409.025273,131.081889 C408.423057,129.698418 408.121953,128.355658 408.121953,127.053568 C408.121953,126.077001 408.227746,124.872586 408.439336,123.440287 C408.650926,122.007988 408.943891,120.469918 409.318242,118.826029 C409.692593,117.182141 410.14018,115.473173 410.661016,113.699076 C411.181852,111.924979 411.735231,110.207873 412.321172,108.547709 C412.907112,106.887544 413.517458,105.349474 414.152227,103.933451 C414.786995,102.517428 415.429893,101.337427 416.080938,100.393412 C417.090057,98.9285609 418.058472,97.9031805 418.986211,97.3172401 C419.91395,96.7312996 420.914917,96.4383338 421.989141,96.4383338 C422.99826,96.4383338 423.820192,96.5848167 424.454961,96.8777869 C425.08973,97.1707572 425.586144,97.5776541 425.944219,98.0984901 C426.302293,98.619326 426.546432,99.2052577 426.676641,99.8563026 C426.80685,100.507347 426.871953,101.20721 426.871953,101.955912 C426.871953,102.411643 426.684781,103.062679 426.31043,103.909037 C425.936079,104.755395 425.472216,105.7645 424.918828,106.936381 C424.430544,107.9455 423.860889,109.141777 423.209844,110.525248 C422.558799,111.908718 421.956591,113.406099 421.403203,115.017435 C420.849815,116.628772 420.377814,118.313325 419.987188,120.071146 C419.596561,121.828968 419.40125,123.603038 419.40125,125.393412 C419.40125,126.011905 419.564009,126.532733 419.889531,126.955912 C420.215054,127.379091 420.597537,127.712747 421.036992,127.956889 C421.476448,128.20103 421.932172,128.380065 422.40418,128.493998 C422.876187,128.607931 423.25867,128.664896 423.551641,128.664896 C424.723521,128.664896 425.944212,128.428896 427.21375,127.956889 C428.483288,127.484881 429.744668,126.898949 430.99793,126.199076 C432.251191,125.499203 433.471882,124.750512 434.660039,123.952982 C435.848196,123.155452 436.97937,122.431176 438.053594,121.780131 C438.932504,121.226743 439.909057,120.518742 440.983281,119.656107 C442.057505,118.793473 442.98523,117.825058 443.766484,116.750834 C444.124559,116.26255 444.55587,115.391791 445.06043,114.138529 C445.56499,112.885268 446.093956,111.461128 446.647344,109.866068 C447.200732,108.271008 447.745974,106.635282 448.283086,104.958842 C448.820198,103.282401 449.284061,101.760606 449.674688,100.393412 C449.967658,99.4168446 450.350141,98.5623609 450.822148,97.8299354 C451.294156,97.0975098 451.798708,96.4953023 452.33582,96.0232948 C452.872932,95.5512872 453.426312,95.1932179 453.995977,94.949076 C454.565641,94.7049342 455.094607,94.5828651 455.582891,94.5828651 C456.689667,94.5828651 457.576702,94.6805203 458.244023,94.8758338 C458.911344,95.0711473 459.424035,95.4048028 459.782109,95.8768104 C460.140184,96.348818 460.376184,96.9835772 460.490117,97.7811073 C460.60405,98.5786373 460.661016,99.563328 460.661016,100.735209 L460.661016,100.832865 Z"/>
    <path d="M258.573615 116.570727C258.206434 116.928083 257.987655 117.146476 257.987655 117.146476 257.987655 117.146476 257.091831 117.79551 257.075831 118.01186 256.965296 119.506458 257.447812 124.928292 257.979583 125.529483 258.58833 126.217698 267.985219 122.167735 267.799978 118.01186 267.614738 113.855985 267.773536 109.859186 265.761775 110.626731 264.142008 111.244719 260.090858 115.094085 258.573615 116.570727zM315.019409 104.297241C314.746967 104.499596 314.697021 104.74762 314.697021 104.74762 314.697021 104.74762 314.435758 105.120248 314.300659 105.673767 314.12419 106.396785 314.055452 107.401416 313.97467 108.013245 313.683905 110.21547 313.396851 114.594971 313.396851 114.594971L322.315674 106.954468 319.161682 101.431519C319.161682 101.431519 316.235187 103.394229 315.019409 104.297241z"/>
    <polygon points="311.637 114.314 315.624 114.779 313.574 111.516"/>
    <g transform="translate(116 168)">
      <path d="M7.94921875,5.58789062 C7.94921875,5.75195395 7.91699251,6.04199011 7.85253906,6.45800781 C7.78808562,6.87402552 7.62695441,7.39257502 7.36914062,8.01367188 C7.16992088,8.51758064 7.01171934,8.94531074 6.89453125,9.296875 C6.77734316,9.64843926 6.70703137,9.9121085 6.68359375,10.0878906 C6.4726552,11.4238348 6.27050878,12.8593673 6.07714844,14.3945312 C5.8837881,15.9296952 5.66992305,17.593741 5.43554688,19.3867188 C5.37695283,19.8789087 5.31543001,20.3915989 5.25097656,20.9248047 C5.18652312,21.4580105 5.13085961,21.958982 5.08398437,22.4277344 C5.03710914,22.8964867 4.99902358,23.3095685 4.96972656,23.6669922 C4.94042954,24.0244158 4.92578125,24.2675775 4.92578125,24.3964844 C4.92578125,24.4902348 4.94921852,24.6044915 4.99609375,24.7392578 C5.04296898,24.8740241 5.09570283,25.011718 5.15429688,25.1523438 C5.21289092,25.2929695 5.26562477,25.4277337 5.3125,25.5566406 C5.35937523,25.6855475 5.3828125,25.7968745 5.3828125,25.890625 C5.3828125,26.1601576 5.30078207,26.4296862 5.13671875,26.6992188 C4.97265543,26.9687513 4.70312687,27.2324206 4.328125,27.4902344 C4.02343598,27.7128917 3.71875152,27.8798823 3.4140625,27.9912109 C3.10937348,28.1025396 2.80468902,28.1699218 2.5,28.1933594 C1.93749719,28.1933594 1.50097812,28.0527358 1.19042969,27.7714844 C0.87988126,27.490233 0.65136792,27.1562519 0.504882812,26.7695312 C0.358397705,26.3828106 0.273437617,25.9785177 0.25,25.5566406 C0.226562383,25.1347635 0.21484375,24.7832045 0.21484375,24.5019531 C0.21484375,23.9394503 0.229492041,23.4033229 0.258789062,22.8935547 C0.288086084,22.3837865 0.332030957,21.882815 0.390625,21.390625 C0.484375469,20.593746 0.619139746,19.6621147 0.794921875,18.5957031 C0.970704004,17.5292915 1.15820213,16.3984435 1.35742188,15.203125 C1.3925783,15.0156241 1.44824181,14.7167989 1.52441406,14.3066406 C1.60058632,13.8964823 1.68847606,13.4248074 1.78808594,12.8916016 C1.88769581,12.3583958 1.99316351,11.7959014 2.10449219,11.2041016 C2.21582087,10.6123017 2.32421822,10.0468777 2.4296875,9.5078125 C2.53515678,8.9687473 2.62890584,8.4853537 2.7109375,8.05761719 C2.79296916,7.62988067 2.85156232,7.31054793 2.88671875,7.09960938 C2.9570316,6.71288869 3.00976545,6.41406355 3.04492187,6.203125 C3.0800783,5.99218645 3.1152342,5.79589935 3.15039062,5.61425781 C3.18554705,5.43261628 3.22656227,5.23046986 3.2734375,5.0078125 C3.32031273,4.78515514 3.38476521,4.47461137 3.46679687,4.07617188 L3.44921875,4.11132812 C3.47265637,3.92382719 3.54296816,3.71582146 3.66015625,3.48730469 C3.77734434,3.25878792 3.92089759,3.04199321 4.09082031,2.83691406 C4.26074304,2.63183491 4.45410048,2.46191474 4.67089844,2.32714844 C4.8876964,2.19238214 5.10156145,2.125 5.3125,2.125 C5.80468996,2.125 6.22070143,2.23925667 6.56054687,2.46777344 C6.90039232,2.69629021 7.17285054,2.97460773 7.37792969,3.30273438 C7.58300884,3.63086102 7.72949175,3.97949034 7.81738281,4.34863281 C7.90527388,4.71777528 7.94921875,5.04296734 7.94921875,5.32421875 L7.94921875,5.58789062 Z M35.9508719,21.6191406 C36.0563412,21.6191406 36.1413012,21.6806634 36.2057547,21.8037109 C36.2702081,21.9267584 36.3024344,22.1347642 36.3024344,22.4277344 C36.3024344,22.8847679 36.1530218,23.3798801 35.8541922,23.9130859 C35.5553626,24.4462917 35.1159138,24.9472633 34.5358328,25.4160156 C33.9557518,25.884768 33.2379855,26.2744125 32.3825125,26.5849609 C31.5270395,26.8955094 30.5426743,27.0507812 29.4293875,27.0507812 C28.3864135,27.0507812 27.4489229,26.8837907 26.6168875,26.5498047 C25.7848521,26.2158186 25.0758748,25.6972691 24.4899344,24.9941406 C23.9039939,24.2910121 23.4498969,23.391607 23.1276297,22.2958984 C22.8053625,21.2001898 22.6325126,19.8847733 22.609075,18.3496094 C22.0817286,18.7949241 21.5426715,19.3310516 20.9918875,19.9580078 C20.4411035,20.5849641 19.9196243,21.2206999 19.4274344,21.8652344 C18.9352444,22.5097688 18.492866,23.1132784 18.1002859,23.6757812 C17.7077058,24.2382841 17.4059511,24.6718735 17.1950125,24.9765625 C16.8903235,25.433596 16.6413025,25.8173813 16.4479422,26.1279297 C16.2545818,26.4384781 16.0670837,26.6904287 15.8854422,26.8837891 C15.7038007,27.0771494 15.5016542,27.217773 15.2789969,27.3056641 C15.0563395,27.3935551 14.7575144,27.4375 14.3825125,27.4375 C14.0426671,27.4375 13.7321233,27.3847662 13.4508719,27.2792969 C13.1696205,27.1738276 12.9264588,27.0390633 12.7213797,26.875 C12.5163005,26.7109367 12.358099,26.5263682 12.2467703,26.3212891 C12.1354416,26.1162099 12.0797781,25.9082042 12.0797781,25.6972656 C12.0797781,25.4980459 12.0914968,25.2636732 12.1149344,24.9941406 C12.138372,24.724608 12.1705982,24.4492202 12.2116141,24.1679688 C12.2526299,23.8867173 12.2936451,23.6083998 12.3346609,23.3330078 C12.3756768,23.0576158 12.4137623,22.8085949 12.4489188,22.5859375 C12.495794,22.2929673 12.5455982,21.9824235 12.5983328,21.6542969 C12.6510675,21.3261702 12.7096606,20.9628926 12.7741141,20.5644531 C12.8385675,20.1660136 12.90302,19.7236352 12.9674734,19.2373047 C13.0319269,18.7509741 13.0934497,18.2089874 13.1520438,17.6113281 C13.2223566,16.9081996 13.2897387,16.2255892 13.3541922,15.5634766 C13.4186456,14.9013639 13.4977464,14.2187535 13.5914969,13.515625 C13.6500909,13.1054667 13.726262,12.7275408 13.8200125,12.3818359 C13.913763,12.0361311 14.0485272,11.7402356 14.2243094,11.4941406 C14.4000915,11.2480456 14.6286048,11.0546882 14.9098563,10.9140625 C15.1911077,10.7734368 15.5543853,10.703125 15.9997,10.703125 C16.3981395,10.703125 16.7145426,10.7499995 16.9489188,10.84375 C17.1832949,10.9375005 17.3590744,11.0634758 17.4762625,11.2216797 C17.5934506,11.3798836 17.666692,11.5615224 17.6959891,11.7666016 C17.7252861,11.9716807 17.7399344,12.1796864 17.7399344,12.390625 C17.7399344,12.5078131 17.7370047,12.6132808 17.7311453,12.7070312 C17.7252859,12.8007817 17.7164969,12.8886715 17.7047781,12.9707031 C17.7047781,12.9707031 17.7018485,13.0175777 17.6959891,13.1113281 C17.6901297,13.2050786 17.6637627,13.3867174 17.6168875,13.65625 C17.5700123,13.9257826 17.4967708,14.3037085 17.3971609,14.7900391 C17.2975511,15.2763696 17.1598571,15.9238241 16.984075,16.7324219 C16.8786057,17.2011742 16.7672787,17.6816382 16.6500906,18.1738281 C16.5329025,18.6660181 16.4245052,19.1347634 16.3248953,19.5800781 C16.2252854,20.0253929 16.1403254,20.426756 16.0700125,20.7841797 C15.9996996,21.1416033 15.9528251,21.4199209 15.9293875,21.6191406 C16.2106389,21.291014 16.5387606,20.8837915 16.9137625,20.3974609 C17.2887644,19.9111304 17.6637606,19.4160181 18.0387625,18.9121094 C18.4137644,18.4082006 18.777042,17.9277367 19.1286063,17.4707031 C19.4801705,17.0136696 19.7789956,16.6445327 20.0250906,16.3632812 C20.4235301,15.9179665 20.8131747,15.4960957 21.1940359,15.0976562 C21.5748972,14.6992168 21.9704011,14.3505874 22.3805594,14.0517578 C22.7907177,13.7529282 23.2243071,13.5185555 23.6813406,13.3486328 C24.1383742,13.1787101 24.6422754,13.09375 25.1930594,13.09375 C25.5094672,13.09375 25.7614178,13.1289059 25.9489188,13.1992188 C26.1364197,13.2695316 26.2799729,13.3662103 26.3795828,13.4892578 C26.4791927,13.6123053 26.5436452,13.7529289 26.5729422,13.9111328 C26.6022392,14.0693367 26.6168875,14.2363272 26.6168875,14.4121094 L26.6168875,14.6933594 C26.6168875,14.7636722 26.6022392,14.9306627 26.5729422,15.1943359 C26.5436452,15.4580091 26.5084893,15.742186 26.4674734,16.046875 C26.4264576,16.351564 26.3913017,16.6386705 26.3620047,16.9082031 C26.3327077,17.1777357 26.3180594,17.3535152 26.3180594,17.4355469 C26.3180594,18.3378951 26.3883712,19.1816367 26.5289969,19.9667969 C26.6696226,20.7519571 26.8893469,21.4345674 27.1881766,22.0146484 C27.4870062,22.5947295 27.8707914,23.0517561 28.3395438,23.3857422 C28.8082961,23.7197282 29.3707905,23.8867188 30.0270438,23.8867188 C30.4840773,23.8867188 30.8825108,23.8603518 31.2223563,23.8076172 C31.5622017,23.7548825 31.8932531,23.6669928 32.2155203,23.5439453 C32.5377875,23.4208978 32.8688389,23.256837 33.2086844,23.0517578 C33.5485298,22.8466787 33.941104,22.5976577 34.3864188,22.3046875 C34.5504821,22.1757806 34.7204022,22.0585943 34.8961844,21.953125 C35.0485289,21.8593745 35.2155194,21.7802738 35.3971609,21.7158203 C35.5788025,21.6513669 35.7633709,21.6191406 35.9508719,21.6191406 L35.9508719,21.6191406 Z M67.4854281,17.5234375 C68.0010557,17.3945306 68.5254645,17.2597663 69.0586703,17.1191406 C69.5918761,16.9785149 70.0869883,16.8378913 70.5440219,16.6972656 C70.3565209,16.123044 70.1631635,15.5253937 69.9639438,14.9042969 C69.764724,14.2832 69.5567183,13.6650421 69.3399203,13.0498047 C69.1231224,12.4345672 68.903398,11.836917 68.6807406,11.2568359 C68.4580833,10.6767549 68.2237106,10.1464868 67.9776156,9.66601562 C66.9815169,11.0253974 65.9825034,12.4550706 64.9805453,13.9550781 C63.9785872,15.4550856 63.0264483,16.9843672 62.1241,18.5429688 C62.4756643,18.5078123 62.8448012,18.4814454 63.2315219,18.4638672 C63.6182426,18.446289 63.9287863,18.4023441 64.1631625,18.3320312 C64.4795703,18.2382808 64.7637472,18.1562504 65.0157016,18.0859375 C65.2676559,18.0156246 65.5196066,17.9511722 65.7715609,17.8925781 C66.0235153,17.8339841 66.2842549,17.7753909 66.5537875,17.7167969 C66.8233201,17.6582028 67.1338639,17.5937504 67.4854281,17.5234375 L67.4854281,17.5234375 Z M79.2276156,26.3828125 C79.2276156,26.6757827 79.1719521,26.9511706 79.0606234,27.2089844 C78.9492948,27.4667982 78.7969525,27.6923818 78.6035922,27.8857422 C78.4102318,28.0791025 78.1758592,28.2343744 77.9004672,28.3515625 C77.6250752,28.4687506 77.3291797,28.5273438 77.0127719,28.5273438 C76.7198017,28.5273438 76.4326952,28.4335947 76.1514438,28.2460938 C75.8701923,28.0585928 75.5977341,27.8183608 75.3340609,27.5253906 C75.0703877,27.2324204 74.8184371,26.901369 74.5782016,26.5322266 C74.337966,26.1630841 74.1211713,25.7910175 73.9278109,25.4160156 C73.7344506,25.0410137 73.5616008,24.6835954 73.4092563,24.34375 C73.2569117,24.0039046 73.1338661,23.7226574 73.0401156,23.5 C72.9112087,23.1835922 72.7823038,22.8906263 72.6533969,22.6210938 C72.52449,22.3515612 72.3897257,22.0058615 72.2491,21.5839844 C72.1670683,21.3496082 72.1055455,21.1738287 72.0645297,21.0566406 C72.0235139,20.9394525 71.988358,20.8486331 71.9590609,20.7841797 C71.9297639,20.7197262 71.9063267,20.6669924 71.8887484,20.6259766 C71.8711702,20.5849607 71.8506626,20.5234379 71.827225,20.4414062 C71.5928488,20.5468755 71.3408982,20.6083983 71.0713656,20.6259766 C70.801833,20.6435548 70.5030079,20.6523438 70.1748813,20.6523438 C70.1162872,20.6523438 70.0166788,20.6728514 69.8760531,20.7138672 C69.7354274,20.754883 69.5742962,20.8046872 69.3926547,20.8632812 C69.2110132,20.9218753 69.023515,20.9833981 68.8301547,21.0478516 C68.6367943,21.112305 68.4522259,21.1679685 68.2764438,21.2148438 C67.7139409,21.3554695 67.104572,21.4902337 66.4483188,21.6191406 C65.7920655,21.7480475 65.1065254,21.8740228 64.3916781,21.9970703 C63.6768308,22.1201178 62.9473459,22.2431634 62.2032016,22.3662109 C61.4590572,22.4892584 60.7119944,22.6152337 59.9619906,22.7441406 C59.879959,22.7558594 59.8096472,22.7792967 59.7510531,22.8144531 C59.6924591,22.8496096 59.6104287,22.940429 59.5049594,23.0869141 C59.3994901,23.2333992 59.2412886,23.4589829 59.03035,23.7636719 C58.8194114,24.0683609 58.5205863,24.5019503 58.1338656,25.0644531 C57.6885509,25.7089876 57.2666801,26.2685523 56.8682406,26.7431641 C56.4698011,27.2177758 56.0948049,27.6249983 55.7432406,27.9648438 C55.4033952,28.3046892 55.0430472,28.5624991 54.6621859,28.7382812 C54.2813247,28.9140634 53.8858208,29.0019531 53.4756625,29.0019531 C52.9365973,29.0019531 52.4561334,28.934571 52.0342563,28.7998047 C51.6123791,28.6650384 51.2578905,28.4921886 50.9707797,28.28125 C50.6836689,28.0703114 50.4668742,27.8417981 50.3203891,27.5957031 C50.173904,27.3496081 50.1006625,27.1210948 50.1006625,26.9101562 C50.1006625,26.5117168 50.2705827,26.2333992 50.6104281,26.0751953 C50.9502736,25.9169914 51.4190189,25.7851568 52.0166781,25.6796875 C52.0166781,25.6679687 52.0811306,25.5800789 52.2100375,25.4160156 C52.3389444,25.2519523 52.4912866,25.0644542 52.6670688,24.8535156 C52.8428509,24.6425771 53.0157007,24.4345713 53.1856234,24.2294922 C53.3555462,24.024413 53.4756621,23.8691412 53.545975,23.7636719 C54.0030085,23.1308562 54.4805428,22.4716831 54.9785922,21.7861328 C55.4766416,21.1005825 56.0244876,20.3125045 56.6221469,19.421875 L56.6221469,19.4394531 C56.9268359,18.9941384 57.1758568,18.6250015 57.3692172,18.3320312 C57.5625775,18.039061 57.747146,17.7636732 57.9229281,17.5058594 C58.0987103,17.2480456 58.2832787,16.9843763 58.4766391,16.7148438 C58.6699994,16.4453112 58.9073017,16.1113301 59.1885531,15.7128906 C59.9151193,14.6933543 60.5508551,13.8291051 61.0957797,13.1201172 C61.6407043,12.4111293 62.088942,11.822268 62.4405063,11.3535156 C62.8623834,10.6972623 63.2608169,10.0703155 63.6358188,9.47265625 C63.7998821,9.21484246 63.9580836,8.95410288 64.1104281,8.69042969 C64.2627726,8.42675649 64.4092555,8.17187623 64.5498813,7.92578125 C64.690507,7.67968627 64.8164823,7.44824327 64.9278109,7.23144531 C65.0391396,7.01464735 65.1240997,6.83007889 65.1826938,6.67773438 C66.577232,3.26756107 67.7725325,1.5625 68.7686313,1.5625 C69.2022272,1.5625 69.5537862,1.59472624 69.8233188,1.65917969 C70.0928513,1.72363313 70.3008571,1.83496015 70.4473422,1.99316406 C70.5938273,2.15136798 70.6934357,2.35937371 70.7461703,2.6171875 C70.798905,2.87500129 70.8252719,3.19726369 70.8252719,3.58398438 L70.8252719,4.43652344 C70.8252719,4.64160259 70.8194126,4.82031174 70.8076938,4.97265625 C70.7959749,5.12500076 70.787186,5.27734299 70.7813266,5.4296875 C70.7754672,5.58203201 70.7608189,5.78710809 70.7373813,6.04492188 C71.0186327,6.64258111 71.2910909,7.25780934 71.5547641,7.890625 C71.8184373,8.52344066 72.0674582,9.15038752 72.3018344,9.77148438 C72.3487096,9.91211008 72.4512476,10.2080056 72.6094516,10.6591797 C72.7676555,11.1103538 72.9551536,11.640622 73.1719516,12.25 C73.3887495,12.859378 73.6172629,13.5039029 73.8574984,14.1835938 C74.097734,14.8632846 74.320388,15.5019501 74.5254672,16.0996094 C74.7305463,16.6972686 74.9092555,17.2128885 75.0616,17.6464844 C75.2139445,18.0800803 75.3135529,18.3554682 75.3604281,18.4726562 C75.5127726,19.1289095 75.9405027,20.2128831 76.6436313,21.7246094 C76.7373817,21.9121103 76.8164825,22.0761712 76.8809359,22.2167969 C76.9453894,22.3574226 77.0215605,22.5039055 77.1094516,22.65625 C77.1973426,22.8085945 77.3115993,22.984374 77.452225,23.1835938 C77.5928507,23.3828135 77.7803488,23.6406234 78.014725,23.9570312 C78.8233228,25.0585993 79.2276156,25.8671849 79.2276156,26.3828125 L79.2276156,26.3828125 Z M105.084738,15.8886719 C105.084738,16.123048 105.052511,16.3251945 104.988058,16.4951172 C104.923604,16.6650399 104.823996,16.8349601 104.68923,17.0048828 C104.554463,17.1748055 104.381614,17.359374 104.170675,17.5585938 C103.959736,17.7578135 103.701927,18.0097641 103.397238,18.3144531 L101.850363,19.8613281 C101.522236,20.1894548 101.235129,20.4648426 100.989034,20.6875 C100.742939,20.9101574 100.505637,21.1181631 100.27712,21.3115234 C100.048604,21.5048838 99.8113012,21.7041005 99.5652063,21.9091797 C99.3191113,22.1142588 99.0202861,22.3632798 98.6687219,22.65625 C97.9069993,23.3007845 97.1570068,23.9042941 96.4187219,24.4667969 C95.6804369,25.0292997 94.959741,25.5332009 94.2566125,25.9785156 C93.2019197,26.6464877 92.0710717,27.1621076 90.8640344,27.5253906 C89.6569971,27.8886737 88.3796661,28.0703125 87.0320031,28.0703125 C86.1530925,28.0703125 85.3738034,27.9091813 84.6941125,27.5869141 C84.0144216,27.2646468 83.4402086,26.8310574 82.9714563,26.2861328 C82.5027039,25.7412082 82.1482153,25.1025427 81.9079797,24.3701172 C81.6677441,23.6376917 81.5476281,22.8671915 81.5476281,22.0585938 C81.5476281,20.5234298 81.8698905,18.9795 82.514425,17.4267578 C83.1589595,15.8740157 84.0437163,14.3476638 85.1687219,12.8476562 C85.4499733,12.4726544 85.7810247,12.0800802 86.1618859,11.6699219 C86.5427472,11.2597636 86.9441104,10.887697 87.3659875,10.5537109 C87.7878646,10.2197249 88.221454,9.94433702 88.6667688,9.72753906 C89.1120835,9.5107411 89.5456729,9.40234375 89.96755,9.40234375 C90.2488014,9.40234375 90.5212596,9.48144452 90.7849328,9.63964844 C91.048606,9.79785235 91.3064159,10.0117174 91.5583703,10.28125 C91.8103247,10.5507826 92.047627,10.864256 92.2702844,11.2216797 C92.4929417,11.5791033 92.6980178,11.9628886 92.8855188,12.3730469 C93.2605206,13.1933635 93.4480188,13.7910137 93.4480188,14.1660156 C93.4480188,14.3652354 93.4275111,14.608397 93.3864953,14.8955078 C93.3454795,15.1826186 93.2693084,15.4550768 93.1579797,15.7128906 C93.046651,15.9707044 92.8972384,16.1904288 92.7097375,16.3720703 C92.5222366,16.5537118 92.2820046,16.6445312 91.9890344,16.6445312 C91.5554385,16.6445312 91.1980202,16.5068373 90.9167688,16.2314453 C90.6355173,15.9560533 90.4011447,15.6367206 90.2136438,15.2734375 C90.0261428,14.9101544 89.8767302,14.5527361 89.7654016,14.2011719 C89.6540729,13.8496076 89.5515348,13.597657 89.4577844,13.4453125 C89.176533,13.5507818 88.8806375,13.7558579 88.5700891,14.0605469 C88.2595406,14.3652359 87.9519265,14.7402321 87.6472375,15.1855469 C87.3425485,15.6308616 87.055442,16.1318332 86.7859094,16.6884766 C86.5163768,17.24512 86.2790745,17.8369109 86.0739953,18.4638672 C85.8689162,19.0908234 85.7048553,19.7324186 85.5818078,20.3886719 C85.4587603,21.0449252 85.3972375,21.6953093 85.3972375,22.3398438 C85.3972375,22.937503 85.6140322,23.4589821 86.0476281,23.9042969 C86.5398181,24.3964868 86.9968448,24.6425781 87.4187219,24.6425781 C88.7546661,24.6425781 90.040786,24.3964868 91.2771203,23.9042969 C92.5134546,23.4121069 93.7058255,22.7558635 94.8542688,21.9355469 C95.6277101,21.3847629 96.4362958,20.766605 97.28005,20.0810547 C98.1238042,19.3955044 99.0495762,18.5722704 100.057394,17.6113281 C100.420677,17.2597639 100.786884,16.9228532 101.156027,16.6005859 C101.525169,16.2783187 101.888447,15.9941419 102.24587,15.7480469 C102.603294,15.5019519 102.943134,15.3027351 103.265402,15.1503906 C103.587669,14.9980461 103.889424,14.921875 104.170675,14.921875 C104.780053,14.921875 105.084738,15.2441374 105.084738,15.8886719 L105.084738,15.8886719 Z M121.098109,12.9003906 C121.098109,13.181642 120.960415,13.4453113 120.685023,13.6914062 C120.409631,13.9375012 120.049283,14.1660146 119.603969,14.3769531 C119.158654,14.5878917 118.654753,14.7783195 118.09225,14.9482422 C117.529747,15.1181649 116.964323,15.2705071 116.395961,15.4052734 C115.827599,15.5400397 115.282682,15.6513667 114.761195,15.7392578 C114.239708,15.8271489 113.79733,15.9003903 113.434047,15.9589844 C112.12154,16.1464853 111.028778,16.2871089 110.155727,16.3808594 C109.282675,16.4746098 108.658658,16.6035148 108.283656,16.7675781 C108.072718,17.6464888 107.858853,18.5576125 107.642055,19.5009766 C107.425257,20.4443407 107.22897,21.3261678 107.053188,22.1464844 C106.877405,22.966801 106.733852,23.6816376 106.622523,24.2910156 C106.511195,24.9003937 106.455531,25.3105458 106.455531,25.5214844 C106.455531,25.6738289 106.461391,25.8056635 106.473109,25.9169922 C106.484828,26.0283209 106.505336,26.1308589 106.534633,26.2246094 C106.56393,26.3183598 106.593226,26.4091792 106.622523,26.4970703 C106.65182,26.5849614 106.684047,26.6874994 106.719203,26.8046875 C106.766078,26.9218756 106.812953,27.0800771 106.859828,27.2792969 C106.906703,27.4785166 106.950648,27.6777334 106.991664,27.8769531 C107.03268,28.0761729 107.064906,28.2607413 107.088344,28.4306641 C107.111781,28.6005868 107.1235,28.7207028 107.1235,28.7910156 C107.1235,29.013673 107.073696,29.2568346 106.974086,29.5205078 C106.874476,29.784181 106.736782,30.033202 106.561,30.2675781 C106.385218,30.5019543 106.174282,30.6982414 105.928188,30.8564453 C105.682093,31.0146492 105.406705,31.09375 105.102016,31.09375 C104.785608,31.09375 104.495572,31.0087899 104.231898,30.8388672 C103.968225,30.6689445 103.730923,30.4462904 103.519984,30.1708984 C103.309046,29.8955064 103.124477,29.5849627 102.966273,29.2392578 C102.80807,28.893553 102.676235,28.5507829 102.570766,28.2109375 C102.465296,27.8710921 102.386196,27.5517593 102.333461,27.2529297 C102.280726,26.9541001 102.254359,26.7050791 102.254359,26.5058594 C102.254359,26.3066396 102.274867,25.9960959 102.315883,25.5742188 C102.356899,25.1523416 102.435999,24.7246115 102.553188,24.2910156 C102.916471,22.919915 103.197718,21.7919966 103.396938,20.9072266 C103.596157,20.0224565 103.74264,19.3134792 103.836391,18.7802734 C103.930141,18.2470676 103.991664,17.8574231 104.020961,17.6113281 C104.050258,17.3652331 104.070766,17.195313 104.082484,17.1015625 C103.93014,17.1015625 103.713345,17.1103515 103.432094,17.1279297 C103.150842,17.1455079 102.860806,17.1689452 102.561977,17.1982422 C102.263147,17.2275392 101.984829,17.2509765 101.727016,17.2685547 C101.469202,17.2861329 101.293422,17.2949219 101.199672,17.2949219 C100.578575,17.2949219 100.057096,17.2539067 99.6352188,17.171875 C99.2133416,17.0898433 98.8705716,16.9287121 98.6068984,16.6884766 C98.3432252,16.448241 98.1557271,16.1084006 98.0443984,15.6689453 C97.9330698,15.22949 97.8774063,14.6523473 97.8774063,13.9375 C98.4516279,13.9257812 98.9408808,13.893555 99.3451797,13.8408203 C99.7494786,13.7880857 100.121545,13.7617188 100.461391,13.7617188 C100.555141,13.7617188 100.792443,13.7470705 101.173305,13.7177734 C101.554166,13.6884764 101.973107,13.6562502 102.430141,13.6210938 C102.887174,13.5859373 103.329553,13.5478518 103.757289,13.5068359 C104.185026,13.4658201 104.49264,13.4335939 104.680141,13.4101562 C104.703578,13.2812494 104.750453,13.0761733 104.820766,12.7949219 C104.891078,12.5136705 104.970179,12.2031267 105.05807,11.8632812 C105.145961,11.5234358 105.236781,11.1835954 105.330531,10.84375 C105.424282,10.5039046 105.506312,10.2109387 105.576625,9.96484375 C105.635219,9.78906162 105.71139,9.49902546 105.805141,9.09472656 C105.898891,8.69042767 105.998499,8.27148654 106.103969,7.83789062 C106.209438,7.40429471 106.306117,7.00293153 106.394008,6.63378906 C106.481899,6.26464659 106.537562,6.02734428 106.561,5.921875 C106.689907,5.42968504 106.83639,4.9697287 107.000453,4.54199219 C107.164516,4.11425567 107.349085,3.7480484 107.554164,3.44335938 C107.759243,3.13867035 107.984827,2.89843838 108.230922,2.72265625 C108.477017,2.54687412 108.734827,2.45898438 109.004359,2.45898438 C109.637175,2.45898438 110.094202,2.61425626 110.375453,2.92480469 C110.656705,3.23535312 110.797328,3.70702809 110.797328,4.33984375 C110.797328,4.63281396 110.762172,4.96093568 110.691859,5.32421875 C110.621547,5.68750182 110.521938,6.06835738 110.393031,6.46679688 C110.135217,7.28711348 109.93893,7.9726535 109.804164,8.5234375 C109.669398,9.0742215 109.561,9.55761511 109.478969,9.97363281 C109.396937,10.3896505 109.332485,10.7734357 109.285609,11.125 C109.238734,11.4765643 109.174282,11.8632791 109.09225,12.2851562 C109.080531,12.3320315 109.071742,12.4228509 109.065883,12.5576172 C109.060023,12.6923835 109.057094,12.7890622 109.057094,12.8476562 C110.064911,12.8476562 111.052206,12.7949224 112.019008,12.6894531 C112.98581,12.5839838 113.967245,12.4843755 114.963344,12.390625 C115.525847,12.332031 116.020959,12.2675785 116.448695,12.1972656 C116.876432,12.1269528 117.271936,12.0625003 117.635219,12.0039062 C117.998502,11.9453122 118.35299,11.895508 118.698695,11.8544922 C119.0444,11.8134764 119.416467,11.7929688 119.814906,11.7929688 C119.955532,11.7929688 120.102015,11.807617 120.254359,11.8369141 C120.406704,11.8662111 120.544398,11.9189449 120.667445,11.9951172 C120.790493,12.0712894 120.893031,12.1826165 120.975063,12.3291016 C121.057094,12.4755867 121.098109,12.6660145 121.098109,12.9003906 L121.098109,12.9003906 Z M125.492341,2.28320312 C125.492341,2.66992381 125.433747,3.03613108 125.316559,3.38183594 C125.199371,3.72754079 125.029451,4.05273285 124.806794,4.35742188 C124.361479,4.97851873 123.675939,5.2890625 122.750153,5.2890625 C122.422026,5.2890625 122.088045,5.25976592 121.7482,5.20117188 C121.408355,5.14257783 121.10367,5.0605474 120.834138,4.95507812 C120.564605,4.84960885 120.341951,4.71484457 120.166169,4.55078125 C119.990387,4.38671793 119.902497,4.1992198 119.902497,3.98828125 C119.902497,3.62499818 119.996246,3.24121296 120.183747,2.83691406 C120.371248,2.43261517 120.614409,2.05761892 120.913239,1.71191406 C121.212069,1.36620921 121.54019,1.07910271 121.897614,0.850585938 C122.255038,0.62206917 122.597808,0.5078125 122.925934,0.5078125 C123.336093,0.5078125 123.69937,0.534179424 124.015778,0.586914062 C124.332186,0.639648701 124.598785,0.730468105 124.815583,0.859375 C125.032381,0.988281895 125.199371,1.1699207 125.316559,1.40429688 C125.433747,1.63867305 125.492341,1.93163887 125.492341,2.28320312 L125.492341,2.28320312 Z M136.425934,16.75 C136.425934,17.0195326 136.323396,17.3623026 136.118317,17.7783203 C135.913238,18.194338 135.631991,18.657224 135.274567,19.1669922 C134.917144,19.6767604 134.492343,20.2216768 134.000153,20.8017578 C133.507963,21.3818388 132.974765,21.9765595 132.400544,22.5859375 C131.779447,23.2539096 131.105626,23.910153 130.379059,24.5546875 C129.652493,25.199222 128.879063,25.8203095 128.058747,26.4179688 C127.250149,27.0039092 126.453282,27.4580062 125.668122,27.7802734 C124.882962,28.1025407 124.138829,28.2636719 123.4357,28.2636719 C122.615383,28.2636719 121.903476,28.1259779 121.299958,27.8505859 C120.696439,27.5751939 120.180819,27.2001977 119.753083,26.7255859 C119.325346,26.2509742 118.976717,25.7060578 118.707184,25.0908203 C118.437652,24.4755829 118.223787,23.8251987 118.065583,23.1396484 C117.907379,22.4540981 117.798982,21.7597691 117.740388,21.0566406 C117.681793,20.3535121 117.652497,19.68555 117.652497,19.0527344 C117.652497,18.8066394 117.670075,18.4375025 117.705231,17.9453125 C117.740388,17.4531225 117.790192,16.934573 117.854645,16.3896484 C117.919099,15.8447238 117.989411,15.3173854 118.065583,14.8076172 C118.141755,14.297849 118.220856,13.8964858 118.302888,13.6035156 C118.47867,13.029294 118.882962,12.4843776 119.515778,11.96875 C120.125156,11.47656 120.804837,11.2304688 121.554841,11.2304688 C122.316563,11.2304688 122.697419,11.6874954 122.697419,12.6015625 C122.697419,13.0351584 122.659333,13.4951148 122.583161,13.9814453 C122.506989,14.4677759 122.422029,14.9453102 122.328278,15.4140625 C122.175934,16.2695355 122.070466,17.0400356 122.011872,17.7255859 C121.953278,18.4111362 121.923981,19.0175755 121.923981,19.5449219 C121.923981,20.1425811 121.959137,20.7226534 122.02945,21.2851562 C122.099763,21.8476591 122.202301,22.3486306 122.337067,22.7880859 C122.471833,23.2275413 122.641754,23.5820299 122.846833,23.8515625 C123.051912,24.1210951 123.295074,24.2558594 123.576325,24.2558594 C123.927889,24.2558594 124.291167,24.2236331 124.666169,24.1591797 C125.041171,24.0947262 125.492338,23.9218764 126.019684,23.640625 C127.027502,23.089841 128.099757,22.3457078 129.236481,21.4082031 C129.634921,21.0800765 130.089018,20.6904319 130.598786,20.2392578 C131.108554,19.7880837 131.615385,19.3251977 132.119294,18.8505859 C132.623203,18.3759742 133.097807,17.9101585 133.543122,17.453125 C133.988437,16.9960915 134.339996,16.6035173 134.597809,16.2753906 C134.632966,16.2167966 134.68277,16.1435551 134.747223,16.0556641 C134.811677,15.967773 134.884918,15.8769536 134.96695,15.7832031 C135.048982,15.6894527 135.139801,15.6103519 135.239411,15.5458984 C135.339021,15.481445 135.4357,15.4492188 135.52945,15.4492188 C135.716951,15.4492188 135.854645,15.4755857 135.942536,15.5283203 C136.030427,15.581055 136.127106,15.7421862 136.232575,16.0117188 C136.361482,16.304689 136.425934,16.5507803 136.425934,16.75 L136.425934,16.75 Z M158.257666,12.671875 C158.257666,12.8945324 158.184424,13.1318347 158.037939,13.3837891 C157.891454,13.6357434 157.703956,13.8876941 157.475439,14.1396484 C157.246922,14.3916028 156.986183,14.6406238 156.693213,14.8867188 C156.400242,15.1328137 156.107276,15.3583974 155.814306,15.5634766 C155.521336,15.7685557 155.243019,15.9472649 154.979345,16.0996094 C154.715672,16.2519539 154.495948,16.3691402 154.320166,16.4511719 C154.003758,16.5800788 153.596535,16.7001948 153.098486,16.8115234 C152.600437,16.9228521 152.078957,17.0166012 151.534033,17.0927734 C150.989108,17.1689457 150.46177,17.2304685 149.952002,17.2773438 C149.442233,17.324219 149.011574,17.3476562 148.660009,17.3476562 C148.577978,17.3476562 148.463721,17.3388673 148.317236,17.3212891 C148.170751,17.3037108 148.012549,17.2773439 147.842627,17.2421875 C147.672704,17.2070311 147.502784,17.1630862 147.332861,17.1103516 C147.162938,17.0576169 147.019385,16.9902348 146.902197,16.9082031 C147.031104,17.1777357 147.104345,17.4736312 147.121923,17.7958984 C147.139502,18.1181657 147.148291,18.4374984 147.148291,18.7539062 C147.148291,18.9765636 147.124853,19.2402329 147.077978,19.5449219 C147.031103,19.8496109 146.96958,20.1601547 146.893408,20.4765625 C146.817236,20.7929703 146.726416,21.0976548 146.620947,21.390625 C146.515478,21.6835952 146.404151,21.9296865 146.286963,22.1289062 C145.993992,22.632815 145.680519,23.095701 145.346533,23.5175781 C145.012547,23.9394552 144.64048,24.3320294 144.230322,24.6953125 C143.820164,25.0585956 143.357278,25.3984359 142.84165,25.7148438 C142.326022,26.0312516 141.728372,26.3417954 141.048681,26.6464844 C140.322115,26.9628922 139.59556,27.1826166 138.868994,27.3056641 C138.142428,27.4287116 137.392435,27.4902344 136.618994,27.4902344 C136.044772,27.4902344 135.535012,27.3408218 135.089697,27.0419922 C134.644382,26.7431626 134.269386,26.3417994 133.964697,25.8378906 C133.660008,25.3339819 133.428565,24.7539095 133.270361,24.0976562 C133.112157,23.441403 133.033056,22.7558629 133.033056,22.0410156 C133.033056,21.8652335 133.047705,21.6455091 133.077002,21.3818359 C133.106299,21.1181627 133.147314,20.8515638 133.200048,20.5820312 C133.252783,20.3124987 133.311376,20.0488294 133.37583,19.7910156 C133.440283,19.5332018 133.501806,19.3164071 133.5604,19.140625 C133.724463,18.648435 133.961766,18.0859407 134.272314,17.453125 C134.582862,16.8203093 134.94907,16.1728549 135.370947,15.5107422 C135.792824,14.8486295 136.261569,14.1982454 136.777197,13.5595703 C137.292824,12.9208952 137.840671,12.3525416 138.420752,11.8544922 C139.000833,11.3564428 139.604342,10.9550796 140.231298,10.6503906 C140.858255,10.3457016 141.488131,10.1933594 142.120947,10.1933594 C142.390479,10.1933594 142.607274,10.2197263 142.771338,10.2724609 C142.935401,10.3251956 143.070165,10.3955074 143.175634,10.4833984 C143.281104,10.5712895 143.377782,10.6708979 143.465673,10.7822266 C143.553565,10.8935552 143.650243,11.0019526 143.755713,11.1074219 C143.837744,11.0839843 143.922704,11.0664063 144.010595,11.0546875 C144.098486,11.0429687 144.189306,11.0371094 144.283056,11.0371094 C144.646339,11.0371094 145.003758,11.177733 145.355322,11.4589844 C145.706886,11.7402358 146.064304,12.0507796 146.427588,12.390625 C146.591651,12.5429695 146.758641,12.6982414 146.928564,12.8564453 C147.098487,13.0146492 147.253759,13.1552728 147.394384,13.2783203 C147.53501,13.4013678 147.660985,13.5009762 147.772314,13.5771484 C147.883643,13.6533207 147.962744,13.6914062 148.009619,13.6914062 C148.314308,13.6914062 148.645359,13.6884766 149.002783,13.6826172 C149.360206,13.6767578 149.723484,13.6650392 150.092627,13.6474609 C150.461769,13.6298827 150.819187,13.6035158 151.164892,13.5683594 C151.510597,13.5332029 151.82407,13.4921877 152.105322,13.4453125 C152.140478,13.4335937 152.292821,13.3955081 152.562353,13.3310547 C152.831886,13.2666012 153.157078,13.1845708 153.537939,13.0849609 C153.9188,12.9853511 154.331882,12.8769537 154.777197,12.7597656 C155.222512,12.6425775 155.635593,12.5341802 156.016455,12.4345703 C156.397316,12.3349604 156.725438,12.25293 157.00083,12.1884766 C157.276222,12.1240231 157.437353,12.0917969 157.484228,12.0917969 C157.718604,12.0917969 157.906102,12.1210935 158.046728,12.1796875 C158.187354,12.2382815 158.257666,12.4023424 158.257666,12.671875 L158.257666,12.671875 Z M137.972509,24.3964844 C138.921733,24.3964844 139.762545,24.1445338 140.49497,23.640625 C141.227396,23.1367162 141.845554,22.4658245 142.349463,21.6279297 C142.853371,20.7900349 143.243016,19.8349663 143.518408,18.7626953 C143.7938,17.6904243 143.937353,16.5859432 143.949072,15.4492188 C143.86704,15.2734366 143.746924,15.0917978 143.58872,14.9042969 C143.430516,14.7167959 143.251807,14.5498054 143.052588,14.4033203 C142.853368,14.2568352 142.648292,14.1367192 142.437353,14.0429688 C142.226415,13.9492183 142.033057,13.9023438 141.857275,13.9023438 C141.576024,13.9023438 141.271339,14.0136708 140.943213,14.2363281 C140.615086,14.4589855 140.310401,14.6874988 140.02915,14.921875 C139.747899,15.1562512 139.469581,15.4638653 139.194189,15.8447266 C138.918797,16.2255878 138.663917,16.6503883 138.429541,17.1191406 C138.195164,17.587893 137.97837,18.0830052 137.77915,18.6044922 C137.57993,19.1259792 137.41001,19.641599 137.269384,20.1513672 C137.128759,20.6611354 137.020361,21.1562476 136.944189,21.6367188 C136.868017,22.1171899 136.829931,22.54492 136.829931,22.9199219 C136.829931,23.1074228 136.859228,23.2890616 136.917822,23.4648438 C136.976416,23.6406259 137.055517,23.7988274 137.155127,23.9394531 C137.254736,24.0800788 137.374852,24.1914058 137.515478,24.2734375 C137.656104,24.3554692 137.808446,24.3964844 137.972509,24.3964844 L137.972509,24.3964844 Z M179.034709,21.6191406 C179.140179,21.6191406 179.225139,21.6806634 179.289592,21.8037109 C179.354046,21.9267584 179.386272,22.1347642 179.386272,22.4277344 C179.386272,22.8847679 179.236859,23.3798801 178.93803,23.9130859 C178.6392,24.4462917 178.199751,24.9472633 177.61967,25.4160156 C177.039589,25.884768 176.321823,26.2744125 175.46635,26.5849609 C174.610877,26.8955094 173.626512,27.0507812 172.513225,27.0507812 C171.470251,27.0507812 170.53276,26.8837907 169.700725,26.5498047 C168.86869,26.2158186 168.159712,25.6972691 167.573772,24.9941406 C166.987831,24.2910121 166.533734,23.391607 166.211467,22.2958984 C165.8892,21.2001898 165.71635,19.8847733 165.692913,18.3496094 C165.165566,18.7949241 164.626509,19.3310516 164.075725,19.9580078 C163.524941,20.5849641 163.003462,21.2206999 162.511272,21.8652344 C162.019082,22.5097688 161.576704,23.1132784 161.184123,23.6757812 C160.791543,24.2382841 160.489789,24.6718735 160.27885,24.9765625 C159.974161,25.433596 159.72514,25.8173813 159.53178,26.1279297 C159.338419,26.4384781 159.150921,26.6904287 158.96928,26.8837891 C158.787638,27.0771494 158.585492,27.217773 158.362834,27.3056641 C158.140177,27.3935551 157.841352,27.4375 157.46635,27.4375 C157.126505,27.4375 156.815961,27.3847662 156.534709,27.2792969 C156.253458,27.1738276 156.010296,27.0390633 155.805217,26.875 C155.600138,26.7109367 155.441936,26.5263682 155.330608,26.3212891 C155.219279,26.1162099 155.163616,25.9082042 155.163616,25.6972656 C155.163616,25.4980459 155.175334,25.2636732 155.198772,24.9941406 C155.222209,24.724608 155.254436,24.4492202 155.295452,24.1679688 C155.336467,23.8867173 155.377483,23.6083998 155.418498,23.3330078 C155.459514,23.0576158 155.4976,22.8085949 155.532756,22.5859375 C155.579631,22.2929673 155.629436,21.9824235 155.68217,21.6542969 C155.734905,21.3261702 155.793498,20.9628926 155.857952,20.5644531 C155.922405,20.1660136 155.986857,19.7236352 156.051311,19.2373047 C156.115764,18.7509741 156.177287,18.2089874 156.235881,17.6113281 C156.306194,16.9081996 156.373576,16.2255892 156.43803,15.5634766 C156.502483,14.9013639 156.581584,14.2187535 156.675334,13.515625 C156.733928,13.1054667 156.8101,12.7275408 156.90385,12.3818359 C156.9976,12.0361311 157.132365,11.7402356 157.308147,11.4941406 C157.483929,11.2480456 157.712442,11.0546882 157.993694,10.9140625 C158.274945,10.7734368 158.638223,10.703125 159.083538,10.703125 C159.481977,10.703125 159.79838,10.7499995 160.032756,10.84375 C160.267132,10.9375005 160.442912,11.0634758 160.5601,11.2216797 C160.677288,11.3798836 160.75053,11.5615224 160.779827,11.7666016 C160.809124,11.9716807 160.823772,12.1796864 160.823772,12.390625 C160.823772,12.5078131 160.820842,12.6132808 160.814983,12.7070312 C160.809123,12.8007817 160.800334,12.8886715 160.788616,12.9707031 C160.788616,12.9707031 160.785686,13.0175777 160.779827,13.1113281 C160.773967,13.2050786 160.7476,13.3867174 160.700725,13.65625 C160.65385,13.9257826 160.580608,14.3037085 160.480998,14.7900391 C160.381389,15.2763696 160.243695,15.9238241 160.067913,16.7324219 C159.962443,17.2011742 159.851116,17.6816382 159.733928,18.1738281 C159.61674,18.6660181 159.508343,19.1347634 159.408733,19.5800781 C159.309123,20.0253929 159.224163,20.426756 159.15385,20.7841797 C159.083537,21.1416033 159.036663,21.4199209 159.013225,21.6191406 C159.294476,21.291014 159.622598,20.8837915 159.9976,20.3974609 C160.372602,19.9111304 160.747598,19.4160181 161.1226,18.9121094 C161.497602,18.4082006 161.860879,17.9277367 162.212444,17.4707031 C162.564008,17.0136696 162.862833,16.6445327 163.108928,16.3632812 C163.507368,15.9179665 163.897012,15.4960957 164.277873,15.0976562 C164.658735,14.6992168 165.054239,14.3505874 165.464397,14.0517578 C165.874555,13.7529282 166.308145,13.5185555 166.765178,13.3486328 C167.222212,13.1787101 167.726113,13.09375 168.276897,13.09375 C168.593305,13.09375 168.845255,13.1289059 169.032756,13.1992188 C169.220257,13.2695316 169.36381,13.3662103 169.46342,13.4892578 C169.56303,13.6123053 169.627483,13.7529289 169.65678,13.9111328 C169.686077,14.0693367 169.700725,14.2363272 169.700725,14.4121094 L169.700725,14.6933594 C169.700725,14.7636722 169.686077,14.9306627 169.65678,15.1943359 C169.627483,15.4580091 169.592327,15.742186 169.551311,16.046875 C169.510295,16.351564 169.475139,16.6386705 169.445842,16.9082031 C169.416545,17.1777357 169.401897,17.3535152 169.401897,17.4355469 C169.401897,18.3378951 169.472209,19.1816367 169.612834,19.9667969 C169.75346,20.7519571 169.973184,21.4345674 170.272014,22.0146484 C170.570844,22.5947295 170.954629,23.0517561 171.423381,23.3857422 C171.892134,23.7197282 172.454628,23.8867188 173.110881,23.8867188 C173.567915,23.8867188 173.966348,23.8603518 174.306194,23.8076172 C174.646039,23.7548825 174.977091,23.6669928 175.299358,23.5439453 C175.621625,23.4208978 175.952676,23.256837 176.292522,23.0517578 C176.632367,22.8466787 177.024942,22.5976577 177.470256,22.3046875 C177.63432,22.1757806 177.80424,22.0585943 177.980022,21.953125 C178.132366,21.8593745 178.299357,21.7802738 178.480998,21.7158203 C178.66264,21.6513669 178.847208,21.6191406 179.034709,21.6191406 L179.034709,21.6191406 Z M197.614488,26.0136719 C197.614488,26.1425788 197.550035,26.3798811 197.421128,26.7255859 C197.292221,27.0712908 197.139879,27.4374981 196.964097,27.8242188 C196.788315,28.2109394 196.603746,28.583006 196.410386,28.9404297 C196.217026,29.2978533 196.050035,29.5468743 195.909409,29.6875 C195.733627,29.8632821 195.53734,30.0507803 195.320542,30.25 C195.103744,30.4492197 194.857653,30.6396475 194.582261,30.8212891 C194.306869,31.0029306 194.008044,31.1640618 193.685777,31.3046875 C193.363509,31.4453132 193.01488,31.5507809 192.639878,31.6210938 C192.487534,31.6445314 192.370347,31.6708983 192.288316,31.7001953 C192.206284,31.7294923 192.130113,31.7558593 192.0598,31.7792969 C191.602766,31.9785166 191.166247,32.1337885 190.75023,32.2451172 C190.334212,32.3564459 189.956286,32.4121094 189.616441,32.4121094 C188.842999,32.4121094 188.456284,31.9843793 188.456284,31.1289062 C188.456284,30.8242172 188.591049,30.5371107 188.860581,30.2675781 C189.669179,30.0683584 190.386945,29.8105485 191.013902,29.4941406 C191.640858,29.1777328 192.159407,28.8261738 192.569566,28.4394531 C192.663316,28.3339838 192.762924,28.1757823 192.868394,27.9648438 C192.973863,27.7539052 193.073471,27.5341808 193.167222,27.3056641 C193.260972,27.0771473 193.340073,26.8720712 193.404527,26.6904297 C193.46898,26.5087882 193.501206,26.3945315 193.501206,26.3476562 C193.501206,26.2187494 193.498277,26.0664071 193.492417,25.890625 C193.486558,25.7148429 193.471909,25.5302744 193.448472,25.3369141 C193.425034,25.1435537 193.389878,24.9560556 193.343003,24.7744141 C193.296128,24.5927725 193.231675,24.44336 193.149644,24.3261719 C192.926986,23.9863264 192.815659,23.681642 192.815659,23.4121094 C192.815659,23.2714837 192.847886,23.1044932 192.912339,22.9111328 C192.976793,22.7177725 193.064682,22.5302743 193.176011,22.3486328 C193.28734,22.1669913 193.427963,22.0146491 193.597886,21.8916016 C193.767809,21.7685541 193.958236,21.7070312 194.169175,21.7070312 C194.380114,21.7070312 194.634994,21.7480465 194.933823,21.8300781 C195.232653,21.9121098 195.51976,22.0117182 195.795152,22.1289062 C196.070544,22.2460943 196.313705,22.3720696 196.524644,22.5068359 C196.735582,22.6416022 196.858628,22.7675775 196.893784,22.8847656 C197.374256,24.1621158 197.614488,25.2050741 197.614488,26.0136719 L197.614488,26.0136719 Z M223.102169,5.58789062 C223.102169,5.75195395 223.069943,6.04199011 223.005489,6.45800781 C222.941036,6.87402552 222.779904,7.39257502 222.522091,8.01367188 C222.322871,8.51758064 222.164669,8.94531074 222.047481,9.296875 C221.930293,9.64843926 221.859981,9.9121085 221.836544,10.0878906 C221.625605,11.4238348 221.423459,12.8593673 221.230098,14.3945312 C221.036738,15.9296952 220.822873,17.593741 220.588497,19.3867188 C220.529903,19.8789087 220.46838,20.3915989 220.403927,20.9248047 C220.339473,21.4580105 220.28381,21.958982 220.236934,22.4277344 C220.190059,22.8964867 220.151974,23.3095685 220.122677,23.6669922 C220.09338,24.0244158 220.078731,24.2675775 220.078731,24.3964844 C220.078731,24.4902348 220.102169,24.6044915 220.149044,24.7392578 C220.195919,24.8740241 220.248653,25.011718 220.307247,25.1523438 C220.365841,25.2929695 220.418575,25.4277337 220.46545,25.5566406 C220.512325,25.6855475 220.535763,25.7968745 220.535763,25.890625 C220.535763,26.1601576 220.453732,26.4296862 220.289669,26.6992188 C220.125605,26.9687513 219.856077,27.2324206 219.481075,27.4902344 C219.176386,27.7128917 218.871702,27.8798823 218.567013,27.9912109 C218.262323,28.1025396 217.957639,28.1699218 217.65295,28.1933594 C217.090447,28.1933594 216.653928,28.0527358 216.34338,27.7714844 C216.032831,27.490233 215.804318,27.1562519 215.657833,26.7695312 C215.511348,26.3828106 215.426388,25.9785177 215.40295,25.5566406 C215.379512,25.1347635 215.367794,24.7832045 215.367794,24.5019531 C215.367794,23.9394503 215.382442,23.4033229 215.411739,22.8935547 C215.441036,22.3837865 215.484981,21.882815 215.543575,21.390625 C215.637325,20.593746 215.77209,19.6621147 215.947872,18.5957031 C216.123654,17.5292915 216.311152,16.3984435 216.510372,15.203125 C216.545528,15.0156241 216.601192,14.7167989 216.677364,14.3066406 C216.753536,13.8964823 216.841426,13.4248074 216.941036,12.8916016 C217.040646,12.3583958 217.146114,11.7959014 217.257442,11.2041016 C217.368771,10.6123017 217.477168,10.0468777 217.582638,9.5078125 C217.688107,8.9687473 217.781856,8.4853537 217.863888,8.05761719 C217.945919,7.62988067 218.004512,7.31054793 218.039669,7.09960938 C218.109982,6.71288869 218.162715,6.41406355 218.197872,6.203125 C218.233028,5.99218645 218.268184,5.79589935 218.303341,5.61425781 C218.338497,5.43261628 218.379512,5.23046986 218.426388,5.0078125 C218.473263,4.78515514 218.537715,4.47461137 218.619747,4.07617188 L218.602169,4.11132812 C218.625606,3.92382719 218.695918,3.71582146 218.813106,3.48730469 C218.930294,3.25878792 219.073848,3.04199321 219.24377,2.83691406 C219.413693,2.63183491 219.60705,2.46191474 219.823848,2.32714844 C220.040646,2.19238214 220.254511,2.125 220.46545,2.125 C220.95764,2.125 221.373651,2.23925667 221.713497,2.46777344 C222.053342,2.69629021 222.325801,2.97460773 222.53088,3.30273438 C222.735959,3.63086102 222.882442,3.97949034 222.970333,4.34863281 C223.058224,4.71777528 223.102169,5.04296734 223.102169,5.32421875 L223.102169,5.58789062 Z M257.607728,15.4316406 C257.607728,15.654298 257.566713,15.8974596 257.484681,16.1611328 C257.40265,16.424806 257.300112,16.6855456 257.177064,16.9433594 C257.054017,17.2011732 256.919252,17.4443348 256.772767,17.6728516 C256.626282,17.9013683 256.488588,18.0917961 256.359681,18.2441406 C255.984679,18.712893 255.565738,19.2109349 255.102845,19.7382812 C254.639952,20.2656276 254.156559,20.7871068 253.65265,21.3027344 C253.148741,21.818362 252.633121,22.3134742 252.105775,22.7880859 C251.578429,23.2626977 251.05109,23.6757795 250.523744,24.0273438 C250.113585,24.3085952 249.718082,24.5693347 249.33722,24.8095703 C248.956359,25.0498059 248.563785,25.2636709 248.159486,25.4511719 C247.755187,25.6386728 247.327457,25.7851557 246.876283,25.890625 C246.425109,25.9960943 245.929996,26.0488281 245.390931,26.0488281 C244.512021,26.0488281 243.782536,25.8730486 243.202455,25.5214844 C242.622374,25.1699201 242.150699,24.7011748 241.787416,24.1152344 C241.424133,23.5292939 241.145815,22.8584022 240.952455,22.1025391 C240.759094,21.3466759 240.609682,20.5585979 240.504213,19.7382812 C240.351868,18.6249944 240.181948,17.7431673 239.994447,17.0927734 C239.806946,16.4423796 239.578433,16.1171875 239.3089,16.1171875 C239.074524,16.1171875 238.84601,16.172851 238.623353,16.2841797 C238.400696,16.3955084 238.122378,16.6328107 237.788392,16.9960938 C237.454406,17.3593768 237.032535,17.889645 236.522767,18.5869141 C236.012999,19.2841832 235.347967,20.2128848 234.52765,21.3730469 C234.246399,21.7714864 233.903629,22.2167944 233.49933,22.7089844 C233.095031,23.2011743 232.67023,23.6728493 232.224916,24.1240234 C231.779601,24.5751976 231.337223,24.9736311 230.897767,25.3193359 C230.458312,25.6650408 230.051089,25.9023431 229.676088,26.03125 C228.199518,25.7031234 227.461244,24.2910281 227.461244,21.7949219 C227.461244,21.1621062 227.531556,20.2304749 227.672181,19 C227.742494,18.449216 227.821595,17.8691437 227.909486,17.2597656 C227.997377,16.6503876 228.108704,16.038089 228.24347,15.4228516 C228.378237,14.8076141 228.539368,14.2041045 228.726869,13.6123047 C228.91437,13.0205049 229.131164,12.4726588 229.377259,11.96875 C229.517885,11.6874986 229.676087,11.4648446 229.851869,11.3007812 C230.027651,11.1367179 230.20636,11.0136723 230.388002,10.9316406 C230.569643,10.849609 230.760071,10.7968751 230.959291,10.7734375 C231.15851,10.7499999 231.357727,10.7382812 231.556947,10.7382812 C231.732729,10.7382812 231.902649,10.7822261 232.066713,10.8701172 C232.230776,10.9580083 232.377259,11.0839836 232.506166,11.2480469 C232.635073,11.4121102 232.737611,11.611327 232.813783,11.8457031 C232.889955,12.0800793 232.928041,12.3496079 232.928041,12.6542969 C232.928041,12.9238295 232.904603,13.1816394 232.857728,13.4277344 C232.810853,13.6738294 232.7464,13.9287096 232.664369,14.1923828 C232.582337,14.456056 232.497377,14.7343735 232.409486,15.0273438 C232.321595,15.320314 232.230775,15.654295 232.137025,16.0292969 C232.078431,16.2753919 231.993471,16.5917949 231.882142,16.9785156 C231.770814,17.3652363 231.659486,17.7665995 231.548158,18.1826172 C231.436829,18.5986349 231.334291,19.0058574 231.240541,19.4042969 C231.14679,19.8027364 231.088197,20.1367174 231.064759,20.40625 C231.275698,20.160155 231.51886,19.8525409 231.794252,19.4833984 C232.069644,19.114256 232.35968,18.7158225 232.664369,18.2880859 C232.969058,17.8603494 233.279602,17.4238304 233.596009,16.9785156 C233.912417,16.5332009 234.22882,16.1113301 234.545228,15.7128906 C234.955386,15.197263 235.359679,14.7109398 235.758119,14.2539062 C236.156558,13.7968727 236.575499,13.4013689 237.014955,13.0673828 C237.45441,12.7333968 237.931944,12.4697275 238.447572,12.2763672 C238.963199,12.0830068 239.543272,11.9863281 240.187806,11.9863281 C240.949529,11.9863281 241.570616,12.1416 242.051088,12.4521484 C242.531559,12.7626969 242.915344,13.1933566 243.202455,13.7441406 C243.489565,14.2949246 243.703431,14.9482384 243.844056,15.7041016 C243.984682,16.4599647 244.096009,17.2831987 244.178041,18.1738281 C244.224916,18.6308617 244.286439,19.099607 244.362611,19.5800781 C244.438783,20.0605493 244.55304,20.4970683 244.705384,20.8896484 C244.857729,21.2822285 245.056946,21.6044909 245.303041,21.8564453 C245.549136,22.1083997 245.85382,22.234375 246.217103,22.234375 C246.756168,22.234375 247.34503,22.0908217 247.983705,21.8037109 C248.62238,21.5166001 249.293271,21.1210963 249.9964,20.6171875 C250.699529,20.1132787 251.420224,19.5273471 252.158509,18.859375 C252.896794,18.1914029 253.635068,17.4765663 254.373353,16.7148438 C254.607729,16.4687488 254.833313,16.2255871 255.050111,15.9853516 C255.266909,15.745116 255.474915,15.5283213 255.674134,15.3349609 C255.873354,15.1416006 256.066712,14.9863287 256.254213,14.8691406 C256.441713,14.7519525 256.629212,14.6933594 256.816713,14.6933594 C256.887025,14.6933594 256.969056,14.7021483 257.062806,14.7197266 C257.156557,14.7373048 257.244446,14.7724607 257.326478,14.8251953 C257.40851,14.87793 257.475892,14.9511714 257.528627,15.0449219 C257.581361,15.1386723 257.607728,15.2675773 257.607728,15.4316406 L257.607728,15.4316406 Z M271.810553,20.6523438 C271.810553,20.9101575 271.766608,21.1562488 271.678717,21.390625 C271.590826,21.6250012 271.441414,21.8593738 271.230475,22.09375 C271.042974,22.3046886 270.855476,22.5126943 270.667975,22.7177734 C270.480474,22.9228526 270.281257,23.1279287 270.070319,23.3330078 C269.85938,23.538087 269.625008,23.7460927 269.367194,23.9570312 C269.10938,24.1679698 268.810555,24.3964831 268.470709,24.6425781 C267.591799,25.2753938 266.750987,25.8085916 265.948248,26.2421875 C265.14551,26.6757834 264.360362,27.0302721 263.59278,27.3056641 C262.825198,27.5810561 262.066416,27.7773432 261.316413,27.8945312 C260.566409,28.0117193 259.810557,28.0703125 259.048834,28.0703125 C258.193361,28.0703125 257.425791,27.912111 256.7461,27.5957031 C256.066409,27.2792953 255.492196,26.8515652 255.023444,26.3125 C254.554691,25.7734348 254.197273,25.1435583 253.951178,24.4228516 C253.705083,23.7021448 253.582038,22.9433634 253.582038,22.1464844 C253.582038,21.3613242 253.681646,20.5439496 253.880866,19.6943359 C254.080085,18.8447223 254.358403,17.9951214 254.715827,17.1455078 C255.07325,16.2958942 255.50098,15.4609416 255.99903,14.640625 C256.497079,13.8203084 257.050784,13.0410193 257.660163,12.3027344 C257.906257,11.9980454 258.210942,11.6757829 258.574225,11.3359375 C258.937508,10.9960921 259.333012,10.6826186 259.760748,10.3955078 C260.188485,10.108397 260.636723,9.87109469 261.105475,9.68359375 C261.574227,9.49609281 262.037113,9.40234375 262.494147,9.40234375 C262.822274,9.40234375 263.132817,9.47851486 263.425788,9.63085938 C263.718758,9.78320389 263.991216,9.98242064 264.24317,10.2285156 C264.495125,10.4746106 264.717779,10.7529281 264.911139,11.0634766 C265.104499,11.374025 265.27149,11.6933577 265.412116,12.0214844 C265.552741,12.349611 265.658209,12.6689438 265.728522,12.9794922 C265.798835,13.2900406 265.833991,13.5624988 265.833991,13.796875 C265.833991,13.9843759 265.801764,14.2187486 265.737311,14.5 C265.672857,14.7812514 265.573249,15.0537096 265.438483,15.3173828 C265.303717,15.581056 265.130867,15.80371 264.919928,15.9853516 C264.70899,16.1669931 264.45118,16.2578125 264.146491,16.2578125 C263.876958,16.2578125 263.657234,16.210938 263.487311,16.1171875 C263.317388,16.023437 263.170905,15.8857431 263.047858,15.7041016 C262.92481,15.52246 262.819343,15.299806 262.731452,15.0361328 C262.64356,14.7724596 262.546882,14.4707048 262.441413,14.1308594 C262.347662,13.8261704 262.245124,13.6240239 262.133795,13.5244141 C262.022467,13.4248042 261.890632,13.3457034 261.738288,13.2871094 C261.492193,13.4042975 261.210945,13.6210922 260.894538,13.9375 C260.57813,14.2539078 260.261727,14.6406227 259.945319,15.0976562 C259.628911,15.5546898 259.318367,16.0703096 259.013678,16.6445312 C258.708989,17.2187529 258.439461,17.8222625 258.205084,18.4550781 C257.970708,19.0878938 257.78321,19.7353483 257.642584,20.3974609 C257.501959,21.0595736 257.431647,21.7070281 257.431647,22.3398438 C257.431647,22.5976575 257.481451,22.8642564 257.581061,23.1396484 C257.680671,23.4150404 257.821294,23.6699207 258.002936,23.9042969 C258.184577,24.138673 258.410161,24.3320305 258.679694,24.484375 C258.949226,24.6367195 259.253911,24.7128906 259.593756,24.7128906 C262.839866,24.7128906 265.874992,23.552746 268.699225,21.2324219 C269.63673,20.4706993 270.462893,20.0898438 271.177741,20.0898438 C271.388679,20.0898438 271.546881,20.1542962 271.65235,20.2832031 C271.757819,20.41211 271.810553,20.5351557 271.810553,20.6523438 L271.810553,20.6523438 Z M279.843456,23.9394531 C279.843456,24.1972669 279.784863,24.6015597 279.667675,25.1523438 C279.632519,25.3164071 279.509473,25.5214831 279.298534,25.7675781 C279.087596,26.0136731 278.777052,26.3007796 278.366894,26.6289062 C277.991892,26.9335953 277.649122,27.1621086 277.338573,27.3144531 C277.028025,27.4667976 276.767285,27.5429688 276.556347,27.5429688 C276.111032,27.5429688 275.753614,27.4931646 275.484081,27.3935547 C275.214549,27.2939448 275.006543,27.1416026 274.860058,26.9365234 C274.713573,26.7314443 274.616894,26.4648454 274.570019,26.1367188 C274.523144,25.8085921 274.499706,25.4160179 274.499706,24.9589844 C274.499706,24.6308577 274.502636,24.3554699 274.508495,24.1328125 C274.514355,23.9101551 274.534862,23.7167977 274.570019,23.5527344 C274.675488,22.7441366 275.700868,22.3398438 277.646191,22.3398438 C278.114943,22.3398438 278.48701,22.3984369 278.762402,22.515625 C279.037794,22.6328131 279.286815,22.8203112 279.509472,23.078125 C279.732129,23.3007824 279.843456,23.5878889 279.843456,23.9394531 L279.843456,23.9394531 Z"/>
      <path d="M254.451965 17.1453247C253.796435 18.5040858 252.865059 21.0114352 252.865059 21.0114352L254.662238 21.7300179 259.544089 14.2201788 256.57231 14.0495057 255.55716 15.4313356C255.55716 15.4313356 254.693803 16.6440526 254.451965 17.1453247zM156.348572 12.9001465C156.063811 13.6532404 155.881533 15.0725007 155.881533 15.0725007L157.712749 14.9663695 159.286935 11.5308434C159.286935 11.5308434 157.895388 11.68252 157.381714 11.8321533 157.121393 11.9079849 156.96495 12.2072379 156.96495 12.2072379 156.96495 12.2072379 156.42495 12.6981528 156.348572 12.9001465zM134.954809 15.9184428C134.563285 16.4974921 134.051847 17.5046664 133.778081 18.1111139 133.22082 19.3455611 132.55401 21.7998331 132.55401 21.7998331L134.954809 22.27987 137.865523 14.5716518 135.41288 15.4668521C135.41288 15.4668521 135.129185 15.6605465 134.954809 15.9184428zM118.394897 12.2675781C117.67606 12.888828 116.859009 14.3196411 116.859009 14.3196411L120.184387 16.1073608 121.856079 11.6679688C121.856079 11.6679688 121.045182 11.4996707 120.670227 11.5246582 120.348507 11.5460981 119.766052 11.807251 119.766052 11.807251 119.766052 11.807251 118.645074 12.0513646 118.394897 12.2675781zM100.408813 17.2614746C100.229862 16.2221399 99.7739258 14.2392578 99.7739258 14.2392578L106.976135 14.5410767 105.652344 18.984436 103.539124 17.3427734 100.50885 18.5076294C100.50885 18.5076294 100.474837 17.6449305 100.408813 17.2614746z"/>
    </g>
  </g>
</svg>
