<svg xmlns="http://www.w3.org/2000/svg" width="512" height="256" viewBox="0 0 512 256">
  <g fill="#FFFFFF" fill-rule="evenodd">
    <g transform="translate(53 70.508)">
      <path d="M58.8378906,10.4031776 C58.8378906,10.858909 58.780925,11.4122889 58.6669922,12.0633338 C58.5530593,12.7143787 58.3821626,13.3898277 58.1542969,14.089701 C57.9264312,14.7895743 57.674155,15.4568853 57.3974609,16.0916541 C57.1207668,16.7264229 56.8033872,17.2391131 56.4453125,17.6297401 L56.4941406,17.6297401 C55.4524688,18.8667254 52.994811,19.4852088 49.1210938,19.4852088 C49.1210938,18.0854622 49.0641282,16.8729093 48.9501953,15.8475135 C48.8362625,14.8221178 48.6490898,14.0001859 48.3886719,13.3816932 C48.1608062,12.8608573 47.7539092,12.4214085 47.1679688,12.0633338 C46.5820283,11.7052591 45.9228552,11.4122933 45.1904297,11.1844276 C44.4580042,10.9565619 43.7174517,10.7856651 42.96875,10.6717323 C42.2200483,10.5577994 41.5690132,10.5008338 41.015625,10.5008338 C39.6158784,10.5008338 38.2487046,10.5333856 36.9140625,10.5984901 C35.5794204,10.6635946 34.2692122,10.7938016 32.9833984,10.9891151 C31.6975847,11.1844286 30.3955144,11.4611185 29.0771484,11.8191932 C27.7587825,12.1772679 26.4160225,12.6329925 25.0488281,13.1863807 C24.0722607,13.5770077 23.0387424,14.065284 21.9482422,14.6512244 C20.8577419,15.2371649 19.8404995,15.896338 18.8964844,16.6287635 C17.9524692,17.361189 17.1468132,18.1587071 16.4794922,19.0213416 C15.8121711,19.8839762 15.3971362,20.8035633 15.234375,21.7801307 L15.2832031,21.6824744 C15.2832031,22.4637284 15.5436172,23.3344879 16.0644531,24.2947791 C16.5852891,25.2550704 17.2932898,26.1990714 18.1884766,27.1268104 C19.0836633,28.0545494 20.1171816,28.9008951 21.2890625,29.6658729 C22.4609434,30.4308507 23.6979102,30.9923685 25,31.3504432 C25.0976567,31.3829954 25.3743467,31.4806507 25.8300781,31.6434119 C26.2858096,31.8061732 26.8391895,31.9933458 27.4902344,32.2049354 C28.1412793,32.416525 28.8330042,32.6525252 29.5654297,32.9129432 C30.2978552,33.1733612 30.9814421,33.4093614 31.6162109,33.620951 C32.2509797,33.8325406 32.7880837,34.0115753 33.2275391,34.1580604 C33.6669944,34.3045455 33.9192705,34.3940628 33.984375,34.4266151 C41.5364961,36.3471976 47.1353984,38.6583724 50.78125,41.3602088 C54.4271016,44.0620452 56.25,47.3823245 56.25,51.3211463 C56.25,52.5906839 55.9733101,53.8520645 55.4199219,55.105326 C54.8665337,56.3585875 54.1666709,57.5548646 53.3203125,58.6941932 C52.4739541,59.8335218 51.5543669,60.883316 50.5615234,61.8436073 C49.5686799,62.8038985 48.6328169,63.6095545 47.7539062,64.2605994 L47.8027344,64.2117713 C46.8587192,64.960473 45.7926492,65.7254393 44.6044922,66.5066932 C43.4163352,67.2879471 42.1386787,68.0529134 40.7714844,68.8016151 C39.40429,69.5503167 37.9882886,70.2501795 36.5234375,70.9012244 C35.0585864,71.5522694 33.5612056,72.1219251 32.03125,72.6102088 C30.5989512,73.0659403 29.0934324,73.4972511 27.5146484,73.9041541 C25.9358645,74.3110572 24.3652422,74.6609886 22.8027344,74.9539588 C21.2402266,75.246929 19.7347078,75.4747913 18.2861328,75.6375526 C16.8375579,75.8003138 15.5273496,75.8816932 14.3554688,75.8816932 C13.7369761,75.8816932 12.9801477,75.8084517 12.0849609,75.6619666 C11.1897742,75.5154815 10.2457732,75.312033 9.25292969,75.0516151 C8.26008618,74.7911971 7.26725757,74.4819554 6.27441406,74.1238807 C5.28157056,73.765806 4.39453516,73.358909 3.61328125,72.9031776 C2.83202734,72.4474461 2.19726807,71.9591698 1.70898438,71.4383338 C1.22070068,70.9174979 0.9765625,70.364118 0.9765625,69.7781776 C0.9765625,69.2573416 1.07421777,68.6225824 1.26953125,67.8738807 C1.46484473,67.125179 1.74967261,66.4009024 2.12402344,65.7010291 C2.49837427,65.0011558 2.937823,64.3989483 3.44238281,63.8943885 C3.94694263,63.3898287 4.49218457,63.1375526 5.078125,63.1375526 C5.89193115,63.1375526 6.65689746,63.2352078 7.37304688,63.4305213 C8.08919629,63.6258348 8.89485229,63.8455592 9.79003906,64.089701 C10.6852258,64.3338429 11.7268821,64.5617052 12.9150391,64.7732948 C14.103196,64.9848844 15.5761631,65.0906776 17.3339844,65.0906776 C19.0918057,65.0906776 20.922842,64.903505 22.8271484,64.5291541 C24.7314548,64.1548033 26.6113188,63.6502511 28.4667969,63.0154823 C30.3222749,62.3807135 32.0963457,61.6564369 33.7890625,60.8426307 C35.4817793,60.0288245 37.0117119,59.1824788 38.3789062,58.3035682 C38.9648467,57.9129412 39.6077439,57.4653546 40.3076172,56.9607948 C41.0074905,56.4562349 41.6585256,55.9028551 42.2607422,55.3006385 C42.8629587,54.698422 43.367511,54.0718006 43.7744141,53.4207557 C44.1813171,52.7697108 44.3847656,52.1023997 44.3847656,51.4188026 C44.3847656,50.6375487 43.798834,49.8888582 42.6269531,49.1727088 L42.6269531,49.2215369 C40.9016841,48.1798651 39.1927168,47.382347 37.5,46.8289588 C35.8072832,46.2755706 34.3261782,45.819846 33.0566406,45.4617713 C29.4758936,44.5503084 25.113958,43.1017552 19.9707031,41.1160682 L20.0195312,41.1160682 C17.871083,40.2697098 15.7877705,39.1792259 13.7695312,37.8445838 C11.751292,36.5099417 10.0097729,35.1102161 8.54492188,33.6453651 C5.28969727,30.0320658 3.66210938,25.8654408 3.66210938,21.1453651 C3.66210938,19.289887 4.1829375,17.4832645 5.22460938,15.7254432 C6.26628125,13.9676219 7.68228271,12.3156202 9.47265625,10.7693885 C11.2630298,9.22315682 13.3382043,7.79901742 15.6982422,6.49692757 C18.05828,5.19483773 20.5729033,4.07994002 23.2421875,3.15220101 C25.9114717,2.224462 28.6376814,1.50018539 31.4208984,0.979349449 C34.2041155,0.458513511 36.8977734,0.198099449 39.5019531,0.198099449 C40.3157593,0.198099449 41.3330017,0.255065025 42.5537109,0.368997886 C43.7744202,0.482930747 45.0276628,0.645689536 46.3134766,0.857279136 C47.5992903,1.06886874 48.8281191,1.3292828 50,1.63852914 C51.1718809,1.94777547 52.099606,2.29770687 52.7832031,2.68833382 L52.734375,2.68833382 C54.6224053,3.69745345 56.1116482,4.90186849 57.2021484,6.30161507 C58.2926487,7.70136166 58.8378906,9.06853548 58.8378906,10.4031776 L58.8378906,10.4031776 Z M120.653464,24.5633338 C120.653464,25.7352147 120.506981,27.0047332 120.21401,28.3719276 C119.92104,29.7391219 119.546695,31.1876751 119.090964,32.7176307 C118.635232,34.2475863 118.13068,35.8588983 117.577292,37.5516151 C117.023903,39.2443319 116.470524,41.0021268 115.917135,42.8250526 C114.549941,47.252158 113.272285,51.5164383 112.084128,55.6180213 C110.895971,59.7196043 109.846176,63.5118841 108.934714,66.9949744 C108.023251,70.4780648 107.307112,73.5948956 106.786276,76.3455604 C106.26544,79.0962252 106.005026,81.3341585 106.005026,83.0594276 C106.005026,83.4500545 106.053854,83.8488136 106.15151,84.2557166 C106.249167,84.6626197 106.297995,84.9962752 106.297995,85.2566932 C106.297995,85.4845589 106.143374,86.0298009 105.834128,86.8924354 C105.524881,87.7550699 105.166812,88.6746571 104.759909,89.6512244 C104.353006,90.6277918 103.937971,91.5311031 103.514792,92.3611854 C103.091612,93.1912677 102.782371,93.7039578 102.587057,93.8992713 C102.391744,94.1596893 102.009261,94.3794137 101.439596,94.558451 C100.869932,94.7374884 100.145655,94.8270057 99.2667448,94.8270057 C95.6208932,94.8270057 93.7979948,92.9390037 93.7979948,89.1629432 C93.7979948,87.9910623 93.9363398,86.5913368 94.2130339,84.9637244 C94.4897279,83.3361121 94.8233835,81.6678346 95.2140104,79.9588416 C95.6046374,78.2498487 96.0033964,76.6059849 96.4102995,75.027201 C96.8172026,73.4484171 97.1508581,72.1382088 97.411276,71.0965369 C97.5740373,70.5431488 97.8181755,69.7537686 98.1436979,68.7283729 C98.4692204,67.7029771 98.8598415,66.5473897 99.3155729,65.261576 C99.7713044,63.9757623 100.259581,62.6085885 100.780417,61.1600135 C101.301253,59.7114386 101.838357,58.2872992 102.391745,56.8875526 C102.945133,55.487806 103.490375,54.1694598 104.027487,52.9324744 C104.564599,51.6954891 105.044737,50.6538328 105.467917,49.8074744 C104.36114,51.4025345 102.928863,52.9568809 101.171042,54.4705604 C99.4132204,55.9842398 97.5170805,57.3188619 95.4825651,58.4744666 C93.4480497,59.6300714 91.397289,60.5577965 89.3302214,61.2576698 C87.2631537,61.9575431 85.3832897,62.3074744 83.6905729,62.3074744 C81.7048859,62.3074744 79.8819875,61.9331292 78.2218229,61.1844276 C76.5616584,60.4357259 75.137519,59.4510352 73.949362,58.230326 C72.761205,57.0096168 71.8416178,55.6180291 71.1905729,54.0555213 C70.539528,52.4930135 70.2140104,50.8817015 70.2140104,49.2215369 C70.2140104,47.9194471 70.3442174,46.5115836 70.6046354,44.9979041 C70.8650534,43.4842247 71.2231227,41.8403609 71.6788542,40.0662635 C72.1345856,38.2921661 72.6961034,36.3471986 73.3634245,34.2313026 C74.0307455,32.1154066 74.771298,29.8205077 75.5851042,27.3465369 C75.9106266,26.3699696 76.2035924,25.4503824 76.4640104,24.5877479 C76.7244284,23.7251134 77.0662218,22.9601471 77.489401,22.292826 C77.9125802,21.625505 78.4496842,21.0965389 79.1007292,20.7059119 C79.7517741,20.315285 80.6143957,20.1199744 81.6886198,20.1199744 C83.3487843,20.1199744 84.5531994,20.6408026 85.301901,21.6824744 C86.0506027,22.7241463 86.4249479,24.0262166 86.4249479,25.5887244 C86.4249479,26.8257098 86.1645339,28.3312286 85.6436979,30.105326 C85.122862,31.8794234 84.4392751,33.9871497 83.5929167,36.4285682 C82.7791105,38.6746732 82.1443512,40.6033648 81.6886198,42.214701 C81.2328883,43.8260372 81.005026,45.201349 81.005026,46.3406776 C81.005026,48.2938123 81.281716,49.8074691 81.8351042,50.8816932 C82.3884924,51.9559173 83.2999416,52.4930213 84.5694792,52.4930213 C86.001778,52.4930213 87.4910209,52.2163314 89.0372526,51.6629432 C90.5834843,51.109555 92.1378307,50.3608646 93.7003385,49.4168494 C95.2628464,48.4728343 96.792779,47.3497987 98.2901823,46.0477088 C99.7875856,44.745619 101.179173,43.3621693 102.464987,41.8973182 C103.750801,40.4324671 104.906388,38.9025345 105.931784,37.3074744 C106.95718,35.7124144 107.779111,34.1336541 108.397604,32.5711463 C109.016097,31.0411908 109.536925,29.4624305 109.960104,27.8348182 C110.383283,26.2072059 110.847146,24.7261009 111.351706,23.3914588 C111.856266,22.0568167 112.482887,20.950057 113.231589,20.0711463 C113.98029,19.1922357 114.973119,18.7527869 116.210104,18.7527869 C117.186672,18.7527869 117.967914,18.9155457 118.553854,19.2410682 C119.139795,19.5665907 119.587381,20.0060394 119.896628,20.5594276 C120.205874,21.1128158 120.409322,21.7312992 120.506979,22.4148963 C120.604636,23.0984935 120.653464,23.8146322 120.653464,24.5633338 L120.653464,24.5633338 Z M212.254193,43.1180213 C212.775029,43.1180213 213.141236,43.1831248 213.352826,43.3133338 C213.564415,43.4435428 213.670208,43.7527845 213.670208,44.2410682 C213.670208,45.4780536 213.263311,46.763848 212.449505,48.0984901 C211.635699,49.4331322 210.520801,50.7270645 209.104779,51.980326 C207.688756,53.2335875 206.036754,54.4217266 204.148724,55.5447791 C202.260694,56.6678316 200.250623,57.6606602 198.118451,58.5232948 C195.986278,59.3859293 193.797173,60.0613783 191.551068,60.5496619 C189.304963,61.0379456 187.091443,61.2820838 184.910443,61.2820838 C182.436472,61.2820838 180.27178,60.9077386 178.416302,60.1590369 C176.560824,59.4103353 174.95765,58.4337826 173.606732,57.2293494 C172.255814,56.0249163 171.12464,54.6496046 170.213177,53.1033729 C169.301714,51.5571412 168.553024,49.970243 167.967083,48.3426307 C167.381143,46.7150184 166.91728,45.1281202 166.575482,43.5818885 C166.233683,42.0356568 165.948855,40.6603451 165.72099,39.4559119 C165.655885,39.1303895 165.590782,38.796734 165.525677,38.4549354 C165.460573,38.1131368 165.23271,37.9422401 164.842083,37.9422401 C164.64677,37.9422401 164.313114,38.2758956 163.841107,38.9432166 C163.369099,39.6105377 162.823857,40.4568834 162.205365,41.4822791 C161.586872,42.5076749 160.935837,43.6469864 160.25224,44.9002479 C159.568642,46.1535094 158.933883,47.3823382 158.347943,48.5867713 C157.241166,50.8328763 156.085579,53.1033614 154.881146,55.3982948 C153.676713,57.6932281 152.399056,59.7602647 151.048138,61.5994666 C149.69722,63.4386685 148.240529,64.9441873 146.678021,66.1160682 C145.115513,67.2879491 143.422822,67.8738807 141.599896,67.8738807 C139.907179,67.8738807 138.556281,67.3286388 137.547161,66.2381385 C136.538042,65.1476383 135.781213,63.7479127 135.276654,62.0389198 C134.772094,60.3299268 134.446576,58.4012352 134.300091,56.2527869 C134.153606,54.1043387 134.080365,51.9884744 134.080365,49.9051307 C134.080365,47.3986077 134.112916,45.1525365 134.178021,43.1668494 C134.243125,41.1811624 134.275677,39.1955052 134.275677,37.2098182 C134.275677,35.9728328 134.454712,34.8009696 134.812786,33.6941932 C135.170861,32.5874168 135.642862,31.6108641 136.228802,30.7645057 C136.814743,29.9181473 137.473916,29.2508363 138.206341,28.7625526 C138.938767,28.2742689 139.679319,28.0301307 140.428021,28.0301307 C141.209275,28.0301307 141.966103,28.0952342 142.698529,28.2254432 C143.430954,28.3556522 144.081989,28.6404801 144.651654,29.0799354 C145.221318,29.5193907 145.668905,30.1704259 145.994427,31.0330604 C146.31995,31.8956949 146.482708,33.0594202 146.482708,34.5242713 C146.482708,35.9891224 146.360639,37.4946412 146.116497,39.0408729 C145.872356,40.5871046 145.603804,42.2391063 145.310833,43.9969276 C145.017863,45.7547489 144.741173,47.6671646 144.480755,49.7342323 C144.220337,51.8012999 144.073854,54.1206126 144.041302,56.6922401 C144.464481,56.2690609 144.969034,55.585474 145.554974,54.6414588 C146.140914,53.6974437 146.767536,52.6150977 147.434857,51.3943885 C148.102178,50.1736793 148.761351,48.8878848 149.412396,47.5369666 C150.063441,46.1860484 150.681924,44.8921161 151.267865,43.6551307 C152.79782,40.3348016 154.246373,37.4783848 155.613568,35.0857948 C156.980762,32.6932047 158.421177,30.7319613 159.934857,29.2020057 C161.448536,27.6720501 163.0924,26.5408765 164.866497,25.808451 C166.640595,25.0760255 168.715769,24.7098182 171.092083,24.7098182 C171.710576,24.7098182 172.272094,24.872577 172.776654,25.1980994 C173.281213,25.5236219 173.720662,25.9386568 174.095013,26.4432166 C174.469364,26.9477765 174.754192,27.5255702 174.949505,28.1766151 C175.144819,28.82766 175.242474,29.4786952 175.242474,30.1297401 C175.242474,33.8732484 175.49475,37.0877345 175.99931,39.7732948 C176.50387,42.4588551 177.309526,44.6560987 178.416302,46.3650916 C179.523078,48.0740846 180.947218,49.3273272 182.688763,50.1248573 C184.430308,50.9223873 186.538035,51.3211463 189.012005,51.3211463 C189.760707,51.2560418 190.729122,51.1339727 191.917279,50.9549354 C193.105436,50.775898 194.399368,50.5236219 195.799115,50.1980994 C197.198861,49.872577 198.631139,49.4494041 200.09599,48.9285682 C201.560841,48.4077323 202.94429,47.7892489 204.24638,47.0730994 C204.409141,46.9754427 204.856728,46.7150286 205.589154,46.2918494 C206.321579,45.8686702 207.135373,45.4210836 208.03056,44.949076 C208.925747,44.4770684 209.78023,44.0538956 210.594036,43.6795448 C211.407843,43.3051939 211.961222,43.1180213 212.254193,43.1180213 L212.254193,43.1180213 Z M228.268984,29.3484901 C228.268984,27.9161912 228.04926,26.9070868 227.609805,26.3211463 C227.170349,25.7352059 226.673935,25.4422401 226.120547,25.4422401 C225.632263,25.4422401 225.062607,25.7352059 224.411563,26.3211463 C223.760518,26.9070868 223.085069,27.6964669 222.385195,28.6893104 C221.685322,29.6821539 220.985459,30.8377413 220.285586,32.1561073 C219.585713,33.4744732 218.934677,34.8660609 218.332461,36.3309119 C217.730244,37.795763 217.225692,39.3012818 216.818789,40.8475135 C216.411886,42.3937452 216.127058,43.8829881 215.964297,45.3152869 C216.908312,44.534033 217.762796,43.8260323 218.527773,43.1912635 C219.292751,42.5564947 220.017028,41.8810457 220.700625,41.1648963 C221.384222,40.4812992 222.157326,39.6430914 223.019961,38.6502479 C223.882595,37.6574044 224.704527,36.6238861 225.485781,35.5496619 C226.267035,34.4754378 226.926208,33.4012298 227.46332,32.3270057 C228.000432,31.2527816 228.268984,30.259953 228.268984,29.3484901 L228.268984,29.3484901 Z M265.866641,35.8426307 C265.671327,36.3960189 265.34581,37.047054 264.890078,37.7957557 C263.620541,39.813995 262.033642,42.0112386 260.129336,44.3875526 C258.22503,46.7638665 256.125441,49.1320069 253.830508,51.4920448 C251.535574,53.8520826 249.077917,56.1307056 246.457461,58.3279823 C243.837005,60.5252589 241.184037,62.4702264 238.498477,64.1629432 C235.812916,65.85566 233.135534,67.2146959 230.46625,68.2400916 C227.796966,69.2654874 225.257929,69.7781776 222.849063,69.7781776 C219.789151,69.7781776 217.119907,69.3550047 214.84125,68.5086463 C212.562593,67.6622879 210.674591,66.4334591 209.177188,64.8221229 C207.679784,63.2107867 206.556749,61.2414054 205.808047,58.9139198 C205.059345,56.5864342 204.685,53.9416038 204.685,50.9793494 C204.685,48.7332445 204.855897,46.3569661 205.197695,43.8504432 C205.539494,41.3439202 206.166115,38.7967452 207.077578,36.2088416 C207.989041,33.6209381 209.21787,31.0167974 210.764102,28.3963416 C212.310333,25.7758858 214.287853,23.2449867 216.696719,20.8035682 C218.552197,18.9155379 220.55413,17.4832606 222.702578,16.5066932 C224.851026,15.5301258 226.901787,15.0418494 228.854922,15.0418494 C229.212997,15.0418494 229.668721,15.1150909 230.222109,15.261576 C230.775498,15.4080611 231.328877,15.6115096 231.882266,15.8719276 C232.435654,16.1323455 232.972758,16.4415872 233.493594,16.7996619 C234.01443,17.1577367 234.437603,17.5483577 234.763125,17.9715369 C235.804797,19.306179 236.586039,20.5675597 237.106875,21.7557166 C237.627711,22.9438736 237.888125,24.2866336 237.888125,25.7840369 C237.888125,28.1277987 237.562607,30.2436629 236.911563,32.1316932 C236.260518,34.0197235 235.373482,35.7856563 234.25043,37.4295448 C233.127377,39.0734332 231.800893,40.6603314 230.270938,42.1902869 C228.740982,43.7202425 227.097118,45.3152786 225.339297,46.9754432 C224.265073,47.9845628 222.930451,49.0831847 221.335391,50.2713416 C219.740331,51.4594986 218.031363,52.753431 216.208438,54.1531776 C216.468855,55.1622972 216.794373,56.0330567 217.185,56.7654823 C217.575627,57.4979078 218.063903,58.1082533 218.649844,58.5965369 C219.235784,59.0848206 219.943785,59.4510279 220.773867,59.6951698 C221.603949,59.9393116 222.58864,60.0613807 223.727969,60.0613807 C225.257924,60.0613807 226.89365,59.8009666 228.635195,59.2801307 C230.37674,58.7592948 232.126397,58.0919837 233.884219,57.2781776 C235.414174,56.5620282 236.927831,55.6587169 238.425234,54.5682166 C239.922638,53.4777164 241.436294,52.3465428 242.96625,51.1746619 C243.910265,50.4585125 245.122818,49.4249942 246.603945,48.074076 C248.085073,46.7231578 249.590591,45.3152943 251.120547,43.8504432 C252.162219,42.8738758 253.203875,41.9217369 254.245547,40.9939979 C255.287219,40.0662589 256.393979,39.0327406 257.565859,37.8934119 L260.15375,35.3543494 C262.04178,33.8243939 263.571713,33.0594276 264.743594,33.0594276 C265.362086,33.0594276 265.752708,33.2384622 265.915469,33.5965369 C266.07823,33.9546117 266.159609,34.2964051 266.159609,34.6219276 C266.159609,34.8823455 266.061954,35.2892425 265.866641,35.8426307 Z M306.441979,32.3270057 C306.441979,32.6199759 306.376876,33.010597 306.246667,33.4988807 C306.116458,33.9871644 305.921147,34.4754408 305.660729,34.9637244 C305.400311,35.4520081 305.066656,35.875181 304.659753,36.2332557 C304.25285,36.5913304 303.756435,36.786641 303.170495,36.8191932 C303.040286,36.8191932 302.763596,36.8110553 302.340417,36.7947791 C301.917237,36.778503 301.461513,36.7540892 300.973229,36.7215369 C300.484945,36.6889847 300.029221,36.6645709 299.606042,36.6482948 C299.182862,36.6320186 298.873621,36.6238807 298.678307,36.6238807 C293.242082,36.9168509 288.538353,38.8699564 284.566979,42.4832557 C283.655516,43.2970619 282.719653,44.2573387 281.759362,45.3641151 C280.799071,46.4708914 279.85507,47.6834444 278.927331,49.0018104 C277.999592,50.3201764 277.112556,51.7280399 276.266198,53.2254432 C275.41984,54.7228465 274.654873,56.2853309 273.971276,57.9129432 C273.417888,59.2475853 272.880784,60.6228971 272.359948,62.0389198 C271.839112,63.4549425 271.383387,64.9441854 270.99276,66.5066932 C270.764895,67.3530516 270.593998,68.0936041 270.480065,68.7283729 C270.366132,69.3631417 270.17896,70.1036942 269.918542,70.9500526 C269.75578,71.4708885 269.47909,71.9184752 269.088464,72.292826 C268.697837,72.6671768 268.242112,72.9764185 267.721276,73.2205604 C267.20044,73.4647022 266.655198,73.6518748 266.085534,73.7820838 C265.51587,73.9122928 264.954352,73.9936722 264.400964,74.0262244 C262.31762,74.0262244 260.885342,73.0822235 260.104089,71.1941932 C259.322835,69.3061629 258.932214,66.4904359 258.932214,62.7469276 C258.932214,61.9005692 258.940351,61.1030511 258.956628,60.3543494 C258.972904,59.6056478 259.005455,58.8488194 259.054284,58.0838416 C259.103112,57.3188639 259.160078,56.5213458 259.225182,55.6912635 C259.290287,54.8611812 259.371666,53.9253182 259.469323,52.8836463 C259.599532,51.3536908 259.778567,49.5389303 260.006432,47.4393104 C260.234298,45.3396905 260.478436,43.2075504 260.738854,41.042826 C260.999272,38.8781016 261.2841,36.7866512 261.593346,34.7684119 C261.902593,32.7501727 262.219972,31.0412054 262.545495,29.6414588 C262.936122,27.9161898 263.595295,26.5652918 264.523034,25.5887244 C265.450773,24.6121571 266.809809,24.1238807 268.600182,24.1238807 C269.121018,24.1238807 269.649984,24.2622257 270.187096,24.5389198 C270.724208,24.8156139 271.204347,25.1492694 271.627526,25.5398963 C272.050705,25.9305233 272.408775,26.3536961 272.701745,26.8094276 C272.994715,27.265159 273.157474,27.672056 273.190026,28.0301307 L273.238854,28.9090369 C273.238854,29.8204998 273.157475,30.8947078 272.994714,32.1316932 C272.831952,33.3686786 272.612228,34.6788868 272.335534,36.0623573 C272.05884,37.4458277 271.765874,38.8455533 271.456628,40.261576 C271.147381,41.6775987 270.83814,43.0284967 270.528893,44.3143104 C270.219647,45.6001241 269.942957,46.7882633 269.698815,47.8787635 C269.454673,48.9692638 269.267501,49.872575 269.137292,50.5887244 C270.27662,48.1798582 271.497311,45.8605455 272.799401,43.6307166 C274.101491,41.4008878 275.501216,39.3338512 276.99862,37.4295448 C278.496023,35.5252384 280.107335,33.824409 281.832604,32.3270057 C283.557873,30.8296024 285.413323,29.6251873 287.39901,28.7137244 C288.961518,27.997575 290.393796,27.4523331 291.695885,27.0779823 C292.997975,26.7036314 294.169839,26.5164588 295.21151,26.5164588 C296.448496,26.5164588 297.726152,26.6466659 299.044518,26.9070838 C300.362884,27.1675018 301.567299,27.5499849 302.657799,28.0545448 C303.7483,28.5591046 304.651611,29.16945 305.36776,29.8855994 C306.08391,30.6017489 306.441979,31.4155428 306.441979,32.3270057 L306.441979,32.3270057 Z M346.138411,36.1355994 C346.138411,37.8283162 346.073308,39.8872149 345.943099,42.3123573 C345.81289,44.7374996 345.617579,47.5613646 345.357161,50.7840369 C345.1944,52.769724 344.966538,55.1053126 344.673568,57.7908729 C344.380597,60.4764332 344.01439,63.2107808 343.574935,65.9939979 C343.13548,68.7772149 342.639065,71.4871488 342.085677,74.1238807 C341.532289,76.7606126 340.913806,79.0555116 340.230208,81.0086463 C339.546611,82.9292288 338.667714,84.7521273 337.59349,86.4773963 C336.519265,88.2026654 335.241609,89.72446 333.760482,91.042826 C332.279355,92.361192 330.594801,93.4028482 328.706771,94.167826 C326.818741,94.9328038 324.735428,95.3152869 322.456771,95.3152869 C320.471084,95.3152869 318.501702,95.0467349 316.548568,94.5096229 C314.595433,93.9725108 312.739983,93.2645101 310.982161,92.3855994 C309.22434,91.5066888 307.596752,90.5057223 306.099349,89.3826698 C304.601946,88.2596173 303.299875,87.087754 302.193099,85.8670448 C301.086323,84.6463355 300.223701,83.4337826 299.605208,82.2293494 C298.986716,81.0249163 298.677474,79.9181566 298.677474,78.9090369 C298.677474,76.9884544 299.621475,76.0281776 301.509505,76.0281776 C301.965237,76.0281776 302.380272,76.1258328 302.754622,76.3211463 C303.128973,76.5164598 303.462629,76.7443221 303.755599,77.0047401 C304.048569,77.265158 304.317121,77.541848 304.561263,77.8348182 C304.805405,78.1277884 305.025129,78.3719266 305.220443,78.5672401 C306.652742,79.9018822 308.060605,81.0086419 309.444076,81.8875526 C310.827546,82.7664632 312.219134,83.474464 313.61888,84.011576 C315.018627,84.5486881 316.442766,84.9311712 317.891341,85.1590369 C319.339916,85.3869027 320.829159,85.5008338 322.359115,85.5008338 C324.247145,85.5008338 325.793353,85.0125575 326.997786,84.0359901 C328.20222,83.0594227 329.170634,81.7899041 329.90306,80.2273963 C330.635485,78.6648885 331.205141,76.9233695 331.612044,75.0027869 C332.018947,73.0822044 332.368879,71.1942025 332.661849,69.3387244 L332.661849,69.3875526 C333.019924,67.0437909 333.329165,64.7814437 333.589583,62.6004432 C333.850001,60.4194427 334.061588,58.3035785 334.224349,56.2527869 C332.987364,57.587429 331.489983,58.8243958 329.732161,59.9637244 C327.97434,61.1030531 326.127028,62.0877437 324.190169,62.917826 C322.253311,63.7479083 320.308343,64.3989434 318.355208,64.870951 C316.402074,65.3429586 314.595451,65.5789588 312.935286,65.5789588 C312.316794,65.5789588 311.54369,65.4975794 310.615951,65.3348182 C309.688212,65.172057 308.809314,64.903505 307.979232,64.5291541 C307.149149,64.1548033 306.433011,63.6502511 305.830794,63.0154823 C305.228578,62.3807135 304.927474,61.5913333 304.927474,60.6473182 C304.927474,58.7918402 305.236716,56.6515621 305.855208,54.2264198 C306.473701,51.8012774 307.263081,49.3436197 308.223372,46.8533729 C309.183664,44.3631261 310.257872,41.9705719 311.446029,39.6756385 C312.634186,37.3807052 313.814187,35.4520135 314.986068,33.8895057 C316.548576,31.7410575 318.257543,29.787952 320.113021,28.0301307 C321.968499,26.2723094 323.832087,24.7586527 325.703841,23.4891151 C327.575595,22.2195775 329.382218,21.2430247 331.123763,20.5594276 C332.865308,19.8758304 334.403379,19.5340369 335.738021,19.5340369 C336.812245,19.5340369 337.992246,19.6398302 339.27806,19.8514198 C340.563874,20.0630094 341.760151,20.4129408 342.866927,20.9012244 C343.973703,21.3895081 344.901429,22.0486812 345.65013,22.8787635 C346.398832,23.7088458 346.773177,24.7423641 346.773177,25.9793494 C346.773177,26.5978421 346.740625,27.3058429 346.675521,28.1033729 C346.610416,28.9009029 346.537175,29.7472486 346.455794,30.6424354 C346.374414,31.5376222 346.301172,32.4572093 346.236068,33.4012244 C346.170963,34.3452396 346.138411,35.2566888 346.138411,36.1355994 L346.138411,36.1355994 Z M335.054427,43.5574744 C335.184636,42.7762205 335.322981,41.8566334 335.469466,40.7986854 C335.615951,39.7407374 335.746158,38.5932879 335.860091,37.3563026 C335.974024,36.1193172 336.063541,34.8253848 336.128646,33.4744666 C336.19375,32.1235484 336.226302,30.7482367 336.226302,29.3484901 C336.226302,28.9904154 336.047267,28.6811737 335.689193,28.4207557 C335.331118,28.1603377 334.907945,28.0301307 334.419661,28.0301307 C333.866273,28.0301307 332.987376,28.5021312 331.782943,29.4461463 C330.57851,30.3901615 329.23575,31.6759559 327.754622,33.3035682 C326.273495,34.9311805 324.743563,36.8273204 323.164779,38.9920448 C321.585995,41.1567691 320.145579,43.459806 318.84349,45.9012244 C318.485415,46.5522694 318.143621,47.3253736 317.818099,48.2205604 C317.492576,49.1157472 317.199611,50.0434723 316.939193,51.0037635 C316.678775,51.9640548 316.45905,52.9324696 316.280013,53.9090369 C316.100976,54.8856043 315.962631,55.7807777 315.864974,56.5945838 C317.655347,56.2039569 319.575901,55.6668529 321.626693,54.9832557 C323.677484,54.2996585 325.500383,53.5021405 327.095443,52.5906776 C328.006906,52.0698416 328.902079,51.4513582 329.78099,50.7352088 C330.6599,50.0190594 331.465556,49.2540931 332.197982,48.4402869 C332.930407,47.6264808 333.548891,46.8045489 334.053451,45.9744666 C334.55801,45.1443844 334.891666,44.3387284 335.054427,43.5574744 L335.054427,43.5574744 Z M407.661016,30.3250526 C407.628463,30.8784408 407.433153,31.7492003 407.075078,32.9373573 C406.717003,34.1255142 406.269417,35.5171019 405.732305,37.1121619 C405.195193,38.707222 404.576709,40.456879 403.876836,42.3611854 C403.176963,44.2654918 402.4771,46.2267352 401.777227,48.2449744 C401.077353,50.2632137 400.385628,52.2895606 399.702031,54.324076 C399.018434,56.3585914 398.416227,58.287283 397.895391,60.1102088 C397.862838,60.2078656 397.724493,60.6554522 397.480352,61.4529823 C397.23621,62.2505123 396.91883,63.2758927 396.528203,64.5291541 C396.137576,65.7824156 395.698127,67.1984171 395.209844,68.777201 C394.72156,70.3559849 394.225146,71.9754349 393.720586,73.6355994 C393.216026,75.295764 392.711474,76.915214 392.206914,78.4939979 C391.702354,80.0727818 391.254768,81.4969212 390.864141,82.7664588 C390.473514,84.0359964 390.147996,85.0857906 389.887578,85.9158729 C389.62716,86.7459552 389.480677,87.2098177 389.448125,87.3074744 C389.187707,88.1863851 388.902879,89.2117655 388.593633,90.3836463 C388.284386,91.5555272 387.861214,92.654149 387.324102,93.6795448 C386.78699,94.7049405 386.078989,95.5757 385.200078,96.2918494 C384.321167,97.0079989 383.16558,97.3660682 381.733281,97.3660682 C380.919475,97.3660682 380.195198,97.2033094 379.56043,96.8777869 C378.925661,96.5522645 378.388557,96.1372296 377.949102,95.6326698 C377.509646,95.1281099 377.167853,94.5584542 376.923711,93.9236854 C376.679569,93.2889166 376.5575,92.6622952 376.5575,92.0438026 C376.5575,91.3276532 376.736535,90.3755142 377.094609,89.1873573 C377.452684,87.9992003 377.900271,86.69713 378.437383,85.2811073 C378.974495,83.8650846 379.560427,82.3677037 380.195195,80.7889198 C380.829964,79.2101358 381.424034,77.6557894 381.977422,76.1258338 C381.977422,76.1258338 382.099491,75.8084542 382.343633,75.1736854 C382.587775,74.5389166 382.905154,73.7007088 383.295781,72.6590369 C383.686408,71.6173651 384.117719,70.4455018 384.589727,69.1434119 C385.061734,67.8413221 385.541873,66.5392518 386.030156,65.2371619 C386.51844,63.9350721 386.982302,62.6981053 387.421758,61.5262244 C387.861213,60.3543436 388.22742,59.3777909 388.520391,58.5965369 C387.771689,59.2150296 386.909067,59.8823407 385.9325,60.5984901 C384.955933,61.3146395 383.922414,62.0389161 382.831914,62.7713416 C381.741414,63.5037672 380.593964,64.20363 379.389531,64.870951 C378.185098,65.5382721 376.988821,66.1323416 375.800664,66.6531776 C374.612507,67.1740135 373.440644,67.5890484 372.285039,67.8982948 C371.129434,68.2075411 370.030813,68.3621619 368.989141,68.3621619 C366.743036,68.3621619 364.757378,67.9878167 363.032109,67.2391151 C361.30684,66.4904134 359.858287,65.5382745 358.686406,64.3826698 C357.514525,63.227065 356.62749,61.9575465 356.025273,60.574076 C355.423057,59.1906056 355.121953,57.8478455 355.121953,56.5457557 C355.121953,55.5691883 355.227746,54.3647733 355.439336,52.9324744 C355.650926,51.5001756 355.943891,49.9621051 356.318242,48.3182166 C356.692593,46.6743282 357.14018,44.9653609 357.661016,43.1912635 C358.181852,41.4171661 358.735231,39.7000609 359.321172,38.0398963 C359.907112,36.3797318 360.517458,34.8416612 361.152227,33.4256385 C361.786995,32.0096158 362.429893,30.8296146 363.080938,29.8855994 C364.090057,28.4207484 365.058472,27.395368 365.986211,26.8094276 C366.91395,26.2234871 367.914917,25.9305213 368.989141,25.9305213 C369.99826,25.9305213 370.820192,26.0770042 371.454961,26.3699744 C372.08973,26.6629447 372.586144,27.0698416 372.944219,27.5906776 C373.302293,28.1115135 373.546432,28.6974452 373.676641,29.3484901 C373.80685,29.999535 373.871953,30.6993978 373.871953,31.4480994 C373.871953,31.9038309 373.684781,32.5548661 373.31043,33.4012244 C372.936079,34.2475828 372.472216,35.2566873 371.918828,36.4285682 C371.430544,37.4376878 370.860889,38.6339649 370.209844,40.0174354 C369.558799,41.4009058 368.956591,42.8982867 368.403203,44.5096229 C367.849815,46.1209591 367.377814,47.8055125 366.987188,49.5633338 C366.596561,51.3211551 366.40125,53.0952259 366.40125,54.8855994 C366.40125,55.5040921 366.564009,56.0249202 366.889531,56.4480994 C367.215054,56.8712786 367.597537,57.2049342 368.036992,57.449076 C368.476448,57.6932179 368.932172,57.8722525 369.40418,57.9861854 C369.876187,58.1001182 370.25867,58.1570838 370.551641,58.1570838 C371.723521,58.1570838 372.944212,57.9210836 374.21375,57.449076 C375.483288,56.9770684 376.744668,56.3911368 377.99793,55.6912635 C379.251191,54.9913902 380.471882,54.2426998 381.660039,53.4451698 C382.848196,52.6476397 383.97937,51.9233631 385.053594,51.2723182 C385.932504,50.71893 386.909057,50.0109293 387.983281,49.1482948 C389.057505,48.2856602 389.98523,47.3172454 390.766484,46.2430213 C391.124559,45.7547376 391.55587,44.8839781 392.06043,43.6307166 C392.56499,42.3774552 393.093956,40.9533158 393.647344,39.3582557 C394.200732,37.7631956 394.745974,36.1274698 395.283086,34.4510291 C395.820198,32.7745885 396.284061,31.2527938 396.674688,29.8855994 C396.967658,28.9090321 397.350141,28.0545484 397.822148,27.3221229 C398.294156,26.5896973 398.798708,25.9874898 399.33582,25.5154823 C399.872932,25.0434747 400.426312,24.6854054 400.995977,24.4412635 C401.565641,24.1971217 402.094607,24.0750526 402.582891,24.0750526 C403.689667,24.0750526 404.576702,24.1727078 405.244023,24.3680213 C405.911344,24.5633348 406.424035,24.8969903 406.782109,25.3689979 C407.140184,25.8410055 407.376184,26.4757647 407.490117,27.2732948 C407.60405,28.0708248 407.661016,29.0555155 407.661016,30.2273963 L407.661016,30.3250526 Z"/>
      <path d="M205.573615 46.0629143C205.206434 46.4202704 204.987655 46.6386634 204.987655 46.6386634 204.987655 46.6386634 204.091831 47.2876971 204.075831 47.5040473 203.965296 48.998646 204.447812 54.4204796 204.979583 55.0216701 205.58833 55.7098858 214.985219 51.6599222 214.799978 47.5040474 214.614738 43.3481726 214.773536 39.3513737 212.761775 40.1189183 211.142008 40.7369062 207.090858 44.5862725 205.573615 46.0629143zM262.019409 33.7894287C261.746967 33.9917835 261.697021 34.2398071 261.697021 34.2398071 261.697021 34.2398071 261.435758 34.6124359 261.300659 35.1659546 261.12419 35.8889722 261.055452 36.8936035 260.97467 37.5054321 260.683905 39.7076578 260.396851 44.0871582 260.396851 44.0871582L269.315674 36.4466553 266.161682 30.9237061C266.161682 30.9237061 263.235187 32.8864165 262.019409 33.7894287z"/>
      <polygon points="258.637 43.806 262.624 44.271 260.574 41.008"/>
    </g>
    <g transform="translate(116 168)">
      <path d="M7.94921875,5.58789062 C7.94921875,5.75195395 7.91699251,6.04199011 7.85253906,6.45800781 C7.78808562,6.87402552 7.62695441,7.39257502 7.36914062,8.01367188 C7.16992088,8.51758064 7.01171934,8.94531074 6.89453125,9.296875 C6.77734316,9.64843926 6.70703137,9.9121085 6.68359375,10.0878906 C6.4726552,11.4238348 6.27050878,12.8593673 6.07714844,14.3945312 C5.8837881,15.9296952 5.66992305,17.593741 5.43554688,19.3867188 C5.37695283,19.8789087 5.31543001,20.3915989 5.25097656,20.9248047 C5.18652312,21.4580105 5.13085961,21.958982 5.08398437,22.4277344 C5.03710914,22.8964867 4.99902358,23.3095685 4.96972656,23.6669922 C4.94042954,24.0244158 4.92578125,24.2675775 4.92578125,24.3964844 C4.92578125,24.4902348 4.94921852,24.6044915 4.99609375,24.7392578 C5.04296898,24.8740241 5.09570283,25.011718 5.15429688,25.1523438 C5.21289092,25.2929695 5.26562477,25.4277337 5.3125,25.5566406 C5.35937523,25.6855475 5.3828125,25.7968745 5.3828125,25.890625 C5.3828125,26.1601576 5.30078207,26.4296862 5.13671875,26.6992188 C4.97265543,26.9687513 4.70312687,27.2324206 4.328125,27.4902344 C4.02343598,27.7128917 3.71875152,27.8798823 3.4140625,27.9912109 C3.10937348,28.1025396 2.80468902,28.1699218 2.5,28.1933594 C1.93749719,28.1933594 1.50097812,28.0527358 1.19042969,27.7714844 C0.87988126,27.490233 0.65136792,27.1562519 0.504882812,26.7695312 C0.358397705,26.3828106 0.273437617,25.9785177 0.25,25.5566406 C0.226562383,25.1347635 0.21484375,24.7832045 0.21484375,24.5019531 C0.21484375,23.9394503 0.229492041,23.4033229 0.258789062,22.8935547 C0.288086084,22.3837865 0.332030957,21.882815 0.390625,21.390625 C0.484375469,20.593746 0.619139746,19.6621147 0.794921875,18.5957031 C0.970704004,17.5292915 1.15820213,16.3984435 1.35742188,15.203125 C1.3925783,15.0156241 1.44824181,14.7167989 1.52441406,14.3066406 C1.60058632,13.8964823 1.68847606,13.4248074 1.78808594,12.8916016 C1.88769581,12.3583958 1.99316351,11.7959014 2.10449219,11.2041016 C2.21582087,10.6123017 2.32421822,10.0468777 2.4296875,9.5078125 C2.53515678,8.9687473 2.62890584,8.4853537 2.7109375,8.05761719 C2.79296916,7.62988067 2.85156232,7.31054793 2.88671875,7.09960938 C2.9570316,6.71288869 3.00976545,6.41406355 3.04492187,6.203125 C3.0800783,5.99218645 3.1152342,5.79589935 3.15039062,5.61425781 C3.18554705,5.43261628 3.22656227,5.23046986 3.2734375,5.0078125 C3.32031273,4.78515514 3.38476521,4.47461137 3.46679687,4.07617188 L3.44921875,4.11132812 C3.47265637,3.92382719 3.54296816,3.71582146 3.66015625,3.48730469 C3.77734434,3.25878792 3.92089759,3.04199321 4.09082031,2.83691406 C4.26074304,2.63183491 4.45410048,2.46191474 4.67089844,2.32714844 C4.8876964,2.19238214 5.10156145,2.125 5.3125,2.125 C5.80468996,2.125 6.22070143,2.23925667 6.56054687,2.46777344 C6.90039232,2.69629021 7.17285054,2.97460773 7.37792969,3.30273438 C7.58300884,3.63086102 7.72949175,3.97949034 7.81738281,4.34863281 C7.90527388,4.71777528 7.94921875,5.04296734 7.94921875,5.32421875 L7.94921875,5.58789062 Z M35.9508719,21.6191406 C36.0563412,21.6191406 36.1413012,21.6806634 36.2057547,21.8037109 C36.2702081,21.9267584 36.3024344,22.1347642 36.3024344,22.4277344 C36.3024344,22.8847679 36.1530218,23.3798801 35.8541922,23.9130859 C35.5553626,24.4462917 35.1159138,24.9472633 34.5358328,25.4160156 C33.9557518,25.884768 33.2379855,26.2744125 32.3825125,26.5849609 C31.5270395,26.8955094 30.5426743,27.0507812 29.4293875,27.0507812 C28.3864135,27.0507812 27.4489229,26.8837907 26.6168875,26.5498047 C25.7848521,26.2158186 25.0758748,25.6972691 24.4899344,24.9941406 C23.9039939,24.2910121 23.4498969,23.391607 23.1276297,22.2958984 C22.8053625,21.2001898 22.6325126,19.8847733 22.609075,18.3496094 C22.0817286,18.7949241 21.5426715,19.3310516 20.9918875,19.9580078 C20.4411035,20.5849641 19.9196243,21.2206999 19.4274344,21.8652344 C18.9352444,22.5097688 18.492866,23.1132784 18.1002859,23.6757812 C17.7077058,24.2382841 17.4059511,24.6718735 17.1950125,24.9765625 C16.8903235,25.433596 16.6413025,25.8173813 16.4479422,26.1279297 C16.2545818,26.4384781 16.0670837,26.6904287 15.8854422,26.8837891 C15.7038007,27.0771494 15.5016542,27.217773 15.2789969,27.3056641 C15.0563395,27.3935551 14.7575144,27.4375 14.3825125,27.4375 C14.0426671,27.4375 13.7321233,27.3847662 13.4508719,27.2792969 C13.1696205,27.1738276 12.9264588,27.0390633 12.7213797,26.875 C12.5163005,26.7109367 12.358099,26.5263682 12.2467703,26.3212891 C12.1354416,26.1162099 12.0797781,25.9082042 12.0797781,25.6972656 C12.0797781,25.4980459 12.0914968,25.2636732 12.1149344,24.9941406 C12.138372,24.724608 12.1705982,24.4492202 12.2116141,24.1679688 C12.2526299,23.8867173 12.2936451,23.6083998 12.3346609,23.3330078 C12.3756768,23.0576158 12.4137623,22.8085949 12.4489188,22.5859375 C12.495794,22.2929673 12.5455982,21.9824235 12.5983328,21.6542969 C12.6510675,21.3261702 12.7096606,20.9628926 12.7741141,20.5644531 C12.8385675,20.1660136 12.90302,19.7236352 12.9674734,19.2373047 C13.0319269,18.7509741 13.0934497,18.2089874 13.1520438,17.6113281 C13.2223566,16.9081996 13.2897387,16.2255892 13.3541922,15.5634766 C13.4186456,14.9013639 13.4977464,14.2187535 13.5914969,13.515625 C13.6500909,13.1054667 13.726262,12.7275408 13.8200125,12.3818359 C13.913763,12.0361311 14.0485272,11.7402356 14.2243094,11.4941406 C14.4000915,11.2480456 14.6286048,11.0546882 14.9098563,10.9140625 C15.1911077,10.7734368 15.5543853,10.703125 15.9997,10.703125 C16.3981395,10.703125 16.7145426,10.7499995 16.9489188,10.84375 C17.1832949,10.9375005 17.3590744,11.0634758 17.4762625,11.2216797 C17.5934506,11.3798836 17.666692,11.5615224 17.6959891,11.7666016 C17.7252861,11.9716807 17.7399344,12.1796864 17.7399344,12.390625 C17.7399344,12.5078131 17.7370047,12.6132808 17.7311453,12.7070312 C17.7252859,12.8007817 17.7164969,12.8886715 17.7047781,12.9707031 C17.7047781,12.9707031 17.7018485,13.0175777 17.6959891,13.1113281 C17.6901297,13.2050786 17.6637627,13.3867174 17.6168875,13.65625 C17.5700123,13.9257826 17.4967708,14.3037085 17.3971609,14.7900391 C17.2975511,15.2763696 17.1598571,15.9238241 16.984075,16.7324219 C16.8786057,17.2011742 16.7672787,17.6816382 16.6500906,18.1738281 C16.5329025,18.6660181 16.4245052,19.1347634 16.3248953,19.5800781 C16.2252854,20.0253929 16.1403254,20.426756 16.0700125,20.7841797 C15.9996996,21.1416033 15.9528251,21.4199209 15.9293875,21.6191406 C16.2106389,21.291014 16.5387606,20.8837915 16.9137625,20.3974609 C17.2887644,19.9111304 17.6637606,19.4160181 18.0387625,18.9121094 C18.4137644,18.4082006 18.777042,17.9277367 19.1286063,17.4707031 C19.4801705,17.0136696 19.7789956,16.6445327 20.0250906,16.3632812 C20.4235301,15.9179665 20.8131747,15.4960957 21.1940359,15.0976562 C21.5748972,14.6992168 21.9704011,14.3505874 22.3805594,14.0517578 C22.7907177,13.7529282 23.2243071,13.5185555 23.6813406,13.3486328 C24.1383742,13.1787101 24.6422754,13.09375 25.1930594,13.09375 C25.5094672,13.09375 25.7614178,13.1289059 25.9489188,13.1992188 C26.1364197,13.2695316 26.2799729,13.3662103 26.3795828,13.4892578 C26.4791927,13.6123053 26.5436452,13.7529289 26.5729422,13.9111328 C26.6022392,14.0693367 26.6168875,14.2363272 26.6168875,14.4121094 L26.6168875,14.6933594 C26.6168875,14.7636722 26.6022392,14.9306627 26.5729422,15.1943359 C26.5436452,15.4580091 26.5084893,15.742186 26.4674734,16.046875 C26.4264576,16.351564 26.3913017,16.6386705 26.3620047,16.9082031 C26.3327077,17.1777357 26.3180594,17.3535152 26.3180594,17.4355469 C26.3180594,18.3378951 26.3883712,19.1816367 26.5289969,19.9667969 C26.6696226,20.7519571 26.8893469,21.4345674 27.1881766,22.0146484 C27.4870062,22.5947295 27.8707914,23.0517561 28.3395438,23.3857422 C28.8082961,23.7197282 29.3707905,23.8867188 30.0270438,23.8867188 C30.4840773,23.8867188 30.8825108,23.8603518 31.2223563,23.8076172 C31.5622017,23.7548825 31.8932531,23.6669928 32.2155203,23.5439453 C32.5377875,23.4208978 32.8688389,23.256837 33.2086844,23.0517578 C33.5485298,22.8466787 33.941104,22.5976577 34.3864188,22.3046875 C34.5504821,22.1757806 34.7204022,22.0585943 34.8961844,21.953125 C35.0485289,21.8593745 35.2155194,21.7802738 35.3971609,21.7158203 C35.5788025,21.6513669 35.7633709,21.6191406 35.9508719,21.6191406 L35.9508719,21.6191406 Z M67.4854281,17.5234375 C68.0010557,17.3945306 68.5254645,17.2597663 69.0586703,17.1191406 C69.5918761,16.9785149 70.0869883,16.8378913 70.5440219,16.6972656 C70.3565209,16.123044 70.1631635,15.5253937 69.9639438,14.9042969 C69.764724,14.2832 69.5567183,13.6650421 69.3399203,13.0498047 C69.1231224,12.4345672 68.903398,11.836917 68.6807406,11.2568359 C68.4580833,10.6767549 68.2237106,10.1464868 67.9776156,9.66601562 C66.9815169,11.0253974 65.9825034,12.4550706 64.9805453,13.9550781 C63.9785872,15.4550856 63.0264483,16.9843672 62.1241,18.5429688 C62.4756643,18.5078123 62.8448012,18.4814454 63.2315219,18.4638672 C63.6182426,18.446289 63.9287863,18.4023441 64.1631625,18.3320312 C64.4795703,18.2382808 64.7637472,18.1562504 65.0157016,18.0859375 C65.2676559,18.0156246 65.5196066,17.9511722 65.7715609,17.8925781 C66.0235153,17.8339841 66.2842549,17.7753909 66.5537875,17.7167969 C66.8233201,17.6582028 67.1338639,17.5937504 67.4854281,17.5234375 L67.4854281,17.5234375 Z M79.2276156,26.3828125 C79.2276156,26.6757827 79.1719521,26.9511706 79.0606234,27.2089844 C78.9492948,27.4667982 78.7969525,27.6923818 78.6035922,27.8857422 C78.4102318,28.0791025 78.1758592,28.2343744 77.9004672,28.3515625 C77.6250752,28.4687506 77.3291797,28.5273438 77.0127719,28.5273438 C76.7198017,28.5273438 76.4326952,28.4335947 76.1514438,28.2460938 C75.8701923,28.0585928 75.5977341,27.8183608 75.3340609,27.5253906 C75.0703877,27.2324204 74.8184371,26.901369 74.5782016,26.5322266 C74.337966,26.1630841 74.1211713,25.7910175 73.9278109,25.4160156 C73.7344506,25.0410137 73.5616008,24.6835954 73.4092563,24.34375 C73.2569117,24.0039046 73.1338661,23.7226574 73.0401156,23.5 C72.9112087,23.1835922 72.7823038,22.8906263 72.6533969,22.6210938 C72.52449,22.3515612 72.3897257,22.0058615 72.2491,21.5839844 C72.1670683,21.3496082 72.1055455,21.1738287 72.0645297,21.0566406 C72.0235139,20.9394525 71.988358,20.8486331 71.9590609,20.7841797 C71.9297639,20.7197262 71.9063267,20.6669924 71.8887484,20.6259766 C71.8711702,20.5849607 71.8506626,20.5234379 71.827225,20.4414062 C71.5928488,20.5468755 71.3408982,20.6083983 71.0713656,20.6259766 C70.801833,20.6435548 70.5030079,20.6523438 70.1748813,20.6523438 C70.1162872,20.6523438 70.0166788,20.6728514 69.8760531,20.7138672 C69.7354274,20.754883 69.5742962,20.8046872 69.3926547,20.8632812 C69.2110132,20.9218753 69.023515,20.9833981 68.8301547,21.0478516 C68.6367943,21.112305 68.4522259,21.1679685 68.2764438,21.2148438 C67.7139409,21.3554695 67.104572,21.4902337 66.4483188,21.6191406 C65.7920655,21.7480475 65.1065254,21.8740228 64.3916781,21.9970703 C63.6768308,22.1201178 62.9473459,22.2431634 62.2032016,22.3662109 C61.4590572,22.4892584 60.7119944,22.6152337 59.9619906,22.7441406 C59.879959,22.7558594 59.8096472,22.7792967 59.7510531,22.8144531 C59.6924591,22.8496096 59.6104287,22.940429 59.5049594,23.0869141 C59.3994901,23.2333992 59.2412886,23.4589829 59.03035,23.7636719 C58.8194114,24.0683609 58.5205863,24.5019503 58.1338656,25.0644531 C57.6885509,25.7089876 57.2666801,26.2685523 56.8682406,26.7431641 C56.4698011,27.2177758 56.0948049,27.6249983 55.7432406,27.9648438 C55.4033952,28.3046892 55.0430472,28.5624991 54.6621859,28.7382812 C54.2813247,28.9140634 53.8858208,29.0019531 53.4756625,29.0019531 C52.9365973,29.0019531 52.4561334,28.934571 52.0342563,28.7998047 C51.6123791,28.6650384 51.2578905,28.4921886 50.9707797,28.28125 C50.6836689,28.0703114 50.4668742,27.8417981 50.3203891,27.5957031 C50.173904,27.3496081 50.1006625,27.1210948 50.1006625,26.9101562 C50.1006625,26.5117168 50.2705827,26.2333992 50.6104281,26.0751953 C50.9502736,25.9169914 51.4190189,25.7851568 52.0166781,25.6796875 C52.0166781,25.6679687 52.0811306,25.5800789 52.2100375,25.4160156 C52.3389444,25.2519523 52.4912866,25.0644542 52.6670688,24.8535156 C52.8428509,24.6425771 53.0157007,24.4345713 53.1856234,24.2294922 C53.3555462,24.024413 53.4756621,23.8691412 53.545975,23.7636719 C54.0030085,23.1308562 54.4805428,22.4716831 54.9785922,21.7861328 C55.4766416,21.1005825 56.0244876,20.3125045 56.6221469,19.421875 L56.6221469,19.4394531 C56.9268359,18.9941384 57.1758568,18.6250015 57.3692172,18.3320312 C57.5625775,18.039061 57.747146,17.7636732 57.9229281,17.5058594 C58.0987103,17.2480456 58.2832787,16.9843763 58.4766391,16.7148438 C58.6699994,16.4453112 58.9073017,16.1113301 59.1885531,15.7128906 C59.9151193,14.6933543 60.5508551,13.8291051 61.0957797,13.1201172 C61.6407043,12.4111293 62.088942,11.822268 62.4405063,11.3535156 C62.8623834,10.6972623 63.2608169,10.0703155 63.6358188,9.47265625 C63.7998821,9.21484246 63.9580836,8.95410288 64.1104281,8.69042969 C64.2627726,8.42675649 64.4092555,8.17187623 64.5498813,7.92578125 C64.690507,7.67968627 64.8164823,7.44824327 64.9278109,7.23144531 C65.0391396,7.01464735 65.1240997,6.83007889 65.1826938,6.67773438 C66.577232,3.26756107 67.7725325,1.5625 68.7686313,1.5625 C69.2022272,1.5625 69.5537862,1.59472624 69.8233188,1.65917969 C70.0928513,1.72363313 70.3008571,1.83496015 70.4473422,1.99316406 C70.5938273,2.15136798 70.6934357,2.35937371 70.7461703,2.6171875 C70.798905,2.87500129 70.8252719,3.19726369 70.8252719,3.58398438 L70.8252719,4.43652344 C70.8252719,4.64160259 70.8194126,4.82031174 70.8076938,4.97265625 C70.7959749,5.12500076 70.787186,5.27734299 70.7813266,5.4296875 C70.7754672,5.58203201 70.7608189,5.78710809 70.7373813,6.04492188 C71.0186327,6.64258111 71.2910909,7.25780934 71.5547641,7.890625 C71.8184373,8.52344066 72.0674582,9.15038752 72.3018344,9.77148438 C72.3487096,9.91211008 72.4512476,10.2080056 72.6094516,10.6591797 C72.7676555,11.1103538 72.9551536,11.640622 73.1719516,12.25 C73.3887495,12.859378 73.6172629,13.5039029 73.8574984,14.1835938 C74.097734,14.8632846 74.320388,15.5019501 74.5254672,16.0996094 C74.7305463,16.6972686 74.9092555,17.2128885 75.0616,17.6464844 C75.2139445,18.0800803 75.3135529,18.3554682 75.3604281,18.4726562 C75.5127726,19.1289095 75.9405027,20.2128831 76.6436313,21.7246094 C76.7373817,21.9121103 76.8164825,22.0761712 76.8809359,22.2167969 C76.9453894,22.3574226 77.0215605,22.5039055 77.1094516,22.65625 C77.1973426,22.8085945 77.3115993,22.984374 77.452225,23.1835938 C77.5928507,23.3828135 77.7803488,23.6406234 78.014725,23.9570312 C78.8233228,25.0585993 79.2276156,25.8671849 79.2276156,26.3828125 L79.2276156,26.3828125 Z M105.084738,15.8886719 C105.084738,16.123048 105.052511,16.3251945 104.988058,16.4951172 C104.923604,16.6650399 104.823996,16.8349601 104.68923,17.0048828 C104.554463,17.1748055 104.381614,17.359374 104.170675,17.5585938 C103.959736,17.7578135 103.701927,18.0097641 103.397238,18.3144531 L101.850363,19.8613281 C101.522236,20.1894548 101.235129,20.4648426 100.989034,20.6875 C100.742939,20.9101574 100.505637,21.1181631 100.27712,21.3115234 C100.048604,21.5048838 99.8113012,21.7041005 99.5652063,21.9091797 C99.3191113,22.1142588 99.0202861,22.3632798 98.6687219,22.65625 C97.9069993,23.3007845 97.1570068,23.9042941 96.4187219,24.4667969 C95.6804369,25.0292997 94.959741,25.5332009 94.2566125,25.9785156 C93.2019197,26.6464877 92.0710717,27.1621076 90.8640344,27.5253906 C89.6569971,27.8886737 88.3796661,28.0703125 87.0320031,28.0703125 C86.1530925,28.0703125 85.3738034,27.9091813 84.6941125,27.5869141 C84.0144216,27.2646468 83.4402086,26.8310574 82.9714563,26.2861328 C82.5027039,25.7412082 82.1482153,25.1025427 81.9079797,24.3701172 C81.6677441,23.6376917 81.5476281,22.8671915 81.5476281,22.0585938 C81.5476281,20.5234298 81.8698905,18.9795 82.514425,17.4267578 C83.1589595,15.8740157 84.0437163,14.3476638 85.1687219,12.8476562 C85.4499733,12.4726544 85.7810247,12.0800802 86.1618859,11.6699219 C86.5427472,11.2597636 86.9441104,10.887697 87.3659875,10.5537109 C87.7878646,10.2197249 88.221454,9.94433702 88.6667688,9.72753906 C89.1120835,9.5107411 89.5456729,9.40234375 89.96755,9.40234375 C90.2488014,9.40234375 90.5212596,9.48144452 90.7849328,9.63964844 C91.048606,9.79785235 91.3064159,10.0117174 91.5583703,10.28125 C91.8103247,10.5507826 92.047627,10.864256 92.2702844,11.2216797 C92.4929417,11.5791033 92.6980178,11.9628886 92.8855188,12.3730469 C93.2605206,13.1933635 93.4480188,13.7910137 93.4480188,14.1660156 C93.4480188,14.3652354 93.4275111,14.608397 93.3864953,14.8955078 C93.3454795,15.1826186 93.2693084,15.4550768 93.1579797,15.7128906 C93.046651,15.9707044 92.8972384,16.1904288 92.7097375,16.3720703 C92.5222366,16.5537118 92.2820046,16.6445312 91.9890344,16.6445312 C91.5554385,16.6445312 91.1980202,16.5068373 90.9167688,16.2314453 C90.6355173,15.9560533 90.4011447,15.6367206 90.2136438,15.2734375 C90.0261428,14.9101544 89.8767302,14.5527361 89.7654016,14.2011719 C89.6540729,13.8496076 89.5515348,13.597657 89.4577844,13.4453125 C89.176533,13.5507818 88.8806375,13.7558579 88.5700891,14.0605469 C88.2595406,14.3652359 87.9519265,14.7402321 87.6472375,15.1855469 C87.3425485,15.6308616 87.055442,16.1318332 86.7859094,16.6884766 C86.5163768,17.24512 86.2790745,17.8369109 86.0739953,18.4638672 C85.8689162,19.0908234 85.7048553,19.7324186 85.5818078,20.3886719 C85.4587603,21.0449252 85.3972375,21.6953093 85.3972375,22.3398438 C85.3972375,22.937503 85.6140322,23.4589821 86.0476281,23.9042969 C86.5398181,24.3964868 86.9968448,24.6425781 87.4187219,24.6425781 C88.7546661,24.6425781 90.040786,24.3964868 91.2771203,23.9042969 C92.5134546,23.4121069 93.7058255,22.7558635 94.8542688,21.9355469 C95.6277101,21.3847629 96.4362958,20.766605 97.28005,20.0810547 C98.1238042,19.3955044 99.0495762,18.5722704 100.057394,17.6113281 C100.420677,17.2597639 100.786884,16.9228532 101.156027,16.6005859 C101.525169,16.2783187 101.888447,15.9941419 102.24587,15.7480469 C102.603294,15.5019519 102.943134,15.3027351 103.265402,15.1503906 C103.587669,14.9980461 103.889424,14.921875 104.170675,14.921875 C104.780053,14.921875 105.084738,15.2441374 105.084738,15.8886719 L105.084738,15.8886719 Z M121.098109,12.9003906 C121.098109,13.181642 120.960415,13.4453113 120.685023,13.6914062 C120.409631,13.9375012 120.049283,14.1660146 119.603969,14.3769531 C119.158654,14.5878917 118.654753,14.7783195 118.09225,14.9482422 C117.529747,15.1181649 116.964323,15.2705071 116.395961,15.4052734 C115.827599,15.5400397 115.282682,15.6513667 114.761195,15.7392578 C114.239708,15.8271489 113.79733,15.9003903 113.434047,15.9589844 C112.12154,16.1464853 111.028778,16.2871089 110.155727,16.3808594 C109.282675,16.4746098 108.658658,16.6035148 108.283656,16.7675781 C108.072718,17.6464888 107.858853,18.5576125 107.642055,19.5009766 C107.425257,20.4443407 107.22897,21.3261678 107.053188,22.1464844 C106.877405,22.966801 106.733852,23.6816376 106.622523,24.2910156 C106.511195,24.9003937 106.455531,25.3105458 106.455531,25.5214844 C106.455531,25.6738289 106.461391,25.8056635 106.473109,25.9169922 C106.484828,26.0283209 106.505336,26.1308589 106.534633,26.2246094 C106.56393,26.3183598 106.593226,26.4091792 106.622523,26.4970703 C106.65182,26.5849614 106.684047,26.6874994 106.719203,26.8046875 C106.766078,26.9218756 106.812953,27.0800771 106.859828,27.2792969 C106.906703,27.4785166 106.950648,27.6777334 106.991664,27.8769531 C107.03268,28.0761729 107.064906,28.2607413 107.088344,28.4306641 C107.111781,28.6005868 107.1235,28.7207028 107.1235,28.7910156 C107.1235,29.013673 107.073696,29.2568346 106.974086,29.5205078 C106.874476,29.784181 106.736782,30.033202 106.561,30.2675781 C106.385218,30.5019543 106.174282,30.6982414 105.928188,30.8564453 C105.682093,31.0146492 105.406705,31.09375 105.102016,31.09375 C104.785608,31.09375 104.495572,31.0087899 104.231898,30.8388672 C103.968225,30.6689445 103.730923,30.4462904 103.519984,30.1708984 C103.309046,29.8955064 103.124477,29.5849627 102.966273,29.2392578 C102.80807,28.893553 102.676235,28.5507829 102.570766,28.2109375 C102.465296,27.8710921 102.386196,27.5517593 102.333461,27.2529297 C102.280726,26.9541001 102.254359,26.7050791 102.254359,26.5058594 C102.254359,26.3066396 102.274867,25.9960959 102.315883,25.5742188 C102.356899,25.1523416 102.435999,24.7246115 102.553188,24.2910156 C102.916471,22.919915 103.197718,21.7919966 103.396938,20.9072266 C103.596157,20.0224565 103.74264,19.3134792 103.836391,18.7802734 C103.930141,18.2470676 103.991664,17.8574231 104.020961,17.6113281 C104.050258,17.3652331 104.070766,17.195313 104.082484,17.1015625 C103.93014,17.1015625 103.713345,17.1103515 103.432094,17.1279297 C103.150842,17.1455079 102.860806,17.1689452 102.561977,17.1982422 C102.263147,17.2275392 101.984829,17.2509765 101.727016,17.2685547 C101.469202,17.2861329 101.293422,17.2949219 101.199672,17.2949219 C100.578575,17.2949219 100.057096,17.2539067 99.6352188,17.171875 C99.2133416,17.0898433 98.8705716,16.9287121 98.6068984,16.6884766 C98.3432252,16.448241 98.1557271,16.1084006 98.0443984,15.6689453 C97.9330698,15.22949 97.8774063,14.6523473 97.8774063,13.9375 C98.4516279,13.9257812 98.9408808,13.893555 99.3451797,13.8408203 C99.7494786,13.7880857 100.121545,13.7617188 100.461391,13.7617188 C100.555141,13.7617188 100.792443,13.7470705 101.173305,13.7177734 C101.554166,13.6884764 101.973107,13.6562502 102.430141,13.6210938 C102.887174,13.5859373 103.329553,13.5478518 103.757289,13.5068359 C104.185026,13.4658201 104.49264,13.4335939 104.680141,13.4101562 C104.703578,13.2812494 104.750453,13.0761733 104.820766,12.7949219 C104.891078,12.5136705 104.970179,12.2031267 105.05807,11.8632812 C105.145961,11.5234358 105.236781,11.1835954 105.330531,10.84375 C105.424282,10.5039046 105.506312,10.2109387 105.576625,9.96484375 C105.635219,9.78906162 105.71139,9.49902546 105.805141,9.09472656 C105.898891,8.69042767 105.998499,8.27148654 106.103969,7.83789062 C106.209438,7.40429471 106.306117,7.00293153 106.394008,6.63378906 C106.481899,6.26464659 106.537562,6.02734428 106.561,5.921875 C106.689907,5.42968504 106.83639,4.9697287 107.000453,4.54199219 C107.164516,4.11425567 107.349085,3.7480484 107.554164,3.44335938 C107.759243,3.13867035 107.984827,2.89843838 108.230922,2.72265625 C108.477017,2.54687412 108.734827,2.45898438 109.004359,2.45898438 C109.637175,2.45898438 110.094202,2.61425626 110.375453,2.92480469 C110.656705,3.23535312 110.797328,3.70702809 110.797328,4.33984375 C110.797328,4.63281396 110.762172,4.96093568 110.691859,5.32421875 C110.621547,5.68750182 110.521938,6.06835738 110.393031,6.46679688 C110.135217,7.28711348 109.93893,7.9726535 109.804164,8.5234375 C109.669398,9.0742215 109.561,9.55761511 109.478969,9.97363281 C109.396937,10.3896505 109.332485,10.7734357 109.285609,11.125 C109.238734,11.4765643 109.174282,11.8632791 109.09225,12.2851562 C109.080531,12.3320315 109.071742,12.4228509 109.065883,12.5576172 C109.060023,12.6923835 109.057094,12.7890622 109.057094,12.8476562 C110.064911,12.8476562 111.052206,12.7949224 112.019008,12.6894531 C112.98581,12.5839838 113.967245,12.4843755 114.963344,12.390625 C115.525847,12.332031 116.020959,12.2675785 116.448695,12.1972656 C116.876432,12.1269528 117.271936,12.0625003 117.635219,12.0039062 C117.998502,11.9453122 118.35299,11.895508 118.698695,11.8544922 C119.0444,11.8134764 119.416467,11.7929688 119.814906,11.7929688 C119.955532,11.7929688 120.102015,11.807617 120.254359,11.8369141 C120.406704,11.8662111 120.544398,11.9189449 120.667445,11.9951172 C120.790493,12.0712894 120.893031,12.1826165 120.975063,12.3291016 C121.057094,12.4755867 121.098109,12.6660145 121.098109,12.9003906 L121.098109,12.9003906 Z M125.492341,2.28320312 C125.492341,2.66992381 125.433747,3.03613108 125.316559,3.38183594 C125.199371,3.72754079 125.029451,4.05273285 124.806794,4.35742188 C124.361479,4.97851873 123.675939,5.2890625 122.750153,5.2890625 C122.422026,5.2890625 122.088045,5.25976592 121.7482,5.20117188 C121.408355,5.14257783 121.10367,5.0605474 120.834138,4.95507812 C120.564605,4.84960885 120.341951,4.71484457 120.166169,4.55078125 C119.990387,4.38671793 119.902497,4.1992198 119.902497,3.98828125 C119.902497,3.62499818 119.996246,3.24121296 120.183747,2.83691406 C120.371248,2.43261517 120.614409,2.05761892 120.913239,1.71191406 C121.212069,1.36620921 121.54019,1.07910271 121.897614,0.850585938 C122.255038,0.62206917 122.597808,0.5078125 122.925934,0.5078125 C123.336093,0.5078125 123.69937,0.534179424 124.015778,0.586914062 C124.332186,0.639648701 124.598785,0.730468105 124.815583,0.859375 C125.032381,0.988281895 125.199371,1.1699207 125.316559,1.40429688 C125.433747,1.63867305 125.492341,1.93163887 125.492341,2.28320312 L125.492341,2.28320312 Z M136.425934,16.75 C136.425934,17.0195326 136.323396,17.3623026 136.118317,17.7783203 C135.913238,18.194338 135.631991,18.657224 135.274567,19.1669922 C134.917144,19.6767604 134.492343,20.2216768 134.000153,20.8017578 C133.507963,21.3818388 132.974765,21.9765595 132.400544,22.5859375 C131.779447,23.2539096 131.105626,23.910153 130.379059,24.5546875 C129.652493,25.199222 128.879063,25.8203095 128.058747,26.4179688 C127.250149,27.0039092 126.453282,27.4580062 125.668122,27.7802734 C124.882962,28.1025407 124.138829,28.2636719 123.4357,28.2636719 C122.615383,28.2636719 121.903476,28.1259779 121.299958,27.8505859 C120.696439,27.5751939 120.180819,27.2001977 119.753083,26.7255859 C119.325346,26.2509742 118.976717,25.7060578 118.707184,25.0908203 C118.437652,24.4755829 118.223787,23.8251987 118.065583,23.1396484 C117.907379,22.4540981 117.798982,21.7597691 117.740388,21.0566406 C117.681793,20.3535121 117.652497,19.68555 117.652497,19.0527344 C117.652497,18.8066394 117.670075,18.4375025 117.705231,17.9453125 C117.740388,17.4531225 117.790192,16.934573 117.854645,16.3896484 C117.919099,15.8447238 117.989411,15.3173854 118.065583,14.8076172 C118.141755,14.297849 118.220856,13.8964858 118.302888,13.6035156 C118.47867,13.029294 118.882962,12.4843776 119.515778,11.96875 C120.125156,11.47656 120.804837,11.2304688 121.554841,11.2304688 C122.316563,11.2304688 122.697419,11.6874954 122.697419,12.6015625 C122.697419,13.0351584 122.659333,13.4951148 122.583161,13.9814453 C122.506989,14.4677759 122.422029,14.9453102 122.328278,15.4140625 C122.175934,16.2695355 122.070466,17.0400356 122.011872,17.7255859 C121.953278,18.4111362 121.923981,19.0175755 121.923981,19.5449219 C121.923981,20.1425811 121.959137,20.7226534 122.02945,21.2851562 C122.099763,21.8476591 122.202301,22.3486306 122.337067,22.7880859 C122.471833,23.2275413 122.641754,23.5820299 122.846833,23.8515625 C123.051912,24.1210951 123.295074,24.2558594 123.576325,24.2558594 C123.927889,24.2558594 124.291167,24.2236331 124.666169,24.1591797 C125.041171,24.0947262 125.492338,23.9218764 126.019684,23.640625 C127.027502,23.089841 128.099757,22.3457078 129.236481,21.4082031 C129.634921,21.0800765 130.089018,20.6904319 130.598786,20.2392578 C131.108554,19.7880837 131.615385,19.3251977 132.119294,18.8505859 C132.623203,18.3759742 133.097807,17.9101585 133.543122,17.453125 C133.988437,16.9960915 134.339996,16.6035173 134.597809,16.2753906 C134.632966,16.2167966 134.68277,16.1435551 134.747223,16.0556641 C134.811677,15.967773 134.884918,15.8769536 134.96695,15.7832031 C135.048982,15.6894527 135.139801,15.6103519 135.239411,15.5458984 C135.339021,15.481445 135.4357,15.4492188 135.52945,15.4492188 C135.716951,15.4492188 135.854645,15.4755857 135.942536,15.5283203 C136.030427,15.581055 136.127106,15.7421862 136.232575,16.0117188 C136.361482,16.304689 136.425934,16.5507803 136.425934,16.75 L136.425934,16.75 Z M158.257666,12.671875 C158.257666,12.8945324 158.184424,13.1318347 158.037939,13.3837891 C157.891454,13.6357434 157.703956,13.8876941 157.475439,14.1396484 C157.246922,14.3916028 156.986183,14.6406238 156.693213,14.8867188 C156.400242,15.1328137 156.107276,15.3583974 155.814306,15.5634766 C155.521336,15.7685557 155.243019,15.9472649 154.979345,16.0996094 C154.715672,16.2519539 154.495948,16.3691402 154.320166,16.4511719 C154.003758,16.5800788 153.596535,16.7001948 153.098486,16.8115234 C152.600437,16.9228521 152.078957,17.0166012 151.534033,17.0927734 C150.989108,17.1689457 150.46177,17.2304685 149.952002,17.2773438 C149.442233,17.324219 149.011574,17.3476562 148.660009,17.3476562 C148.577978,17.3476562 148.463721,17.3388673 148.317236,17.3212891 C148.170751,17.3037108 148.012549,17.2773439 147.842627,17.2421875 C147.672704,17.2070311 147.502784,17.1630862 147.332861,17.1103516 C147.162938,17.0576169 147.019385,16.9902348 146.902197,16.9082031 C147.031104,17.1777357 147.104345,17.4736312 147.121923,17.7958984 C147.139502,18.1181657 147.148291,18.4374984 147.148291,18.7539062 C147.148291,18.9765636 147.124853,19.2402329 147.077978,19.5449219 C147.031103,19.8496109 146.96958,20.1601547 146.893408,20.4765625 C146.817236,20.7929703 146.726416,21.0976548 146.620947,21.390625 C146.515478,21.6835952 146.404151,21.9296865 146.286963,22.1289062 C145.993992,22.632815 145.680519,23.095701 145.346533,23.5175781 C145.012547,23.9394552 144.64048,24.3320294 144.230322,24.6953125 C143.820164,25.0585956 143.357278,25.3984359 142.84165,25.7148438 C142.326022,26.0312516 141.728372,26.3417954 141.048681,26.6464844 C140.322115,26.9628922 139.59556,27.1826166 138.868994,27.3056641 C138.142428,27.4287116 137.392435,27.4902344 136.618994,27.4902344 C136.044772,27.4902344 135.535012,27.3408218 135.089697,27.0419922 C134.644382,26.7431626 134.269386,26.3417994 133.964697,25.8378906 C133.660008,25.3339819 133.428565,24.7539095 133.270361,24.0976562 C133.112157,23.441403 133.033056,22.7558629 133.033056,22.0410156 C133.033056,21.8652335 133.047705,21.6455091 133.077002,21.3818359 C133.106299,21.1181627 133.147314,20.8515638 133.200048,20.5820312 C133.252783,20.3124987 133.311376,20.0488294 133.37583,19.7910156 C133.440283,19.5332018 133.501806,19.3164071 133.5604,19.140625 C133.724463,18.648435 133.961766,18.0859407 134.272314,17.453125 C134.582862,16.8203093 134.94907,16.1728549 135.370947,15.5107422 C135.792824,14.8486295 136.261569,14.1982454 136.777197,13.5595703 C137.292824,12.9208952 137.840671,12.3525416 138.420752,11.8544922 C139.000833,11.3564428 139.604342,10.9550796 140.231298,10.6503906 C140.858255,10.3457016 141.488131,10.1933594 142.120947,10.1933594 C142.390479,10.1933594 142.607274,10.2197263 142.771338,10.2724609 C142.935401,10.3251956 143.070165,10.3955074 143.175634,10.4833984 C143.281104,10.5712895 143.377782,10.6708979 143.465673,10.7822266 C143.553565,10.8935552 143.650243,11.0019526 143.755713,11.1074219 C143.837744,11.0839843 143.922704,11.0664063 144.010595,11.0546875 C144.098486,11.0429687 144.189306,11.0371094 144.283056,11.0371094 C144.646339,11.0371094 145.003758,11.177733 145.355322,11.4589844 C145.706886,11.7402358 146.064304,12.0507796 146.427588,12.390625 C146.591651,12.5429695 146.758641,12.6982414 146.928564,12.8564453 C147.098487,13.0146492 147.253759,13.1552728 147.394384,13.2783203 C147.53501,13.4013678 147.660985,13.5009762 147.772314,13.5771484 C147.883643,13.6533207 147.962744,13.6914062 148.009619,13.6914062 C148.314308,13.6914062 148.645359,13.6884766 149.002783,13.6826172 C149.360206,13.6767578 149.723484,13.6650392 150.092627,13.6474609 C150.461769,13.6298827 150.819187,13.6035158 151.164892,13.5683594 C151.510597,13.5332029 151.82407,13.4921877 152.105322,13.4453125 C152.140478,13.4335937 152.292821,13.3955081 152.562353,13.3310547 C152.831886,13.2666012 153.157078,13.1845708 153.537939,13.0849609 C153.9188,12.9853511 154.331882,12.8769537 154.777197,12.7597656 C155.222512,12.6425775 155.635593,12.5341802 156.016455,12.4345703 C156.397316,12.3349604 156.725438,12.25293 157.00083,12.1884766 C157.276222,12.1240231 157.437353,12.0917969 157.484228,12.0917969 C157.718604,12.0917969 157.906102,12.1210935 158.046728,12.1796875 C158.187354,12.2382815 158.257666,12.4023424 158.257666,12.671875 L158.257666,12.671875 Z M137.972509,24.3964844 C138.921733,24.3964844 139.762545,24.1445338 140.49497,23.640625 C141.227396,23.1367162 141.845554,22.4658245 142.349463,21.6279297 C142.853371,20.7900349 143.243016,19.8349663 143.518408,18.7626953 C143.7938,17.6904243 143.937353,16.5859432 143.949072,15.4492188 C143.86704,15.2734366 143.746924,15.0917978 143.58872,14.9042969 C143.430516,14.7167959 143.251807,14.5498054 143.052588,14.4033203 C142.853368,14.2568352 142.648292,14.1367192 142.437353,14.0429688 C142.226415,13.9492183 142.033057,13.9023438 141.857275,13.9023438 C141.576024,13.9023438 141.271339,14.0136708 140.943213,14.2363281 C140.615086,14.4589855 140.310401,14.6874988 140.02915,14.921875 C139.747899,15.1562512 139.469581,15.4638653 139.194189,15.8447266 C138.918797,16.2255878 138.663917,16.6503883 138.429541,17.1191406 C138.195164,17.587893 137.97837,18.0830052 137.77915,18.6044922 C137.57993,19.1259792 137.41001,19.641599 137.269384,20.1513672 C137.128759,20.6611354 137.020361,21.1562476 136.944189,21.6367188 C136.868017,22.1171899 136.829931,22.54492 136.829931,22.9199219 C136.829931,23.1074228 136.859228,23.2890616 136.917822,23.4648438 C136.976416,23.6406259 137.055517,23.7988274 137.155127,23.9394531 C137.254736,24.0800788 137.374852,24.1914058 137.515478,24.2734375 C137.656104,24.3554692 137.808446,24.3964844 137.972509,24.3964844 L137.972509,24.3964844 Z M179.034709,21.6191406 C179.140179,21.6191406 179.225139,21.6806634 179.289592,21.8037109 C179.354046,21.9267584 179.386272,22.1347642 179.386272,22.4277344 C179.386272,22.8847679 179.236859,23.3798801 178.93803,23.9130859 C178.6392,24.4462917 178.199751,24.9472633 177.61967,25.4160156 C177.039589,25.884768 176.321823,26.2744125 175.46635,26.5849609 C174.610877,26.8955094 173.626512,27.0507812 172.513225,27.0507812 C171.470251,27.0507812 170.53276,26.8837907 169.700725,26.5498047 C168.86869,26.2158186 168.159712,25.6972691 167.573772,24.9941406 C166.987831,24.2910121 166.533734,23.391607 166.211467,22.2958984 C165.8892,21.2001898 165.71635,19.8847733 165.692913,18.3496094 C165.165566,18.7949241 164.626509,19.3310516 164.075725,19.9580078 C163.524941,20.5849641 163.003462,21.2206999 162.511272,21.8652344 C162.019082,22.5097688 161.576704,23.1132784 161.184123,23.6757812 C160.791543,24.2382841 160.489789,24.6718735 160.27885,24.9765625 C159.974161,25.433596 159.72514,25.8173813 159.53178,26.1279297 C159.338419,26.4384781 159.150921,26.6904287 158.96928,26.8837891 C158.787638,27.0771494 158.585492,27.217773 158.362834,27.3056641 C158.140177,27.3935551 157.841352,27.4375 157.46635,27.4375 C157.126505,27.4375 156.815961,27.3847662 156.534709,27.2792969 C156.253458,27.1738276 156.010296,27.0390633 155.805217,26.875 C155.600138,26.7109367 155.441936,26.5263682 155.330608,26.3212891 C155.219279,26.1162099 155.163616,25.9082042 155.163616,25.6972656 C155.163616,25.4980459 155.175334,25.2636732 155.198772,24.9941406 C155.222209,24.724608 155.254436,24.4492202 155.295452,24.1679688 C155.336467,23.8867173 155.377483,23.6083998 155.418498,23.3330078 C155.459514,23.0576158 155.4976,22.8085949 155.532756,22.5859375 C155.579631,22.2929673 155.629436,21.9824235 155.68217,21.6542969 C155.734905,21.3261702 155.793498,20.9628926 155.857952,20.5644531 C155.922405,20.1660136 155.986857,19.7236352 156.051311,19.2373047 C156.115764,18.7509741 156.177287,18.2089874 156.235881,17.6113281 C156.306194,16.9081996 156.373576,16.2255892 156.43803,15.5634766 C156.502483,14.9013639 156.581584,14.2187535 156.675334,13.515625 C156.733928,13.1054667 156.8101,12.7275408 156.90385,12.3818359 C156.9976,12.0361311 157.132365,11.7402356 157.308147,11.4941406 C157.483929,11.2480456 157.712442,11.0546882 157.993694,10.9140625 C158.274945,10.7734368 158.638223,10.703125 159.083538,10.703125 C159.481977,10.703125 159.79838,10.7499995 160.032756,10.84375 C160.267132,10.9375005 160.442912,11.0634758 160.5601,11.2216797 C160.677288,11.3798836 160.75053,11.5615224 160.779827,11.7666016 C160.809124,11.9716807 160.823772,12.1796864 160.823772,12.390625 C160.823772,12.5078131 160.820842,12.6132808 160.814983,12.7070312 C160.809123,12.8007817 160.800334,12.8886715 160.788616,12.9707031 C160.788616,12.9707031 160.785686,13.0175777 160.779827,13.1113281 C160.773967,13.2050786 160.7476,13.3867174 160.700725,13.65625 C160.65385,13.9257826 160.580608,14.3037085 160.480998,14.7900391 C160.381389,15.2763696 160.243695,15.9238241 160.067913,16.7324219 C159.962443,17.2011742 159.851116,17.6816382 159.733928,18.1738281 C159.61674,18.6660181 159.508343,19.1347634 159.408733,19.5800781 C159.309123,20.0253929 159.224163,20.426756 159.15385,20.7841797 C159.083537,21.1416033 159.036663,21.4199209 159.013225,21.6191406 C159.294476,21.291014 159.622598,20.8837915 159.9976,20.3974609 C160.372602,19.9111304 160.747598,19.4160181 161.1226,18.9121094 C161.497602,18.4082006 161.860879,17.9277367 162.212444,17.4707031 C162.564008,17.0136696 162.862833,16.6445327 163.108928,16.3632812 C163.507368,15.9179665 163.897012,15.4960957 164.277873,15.0976562 C164.658735,14.6992168 165.054239,14.3505874 165.464397,14.0517578 C165.874555,13.7529282 166.308145,13.5185555 166.765178,13.3486328 C167.222212,13.1787101 167.726113,13.09375 168.276897,13.09375 C168.593305,13.09375 168.845255,13.1289059 169.032756,13.1992188 C169.220257,13.2695316 169.36381,13.3662103 169.46342,13.4892578 C169.56303,13.6123053 169.627483,13.7529289 169.65678,13.9111328 C169.686077,14.0693367 169.700725,14.2363272 169.700725,14.4121094 L169.700725,14.6933594 C169.700725,14.7636722 169.686077,14.9306627 169.65678,15.1943359 C169.627483,15.4580091 169.592327,15.742186 169.551311,16.046875 C169.510295,16.351564 169.475139,16.6386705 169.445842,16.9082031 C169.416545,17.1777357 169.401897,17.3535152 169.401897,17.4355469 C169.401897,18.3378951 169.472209,19.1816367 169.612834,19.9667969 C169.75346,20.7519571 169.973184,21.4345674 170.272014,22.0146484 C170.570844,22.5947295 170.954629,23.0517561 171.423381,23.3857422 C171.892134,23.7197282 172.454628,23.8867188 173.110881,23.8867188 C173.567915,23.8867188 173.966348,23.8603518 174.306194,23.8076172 C174.646039,23.7548825 174.977091,23.6669928 175.299358,23.5439453 C175.621625,23.4208978 175.952676,23.256837 176.292522,23.0517578 C176.632367,22.8466787 177.024942,22.5976577 177.470256,22.3046875 C177.63432,22.1757806 177.80424,22.0585943 177.980022,21.953125 C178.132366,21.8593745 178.299357,21.7802738 178.480998,21.7158203 C178.66264,21.6513669 178.847208,21.6191406 179.034709,21.6191406 L179.034709,21.6191406 Z M197.614488,26.0136719 C197.614488,26.1425788 197.550035,26.3798811 197.421128,26.7255859 C197.292221,27.0712908 197.139879,27.4374981 196.964097,27.8242188 C196.788315,28.2109394 196.603746,28.583006 196.410386,28.9404297 C196.217026,29.2978533 196.050035,29.5468743 195.909409,29.6875 C195.733627,29.8632821 195.53734,30.0507803 195.320542,30.25 C195.103744,30.4492197 194.857653,30.6396475 194.582261,30.8212891 C194.306869,31.0029306 194.008044,31.1640618 193.685777,31.3046875 C193.363509,31.4453132 193.01488,31.5507809 192.639878,31.6210938 C192.487534,31.6445314 192.370347,31.6708983 192.288316,31.7001953 C192.206284,31.7294923 192.130113,31.7558593 192.0598,31.7792969 C191.602766,31.9785166 191.166247,32.1337885 190.75023,32.2451172 C190.334212,32.3564459 189.956286,32.4121094 189.616441,32.4121094 C188.842999,32.4121094 188.456284,31.9843793 188.456284,31.1289062 C188.456284,30.8242172 188.591049,30.5371107 188.860581,30.2675781 C189.669179,30.0683584 190.386945,29.8105485 191.013902,29.4941406 C191.640858,29.1777328 192.159407,28.8261738 192.569566,28.4394531 C192.663316,28.3339838 192.762924,28.1757823 192.868394,27.9648438 C192.973863,27.7539052 193.073471,27.5341808 193.167222,27.3056641 C193.260972,27.0771473 193.340073,26.8720712 193.404527,26.6904297 C193.46898,26.5087882 193.501206,26.3945315 193.501206,26.3476562 C193.501206,26.2187494 193.498277,26.0664071 193.492417,25.890625 C193.486558,25.7148429 193.471909,25.5302744 193.448472,25.3369141 C193.425034,25.1435537 193.389878,24.9560556 193.343003,24.7744141 C193.296128,24.5927725 193.231675,24.44336 193.149644,24.3261719 C192.926986,23.9863264 192.815659,23.681642 192.815659,23.4121094 C192.815659,23.2714837 192.847886,23.1044932 192.912339,22.9111328 C192.976793,22.7177725 193.064682,22.5302743 193.176011,22.3486328 C193.28734,22.1669913 193.427963,22.0146491 193.597886,21.8916016 C193.767809,21.7685541 193.958236,21.7070312 194.169175,21.7070312 C194.380114,21.7070312 194.634994,21.7480465 194.933823,21.8300781 C195.232653,21.9121098 195.51976,22.0117182 195.795152,22.1289062 C196.070544,22.2460943 196.313705,22.3720696 196.524644,22.5068359 C196.735582,22.6416022 196.858628,22.7675775 196.893784,22.8847656 C197.374256,24.1621158 197.614488,25.2050741 197.614488,26.0136719 L197.614488,26.0136719 Z M223.102169,5.58789062 C223.102169,5.75195395 223.069943,6.04199011 223.005489,6.45800781 C222.941036,6.87402552 222.779904,7.39257502 222.522091,8.01367188 C222.322871,8.51758064 222.164669,8.94531074 222.047481,9.296875 C221.930293,9.64843926 221.859981,9.9121085 221.836544,10.0878906 C221.625605,11.4238348 221.423459,12.8593673 221.230098,14.3945312 C221.036738,15.9296952 220.822873,17.593741 220.588497,19.3867188 C220.529903,19.8789087 220.46838,20.3915989 220.403927,20.9248047 C220.339473,21.4580105 220.28381,21.958982 220.236934,22.4277344 C220.190059,22.8964867 220.151974,23.3095685 220.122677,23.6669922 C220.09338,24.0244158 220.078731,24.2675775 220.078731,24.3964844 C220.078731,24.4902348 220.102169,24.6044915 220.149044,24.7392578 C220.195919,24.8740241 220.248653,25.011718 220.307247,25.1523438 C220.365841,25.2929695 220.418575,25.4277337 220.46545,25.5566406 C220.512325,25.6855475 220.535763,25.7968745 220.535763,25.890625 C220.535763,26.1601576 220.453732,26.4296862 220.289669,26.6992188 C220.125605,26.9687513 219.856077,27.2324206 219.481075,27.4902344 C219.176386,27.7128917 218.871702,27.8798823 218.567013,27.9912109 C218.262323,28.1025396 217.957639,28.1699218 217.65295,28.1933594 C217.090447,28.1933594 216.653928,28.0527358 216.34338,27.7714844 C216.032831,27.490233 215.804318,27.1562519 215.657833,26.7695312 C215.511348,26.3828106 215.426388,25.9785177 215.40295,25.5566406 C215.379512,25.1347635 215.367794,24.7832045 215.367794,24.5019531 C215.367794,23.9394503 215.382442,23.4033229 215.411739,22.8935547 C215.441036,22.3837865 215.484981,21.882815 215.543575,21.390625 C215.637325,20.593746 215.77209,19.6621147 215.947872,18.5957031 C216.123654,17.5292915 216.311152,16.3984435 216.510372,15.203125 C216.545528,15.0156241 216.601192,14.7167989 216.677364,14.3066406 C216.753536,13.8964823 216.841426,13.4248074 216.941036,12.8916016 C217.040646,12.3583958 217.146114,11.7959014 217.257442,11.2041016 C217.368771,10.6123017 217.477168,10.0468777 217.582638,9.5078125 C217.688107,8.9687473 217.781856,8.4853537 217.863888,8.05761719 C217.945919,7.62988067 218.004512,7.31054793 218.039669,7.09960938 C218.109982,6.71288869 218.162715,6.41406355 218.197872,6.203125 C218.233028,5.99218645 218.268184,5.79589935 218.303341,5.61425781 C218.338497,5.43261628 218.379512,5.23046986 218.426388,5.0078125 C218.473263,4.78515514 218.537715,4.47461137 218.619747,4.07617188 L218.602169,4.11132812 C218.625606,3.92382719 218.695918,3.71582146 218.813106,3.48730469 C218.930294,3.25878792 219.073848,3.04199321 219.24377,2.83691406 C219.413693,2.63183491 219.60705,2.46191474 219.823848,2.32714844 C220.040646,2.19238214 220.254511,2.125 220.46545,2.125 C220.95764,2.125 221.373651,2.23925667 221.713497,2.46777344 C222.053342,2.69629021 222.325801,2.97460773 222.53088,3.30273438 C222.735959,3.63086102 222.882442,3.97949034 222.970333,4.34863281 C223.058224,4.71777528 223.102169,5.04296734 223.102169,5.32421875 L223.102169,5.58789062 Z M257.607728,15.4316406 C257.607728,15.654298 257.566713,15.8974596 257.484681,16.1611328 C257.40265,16.424806 257.300112,16.6855456 257.177064,16.9433594 C257.054017,17.2011732 256.919252,17.4443348 256.772767,17.6728516 C256.626282,17.9013683 256.488588,18.0917961 256.359681,18.2441406 C255.984679,18.712893 255.565738,19.2109349 255.102845,19.7382812 C254.639952,20.2656276 254.156559,20.7871068 253.65265,21.3027344 C253.148741,21.818362 252.633121,22.3134742 252.105775,22.7880859 C251.578429,23.2626977 251.05109,23.6757795 250.523744,24.0273438 C250.113585,24.3085952 249.718082,24.5693347 249.33722,24.8095703 C248.956359,25.0498059 248.563785,25.2636709 248.159486,25.4511719 C247.755187,25.6386728 247.327457,25.7851557 246.876283,25.890625 C246.425109,25.9960943 245.929996,26.0488281 245.390931,26.0488281 C244.512021,26.0488281 243.782536,25.8730486 243.202455,25.5214844 C242.622374,25.1699201 242.150699,24.7011748 241.787416,24.1152344 C241.424133,23.5292939 241.145815,22.8584022 240.952455,22.1025391 C240.759094,21.3466759 240.609682,20.5585979 240.504213,19.7382812 C240.351868,18.6249944 240.181948,17.7431673 239.994447,17.0927734 C239.806946,16.4423796 239.578433,16.1171875 239.3089,16.1171875 C239.074524,16.1171875 238.84601,16.172851 238.623353,16.2841797 C238.400696,16.3955084 238.122378,16.6328107 237.788392,16.9960938 C237.454406,17.3593768 237.032535,17.889645 236.522767,18.5869141 C236.012999,19.2841832 235.347967,20.2128848 234.52765,21.3730469 C234.246399,21.7714864 233.903629,22.2167944 233.49933,22.7089844 C233.095031,23.2011743 232.67023,23.6728493 232.224916,24.1240234 C231.779601,24.5751976 231.337223,24.9736311 230.897767,25.3193359 C230.458312,25.6650408 230.051089,25.9023431 229.676088,26.03125 C228.199518,25.7031234 227.461244,24.2910281 227.461244,21.7949219 C227.461244,21.1621062 227.531556,20.2304749 227.672181,19 C227.742494,18.449216 227.821595,17.8691437 227.909486,17.2597656 C227.997377,16.6503876 228.108704,16.038089 228.24347,15.4228516 C228.378237,14.8076141 228.539368,14.2041045 228.726869,13.6123047 C228.91437,13.0205049 229.131164,12.4726588 229.377259,11.96875 C229.517885,11.6874986 229.676087,11.4648446 229.851869,11.3007812 C230.027651,11.1367179 230.20636,11.0136723 230.388002,10.9316406 C230.569643,10.849609 230.760071,10.7968751 230.959291,10.7734375 C231.15851,10.7499999 231.357727,10.7382812 231.556947,10.7382812 C231.732729,10.7382812 231.902649,10.7822261 232.066713,10.8701172 C232.230776,10.9580083 232.377259,11.0839836 232.506166,11.2480469 C232.635073,11.4121102 232.737611,11.611327 232.813783,11.8457031 C232.889955,12.0800793 232.928041,12.3496079 232.928041,12.6542969 C232.928041,12.9238295 232.904603,13.1816394 232.857728,13.4277344 C232.810853,13.6738294 232.7464,13.9287096 232.664369,14.1923828 C232.582337,14.456056 232.497377,14.7343735 232.409486,15.0273438 C232.321595,15.320314 232.230775,15.654295 232.137025,16.0292969 C232.078431,16.2753919 231.993471,16.5917949 231.882142,16.9785156 C231.770814,17.3652363 231.659486,17.7665995 231.548158,18.1826172 C231.436829,18.5986349 231.334291,19.0058574 231.240541,19.4042969 C231.14679,19.8027364 231.088197,20.1367174 231.064759,20.40625 C231.275698,20.160155 231.51886,19.8525409 231.794252,19.4833984 C232.069644,19.114256 232.35968,18.7158225 232.664369,18.2880859 C232.969058,17.8603494 233.279602,17.4238304 233.596009,16.9785156 C233.912417,16.5332009 234.22882,16.1113301 234.545228,15.7128906 C234.955386,15.197263 235.359679,14.7109398 235.758119,14.2539062 C236.156558,13.7968727 236.575499,13.4013689 237.014955,13.0673828 C237.45441,12.7333968 237.931944,12.4697275 238.447572,12.2763672 C238.963199,12.0830068 239.543272,11.9863281 240.187806,11.9863281 C240.949529,11.9863281 241.570616,12.1416 242.051088,12.4521484 C242.531559,12.7626969 242.915344,13.1933566 243.202455,13.7441406 C243.489565,14.2949246 243.703431,14.9482384 243.844056,15.7041016 C243.984682,16.4599647 244.096009,17.2831987 244.178041,18.1738281 C244.224916,18.6308617 244.286439,19.099607 244.362611,19.5800781 C244.438783,20.0605493 244.55304,20.4970683 244.705384,20.8896484 C244.857729,21.2822285 245.056946,21.6044909 245.303041,21.8564453 C245.549136,22.1083997 245.85382,22.234375 246.217103,22.234375 C246.756168,22.234375 247.34503,22.0908217 247.983705,21.8037109 C248.62238,21.5166001 249.293271,21.1210963 249.9964,20.6171875 C250.699529,20.1132787 251.420224,19.5273471 252.158509,18.859375 C252.896794,18.1914029 253.635068,17.4765663 254.373353,16.7148438 C254.607729,16.4687488 254.833313,16.2255871 255.050111,15.9853516 C255.266909,15.745116 255.474915,15.5283213 255.674134,15.3349609 C255.873354,15.1416006 256.066712,14.9863287 256.254213,14.8691406 C256.441713,14.7519525 256.629212,14.6933594 256.816713,14.6933594 C256.887025,14.6933594 256.969056,14.7021483 257.062806,14.7197266 C257.156557,14.7373048 257.244446,14.7724607 257.326478,14.8251953 C257.40851,14.87793 257.475892,14.9511714 257.528627,15.0449219 C257.581361,15.1386723 257.607728,15.2675773 257.607728,15.4316406 L257.607728,15.4316406 Z M271.810553,20.6523438 C271.810553,20.9101575 271.766608,21.1562488 271.678717,21.390625 C271.590826,21.6250012 271.441414,21.8593738 271.230475,22.09375 C271.042974,22.3046886 270.855476,22.5126943 270.667975,22.7177734 C270.480474,22.9228526 270.281257,23.1279287 270.070319,23.3330078 C269.85938,23.538087 269.625008,23.7460927 269.367194,23.9570312 C269.10938,24.1679698 268.810555,24.3964831 268.470709,24.6425781 C267.591799,25.2753938 266.750987,25.8085916 265.948248,26.2421875 C265.14551,26.6757834 264.360362,27.0302721 263.59278,27.3056641 C262.825198,27.5810561 262.066416,27.7773432 261.316413,27.8945312 C260.566409,28.0117193 259.810557,28.0703125 259.048834,28.0703125 C258.193361,28.0703125 257.425791,27.912111 256.7461,27.5957031 C256.066409,27.2792953 255.492196,26.8515652 255.023444,26.3125 C254.554691,25.7734348 254.197273,25.1435583 253.951178,24.4228516 C253.705083,23.7021448 253.582038,22.9433634 253.582038,22.1464844 C253.582038,21.3613242 253.681646,20.5439496 253.880866,19.6943359 C254.080085,18.8447223 254.358403,17.9951214 254.715827,17.1455078 C255.07325,16.2958942 255.50098,15.4609416 255.99903,14.640625 C256.497079,13.8203084 257.050784,13.0410193 257.660163,12.3027344 C257.906257,11.9980454 258.210942,11.6757829 258.574225,11.3359375 C258.937508,10.9960921 259.333012,10.6826186 259.760748,10.3955078 C260.188485,10.108397 260.636723,9.87109469 261.105475,9.68359375 C261.574227,9.49609281 262.037113,9.40234375 262.494147,9.40234375 C262.822274,9.40234375 263.132817,9.47851486 263.425788,9.63085938 C263.718758,9.78320389 263.991216,9.98242064 264.24317,10.2285156 C264.495125,10.4746106 264.717779,10.7529281 264.911139,11.0634766 C265.104499,11.374025 265.27149,11.6933577 265.412116,12.0214844 C265.552741,12.349611 265.658209,12.6689438 265.728522,12.9794922 C265.798835,13.2900406 265.833991,13.5624988 265.833991,13.796875 C265.833991,13.9843759 265.801764,14.2187486 265.737311,14.5 C265.672857,14.7812514 265.573249,15.0537096 265.438483,15.3173828 C265.303717,15.581056 265.130867,15.80371 264.919928,15.9853516 C264.70899,16.1669931 264.45118,16.2578125 264.146491,16.2578125 C263.876958,16.2578125 263.657234,16.210938 263.487311,16.1171875 C263.317388,16.023437 263.170905,15.8857431 263.047858,15.7041016 C262.92481,15.52246 262.819343,15.299806 262.731452,15.0361328 C262.64356,14.7724596 262.546882,14.4707048 262.441413,14.1308594 C262.347662,13.8261704 262.245124,13.6240239 262.133795,13.5244141 C262.022467,13.4248042 261.890632,13.3457034 261.738288,13.2871094 C261.492193,13.4042975 261.210945,13.6210922 260.894538,13.9375 C260.57813,14.2539078 260.261727,14.6406227 259.945319,15.0976562 C259.628911,15.5546898 259.318367,16.0703096 259.013678,16.6445312 C258.708989,17.2187529 258.439461,17.8222625 258.205084,18.4550781 C257.970708,19.0878938 257.78321,19.7353483 257.642584,20.3974609 C257.501959,21.0595736 257.431647,21.7070281 257.431647,22.3398438 C257.431647,22.5976575 257.481451,22.8642564 257.581061,23.1396484 C257.680671,23.4150404 257.821294,23.6699207 258.002936,23.9042969 C258.184577,24.138673 258.410161,24.3320305 258.679694,24.484375 C258.949226,24.6367195 259.253911,24.7128906 259.593756,24.7128906 C262.839866,24.7128906 265.874992,23.552746 268.699225,21.2324219 C269.63673,20.4706993 270.462893,20.0898438 271.177741,20.0898438 C271.388679,20.0898438 271.546881,20.1542962 271.65235,20.2832031 C271.757819,20.41211 271.810553,20.5351557 271.810553,20.6523438 L271.810553,20.6523438 Z M279.843456,23.9394531 C279.843456,24.1972669 279.784863,24.6015597 279.667675,25.1523438 C279.632519,25.3164071 279.509473,25.5214831 279.298534,25.7675781 C279.087596,26.0136731 278.777052,26.3007796 278.366894,26.6289062 C277.991892,26.9335953 277.649122,27.1621086 277.338573,27.3144531 C277.028025,27.4667976 276.767285,27.5429688 276.556347,27.5429688 C276.111032,27.5429688 275.753614,27.4931646 275.484081,27.3935547 C275.214549,27.2939448 275.006543,27.1416026 274.860058,26.9365234 C274.713573,26.7314443 274.616894,26.4648454 274.570019,26.1367188 C274.523144,25.8085921 274.499706,25.4160179 274.499706,24.9589844 C274.499706,24.6308577 274.502636,24.3554699 274.508495,24.1328125 C274.514355,23.9101551 274.534862,23.7167977 274.570019,23.5527344 C274.675488,22.7441366 275.700868,22.3398438 277.646191,22.3398438 C278.114943,22.3398438 278.48701,22.3984369 278.762402,22.515625 C279.037794,22.6328131 279.286815,22.8203112 279.509472,23.078125 C279.732129,23.3007824 279.843456,23.5878889 279.843456,23.9394531 L279.843456,23.9394531 Z"/>
      <path d="M254.451965 17.1453247C253.796435 18.5040858 252.865059 21.0114352 252.865059 21.0114352L254.662238 21.7300179 259.544089 14.2201788 256.57231 14.0495057 255.55716 15.4313356C255.55716 15.4313356 254.693803 16.6440526 254.451965 17.1453247zM156.348572 12.9001465C156.063811 13.6532404 155.881533 15.0725007 155.881533 15.0725007L157.712749 14.9663695 159.286935 11.5308434C159.286935 11.5308434 157.895388 11.68252 157.381714 11.8321533 157.121393 11.9079849 156.96495 12.2072379 156.96495 12.2072379 156.96495 12.2072379 156.42495 12.6981528 156.348572 12.9001465zM134.954809 15.9184428C134.563285 16.4974921 134.051847 17.5046664 133.778081 18.1111139 133.22082 19.3455611 132.55401 21.7998331 132.55401 21.7998331L134.954809 22.27987 137.865523 14.5716518 135.41288 15.4668521C135.41288 15.4668521 135.129185 15.6605465 134.954809 15.9184428zM118.394897 12.2675781C117.67606 12.888828 116.859009 14.3196411 116.859009 14.3196411L120.184387 16.1073608 121.856079 11.6679688C121.856079 11.6679688 121.045182 11.4996707 120.670227 11.5246582 120.348507 11.5460981 119.766052 11.807251 119.766052 11.807251 119.766052 11.807251 118.645074 12.0513646 118.394897 12.2675781zM100.408813 17.2614746C100.229862 16.2221399 99.7739258 14.2392578 99.7739258 14.2392578L106.976135 14.5410767 105.652344 18.984436 103.539124 17.3427734 100.50885 18.5076294C100.50885 18.5076294 100.474837 17.6449305 100.408813 17.2614746z"/>
    </g>
  </g>
</svg>
