<svg xmlns="http://www.w3.org/2000/svg" x="0px" y="0px" viewBox="0 0 100 100">
    <defs>
        <style>
            .a{fill:#231f20;}
        </style>
    </defs>
    <title>
        placeholder-graphic
    </title>
    <path d="M50,61.61A26.73,26.73,0,1,1,76.73,34.88,26.76,26.76,0,0,1,50,61.61ZM50,9.85a25,25,0,1,0,25,25A25.06,25.06,0,0,0,50,9.85Z" class="a"/>
    <path d="M65.46,44.6H34.54a.85.85,0,0,1-.75-1.25l8.53-16.17a.85.85,0,0,1,.71-.45.84.84,0,0,1,.75.37l6.8,10.1,5-5a.85.85,0,0,1,1.25.06L66.1,43.2a.85.85,0,0,1-.65,1.4ZM36,42.9H63.62l-7.46-8.8-5.11,5a.85.85,0,0,1-1.3-.13l-6.57-9.78Z" class="a"/>
    <path d="M58.6,29.93A5.44,5.44,0,1,1,64,24.49,5.45,5.45,0,0,1,58.6,29.93Zm0-9.18a3.74,3.74,0,1,0,3.74,3.74A3.75,3.75,0,0,0,58.6,20.74Z" class="a"/>
    <path d="M72,76.69H28a.85.85,0,0,1-.85-.85v-5A.85.85,0,0,1,28,70H72a.85.85,0,0,1,.85.85v5A.85.85,0,0,1,72,76.69ZM28.83,75H71.17V71.68H28.83Z" class="a"/>
    <path d="M85.35,84.07H14.65a.85.85,0,1,1,0-1.7h70.7a.85.85,0,1,1,0,1.7Z" class="a"/>
    <path d="M71.06,91.85H28.94a.85.85,0,0,1,0-1.7H71.06a.85.85,0,0,1,0,1.7Z" class="a"/>
</svg>
