<?xml version="1.0" standalone="no"?>
<!DOCTYPE svg PUBLIC "-//W3C//DTD SVG 1.1//EN" "http://www.w3.org/Graphics/SVG/1.1/DTD/svg11.dtd" >
<svg xmlns="http://www.w3.org/2000/svg">
<metadata>
Created by FontPrep 20130207 at Fri Sep 20 16:10:42 2013
 By Kyla Medina
Copyright (c) 2004 The Hoefler Type Foundry, Inc., dba Hoefler &#38; Frere-Jones. All Rights Reserved.
</metadata>
<defs>
<font id="c627e656480e8103a21baf97ca5ccc75" >
  <font-face 
    font-family="GothamRounded-LightItalic"
    font-weight="300"
    font-style="italic"
    font-stretch="normal"
    units-per-em="2048"
    panose-1="0 0 0 0 0 0 0 0 0 0"
    ascent="1638"
    descent="-410"
    x-height="1044"
    cap-height="1442"
    bbox="-264 -459 2464 2083.05"
    underline-thickness="102"
    underline-position="-102"
    slope="-15"
    unicode-range="U+0020-2212"
  />
<missing-glyph 
d="M512 492l-367 -799h734zM922 1384l-353 -770l353 -770v1540zM102 -156l353 770l-353 770v-1540zM145 1536l367 -799l367 799h-734zM0 -410v2048h1024v-2048h-1024z" />
    <glyph glyph-name="f_f" unicode="ff" horiz-adv-x="1482" 
d="M909 -8q-23 0 -35 16t-6 41l242 903h-98q-20 0 -34 14t-13 32q0 18 14 32t33 14h123l41 152q80 299 333 299q90 0 168 -31q41 -16 41 -45t-19 -43t-46 -2q-76 31 -148 31q-176 0 -235 -231l-35 -130h324q20 0 33 -13q14 -13 14 -33t-14 -32q-14 -13 -33 -14h-349
l-245 -913q-12 -47 -56 -47zM168 -8q-23 0 -35 16t-6 41l242 903h-99q-20 0 -33 14t-13 32t14 32t32 14h123l41 152q80 299 334 299q90 0 168 -31q41 -16 41 -45q1 -29 -19 -43t-47 -2q-76 31 -147 31q-176 0 -236 -231l-34 -130h323q19 0 33 -13t14 -33t-14 -32
q-14 -13 -33 -14h-348l-246 -913q-12 -47 -55 -47z" />
    <glyph glyph-name="fi" unicode="fi" horiz-adv-x="1253" 
d="M862 -8q-23 0 -35 16t-6 41l256 957q12 47 56 47q23 -1 35 -17t6 -41l-256 -956q-12 -47 -56 -47zM1214 1307q-29 0 -44 16t-9 41l15 53q12 47 69 47q29 0 44 -16t9 -41l-14 -53q-12 -47 -70 -47zM168 -8q-23 0 -35 16t-6 41l242 903h-99q-20 0 -33 14t-13 32t14 32
t32 14h123l41 152q80 299 334 299q90 0 168 -31q41 -16 41 -45q1 -29 -19 -43t-47 -2q-76 31 -147 31q-176 0 -236 -231l-34 -130h323q19 0 33 -13t14 -33t-14 -32q-14 -13 -33 -14h-348l-246 -913q-12 -47 -55 -47z" />
    <glyph glyph-name="fl" unicode="fl" horiz-adv-x="1253" 
d="M862 -8q-23 0 -35 16t-6 41l377 1407q12 47 55 47q23 0 35 -16t6 -41l-376 -1407q-12 -47 -56 -47zM168 -8q-23 0 -35 16t-6 41l242 903h-99q-20 0 -33 14t-13 32t14 32t32 14h123l41 152q80 299 334 299q90 0 168 -31q41 -16 41 -45q1 -29 -19 -43t-47 -2
q-76 31 -147 31q-176 0 -236 -231l-34 -130h323q19 0 33 -13t14 -33t-14 -32q-14 -13 -33 -14h-348l-246 -913q-12 -47 -55 -47z" />
    <glyph glyph-name="f_f_i" unicode="ffi" horiz-adv-x="1994" 
d="M1604 -8q-23 0 -35 16t-6 41l256 957q12 47 55 47q23 -1 35 -17t6 -41l-256 -956q-12 -47 -55 -47zM1956 1307q-29 0 -44 16t-9 41l14 53q12 47 70 47q29 0 44 -16t9 -41l-15 -53q-12 -47 -69 -47zM909 -8q-23 0 -35 16t-6 41l242 903h-98q-20 0 -34 14t-13 32
q0 18 14 32t33 14h123l41 152q80 299 333 299q90 0 168 -31q41 -16 41 -45t-19 -43t-46 -2q-76 31 -148 31q-176 0 -235 -231l-35 -130h324q20 0 33 -13q14 -13 14 -33t-14 -32q-14 -13 -33 -14h-349l-245 -913q-12 -47 -56 -47zM168 -8q-23 0 -35 16t-6 41l242 903h-99
q-20 0 -33 14t-13 32t14 32t32 14h123l41 152q80 299 334 299q90 0 168 -31q41 -16 41 -45q1 -29 -19 -43t-47 -2q-76 31 -147 31q-176 0 -236 -231l-34 -130h323q19 0 33 -13t14 -33t-14 -32q-14 -13 -33 -14h-348l-246 -913q-12 -47 -55 -47z" />
    <glyph glyph-name="f_f_l" unicode="ffl" horiz-adv-x="1994" 
d="M1604 -8q-23 0 -35 16t-6 41l376 1407q12 47 56 47q23 0 35 -16t6 -41l-377 -1407q-12 -47 -55 -47zM909 -8q-23 0 -35 16t-6 41l242 903h-98q-20 0 -34 14t-13 32q0 18 14 32t33 14h123l41 152q80 299 333 299q90 0 168 -31q41 -16 41 -45t-19 -43t-46 -2
q-76 31 -148 31q-176 0 -235 -231l-35 -130h324q20 0 33 -13q14 -13 14 -33t-14 -32q-14 -13 -33 -14h-349l-245 -913q-12 -47 -56 -47zM168 -8q-23 0 -35 16t-6 41l242 903h-99q-20 0 -33 14t-13 32t14 32t32 14h123l41 152q80 299 334 299q90 0 168 -31q41 -16 41 -45
q1 -29 -19 -43t-47 -2q-76 31 -147 31q-176 0 -236 -231l-34 -130h323q19 0 33 -13t14 -33t-14 -32q-14 -13 -33 -14h-348l-246 -913q-12 -47 -55 -47z" />
    <glyph glyph-name=".notdef" 
d="M512 492l-367 -799h734zM922 1384l-353 -770l353 -770v1540zM102 -156l353 770l-353 770v-1540zM145 1536l367 -799l367 799h-734zM0 -410v2048h1024v-2048h-1024z" />
    <glyph glyph-name=".null" horiz-adv-x="0" 
 />
    <glyph glyph-name="nonmarkingreturn" horiz-adv-x="681" 
 />
    <glyph glyph-name="space" unicode=" " horiz-adv-x="614" 
 />
    <glyph glyph-name="exclam" unicode="!" horiz-adv-x="514" 
d="M121 -8q-29 0 -46 17t-12 44l21 76q16 53 74 53q29 0 46 -18t11 -45l-20 -78q-12 -49 -74 -49zM489 1440h17q25 0 38 -16t5 -42l-297 -987q-8 -27 -31 -26q-35 0 -24 41l233 985q10 45 59 45z" />
    <glyph glyph-name="quotedbl" unicode="&#x22;" horiz-adv-x="839" 
d="M610 905q-37 0 -22 41l164 449q14 43 67 43h12q31 0 41 -18t-6 -52l-221 -436q-14 -27 -35 -27zM242 905q-37 0 -23 41l164 449q14 43 68 43h12q31 0 41 -18t-6 -52l-222 -436q-14 -27 -34 -27z" />
    <glyph glyph-name="numbersign" unicode="#" horiz-adv-x="1388" 
d="M1245 1442q33 0 43 -16t2 -40l-114 -327h194q20 0 34 -13q14 -14 15 -34q0 -20 -14 -34t-35 -15h-227l-170 -484h219q20 0 34 -13q14 -14 15 -34q0 -20 -14 -34t-35 -15h-252l-121 -348q-16 -43 -49 -43q-64 0 -45 55l117 336h-424l-121 -348q-14 -43 -47 -43t-44 16
t-3 39l116 336h-194q-20 0 -35 13q-14 14 -14 34t14 34t35 15h227l170 484h-219q-20 0 -35 13q-14 14 -14 34t14 34t35 15h252l119 340q14 43 47 43t44 -16t3 -40l-115 -327h424l119 340q16 43 49 43zM453 479h421l170 484h-423z" />
    <glyph glyph-name="dollar" unicode="$" horiz-adv-x="1265" 
d="M381 1061q0 -90 64 -149q65 -58 221 -115l145 536q-178 25 -304 -57t-126 -215zM995 395q0 87 -61 149t-211 122l-154 -570q184 -6 305 78t121 221zM6 262q0 22 14 36t36 15q22 0 40 -18q152 -158 385 -191l158 590q-201 76 -284 155t-83 202q0 163 136 273t340 110
q33 0 90 -4l22 83q12 47 55 48q23 -1 36 -17t7 -41l-24 -88q184 -37 323 -155q23 -18 23 -44t-14 -38q-33 -32 -76 2q-117 106 -291 143l-149 -557q188 -68 271 -152t83 -208q0 -176 -146 -291t-376 -115h-39l-43 -164q-12 -47 -56 -47q-23 0 -36 16t-7 41l45 164
q-252 41 -417 207q-23 23 -23 45z" />
    <glyph glyph-name="percent" unicode="%" horiz-adv-x="1681" 
d="M228 -8q-42 0 -44 41q0 20 23 43l1300 1335q33 33 53 33q42 0 44 -41q0 -20 -23 -43l-1300 -1335q-33 -33 -53 -33zM1495 408q-1 232 -201 231q-102 0 -186 -110t-84 -224q0 -231 200 -231q102 0 187 110q84 110 84 224zM291 1028q1 -231 201 -231q102 -1 186 109t84 224
q0 232 -201 232q-103 0 -187 -110t-83 -224zM1204 -14q-123 0 -202 85t-78 208q0 176 114 312q115 136 277 136q123 0 202 -85t78 -208q-1 -176 -115 -312t-276 -136zM471 709q-123 0 -202 85t-79 207q0 177 115 313t277 136q124 0 202 -85t78 -208q0 -176 -114 -312
t-277 -136z" />
    <glyph glyph-name="ampersand" unicode="&#x26;" horiz-adv-x="1413" 
d="M464 -20q-167 0 -284 96t-117 266t128 296t374 187q-96 156 -96 273q0 154 112 257q113 103 265 103t244 -82t92 -215q0 -268 -463 -393l291 -412q106 119 213 299q25 39 47 39t34 -12t13 -30q0 -18 -12 -38q-123 -199 -238 -327l156 -221q16 -23 16 -41q0 -45 -47 -45
q-26 -1 -49 32l-146 207q-125 -123 -245 -181t-288 -58zM485 74q238 0 457 215l-326 461q-224 -54 -334 -160t-110 -236t85 -206q85 -74 228 -74zM840 1368q-108 0 -187 -79q-169 -167 15 -447q410 106 409 315q0 94 -64 153q-65 58 -173 58z" />
    <glyph glyph-name="quotesingle" unicode="'" horiz-adv-x="471" 
d="M242 905q-37 0 -23 41l164 449q14 43 68 43h12q31 0 41 -18t-6 -52l-222 -436q-14 -27 -34 -27z" />
    <glyph glyph-name="parenleft" unicode="(" horiz-adv-x="880" 
d="M612 -242q0 -16 -12 -27t-30 -11t-35 16q-332 317 -332 710q0 311 198 581q199 269 574 429q21 8 35 8t26 -11t12 -34t-28 -35q-342 -150 -526 -398t-185 -537q0 -209 77 -361t210 -295q16 -19 16 -35z" />
    <glyph glyph-name="parenright" unicode=")" horiz-adv-x="880" 
d="M348 1464q18 0 35 -16q332 -317 332 -711q0 -311 -199 -580t-573 -429q-41 -16 -57 -1q-17 15 -17 37t29 35q342 150 526 398t184 538q0 209 -77 361q-76 152 -209 295q-16 18 -17 34q0 15 12 27q13 12 31 12z" />
    <glyph glyph-name="asterisk" unicode="*" horiz-adv-x="880" 
d="M314 1020q-14 0 -26 11q-11 11 -12 28q0 39 41 45l230 43l-176 147q-20 18 -21 39q0 41 37 41q23 0 39 -18l152 -174l40 213q10 43 46 43q22 0 32 -16t2 -40l-73 -213l209 74q14 6 29 6t25 -12t11 -29q0 -37 -39 -43l-227 -43l172 -145q43 -40 12 -71q-12 -11 -29 -11
t-36 20l-150 172l-41 -217q-6 -37 -41 -36q-23 0 -35 16t-4 37l74 213l-211 -74q-16 -6 -30 -6z" />
    <glyph glyph-name="plus" unicode="+" horiz-adv-x="1269" 
d="M561 223q-25 1 -37 19t-6 41l107 389h-392q-20 0 -34 14q-15 14 -15 34t14 36q14 14 35 14h418l107 401q14 47 48 47t46 -16q12 -18 6 -41l-104 -391h391q21 0 35 -13t14 -33t-14 -36t-35 -16h-418l-109 -400q-14 -49 -57 -49z" />
    <glyph glyph-name="comma" unicode="," horiz-adv-x="473" 
d="M137 182q29 0 47 -20t11 -47l-25 -92q-29 -103 -80 -155t-133 -79q-16 -6 -28 1q-11 8 -11 24t21 24q65 29 99 66t46 96q-20 2 -33 18q-12 16 -6 43l18 68q16 53 74 53z" />
    <glyph glyph-name="hyphen" unicode="-" horiz-adv-x="837" 
d="M668 551h-453q-23 0 -40 17t-17 40t17 40t40 18h453q23 0 40 -18t17 -40q0 -23 -17 -40t-40 -17z" />
    <glyph glyph-name="period" unicode="." horiz-adv-x="473" 
d="M100 -8q-29 0 -46 18t-11 45l20 74q16 53 74 53q29 0 47 -18t11 -45l-21 -74q-16 -53 -74 -53z" />
    <glyph glyph-name="slash" unicode="/" 
d="M1248 1645q20 -1 32 -13t12 -28t-20 -43l-1393 -1803q-43 -54 -79 -18q-24 26 10 72l1392 1802q25 31 46 31z" />
    <glyph glyph-name="zero" unicode="0" horiz-adv-x="1452" 
d="M646 72q171 0 317 125q145 125 229 321t84 396t-98 324t-270 124t-316 -125q-146 -125 -230 -321t-84 -396t99 -324q98 -124 269 -124zM917 1458q217 0 343 -148t126 -384t-94 -454t-266 -358t-389 -139t-343 149t-126 384t94 454t266 357t389 139z" />
    <glyph glyph-name="one" unicode="1" horiz-adv-x="684" 
d="M250 -8q-23 0 -38 17t-7 44l342 1274l-244 -78q-19 -6 -35 -6t-27 13t-11 40t36 39l295 99q39 14 70 14h2q51 0 37 -57l-363 -1352q-12 -47 -57 -47z" />
    <glyph glyph-name="two" unicode="2" horiz-adv-x="1204" 
d="M930 0h-914q-51 0 -51 43q0 27 25 45l846 657q131 101 191 185t60 186q1 102 -81 172t-226 70q-197 0 -381 -176q-27 -23 -47 -23t-34 12q-13 12 -13 35t23 45q109 99 214 151t242 52q182 0 298 -95t116 -247q0 -119 -73 -219t-224 -217l-741 -574h770q20 0 36 -14
t15 -37q1 -23 -15 -37t-36 -14z" />
    <glyph glyph-name="three" unicode="3" horiz-adv-x="1241" 
d="M31 254q0 22 14 36t38 15q24 0 42 -31q127 -203 393 -202q190 0 316 101q124 101 124 247t-107 216q-108 69 -294 69h-31q-49 0 -49 36q0 18 19 35l618 557h-708q-23 1 -37 15q-15 14 -15 36t16 35q16 14 36 15h841q43 0 43 -37q0 -27 -26 -49l-617 -557q182 -7 303 -99
t121 -252q0 -200 -164 -332t-395 -133q-326 0 -469 238q-12 19 -12 41z" />
    <glyph glyph-name="four" unicode="4" horiz-adv-x="1320" 
d="M813 -8q-23 0 -37 16t-6 45l80 297h-748q-57 0 -57 41q0 25 29 53l1052 979q33 29 63 29t41 -18t3 -43l-254 -949h180q19 0 33 -13t14 -33t-14 -32q-14 -13 -33 -14h-205l-84 -311q-12 -47 -57 -47zM203 442h671l224 832z" />
    <glyph glyph-name="five" unicode="5" horiz-adv-x="1230" 
d="M45 230q0 24 14 38t39 14t45 -26q139 -188 379 -188q203 0 333 118t130 272t-96 236q-95 82 -245 82t-300 -71q-39 -19 -71 3t-15 74l197 602q16 49 59 50h672q23 0 37 -14t14 -38q0 -22 -14 -36t-37 -15h-649l-177 -526q46 27 132 47t149 20q209 0 332 -108t123 -302
q0 -196 -162 -341t-428 -145t-438 206q-23 24 -23 48z" />
    <glyph glyph-name="six" unicode="6" horiz-adv-x="1310" 
d="M291 413q0 -147 97 -245t274 -98t300 118q122 119 121 285q0 127 -92 223t-272 96t-304 -115q-124 -116 -124 -264zM1323 1260q0 -22 -14 -38t-36 -16t-40 19q-141 137 -334 137t-360 -168q-100 -100 -170 -248t-80 -297q71 106 185 174t261 68q209 0 334 -123
q125 -122 125 -310t-156 -335t-377 -147t-356 134q-135 135 -135 378t79 440t208 325q205 205 445 205t398 -153q23 -23 23 -45z" />
    <glyph glyph-name="seven" unicode="7" horiz-adv-x="1183" 
d="M248 -8q-45 0 -45 41q0 20 20 49l905 1249h-766q-22 1 -36 15t-14 36t14 37q14 14 36 15h871q43 0 43 -37q0 -19 -25 -54l-944 -1314q-29 -37 -59 -37z" />
    <glyph glyph-name="eight" unicode="8" horiz-adv-x="1312" 
d="M616 76q194 0 318 89q123 89 123 220t-114 218q-115 87 -309 87t-318 -94t-124 -226t116 -213q114 -81 308 -81zM785 778q173 0 282 91t109 212t-102 199t-271 78q-170 0 -281 -86q-110 -86 -110 -210t100 -204t273 -80zM610 -20q-236 0 -383 108q-145 108 -145 270
t123 268t315 134q-94 34 -156 114t-63 191q-1 165 147 277t359 112t345 -102t134 -256t-106 -253t-265 -128q105 -37 179 -123t73 -201q0 -178 -160 -295q-161 -116 -397 -116z" />
    <glyph glyph-name="nine" unicode="9" horiz-adv-x="1310" 
d="M689 623q181 -1 306 121t125 272t-98 248t-274 98t-298 -122t-124 -290q-2 -131 90 -229t273 -98zM512 -27q-238 0 -412 166q-43 43 -8 83q14 16 36 16t40 -19q143 -149 340 -149t364 168q100 98 169 243t81 295q-170 -252 -450 -252q-209 0 -334 125t-123 317t160 341
t377 149t354 -135t135 -377t-79 -440q-79 -197 -208 -326q-204 -205 -442 -205z" />
    <glyph glyph-name="colon" unicode=":" horiz-adv-x="493" 
d="M344 862q-29 0 -46 18t-11 46l20 73q16 53 74 54q29 -1 46 -19t11 -45l-20 -74q-16 -53 -74 -53zM111 -8q-29 0 -46 18t-12 45l21 74q16 53 73 53q29 0 47 -18t11 -45l-21 -74q-16 -53 -73 -53z" />
    <glyph glyph-name="semicolon" unicode=";" horiz-adv-x="493" 
d="M344 862q-29 0 -46 18t-11 46l20 73q16 53 74 54q29 -1 46 -19t11 -45l-20 -74q-16 -53 -74 -53zM147 182q29 0 47 -20t11 -47l-25 -92q-29 -103 -80 -155t-133 -79q-16 -6 -27 1q-11 8 -11 24t20 24q65 29 99 66t46 96q-20 2 -33 18q-12 16 -6 43l19 68q16 53 73 53z
" />
    <glyph glyph-name="less" unicode="&#x3c;" horiz-adv-x="1269" 
d="M1268 1180q0 -33 -39 -52l-924 -415l680 -408q31 -15 31 -41t-14 -40t-32 -15q-19 0 -40 12l-719 432q-39 25 -39 56v2q0 44 55 67l953 434q25 12 47 13q41 0 41 -45z" />
    <glyph glyph-name="equal" unicode="=" horiz-adv-x="1269" 
d="M205 438q-23 0 -38 16t-15 36q0 22 16 37t37 16h839q20 1 36 -15t18 -38q0 -22 -16 -36q-16 -15 -38 -16h-839zM328 899q-23 0 -38 15q-16 16 -16 36t16 36t38 18h839q21 0 37 -16t16 -38q0 -20 -14 -36q-16 -16 -39 -15h-839z" />
    <glyph glyph-name="greater" unicode="&#x3e;" horiz-adv-x="1269" 
d="M147 217q-41 0 -41 45q0 33 39 51l924 416l-680 408q-31 15 -31 41t14 40t32 15q20 0 40 -12l719 -433q39 -25 39 -55v-2q0 -44 -55 -67l-952 -435q-25 -12 -48 -12z" />
    <glyph glyph-name="question" unicode="?" horiz-adv-x="1093" 
d="M334 -8q-29 0 -46 17t-12 44l21 76q16 53 74 53q29 0 46 -18t11 -45l-20 -78q-12 -49 -74 -49zM251 1178q-19 0 -33 13q-13 13 -13 33t16 36q201 193 461 192q188 0 300 -100t112 -258q0 -193 -154 -312t-389 -151l-80 -234q-10 -31 -35 -30h-2q-16 0 -25 12t-6 33
l50 258q6 43 49 49q217 23 350 120t133 253q0 124 -88 194t-223 70q-203 0 -379 -158q-25 -20 -44 -20z" />
    <glyph glyph-name="at" unicode="@" horiz-adv-x="2007" 
d="M995 -330q-391 0 -625 220t-235 583q0 259 135 487q136 228 368 363t503 135q371 0 585 -205t216 -518q0 -270 -134 -428t-288 -157q-106 0 -170 54q-63 54 -78 150q-162 -209 -381 -209q-137 -1 -229 93t-93 247q0 219 154 381t344 162q123 0 202 -62t113 -159l52 168
q14 43 46 43t45 -20t5 -50l-144 -463q-34 -111 4 -185t150 -75q112 0 220 135q110 135 110 375q0 283 -197 470t-532 188q-381 -1 -657 -275t-277 -645q0 -333 216 -535t572 -202q219 0 400 82q12 6 24 6q31 0 31 -33q0 -21 -27 -33q-195 -88 -428 -88zM911 242
q156 0 289 132t133 292q1 118 -71 192t-191 74q-159 0 -273 -131t-114 -312q0 -115 64 -181t163 -66z" />
    <glyph glyph-name="A" unicode="A" horiz-adv-x="1517" 
d="M1358 40q0 -18 -14 -32q-14 -16 -37 -16q-45 0 -56 51l-65 358h-846l-268 -370q-32 -39 -54 -39q-47 0 -49 47q0 18 13 31l968 1327q39 51 80 51h4q54 0 64 -51l256 -1323q4 -16 4 -34zM410 498h755l-153 829z" />
    <glyph glyph-name="B" unicode="B" horiz-adv-x="1468" 
d="M719 0h-586q-23 0 -37 16t-8 37l356 1327q6 23 24 38t38 16h483q197 0 314 -87t117 -239t-107 -253q-106 -101 -273 -134q123 -33 199 -107t76 -192q0 -186 -162 -304t-434 -118zM725 98q223 0 352 86t129 238q0 120 -104 186t-275 66h-467l-153 -576h518zM829 772
q217 0 349 90q131 90 131 236q0 117 -87 177t-243 60h-440l-152 -563h442z" />
    <glyph glyph-name="C" unicode="C" horiz-adv-x="1511" 
d="M774 -27q-246 0 -416 159q-170 160 -170 406t114 455t313 337q200 128 429 128q168 0 296 -70t200 -186q27 -49 -2 -80q-14 -14 -40 -13t-40 24q-70 109 -167 169t-253 60q-303 0 -521 -246t-218 -557q0 -223 136 -355t349 -132q256 0 457 188q39 39 74 4q14 -14 14 -35
t-20 -41q-229 -215 -535 -215z" />
    <glyph glyph-name="D" unicode="D" horiz-adv-x="1579" 
d="M506 1434h274q365 0 557 -193q158 -158 158 -410q0 -332 -223 -555q-130 -132 -320 -204t-409 -72h-410q-23 0 -37 16t-8 37l356 1327q6 22 24 38t38 16zM557 98q389 0 635 246q193 193 192 479q0 221 -133 351q-162 162 -477 161h-235l-332 -1237h350z" />
    <glyph glyph-name="E" unicode="E" horiz-adv-x="1329" 
d="M1065 0h-932q-23 0 -37 16t-8 37l356 1327q6 23 24 38t38 16h907q21 0 35 -14t14 -36q0 -20 -14 -34t-35 -15h-874l-152 -563h756q21 0 35 -14t14 -34t-14 -36q-14 -14 -35 -14h-783l-153 -576h858q21 0 35 -14t14 -34t-14 -36q-15 -14 -35 -14z" />
    <glyph glyph-name="F" unicode="F" horiz-adv-x="1343" 
d="M506 1434h907q21 0 35 -14t14 -36q0 -20 -14 -34t-35 -15h-874l-158 -587h756q20 0 34 -14q15 -14 15 -36q0 -20 -14 -34t-35 -15h-783l-161 -604q-5 -23 -23 -38t-40 -15t-36 16t-8 37l358 1335q6 22 24 38t38 16z" />
    <glyph glyph-name="G" unicode="G" horiz-adv-x="1609" 
d="M797 -27q-256 0 -430 166t-174 439q1 220 113 422t316 330t445 128q317 0 487 -213q37 -46 8 -81q-13 -15 -38 -15t-41 22q-133 190 -426 191q-209 0 -385 -115t-272 -293t-97 -372q0 -238 141 -375t376 -137t411 116l131 459h-428q-20 0 -35 14q-14 15 -14 35t14 34
t35 15h496q25 -1 39 -19t8 -38l-148 -516q-12 -45 -51 -68q-225 -129 -481 -129z" />
    <glyph glyph-name="H" unicode="H" horiz-adv-x="1548" 
d="M1147 -8q-23 0 -38 17t-7 44l166 619h-908l-170 -633q-12 -47 -57 -47q-23 0 -38 17t-7 44l361 1342q12 47 57 47q23 0 38 -18t7 -44l-164 -610h907l168 625q12 47 58 47q23 0 38 -18t7 -44l-361 -1341q-12 -47 -57 -47z" />
    <glyph glyph-name="I" unicode="I" horiz-adv-x="561" 
d="M147 -8q-23 0 -37 17t-8 44l361 1342q12 47 57 47q23 0 38 -18t7 -44l-360 -1341q-12 -47 -58 -47z" />
    <glyph glyph-name="J" unicode="J" horiz-adv-x="1101" 
d="M401 -20q-287 0 -397 278q-6 16 -6 36t14 34t43 14t43 -41q80 -225 299 -225q305 0 420 420l242 899q12 47 57 47q23 0 38 -18t7 -44l-241 -899q-62 -241 -194 -371t-325 -130z" />
    <glyph glyph-name="K" unicode="K" horiz-adv-x="1462" 
d="M133 -8q-23 0 -38 17t-7 44l361 1342q12 47 57 47q23 0 38 -18t7 -44l-236 -878l1135 921q20 19 42 19t36 -14t14 -36t-24 -40l-695 -559l389 -711q29 -48 -2 -76q-14 -14 -42 -14t-50 37l-383 702l-459 -373l-86 -319q-12 -47 -57 -47z" />
    <glyph glyph-name="L" unicode="L" horiz-adv-x="1228" 
d="M993 0h-860q-23 0 -37 16t-8 37l361 1342q12 47 57 47q23 0 38 -18t7 -44l-344 -1282h786q21 0 35 -14t14 -34t-14 -36q-15 -14 -35 -14z" />
    <glyph glyph-name="M" unicode="M" horiz-adv-x="1779" 
d="M1745 1440h2q29 0 42 -18t5 -48l-358 -1335q-12 -47 -60 -47q-23 0 -37 16t-6 45l320 1192l-729 -764q-29 -29 -56 -29t-39 31l-319 762l-322 -1204q-12 -49 -57 -49q-23 0 -37 16t-6 45l356 1327q16 59 60 60h2q39 0 55 -41l334 -813l768 811q41 43 82 43z" />
    <glyph glyph-name="N" unicode="N" horiz-adv-x="1609" 
d="M1585 1442q23 0 37 -16t6 -46l-360 -1341q-12 -45 -49 -45h-2q-33 0 -56 43l-641 1245l-334 -1243q-12 -47 -55 -47q-23 0 -37 16t-6 45l358 1333q14 53 62 54h4q41 0 70 -54l620 -1208l328 1217q12 47 55 47z" />
    <glyph glyph-name="O" unicode="O" horiz-adv-x="1732" 
d="M307 577q-1 -211 141 -359t353 -148t377 110t259 288q93 177 93 387t-141 358q-141 149 -353 149t-377 -111q-166 -111 -259 -287t-93 -387zM815 -27q-268 -1 -443 177t-175 440q0 221 109 422q110 202 301 324t415 122q268 0 443 -177t175 -439q0 -221 -110 -422
t-300 -324q-192 -123 -415 -123z" />
    <glyph glyph-name="P" unicode="P" horiz-adv-x="1357" 
d="M694 633q289 -1 444 107t154 304q0 117 -73 191q-100 100 -316 100h-364l-189 -702h344zM133 -8q-23 0 -38 17t-7 44l356 1327q6 23 24 38t38 16h399q266 0 395 -129q98 -98 99 -256q-1 -242 -191 -377t-518 -135h-364l-136 -498q-12 -47 -57 -47z" />
    <glyph glyph-name="Q" unicode="Q" horiz-adv-x="1732" 
d="M803 -27q-256 -1 -431 177t-175 440q0 221 109 422q110 202 301 324t415 122q268 0 443 -177t175 -439q0 -184 -80 -358t-219 -300l117 -127q25 -29 25 -47q0 -47 -49 -47q-28 0 -48 25l-116 137q-211 -152 -467 -152zM1530 842q0 223 -141 371q-141 149 -353 149
t-377 -111q-166 -111 -259 -287t-93 -387q-1 -211 141 -359t360 -148t396 129l-200 223q-27 31 -27 49q0 51 49 51q25 1 45 -24l205 -240q118 112 186 266t68 318z" />
    <glyph glyph-name="R" unicode="R" horiz-adv-x="1460" 
d="M795 690q305 0 450 146q96 96 96 216t-63 185q-98 98 -309 98h-430l-174 -645h430zM133 -8q-23 0 -38 17t-7 44l356 1327q6 23 24 38t38 16h467q258 0 385 -127q90 -90 90 -248t-133 -291t-416 -164l270 -518q28 -53 -1 -80q-15 -14 -44 -14t-45 33l-295 569h-444
l-150 -555q-12 -47 -57 -47z" />
    <glyph glyph-name="S" unicode="S" horiz-adv-x="1306" 
d="M623 76q176 0 295 89t118 224q0 94 -69 158q-71 63 -271 141t-292 160q-91 82 -91 211q-1 167 143 281t371 114q270 0 459 -176q23 -23 23 -44q1 -20 -15 -36t-39 -16t-43 20q-156 156 -395 156q-178 0 -287 -86q-108 -86 -108 -194t78 -170t274 -137t283 -160
q88 -85 88 -214q0 -176 -152 -297t-381 -120q-338 0 -538 231q-38 52 -6 82q14 14 38 14t41 -24q179 -207 476 -207z" />
    <glyph glyph-name="T" unicode="T" horiz-adv-x="1259" 
d="M487 -8q-23 0 -37 17t-8 44l344 1282h-444q-20 1 -34 15t-15 34q0 20 14 34t35 16h1022q20 0 34 -14t15 -36q0 -20 -14 -34t-35 -15h-471l-348 -1296q-12 -47 -58 -47z" />
    <glyph glyph-name="U" unicode="U" horiz-adv-x="1548" 
d="M197 428q0 111 28 221l199 746q12 47 57 47q23 0 38 -18t7 -44l-207 -780q-18 -74 -18 -164q1 -162 107 -262t311 -100t345 140t208 388l213 793q12 47 57 47q23 0 38 -18t7 -44l-215 -800q-72 -266 -227 -422q-180 -180 -431 -180t-384 124q-133 125 -133 326z" />
    <glyph glyph-name="V" unicode="V" horiz-adv-x="1462" 
d="M582 -14h-4q-47 0 -56 53l-219 1321q-4 20 -4 36t15 31q15 14 38 15q49 0 56 -51l196 -1276l893 1288q27 39 59 39q45 0 46 -41q-1 -20 -17 -43l-926 -1319q-37 -53 -77 -53z" />
    <glyph glyph-name="W" unicode="W" horiz-adv-x="2199" 
d="M1325 1442h2q41 0 45 -43l76 -1241l772 1243q25 41 64 41q18 0 30 -12t12 -31t-12 -37l-833 -1325q-32 -53 -68 -53h-4q-43 0 -47 53l-82 1198l-725 -1198q-31 -53 -68 -53h-4q-43 0 -47 53l-123 1323l-2 29q1 23 17 37t39 16q51 0 55 -56l104 -1228l744 1249
q20 35 55 35z" />
    <glyph glyph-name="X" unicode="X" horiz-adv-x="1417" 
d="M1444 1442q47 0 47 -45q0 -21 -21 -41l-641 -633l349 -641q14 -29 14 -46q0 -16 -14 -30t-41 -14t-41 31l-342 639l-641 -639q-31 -31 -53 -31q-45 0 -48 43q0 23 21 43l669 663l-335 611q-26 54 0 76q15 14 41 14t41 -31l329 -608l613 608q31 31 53 31z" />
    <glyph glyph-name="Y" unicode="Y" horiz-adv-x="1368" 
d="M539 -8q-23 0 -38 17t-7 44l141 529l-340 772q-8 18 -8 39t14 35t43 14t49 -47l314 -731l725 749q29 29 52 29q24 0 38 -14t14 -34q0 -22 -25 -46l-778 -793l-137 -516q-12 -47 -57 -47z" />
    <glyph glyph-name="Z" unicode="Z" horiz-adv-x="1355" 
d="M410 1337q-20 -1 -34 13t-16 34q0 20 14 34t36 16h1001q41 0 41 -35v-2q0 -27 -29 -56l-1269 -1245h911q21 0 35 -13t14 -33t-14 -36q-14 -14 -35 -14h-1042q-41 0 -41 35v2q-1 26 28 55l1270 1245h-870z" />
    <glyph glyph-name="bracketleft" unicode="[" horiz-adv-x="880" 
d="M1006 1356h-445l-414 -1544h424q15 0 27 -12t12 -27t-12 -27t-27 -12h-473q-29 0 -43 17t-6 44l426 1585q12 53 70 54h461q14 0 26 -12t12 -27t-12 -27t-26 -12z" />
    <glyph glyph-name="backslash" unicode="\" 
d="M791 -270q-37 0 -46 43l-430 1800q-4 16 -4 30q1 15 13 27t30 12q37 0 45 -43l430 -1800q10 -39 -5 -54t-33 -15z" />
    <glyph glyph-name="bracketright" unicode="]" horiz-adv-x="880" 
d="M367 -266h-461q-16 0 -28 12q-11 12 -11 26t11 27q11 12 28 13h444l414 1544h-424q-16 0 -28 12q-11 12 -11 26t11 27q11 12 28 13h473q29 0 43 -18t6 -44l-426 -1585q-14 -53 -69 -53z" />
    <glyph glyph-name="asciicircum" unicode="^" 
d="M743 1448h9q39 0 55 -37l174 -360q8 -16 8 -25q0 -25 -40 -25t-56 33l-158 318l-332 -320q-33 -31 -69 -31t-37 25q0 15 18 33l359 352q37 37 69 37z" />
    <glyph glyph-name="underscore" unicode="_" horiz-adv-x="1228" 
d="M-219 -328q-17 0 -31 14t-14 31t13 31t32 14h1237q18 0 32 -13t13 -31q0 -18 -13 -32q-13 -13 -32 -14h-1237z" />
    <glyph glyph-name="grave" unicode="`" 
d="M600 1434q0 16 26 31t62 15t49 -36l74 -189q6 -18 6 -24q0 -19 -30 -19t-48 25l-125 164q-14 17 -14 33z" />
    <glyph glyph-name="a" unicode="a" horiz-adv-x="1169" 
d="M815 -8q-23 0 -35 16t-6 41l35 131q-172 -205 -420 -205q-141 0 -242 77q-100 77 -100 216q0 172 131 276q132 104 328 103q196 0 414 -59l8 28q14 53 14 105q0 119 -81 182t-225 63t-274 -42q-16 -4 -26 -4q-41 0 -41 45q0 35 39 47q147 49 319 49t280 -87t107 -239
q0 -59 -20 -137l-150 -559q-12 -47 -55 -47zM426 68q136 0 272 97t176 251l25 92q-197 49 -374 49t-274 -77t-97 -186t68 -168q68 -58 204 -58z" />
    <glyph glyph-name="b" unicode="b" horiz-adv-x="1339" 
d="M635 68q207 0 346 164t139 384q0 160 -90 260t-233 99q-197 0 -360 -168t-163 -375q0 -154 102 -259t259 -105zM639 -27q-162 0 -266 83t-150 210l-61 -227q-12 -47 -56 -47q-22 0 -34 16t-6 41l376 1407q12 47 56 47q22 0 34 -16t7 -41l-164 -606q193 229 434 229
q182 0 301 -124t119 -316q0 -274 -176 -465t-414 -191z" />
    <glyph glyph-name="c" unicode="c" horiz-adv-x="1153" 
d="M570 -25q-194 0 -331 123q-136 123 -137 328q0 258 184 451t433 193q250 0 383 -208q14 -23 14 -41t-13 -31q-13 -14 -38 -14t-43 27q-118 172 -314 172t-347 -164t-150 -379q0 -168 103 -265t258 -97t305 127q16 14 36 14q21 0 33 -13t12 -33t-18 -38
q-176 -152 -370 -152z" />
    <glyph glyph-name="d" unicode="d" horiz-adv-x="1339" 
d="M965 -8q-23 0 -35 16t-6 41l39 154q-193 -229 -433 -230q-182 0 -301 124t-118 317q0 274 176 464t413 191q162 0 266 -83t150 -210l182 680q12 47 56 47q23 0 35 -16t6 -41l-375 -1407q-12 -47 -55 -47zM543 68q197 0 359 168t163 374q0 154 -101 259t-259 106
q-207 0 -347 -164t-139 -385q1 -160 91 -259t233 -99z" />
    <glyph glyph-name="e" unicode="e" horiz-adv-x="1193" 
d="M572 70q169 0 315 118q41 32 69 2q12 -12 12 -34t-20 -37q-170 -143 -381 -143t-338 122q-127 123 -127 316q0 252 178 454t427 201q188 0 291 -115t104 -284q0 -68 -15 -135q-10 -47 -61 -48h-811q-4 -45 -4 -69q0 -158 96 -253t265 -95zM999 664q0 135 -74 224
q-75 89 -231 89q-156 -1 -286 -115q-128 -114 -175 -284h758q8 37 8 86z" />
    <glyph glyph-name="f" unicode="f" horiz-adv-x="741" 
d="M168 -8q-23 0 -35 16t-6 41l242 903h-99q-20 0 -33 14t-13 32t14 32t32 14h123l41 152q80 299 334 299q90 0 168 -31q41 -16 41 -45q1 -29 -19 -43t-47 -2q-76 31 -147 31q-176 0 -236 -231l-34 -130h323q19 0 33 -13t14 -33t-14 -32q-14 -13 -33 -14h-348l-246 -913
q-12 -47 -55 -47z" />
    <glyph glyph-name="g" unicode="g" horiz-adv-x="1339" 
d="M1235 1053q23 -1 35 -17t6 -41l-229 -866q-55 -203 -164 -311q-150 -150 -405 -150t-458 168q-22 18 -22 42t13 38t35 14t40 -14q180 -154 393 -154t330 117q92 92 143 275l37 131q-195 -207 -430 -207q-176 0 -306 112t-130 293q0 252 180 419t412 167q286 1 407 -278
l58 215q12 47 55 47zM578 172q196 0 348 144t151 323q0 133 -101 233t-278 100q-178 0 -322 -136q-144 -137 -145 -347q0 -149 103 -233t244 -84z" />
    <glyph glyph-name="h" unicode="h" horiz-adv-x="1247" 
d="M893 -8q-23 0 -35 16t-6 41l145 549q16 61 17 129q0 117 -72 185t-203 67q-131 0 -258 -111t-172 -278l-147 -551q-12 -47 -56 -47q-22 0 -34 16t-6 41l376 1407q12 47 56 47q22 0 34 -16t7 -41l-160 -596q182 219 395 219q156 0 249 -91t93 -241q1 -57 -22 -147
l-146 -551q-12 -47 -55 -47z" />
    <glyph glyph-name="i" unicode="i" horiz-adv-x="512" 
d="M121 -8q-23 0 -35 16t-6 41l256 957q12 47 55 47q23 -1 35 -17t6 -41l-256 -956q-12 -47 -55 -47zM473 1307q-29 0 -44 16t-9 41l14 53q12 47 70 47q29 0 44 -16t9 -41l-14 -53q-12 -47 -70 -47z" />
    <glyph glyph-name="j" unicode="j" horiz-adv-x="509" 
d="M473 1307q-29 0 -44 16t-9 41l14 53q12 47 70 47q29 0 44 -16t9 -41l-14 -53q-12 -47 -70 -47zM391 1053q23 -1 35 -17t6 -41l-295 -1101q-29 -109 -92 -168t-151 -60q-129 0 -130 55q0 53 68 45q35 -4 55 -6q113 0 152 142l297 1104q12 47 55 47z" />
    <glyph glyph-name="k" unicode="k" horiz-adv-x="1146" 
d="M1143 1012q0 -25 -23 -41l-489 -393l268 -498q14 -25 14 -42q0 -18 -14 -32t-42 -14t-46 35l-264 489l-328 -262l-57 -215q-12 -47 -56 -47q-22 0 -34 16t-6 41l376 1407q12 47 56 47q23 0 35 -16t6 -41l-283 -1059l801 649q20 16 43 17q43 0 43 -41z" />
    <glyph glyph-name="l" unicode="l" horiz-adv-x="512" 
d="M121 -8q-23 0 -35 16t-6 41l377 1407q12 47 55 47q23 0 35 -16t6 -41l-377 -1407q-12 -47 -55 -47z" />
    <glyph glyph-name="m" unicode="m" horiz-adv-x="1947" 
d="M718 979q-120 0 -243 -112t-166 -277l-147 -551q-12 -47 -56 -47q-22 0 -34 16t-6 41l253 957q12 47 56 47q23 -1 35 -17t6 -41l-37 -145q88 109 173 164t209 55t202 -75t96 -181q156 256 438 256q141 0 233 -93t93 -239q0 -41 -27 -147l-145 -551q-12 -47 -56 -47
q-23 0 -35 16t-6 41l146 549q16 61 16 129q0 115 -68 183t-187 69q-121 0 -243 -112t-165 -277l-146 -551q-12 -47 -55 -47q-23 0 -35 16t-6 41l145 549q16 61 17 129q0 115 -68 183q-67 68 -187 69z" />
    <glyph glyph-name="n" unicode="n" horiz-adv-x="1251" 
d="M375 1053q23 -1 35 -17t6 -41l-37 -145q182 219 395 219q156 0 249 -91t93 -241q0 -57 -22 -147l-146 -551q-12 -47 -55 -47q-23 0 -35 16t-6 41l145 549q16 61 17 129q0 117 -72 185t-203 67q-131 0 -258 -111t-172 -278l-147 -551q-12 -47 -56 -47q-22 0 -34 16t-6 41
l253 957q13 47 56 47z" />
    <glyph glyph-name="o" unicode="o" horiz-adv-x="1296" 
d="M213 442q1 -174 101 -273t280 -99t334 160t153 372q0 174 -100 274t-266 99q-199 0 -351 -162t-151 -371zM569 -25q-207 0 -336 130t-129 333q0 250 186 440t435 191q207 0 336 -130t129 -333q0 -254 -188 -442t-433 -189z" />
    <glyph glyph-name="p" unicode="p" horiz-adv-x="1339" 
d="M375 1053q23 -1 35 -17t6 -41l-41 -155q193 229 434 229q182 0 301 -124t119 -316q0 -275 -176 -465t-414 -191q-162 0 -266 83t-150 210l-149 -555q-12 -47 -56 -47q-22 0 -34 16t-7 41l342 1285q13 47 56 47zM797 975q-197 0 -360 -168t-163 -375q0 -154 102 -259
t259 -105q207 0 346 164t139 384q0 160 -90 260t-233 99z" />
    <glyph glyph-name="q" unicode="q" horiz-adv-x="1339" 
d="M705 975q-207 0 -347 -164t-139 -385q0 -160 90 -259t234 -99q197 0 359 169t163 375q0 154 -101 258t-259 105zM700 1069q164 0 268 -83t148 -208l62 228q12 47 55 47q23 -1 35 -17t6 -41l-342 -1284q-12 -47 -55 -47q-23 0 -35 16t-6 41l129 484q-193 -231 -435 -232
q-182 0 -301 124t-118 317q-1 274 175 464t414 191z" />
    <glyph glyph-name="r" unicode="r" horiz-adv-x="811" 
d="M829 1061q53 0 54 -51q0 -55 -74 -62q-176 -16 -329 -153t-214 -367l-104 -389q-12 -47 -56 -47q-22 0 -34 16t-6 41l253 957q12 47 56 47q23 -1 35 -17t6 -41l-64 -247q94 141 226 227t251 86z" />
    <glyph glyph-name="s" unicode="s" horiz-adv-x="1013" 
d="M457 70q104 0 187 58t83 148q0 62 -48 110q-47 48 -191 101t-213 115t-68 162q0 127 107 215q108 88 280 88q90 0 186 -34q181 -64 181 -124q1 -20 -13 -33q-14 -14 -34 -14t-33 10q-147 102 -285 102t-210 -56q-73 -57 -73 -129t47 -115q47 -44 196 -102
q150 -58 214 -121t64 -158q0 -135 -115 -225t-275 -91q-227 0 -407 148q-25 19 -25 43t14 38t32 15q19 0 46 -20q158 -131 353 -131z" />
    <glyph glyph-name="t" unicode="t" horiz-adv-x="811" 
d="M592 49q0 -67 -190 -67q-92 0 -160 52q-70 52 -70 154q0 47 12 101l178 663h-98q-20 0 -34 14t-13 32q0 18 14 32t33 14h123l80 295q12 47 55 47q23 0 35 -16t6 -41l-76 -285h308q20 0 33 -13q14 -13 14 -33t-14 -32q-14 -13 -33 -14h-332l-178 -665q-10 -45 -11 -88
q0 -125 170 -125q43 0 78 10q68 19 70 -35z" />
    <glyph glyph-name="u" unicode="u" horiz-adv-x="1247" 
d="M872 -8q-22 0 -34 16t-7 41l37 146q-182 -219 -395 -220q-156 -1 -249 91t-93 241q0 57 23 148l145 551q12 47 55 47q23 -1 35 -17t6 -41l-145 -549q-16 -61 -17 -129q0 -117 72 -185t203 -66q131 0 258 110t172 279l147 551q12 47 56 47q23 -1 35 -17t6 -41l-254 -956
q-13 -47 -56 -47z" />
    <glyph glyph-name="v" unicode="v" horiz-adv-x="1140" 
d="M416 -14h-4q-43 0 -52 43l-163 934q-4 21 -4 41t14 34t37 15q47 0 53 -54l139 -886l619 899q27 41 52 41q25 1 37 -13t13 -34q0 -20 -14 -39l-664 -938q-31 -43 -63 -43z" />
    <glyph glyph-name="w" unicode="w" horiz-adv-x="1730" 
d="M977 1053h2q41 0 45 -45l68 -873l544 879q23 39 54 39q43 0 43 -41q0 -18 -13 -39l-598 -946q-25 -41 -59 -41h-2q-47 0 -53 57l-68 844l-530 -858q-25 -43 -60 -43h-2q-45 0 -49 57l-90 926l-2 28q0 55 53 56q45 0 49 -56l72 -862l539 881q25 37 57 37z" />
    <glyph glyph-name="x" unicode="x" horiz-adv-x="1144" 
d="M48 -8q-46 0 -46 45q0 21 25 43l495 461l-231 422q-26 54 0 76q14 13 40 13t44 -36l215 -412l432 416q33 33 54 33q22 -1 34 -13t12 -34t-24 -41l-463 -433l244 -450q14 -29 14 -46q0 -16 -14 -30t-40 -14t-44 37l-228 440l-465 -444q-33 -33 -54 -33z" />
    <glyph glyph-name="y" unicode="y" horiz-adv-x="1163" 
d="M62 -240q152 0 325 246l-197 959q-4 20 -4 36q0 51 46 51t57 -53l174 -888l606 901q27 41 59 41q45 0 46 -43q0 -20 -13 -39l-692 -1008q-111 -161 -212 -229t-205 -68t-197 49q-29 13 -29 39q0 52 47 53q17 0 33 -8q82 -39 156 -39z" />
    <glyph glyph-name="z" unicode="z" horiz-adv-x="1118" 
d="M301 1044h778q43 0 43 -36v-2q0 -20 -20 -41l-948 -875h688q18 0 31 -13t13 -31t-12 -32q-14 -14 -32 -14h-813q-43 0 -43 37v2q0 20 20 41l948 874h-653q-17 0 -31 14t-14 31q0 18 13 32q14 13 32 13z" />
    <glyph glyph-name="braceleft" unicode="{" horiz-adv-x="983" 
d="M182 627h25q159 0 231 83t115 297q43 213 157 323t365 132q45 4 45 -37q0 -35 -41 -39q-203 -16 -298 -110t-133 -294t-106 -288t-204 -110q141 -43 141 -170q1 -55 -31 -163t-32 -190q0 -205 219 -276q33 -12 33 -35q0 -18 -14 -30t-40 -3q-299 78 -299 336q1 74 33 193
t33 166q0 137 -195 137h-4q-49 0 -49 39t49 39z" />
    <glyph glyph-name="bar" unicode="|" horiz-adv-x="585" 
d="M289 -225v1822q0 17 13 31q14 14 32 14t32 -13t13 -32v-1822q0 -17 -13 -31q-14 -14 -32 -14t-32 13q-13 14 -13 32z" />
    <glyph glyph-name="braceright" unicode="}" horiz-adv-x="983" 
d="M836 549h-25q-159 0 -231 -83t-115 -297t-157 -324t-365 -132q-45 -4 -45 37q0 35 41 39q203 17 298 111t133 294t106 287q69 88 204 111q-141 43 -141 170q-1 55 31 163t32 189q0 205 -219 277q-33 12 -33 32q0 19 14 31t39 4q299 -78 299 -336q0 -74 -32 -192t-33 -166
q0 -137 194 -137h5q49 0 49 -39t-49 -39z" />
    <glyph glyph-name="asciitilde" unicode="~" horiz-adv-x="942" 
d="M229 496q-43 0 -43 36q0 20 29 68t71 89q42 40 94 40t80 -16q28 -17 80 -67t92 -50q42 0 101 98q18 31 41 31q43 0 43 -37q-1 -20 -29 -68t-70 -89q-42 -39 -94 -39t-80 16t-80 66t-93 50t-101 -98q-18 -30 -41 -30z" />
    <glyph glyph-name="uni00A0" unicode="&#xa0;" horiz-adv-x="614" 
 />
    <glyph glyph-name="exclamdown" unicode="&#xa1;" horiz-adv-x="514" 
d="M498 1442q29 0 46 -18t11 -44l-20 -75q-16 -53 -74 -54q-29 1 -46 19t-12 45l21 78q12 49 74 49zM397 1065q35 0 25 -41l-234 -985q-10 -45 -59 -45h-16q-25 0 -38 15t-5 42l297 987q8 27 30 27z" />
    <glyph glyph-name="cent" unicode="&#xa2;" horiz-adv-x="1142" 
d="M262 623q0 -111 51 -196t144 -124l344 875h-29q-210 0 -360 -164t-150 -391zM606 178q-45 0 -96 10l-64 -159q-20 -49 -51 -49t-43 19t-2 44l68 172q-121 51 -193 160t-71 246q0 267 184 459t440 192q37 0 56 -2l53 135q20 49 51 49t43 -18t2 -45l-55 -138
q164 -39 254 -188q12 -20 12 -39t-14 -32t-38 -13t-40 25q-43 66 -90 102t-125 57l-348 -886q35 -6 73 -7q184 0 346 131q38 29 67 -2q13 -15 13 -33t-16 -34q-174 -156 -416 -156z" />
    <glyph glyph-name="sterling" unicode="&#xa3;" horiz-adv-x="1277" 
d="M930 1352q-146 0 -244 -98t-147 -281l-68 -250h555q20 0 34 -14q14 -15 15 -35q0 -20 -14 -34t-35 -15h-582l-141 -529h711q20 0 34 -14t15 -34q0 -20 -14 -34t-35 -14h-991q-27 0 -27 25t24 30l177 37l143 533h-121q-20 0 -35 14q-14 15 -14 35t14 34t35 15h148l71 268
q55 209 164 318q139 139 346 139t336 -172q36 -56 5 -85q-15 -15 -40 -15t-39 22q-56 78 -120 116t-160 38z" />
    <glyph glyph-name="yen" unicode="&#xa5;" horiz-adv-x="1433" 
d="M1522 1442q50 0 49 -45q0 -20 -23 -47l-696 -709h326q18 0 32 -14q14 -15 14 -33t-14 -32t-32 -13h-412l-53 -201h387q18 0 32 -13t15 -33q0 -20 -14 -32q-14 -14 -33 -14h-412l-57 -217q-12 -47 -58 -47q-23 0 -37 17t-8 44l54 203h-379q-18 0 -33 13q-14 13 -14 33
t14 32q14 14 33 14h403l53 201h-378q-18 0 -33 13q-14 14 -14 32t14 32t33 15h362l-313 715q-8 18 -8 38t14 33q14 15 45 15t51 -47l313 -731l725 749q30 29 52 29z" />
    <glyph glyph-name="section" unicode="&#xa7;" horiz-adv-x="1294" 
d="M604 72q106 0 178 44t72 111t-66 115t-245 110t-269 128t-90 161q0 119 115 191t291 72q-158 70 -158 192t106 190t244 68t252 -41t191 -100q25 -18 25 -43t-15 -40q-31 -34 -74 1q-164 131 -373 131q-106 0 -178 -44t-72 -112t66 -114q66 -47 245 -110q179 -62 269 -128
t90 -174t-114 -178q-114 -72 -291 -72q158 -70 158 -192q-1 -122 -107 -190t-264 -68q-238 0 -424 141q-25 18 -25 43q1 25 15 40t33 15t40 -16q162 -131 375 -131zM291 758q0 -68 62 -114q61 -48 197 -95t258 -47t208 53t86 121t-62 114q-62 48 -200 95t-258 47t-205 -53
q-86 -53 -86 -121z" />
    <glyph glyph-name="dieresis" unicode="&#xa8;" 
d="M922 1262q-16 -55 -76 -56q-31 0 -48 20t-12 48l19 67q16 55 76 56q31 -1 49 -21t10 -47zM588 1262q-16 -55 -76 -56q-31 0 -48 20t-11 48l18 67q16 55 76 56q31 -1 49 -21t10 -47z" />
    <glyph glyph-name="copyright" unicode="&#xa9;" horiz-adv-x="1699" 
d="M906 340q-154 0 -262 113t-107 272v4q1 159 109 273t260 114t270 -102q18 -14 18 -34t-13 -34q-13 -12 -29 -12t-36 14q-100 86 -214 86t-194 -89t-81 -214v-4q0 -125 83 -215q84 -90 200 -90t216 88q16 12 31 12q39 0 39 -39q0 -18 -16 -34q-119 -109 -274 -109zM899 33
q289 1 485 201t197 485q0 285 -195 483q-196 198 -484 199q-288 0 -484 -201q-196 -202 -197 -486q1 -284 195 -482t483 -199zM899 -25q-309 -1 -524 217t-215 523t217 524t526 219t524 -217t215 -522t-217 -525t-526 -219z" />
    <glyph glyph-name="ordfeminine" unicode="&#xaa;" horiz-adv-x="798" 
d="M160 600q-16 0 -29 12q-12 12 -12 28t12 30q12 12 29 12h438q16 0 28 -12t13 -28q0 -16 -12 -30q-12 -12 -29 -12h-438zM537 1366q-69 0 -107 -12t-51 -13q-33 0 -33 37q0 27 31 35q83 29 183 29t159 -48t59 -132q0 -27 -12 -80l-80 -299q-10 -39 -45 -39q-45 0 -35 45
l19 65q-104 -115 -234 -114q-74 0 -124 42t-50 126t75 142q75 60 174 60t218 -30q12 36 12 67q1 119 -159 119zM303 1012q-1 -106 123 -107q64 1 140 57t96 132l8 28q-102 25 -184 25t-132 -41q-51 -40 -51 -94z" />
    <glyph glyph-name="guillemotleft" unicode="&#xab;" horiz-adv-x="1054" 
d="M1018 909q0 -20 -19 -39l-362 -362l154 -340q8 -18 8 -36q1 -18 -13 -30q-14 -14 -40 -14t-41 35l-181 362q-10 20 -10 33t14 27l392 377q33 33 55 32q43 0 43 -45zM600 909q0 -20 -18 -39l-363 -362l154 -340q8 -18 8 -36t-13 -30q-13 -14 -39 -14t-42 35l-181 362
q-18 37 5 60l391 377q33 33 55 32q43 0 43 -45z" />
    <glyph glyph-name="registered" unicode="&#xae;" horiz-adv-x="851" 
d="M504 1102h96q80 0 80 64t-80 65h-96v-129zM446 946v307q0 29 29 29h131q57 0 95 -30t38 -81q0 -84 -86 -110l78 -92q10 -12 10 -25q0 -27 -26 -26q-16 0 -29 16l-100 121h-82v-109q0 -29 -29 -28q-29 -1 -29 28zM580 776q133 0 224 94t91 226v2q0 131 -91 224t-224 93
q-132 0 -224 -94t-92 -225v-2q0 -131 91 -225q92 -93 225 -93zM936 1096q0 -147 -104 -253t-254 -106q-148 1 -251 105t-104 252v2q1 146 105 252t253 106t252 -104t103 -252v-2z" />
    <glyph glyph-name="macron" unicode="&#xaf;" 
d="M997 1272h-540q-20 0 -35 14q-14 14 -14 34t14 36q14 14 35 14h540q21 0 35 -14t14 -34t-14 -36q-15 -14 -35 -14z" />
    <glyph glyph-name="degree" unicode="&#xb0;" horiz-adv-x="749" 
d="M272 1117q0 -91 50 -140t135 -49t157 74t72 166t-49 141t-135 49t-158 -75t-72 -166zM450 842q-126 0 -198 74t-72 197q0 124 102 227q102 104 226 104q125 0 198 -74q72 -74 72 -198t-101 -227q-102 -103 -227 -103z" />
    <glyph glyph-name="plusminus" unicode="&#xb1;" horiz-adv-x="1269" 
d="M76 0q-20 0 -35 14q-14 14 -14 34t14 36q14 14 35 14h868q20 0 34 -14t15 -34q0 -20 -14 -36q-14 -14 -35 -14h-868zM586 309q-25 1 -37 19t-6 41l98 364h-371q-20 1 -34 15t-15 34q1 20 15 34t34 15h398l100 377q14 47 57 47q25 0 37 -17t6 -40l-98 -367h371
q21 0 35 -13q14 -14 14 -34t-14 -35t-35 -16h-398l-100 -375q-14 -49 -57 -49z" />
    <glyph glyph-name="acute" unicode="&#xb4;" 
d="M574 1212q-36 0 -35 21q0 12 10 22l180 195q35 35 61 35q26 1 58 -17q31 -18 31 -36t-23 -33l-211 -160q-35 -27 -71 -27z" />
    <glyph glyph-name="paragraph" unicode="&#xb6;" horiz-adv-x="995" 
d="M592 -8q-23 0 -38 17t-7 44l129 486q-207 12 -337 102t-130 272q0 244 178 382t490 139h88q27 0 40 -16t5 -46l-359 -1333q-12 -47 -59 -47z" />
    <glyph glyph-name="periodcentered" unicode="&#xb7;" horiz-adv-x="473" 
d="M240 514q-29 0 -46 17t-12 44l21 76q16 53 73 54q28 -1 46 -19t12 -45l-21 -78q-12 -49 -73 -49z" />
    <glyph glyph-name="cedilla" unicode="&#xb8;" 
d="M225 -293q-23 0 -39 14t-16 35t20 43l209 221h88l-219 -288q-20 -25 -43 -25z" />
    <glyph glyph-name="ordmasculine" unicode="&#xba;" horiz-adv-x="798" 
d="M164 600q-16 0 -29 12q-12 12 -12 28t12 30q12 12 29 12h487q17 0 29 -12t12 -28t-12 -30q-12 -12 -29 -12h-487zM517 909q91 0 165 80q74 81 74 177t-51 149t-143 53t-167 -80q-73 -80 -73 -176t52 -150t143 -53zM844 1168q0 -126 -102 -230t-230 -104q-129 0 -203 74
q-73 74 -73 201q0 126 101 230q101 105 229 105t204 -75q74 -75 74 -201z" />
    <glyph glyph-name="guillemotright" unicode="&#xbb;" horiz-adv-x="1054" 
d="M78 88q-43 0 -43 45q0 20 18 39l363 363l-154 339q-8 18 -8 36t13 30q13 14 39 14t42 -34l180 -363q10 -21 10 -33t-14 -26l-391 -377q-33 -33 -55 -33zM496 88q-43 0 -43 45q0 20 18 39l363 363l-154 339q-8 18 -8 36t13 30q13 14 39 14t42 -34l180 -363q10 -21 10 -33
t-14 -26l-391 -377q-33 -33 -55 -33z" />
    <glyph glyph-name="questiondown" unicode="&#xbf;" horiz-adv-x="1093" 
d="M864 1442q29 0 46 -18t12 -44l-21 -75q-16 -53 -74 -54q-29 1 -46 19t-11 45l21 78q12 49 73 49zM947 256q19 0 33 -13t13 -33q0 -20 -16 -36q-201 -193 -461 -192q-188 0 -300 100t-112 258q0 194 154 312t389 151l80 233q10 31 35 31h2q16 0 26 -12t5 -33l-50 -258
q-6 -43 -49 -49q-217 -23 -350 -120t-133 -253q0 -125 88 -195t223 -69q203 0 379 158q25 20 44 20z" />
    <glyph glyph-name="Agrave" unicode="&#xc0;" horiz-adv-x="1517" 
d="M954 1849q36 0 50 -37l73 -188q6 -18 6 -25q1 -18 -29 -18t-48 25l-125 163q-33 39 11 65q26 16 62 15zM1358 40q0 -18 -14 -32q-14 -16 -37 -16q-45 0 -56 51l-65 358h-846l-268 -370q-32 -39 -54 -39q-47 0 -49 47q0 18 13 31l968 1327q39 51 80 51h4q54 0 64 -51
l256 -1323q4 -16 4 -34zM410 498h755l-153 829z" />
    <glyph glyph-name="Aacute" unicode="&#xc1;" horiz-adv-x="1517" 
d="M1078 1581q-36 0 -36 21q0 12 11 22l180 195q35 35 61 35t58 -18q31 -17 31 -35t-23 -34l-211 -159q-35 -27 -71 -27zM1358 40q0 -18 -14 -32q-14 -16 -37 -16q-45 0 -56 51l-65 358h-846l-268 -370q-32 -39 -54 -39q-47 0 -49 47q0 18 13 31l968 1327q39 51 80 51h4
q54 0 64 -51l256 -1323q4 -16 4 -34zM410 498h755l-153 829z" />
    <glyph glyph-name="Acircumflex" unicode="&#xc2;" horiz-adv-x="1517" 
d="M882 1581q-28 0 -28 21q0 12 16 28l193 176q37 37 67 37h13q28 0 51 -37l98 -178q10 -20 11 -26q0 -20 -36 -20t-59 28l-90 116l-168 -118q-40 -27 -68 -27zM1358 40q0 -18 -14 -32q-14 -16 -37 -16q-45 0 -56 51l-65 358h-846l-268 -370q-32 -39 -54 -39q-47 0 -49 47
q0 18 13 31l968 1327q39 51 80 51h4q54 0 64 -51l256 -1323q4 -16 4 -34zM410 498h755l-153 829z" />
    <glyph glyph-name="Atilde" unicode="&#xc3;" horiz-adv-x="1517" 
d="M834 1577q-43 0 -43 37q1 20 29 68q75 127 175 128q41 0 69 -16t80 -66t93 -50t100 98q18 31 41 30q43 0 43 -37q-1 -21 -29 -69q-75 -128 -175 -127q-41 0 -69 16q-28 17 -80 67t-93 50t-101 -98q-17 -31 -40 -31zM1358 40q0 -18 -14 -32q-14 -16 -37 -16q-45 0 -56 51
l-65 358h-846l-268 -370q-32 -39 -54 -39q-47 0 -49 47q0 18 13 31l968 1327q39 51 80 51h4q54 0 64 -51l256 -1323q4 -16 4 -34zM410 498h755l-153 829z" />
    <glyph glyph-name="Adieresis" unicode="&#xc4;" horiz-adv-x="1517" 
d="M1247 1575q-31 0 -48 19t-11 48l18 68q16 55 76 55q31 0 49 -20t10 -47l-18 -68q-16 -55 -76 -55zM913 1575q-31 0 -48 19t-11 48l18 68q16 55 76 55q31 0 49 -20t11 -47l-19 -68q-16 -55 -76 -55zM1358 40q0 -18 -14 -32q-14 -16 -37 -16q-45 0 -56 51l-65 358h-846
l-268 -370q-32 -39 -54 -39q-47 0 -49 47q0 18 13 31l968 1327q39 51 80 51h4q54 0 64 -51l256 -1323q4 -16 4 -34zM410 498h755l-153 829z" />
    <glyph glyph-name="Aring" unicode="&#xc5;" horiz-adv-x="1517" 
d="M1053 1438q59 0 101 42t42 94t-32 81t-91 29t-101 -43q-42 -42 -42 -94q0 -53 32 -81t91 -28zM410 498h755l-153 829zM18 -8q-47 0 -49 47q0 18 13 31l968 1325q-94 45 -94 138t65 155t151 61q86 0 142 -47t56 -121t-48 -131t-122 -74l254 -1302q4 -16 4 -34t-14 -32
q-14 -16 -37 -16q-45 0 -56 51l-65 358h-846l-268 -370q-32 -39 -54 -39z" />
    <glyph glyph-name="AE" unicode="&#xc6;" horiz-adv-x="2187" 
d="M1223 1434h1015q20 0 34 -14t16 -36q0 -20 -14 -34t-36 -15h-854l-151 -563h735q20 0 34 -14t15 -34q0 -20 -14 -36q-14 -14 -35 -14h-762l-153 -576h837q20 0 34 -14t15 -34q0 -20 -14 -36q-14 -14 -35 -14h-911q-23 0 -37 16t-8 37l94 348h-616l-320 -368
q-35 -41 -65 -41q-43 0 -43 43q0 23 18 43l1139 1304q47 52 82 52zM496 498h557l225 839h-55z" />
    <glyph glyph-name="Ccedilla" unicode="&#xc7;" horiz-adv-x="1511" 
d="M774 -27h-10l-182 -241q-20 -25 -43 -25t-39 14q-38 34 4 78l170 183q-211 30 -348 184q-138 154 -138 386t114 441t313 337q200 128 429 128q168 0 296 -70t200 -186q27 -49 -2 -80q-14 -14 -40 -13t-40 24q-70 109 -167 169t-253 60q-303 0 -521 -246t-218 -557
q0 -223 136 -355t349 -132q256 0 457 188q39 39 74 4q14 -14 14 -35t-20 -41q-229 -215 -535 -215z" />
    <glyph glyph-name="Egrave" unicode="&#xc8;" horiz-adv-x="1329" 
d="M864 1829q36 0 49 -37l74 -188q6 -18 6 -25q0 -19 -30 -19t-48 25l-124 164q-33 39 11 65q26 16 62 15zM1065 0h-932q-23 0 -37 16t-8 37l356 1327q6 23 24 38t38 16h907q21 0 35 -14t14 -36q0 -20 -14 -34t-35 -15h-874l-152 -563h756q21 0 35 -14t14 -34t-14 -36
q-14 -14 -35 -14h-783l-153 -576h858q21 0 35 -14t14 -34t-14 -36q-15 -14 -35 -14z" />
    <glyph glyph-name="Eacute" unicode="&#xc9;" horiz-adv-x="1329" 
d="M952 1581q0 12 11 23l180 194q35 35 61 35t58 -17q31 -17 31 -35t-23 -34l-211 -160q-35 -27 -71 -27t-36 21zM1065 0h-932q-23 0 -37 16t-8 37l356 1327q6 23 24 38t38 16h907q21 0 35 -14t14 -36q0 -20 -14 -34t-35 -15h-874l-152 -563h756q21 0 35 -14t14 -34t-14 -36
q-14 -14 -35 -14h-783l-153 -576h858q21 0 35 -14t14 -34t-14 -36q-15 -14 -35 -14z" />
    <glyph glyph-name="Ecircumflex" unicode="&#xca;" horiz-adv-x="1329" 
d="M1212 1581q0 -20 -36 -20t-58 28l-90 117l-168 -119q-40 -27 -68 -27t-28 21q0 12 16 29l193 176q37 37 67 37h13q28 0 51 -37l98 -178q10 -20 10 -27zM1065 0h-932q-23 0 -37 16t-8 37l356 1327q6 23 24 38t38 16h907q21 0 35 -14t14 -36q0 -20 -14 -34t-35 -15h-874
l-152 -563h756q21 0 35 -14t14 -34t-14 -36q-14 -14 -35 -14h-783l-153 -576h858q21 0 35 -14t14 -34t-14 -36q-15 -14 -35 -14z" />
    <glyph glyph-name="Edieresis" unicode="&#xcb;" horiz-adv-x="1329" 
d="M1192 1745q31 -1 49 -21t10 -47l-18 -67q-16 -55 -76 -56q-31 0 -48 20t-11 48l18 68q16 55 76 55zM858 1745q31 -1 49 -21t11 -47l-19 -67q-16 -55 -76 -56q-31 0 -48 20t-11 48l18 68q16 55 76 55zM1065 0h-932q-23 0 -37 16t-8 37l356 1327q6 23 24 38t38 16h907
q21 0 35 -14t14 -36q0 -20 -14 -34t-35 -15h-874l-152 -563h756q21 0 35 -14t14 -34t-14 -36q-14 -14 -35 -14h-783l-153 -576h858q21 0 35 -14t14 -34t-14 -36q-15 -14 -35 -14z" />
    <glyph glyph-name="Igrave" unicode="&#xcc;" horiz-adv-x="561" 
d="M438 1829q36 0 49 -37l74 -188q6 -18 6 -25q0 -19 -30 -19t-48 25l-124 164q-33 39 11 65q26 16 62 15zM147 -8q-23 0 -37 17t-8 44l361 1342q12 47 57 47q23 0 38 -18t7 -44l-360 -1341q-12 -47 -58 -47z" />
    <glyph glyph-name="Iacute" unicode="&#xcd;" horiz-adv-x="561" 
d="M526 1581q0 12 11 23l180 194q35 35 61 35t58 -17q31 -17 31 -35t-23 -34l-211 -160q-35 -27 -71 -27t-36 21zM147 -8q-23 0 -37 17t-8 44l361 1342q12 47 57 47q23 0 38 -18t7 -44l-360 -1341q-12 -47 -58 -47z" />
    <glyph glyph-name="Icircumflex" unicode="&#xce;" horiz-adv-x="561" 
d="M786 1581q0 -20 -36 -20t-58 28l-90 117l-168 -119q-40 -27 -68 -27t-28 21q0 12 16 29l193 176q37 37 67 37h13q28 0 51 -37l98 -178q10 -20 10 -27zM147 -8q-23 0 -37 17t-8 44l361 1342q12 47 57 47q23 0 38 -18t7 -44l-360 -1341q-12 -47 -58 -47z" />
    <glyph glyph-name="Idieresis" unicode="&#xcf;" horiz-adv-x="561" 
d="M768 1745q31 -1 49 -21t10 -47l-18 -67q-16 -55 -76 -56q-31 0 -48 20t-11 48l18 68q16 55 76 55zM434 1745q31 -1 49 -21t11 -47l-19 -67q-16 -55 -76 -56q-31 0 -48 20t-11 48l18 68q16 55 76 55zM147 -8q-23 0 -37 17t-8 44l361 1342q12 47 57 47q23 0 38 -18t7 -44
l-360 -1341q-12 -47 -58 -47z" />
    <glyph glyph-name="Eth" unicode="&#xd0;" horiz-adv-x="1640" 
d="M618 98q389 0 635 246q193 193 193 479q0 221 -133 351q-162 162 -477 161h-236l-151 -565h419q20 0 34 -14t16 -34q0 -20 -14 -36q-14 -14 -36 -14h-446l-154 -574h350zM567 1434h275q365 0 557 -193q158 -158 157 -410q0 -332 -223 -555q-131 -132 -320 -204t-409 -72
h-409q-23 0 -37 16t-8 37l165 619h-98q-20 0 -35 14q-14 14 -14 34t14 36q14 14 35 14h125l164 610q6 22 24 38t37 16z" />
    <glyph glyph-name="Ntilde" unicode="&#xd1;" horiz-adv-x="1609" 
d="M842 1556q-43 0 -43 37q1 21 29 69t70 88t94 40t80 -16t80 -66t93 -51q41 0 101 98q18 31 40 31q43 0 44 -37q0 -21 -29 -69t-71 -88t-94 -40t-80 16t-80 67t-93 51t-100 -99q-18 -31 -41 -31zM1585 1442q23 0 37 -16t6 -46l-360 -1341q-12 -45 -49 -45h-2q-33 0 -56 43
l-641 1245l-334 -1243q-12 -47 -55 -47q-23 0 -37 16t-6 45l358 1333q14 53 62 54h4q41 0 70 -54l620 -1208l328 1217q12 47 55 47z" />
    <glyph glyph-name="Ograve" unicode="&#xd2;" horiz-adv-x="1732" 
d="M1000 1849q36 0 51 -37l73 -188q6 -18 6 -25q0 -18 -30 -18t-47 25l-125 163q-33 39 11 65q25 16 61 15zM307 577q-1 -211 141 -359t353 -148t377 110t259 288q93 177 93 387t-141 358q-141 149 -353 149t-377 -111q-166 -111 -259 -287t-93 -387zM815 -27
q-268 -1 -443 177t-175 440q0 221 109 422q110 202 301 324t415 122q268 0 443 -177t175 -439q0 -221 -110 -422t-300 -324q-192 -123 -415 -123z" />
    <glyph glyph-name="Oacute" unicode="&#xd3;" horiz-adv-x="1732" 
d="M1125 1581q-36 0 -35 21q0 12 10 22l180 195q36 35 62 35t57 -18q31 -17 31 -35t-23 -34l-211 -159q-35 -27 -71 -27zM307 577q-1 -211 141 -359t353 -148t377 110t259 288q93 177 93 387t-141 358q-141 149 -353 149t-377 -111q-166 -111 -259 -287t-93 -387zM815 -27
q-268 -1 -443 177t-175 440q0 221 109 422q110 202 301 324t415 122q268 0 443 -177t175 -439q0 -221 -110 -422t-300 -324q-192 -123 -415 -123z" />
    <glyph glyph-name="Ocircumflex" unicode="&#xd4;" horiz-adv-x="1732" 
d="M928 1581q-28 0 -29 21q0 12 16 28l193 176q37 37 68 37h12q28 0 51 -37l98 -178q10 -20 11 -26q0 -20 -36 -20t-59 28l-90 116l-168 -118q-39 -27 -67 -27zM307 577q-1 -211 141 -359t353 -148t377 110t259 288q93 177 93 387t-141 358q-141 149 -353 149t-377 -111
q-166 -111 -259 -287t-93 -387zM815 -27q-268 -1 -443 177t-175 440q0 221 109 422q110 202 301 324t415 122q268 0 443 -177t175 -439q0 -221 -110 -422t-300 -324q-192 -123 -415 -123z" />
    <glyph glyph-name="Otilde" unicode="&#xd5;" horiz-adv-x="1732" 
d="M881 1577q-43 0 -43 37q0 20 28 68q75 127 176 128q41 0 69 -16t80 -66t93 -50t100 98q18 31 41 30q43 0 43 -37q0 -21 -28 -69q-75 -128 -176 -127q-41 0 -69 16q-28 17 -80 67t-93 50t-100 -98q-18 -31 -41 -31zM307 577q-1 -211 141 -359t353 -148t377 110t259 288
q93 177 93 387t-141 358q-141 149 -353 149t-377 -111q-166 -111 -259 -287t-93 -387zM815 -27q-268 -1 -443 177t-175 440q0 221 109 422q110 202 301 324t415 122q268 0 443 -177t175 -439q0 -221 -110 -422t-300 -324q-192 -123 -415 -123z" />
    <glyph glyph-name="Odieresis" unicode="&#xd6;" horiz-adv-x="1732" 
d="M1294 1575q-31 0 -48 19t-11 48l18 68q16 55 76 55q31 0 49 -20t11 -47l-19 -68q-16 -55 -76 -55zM961 1575q-31 0 -49 19q-17 19 -11 48l19 68q16 55 75 55q31 0 49 -20t11 -47l-19 -68q-16 -55 -75 -55zM307 577q-1 -211 141 -359t353 -148t377 110t259 288
q93 177 93 387t-141 358q-141 149 -353 149t-377 -111q-166 -111 -259 -287t-93 -387zM815 -27q-268 -1 -443 177t-175 440q0 221 109 422q110 202 301 324t415 122q268 0 443 -177t175 -439q0 -221 -110 -422t-300 -324q-192 -123 -415 -123z" />
    <glyph glyph-name="multiply" unicode="&#xd7;" horiz-adv-x="1269" 
d="M1018 342q0 -18 -16 -34t-40 -15q-24 0 -40 22l-246 340l-440 -350q-16 -12 -34 -12t-31 14t-13 37t22 39l443 346l-248 334q-30 43 2 73q16 15 40 15t40 -23l245 -340l441 351q15 12 33 12t31 -14t13 -37t-22 -39l-442 -346l248 -334q14 -21 14 -39z" />
    <glyph glyph-name="Oslash" unicode="&#xd8;" horiz-adv-x="1732" 
d="M31 20q0 25 22 43l234 195q-90 152 -90 352t109 402q110 202 301 324t415 122q287 0 465 -198l194 163q33 29 60 29q41 0 41 -37q0 -27 -23 -45l-217 -182q98 -158 98 -362t-110 -406q-110 -201 -300 -324q-191 -123 -415 -123q-295 0 -475 211l-209 -174
q-33 -29 -61 -28q-39 0 -39 38zM815 70q197 0 363 110t259 288t93 354t-70 298l-1042 -870q141 -180 397 -180zM307 615q0 -172 62 -289l1040 868q-145 168 -387 168q-197 0 -363 -111t-259 -287t-93 -349z" />
    <glyph glyph-name="Ugrave" unicode="&#xd9;" horiz-adv-x="1548" 
d="M908 1829q36 0 50 -37l74 -188q6 -18 6 -25q0 -19 -30 -19t-47 25l-125 164q-33 39 11 65q25 16 61 15zM197 428q0 111 28 221l199 746q12 47 57 47q23 0 38 -18t7 -44l-207 -780q-18 -74 -18 -164q1 -162 107 -262t311 -100t345 140t208 388l213 793q12 47 57 47
q23 0 38 -18t7 -44l-215 -800q-72 -266 -227 -422q-180 -180 -431 -180t-384 124q-133 125 -133 326z" />
    <glyph glyph-name="Uacute" unicode="&#xda;" horiz-adv-x="1548" 
d="M997 1581q0 12 11 23l180 194q36 35 62 35t57 -17t31 -35t-23 -34l-211 -160q-35 -27 -71 -27t-36 21zM197 428q0 111 28 221l199 746q12 47 57 47q23 0 38 -18t7 -44l-207 -780q-18 -74 -18 -164q1 -162 107 -262t311 -100t345 140t208 388l213 793q12 47 57 47
q23 0 38 -18t7 -44l-215 -800q-72 -266 -227 -422q-180 -180 -431 -180t-384 124q-133 125 -133 326z" />
    <glyph glyph-name="Ucircumflex" unicode="&#xdb;" horiz-adv-x="1548" 
d="M1257 1581q1 -20 -35 -20t-59 28l-90 117l-168 -119q-39 -27 -67 -27t-29 21q0 12 16 29l193 176q37 37 67 37h13q28 0 51 -37l98 -178q10 -20 10 -27zM197 428q0 111 28 221l199 746q12 47 57 47q23 0 38 -18t7 -44l-207 -780q-18 -74 -18 -164q1 -162 107 -262
t311 -100t345 140t208 388l213 793q12 47 57 47q23 0 38 -18t7 -44l-215 -800q-72 -266 -227 -422q-180 -180 -431 -180t-384 124q-133 125 -133 326z" />
    <glyph glyph-name="Udieresis" unicode="&#xdc;" horiz-adv-x="1548" 
d="M1239 1745q31 -1 49 -21t10 -47l-18 -67q-16 -55 -76 -56q-31 0 -48 20t-11 48l18 68q16 55 76 55zM905 1745q31 -1 49 -21t11 -47l-19 -67q-16 -55 -76 -56q-31 0 -48 20t-11 48l18 68q16 55 76 55zM197 428q0 111 28 221l199 746q12 47 57 47q23 0 38 -18t7 -44
l-207 -780q-18 -74 -18 -164q1 -162 107 -262t311 -100t345 140t208 388l213 793q12 47 57 47q23 0 38 -18t7 -44l-215 -800q-72 -266 -227 -422q-180 -180 -431 -180t-384 124q-133 125 -133 326z" />
    <glyph glyph-name="Yacute" unicode="&#xdd;" horiz-adv-x="1368" 
d="M899 1581q0 12 10 23l181 194q36 35 62 35t56 -17q60 -33 9 -69l-211 -160q-35 -27 -71 -27t-36 21zM539 -8q-23 0 -38 17t-7 44l141 529l-340 772q-8 18 -8 39t14 35t43 14t49 -47l314 -731l725 749q29 29 52 29q24 0 38 -14t14 -34q0 -22 -25 -46l-778 -793l-137 -516
q-12 -47 -57 -47z" />
    <glyph glyph-name="Thorn" unicode="&#xde;" horiz-adv-x="1368" 
d="M836 1174q266 0 395 -130q98 -98 98 -256q0 -242 -190 -376t-518 -136h-365l-66 -237q-12 -47 -57 -47q-23 0 -38 17t-7 44l361 1342q12 47 55 47q23 0 38 -18t7 -44l-53 -206h340zM625 373q289 -1 443 107t155 304q0 117 -74 191q-100 100 -315 100h-365l-188 -702h344z
" />
    <glyph glyph-name="germandbls" unicode="&#xdf;" horiz-adv-x="1269" 
d="M1118 1176q0 106 -76 173t-216 67t-248 -112t-160 -311l-256 -954q-12 -47 -56 -47q-22 0 -34 16t-6 41l260 975q59 223 178 342q142 143 324 143t290 -93t109 -236q0 -311 -434 -432q326 -86 325 -336q0 -182 -178 -299t-440 -117q-45 0 -45 43t45 47q256 12 383 102
t127 226q0 203 -318 276q-49 10 -49 54t41 53q434 111 434 379z" />
    <glyph glyph-name="agrave" unicode="&#xe0;" horiz-adv-x="1169" 
d="M518 1434q0 16 26 31t62 15t49 -36l74 -189q6 -18 6 -24q0 -19 -30 -19t-48 25l-125 164q-14 17 -14 33zM815 -8q-23 0 -35 16t-6 41l35 131q-172 -205 -420 -205q-141 0 -242 77q-100 77 -100 216q0 172 131 276q132 104 328 103q196 0 414 -59l8 28q14 53 14 105
q0 119 -81 182t-225 63t-274 -42q-16 -4 -26 -4q-41 0 -41 45q0 35 39 47q147 49 319 49t280 -87t107 -239q0 -59 -20 -137l-150 -559q-12 -47 -55 -47zM426 68q136 0 272 97t176 251l25 92q-197 49 -374 49t-274 -77t-97 -186t68 -168q68 -58 204 -58z" />
    <glyph glyph-name="aacute" unicode="&#xe1;" horiz-adv-x="1169" 
d="M730 1212q-36 0 -36 21q0 12 11 22l180 195q35 35 61 35q26 1 58 -17q31 -18 31 -36t-23 -33l-211 -160q-35 -27 -71 -27zM815 -8q-23 0 -35 16t-6 41l35 131q-172 -205 -420 -205q-141 0 -242 77q-100 77 -100 216q0 172 131 276q132 104 328 103q196 0 414 -59l8 28
q14 53 14 105q0 119 -81 182t-225 63t-274 -42q-16 -4 -26 -4q-41 0 -41 45q0 35 39 47q147 49 319 49t280 -87t107 -239q0 -59 -20 -137l-150 -559q-12 -47 -55 -47zM426 68q136 0 272 97t176 251l25 92q-197 49 -374 49t-274 -77t-97 -186t68 -168q68 -58 204 -58z" />
    <glyph glyph-name="acircumflex" unicode="&#xe2;" horiz-adv-x="1169" 
d="M954 1233q0 -21 -36 -21t-58 29l-90 117l-168 -119q-40 -27 -68 -27t-28 21q0 12 16 29l193 176q37 37 67 37h13q28 0 51 -37l98 -178q10 -20 10 -27zM815 -8q-23 0 -35 16t-6 41l35 131q-172 -205 -420 -205q-141 0 -242 77q-100 77 -100 216q0 172 131 276
q132 104 328 103q196 0 414 -59l8 28q14 53 14 105q0 119 -81 182t-225 63t-274 -42q-16 -4 -26 -4q-41 0 -41 45q0 35 39 47q147 49 319 49t280 -87t107 -239q0 -59 -20 -137l-150 -559q-12 -47 -55 -47zM426 68q136 0 272 97t176 251l25 92q-197 49 -374 49t-274 -77
t-97 -186t68 -168q68 -58 204 -58z" />
    <glyph glyph-name="atilde" unicode="&#xe3;" horiz-adv-x="1169" 
d="M485 1208q-43 0 -43 37q0 21 29 69t71 88t94 40t80 -16t80 -67q52 -50 92 -50q42 0 101 98q18 31 41 31q43 0 43 -37q-1 -21 -29 -69t-70 -88t-94 -40t-80 16t-80 67q-52 50 -93 50t-101 -98q-18 -31 -41 -31zM815 -8q-23 0 -35 16t-6 41l35 131q-172 -205 -420 -205
q-141 0 -242 77q-100 77 -100 216q0 172 131 276q132 104 328 103q196 0 414 -59l8 28q14 53 14 105q0 119 -81 182t-225 63t-274 -42q-16 -4 -26 -4q-41 0 -41 45q0 35 39 47q147 49 319 49t280 -87t107 -239q0 -59 -20 -137l-150 -559q-12 -47 -55 -47zM426 68
q136 0 272 97t176 251l25 92q-197 49 -374 49t-274 -77t-97 -186t68 -168q68 -58 204 -58z" />
    <glyph glyph-name="adieresis" unicode="&#xe4;" horiz-adv-x="1169" 
d="M975 1262q-16 -55 -76 -56q-31 0 -48 20t-11 48l18 67q16 55 76 56q31 -1 49 -21t10 -47zM641 1262q-16 -55 -76 -56q-31 0 -48 20t-11 48l18 67q16 55 76 56q31 -1 49 -21t10 -47zM815 -8q-23 0 -35 16t-6 41l35 131q-172 -205 -420 -205q-141 0 -242 77
q-100 77 -100 216q0 172 131 276q132 104 328 103q196 0 414 -59l8 28q14 53 14 105q0 119 -81 182t-225 63t-274 -42q-16 -4 -26 -4q-41 0 -41 45q0 35 39 47q147 49 319 49t280 -87t107 -239q0 -59 -20 -137l-150 -559q-12 -47 -55 -47zM426 68q136 0 272 97t176 251
l25 92q-197 49 -374 49t-274 -77t-97 -186t68 -168q68 -58 204 -58z" />
    <glyph glyph-name="aring" unicode="&#xe5;" horiz-adv-x="1169" 
d="M913 1419q0 111 -120 111q-59 0 -103 -41t-43 -94q0 -53 31 -82t90 -29t102 41t43 94zM987 1421q1 -80 -67 -141t-155 -61t-139 47q-52 46 -52 126t67 142q68 62 155 61q87 0 139 -47t52 -127zM815 -8q-23 0 -35 16t-6 41l35 131q-172 -205 -420 -205q-141 0 -242 77
q-100 77 -100 216q0 172 131 276q132 104 328 103q196 0 414 -59l8 28q14 53 14 105q0 119 -81 182t-225 63t-274 -42q-16 -4 -26 -4q-41 0 -41 45q0 35 39 47q147 49 319 49t280 -87t107 -239q0 -59 -20 -137l-150 -559q-12 -47 -55 -47zM426 68q136 0 272 97t176 251
l25 92q-197 49 -374 49t-274 -77t-97 -186t68 -168q68 -58 204 -58z" />
    <glyph glyph-name="ae" unicode="&#xe6;" horiz-adv-x="1976" 
d="M1786 664q0 135 -75 224t-231 89q-156 -1 -285 -115q-128 -114 -175 -284h758q8 37 8 86zM1888 670q0 -68 -14 -135q-10 -47 -62 -48h-811q-4 -45 -4 -69q1 -158 97 -253t264 -95t315 118q40 32 70 2q12 -12 12 -34t-20 -37q-166 -143 -389 -144q-152 0 -259 69
q-106 69 -155 187q-246 -256 -522 -256q-158 0 -260 80t-102 236t134 256q135 100 339 100t399 -59l8 28q14 53 14 105q0 119 -81 182t-225 63t-274 -42q-16 -4 -26 -4q-41 0 -41 45q0 35 39 47q147 49 306 49t262 -66t130 -182q86 117 206 187t255 69q187 -1 291 -115
t104 -284zM512 557q-156 0 -257 -76t-101 -184t69 -169q70 -60 195 -60q252 0 487 256q-8 41 -8 92t6 94q-166 47 -391 47z" />
    <glyph glyph-name="ccedilla" unicode="&#xe7;" horiz-adv-x="1153" 
d="M557 -25h-6l-184 -243q-20 -25 -43 -25t-39 14q-38 34 4 78l174 187q-154 30 -257 146t-104 294q0 258 184 451t433 193q250 0 383 -208q14 -23 14 -41t-13 -31q-13 -14 -38 -14t-43 27q-118 172 -314 172t-347 -164t-150 -379q0 -168 103 -265t258 -97t305 127
q16 14 36 14q21 0 33 -13t12 -33t-18 -38q-176 -152 -383 -152z" />
    <glyph glyph-name="egrave" unicode="&#xe8;" horiz-adv-x="1193" 
d="M780 1231q0 -19 -30 -19t-48 25l-124 164q-34 38 11 64q25 15 61 15t50 -36l74 -189q6 -18 6 -24zM572 70q169 0 315 118q41 32 69 2q12 -12 12 -34t-20 -37q-170 -143 -381 -143t-338 122q-127 123 -127 316q0 252 178 454t427 201q188 0 291 -115t104 -284
q0 -68 -15 -135q-10 -47 -61 -48h-811q-4 -45 -4 -69q0 -158 96 -253t265 -95zM999 664q0 135 -74 224q-75 89 -231 89q-156 -1 -286 -115q-128 -114 -175 -284h758q8 37 8 86z" />
    <glyph glyph-name="eacute" unicode="&#xe9;" horiz-adv-x="1193" 
d="M775 1212q-36 0 -36 21q0 12 11 22l180 195q36 35 62 35q26 1 57 -17t31 -36t-23 -33l-211 -160q-35 -27 -71 -27zM572 70q169 0 315 118q41 32 69 2q12 -12 12 -34t-20 -37q-170 -143 -381 -143t-338 122q-127 123 -127 316q0 252 178 454t427 201q188 0 291 -115
t104 -284q0 -68 -15 -135q-10 -47 -61 -48h-811q-4 -45 -4 -69q0 -158 96 -253t265 -95zM999 664q0 135 -74 224q-75 89 -231 89q-156 -1 -286 -115q-128 -114 -175 -284h758q8 37 8 86z" />
    <glyph glyph-name="ecircumflex" unicode="&#xea;" horiz-adv-x="1193" 
d="M997 1233q1 -21 -35 -21t-59 29l-90 117l-168 -119q-39 -27 -67 -27t-29 21q0 12 16 29l193 176q37 37 67 37h13q31 0 51 -37l98 -178q10 -20 10 -27zM572 70q169 0 315 118q41 32 69 2q12 -12 12 -34t-20 -37q-170 -143 -381 -143t-338 122q-127 123 -127 316
q0 252 178 454t427 201q188 0 291 -115t104 -284q0 -68 -15 -135q-10 -47 -61 -48h-811q-4 -45 -4 -69q0 -158 96 -253t265 -95zM999 664q0 135 -74 224q-75 89 -231 89q-156 -1 -286 -115q-128 -114 -175 -284h758q8 37 8 86z" />
    <glyph glyph-name="edieresis" unicode="&#xeb;" horiz-adv-x="1193" 
d="M1020 1262q-16 -55 -76 -56q-31 0 -48 20t-11 48l18 67q16 55 76 56q31 -1 49 -21t10 -47zM686 1262q-16 -55 -76 -56q-31 0 -48 20t-11 48l18 67q16 55 76 56q31 -1 49 -21t11 -47zM572 70q169 0 315 118q41 32 69 2q12 -12 12 -34t-20 -37q-170 -143 -381 -143
t-338 122q-127 123 -127 316q0 252 178 454t427 201q188 0 291 -115t104 -284q0 -68 -15 -135q-10 -47 -61 -48h-811q-4 -45 -4 -69q0 -158 96 -253t265 -95zM999 664q0 135 -74 224q-75 89 -231 89q-156 -1 -286 -115q-128 -114 -175 -284h758q8 37 8 86z" />
    <glyph glyph-name="igrave" unicode="&#xec;" horiz-adv-x="512" 
d="M371 1237l-125 164q-34 38 11 64q25 15 61 15t51 -36l73 -189q6 -18 7 -24q0 -19 -30 -19t-48 25zM121 -8q-23 0 -35 16t-6 41l256 957q12 47 55 47q23 -1 35 -17t6 -41l-256 -956q-12 -47 -55 -47z" />
    <glyph glyph-name="iacute" unicode="&#xed;" horiz-adv-x="512" 
d="M443 1212q-36 0 -35 21q0 12 10 22l180 195q36 35 62 35q26 1 57 -17t31 -36t-23 -33l-211 -160q-35 -27 -71 -27zM121 -8q-23 0 -35 16t-6 41l256 957q12 47 55 47q23 -1 35 -17t6 -41l-256 -956q-12 -47 -55 -47z" />
    <glyph glyph-name="icircumflex" unicode="&#xee;" horiz-adv-x="512" 
d="M246 1212q-28 0 -29 21q0 12 16 29l193 176q37 37 68 37h12q31 0 51 -37l98 -178q10 -20 11 -27q0 -21 -36 -21t-59 29l-90 117l-168 -119q-39 -27 -67 -27zM121 -8q-23 0 -35 16t-6 41l256 957q12 47 55 47q23 -1 35 -17t6 -41l-256 -956q-12 -47 -55 -47z" />
    <glyph glyph-name="idieresis" unicode="&#xef;" horiz-adv-x="512" 
d="M690 1262q-16 -55 -76 -56q-31 0 -48 20t-11 48l18 67q16 55 76 56q31 -1 49 -21t11 -47zM356 1262q-16 -55 -75 -56q-31 0 -49 20t-11 48l19 67q16 55 75 56q31 -1 49 -21t11 -47zM121 -8q-23 0 -35 16t-6 41l256 957q12 47 55 47q23 -1 35 -17t6 -41l-256 -956
q-12 -47 -55 -47z" />
    <glyph glyph-name="eth" unicode="&#xf0;" horiz-adv-x="1261" 
d="M565 72q199 0 343 143t145 342q1 145 -103 245t-286 101q-182 0 -320 -144t-139 -339q0 -160 100 -254t260 -94zM752 1454q0 18 16 34t47 15q31 0 47 -43l19 -47l194 86q12 6 29 6q43 0 43 -45q0 -33 -37 -47l-197 -86l152 -377q96 -242 96 -389q0 -229 -174 -406
t-432 -178q-197 0 -328 126t-131 311q0 238 173 408t401 171q188 0 315 -108l-170 399l-287 -127q-12 -6 -28 -6q-43 0 -43 45q0 33 37 47l286 125l-20 49q-8 19 -8 37z" />
    <glyph glyph-name="ntilde" unicode="&#xf1;" horiz-adv-x="1251" 
d="M565 1208q-43 0 -43 37q0 21 29 69t71 88t94 40t80 -16t80 -67q52 -50 92 -50q42 0 101 98q18 31 41 31q43 0 43 -37q-1 -21 -29 -69t-70 -88t-94 -40t-80 16t-80 67q-52 50 -93 50t-101 -98q-18 -31 -41 -31zM375 1053q23 -1 35 -17t6 -41l-37 -145q182 219 395 219
q156 0 249 -91t93 -241q0 -57 -22 -147l-146 -551q-12 -47 -55 -47q-23 0 -35 16t-6 41l145 549q16 61 17 129q0 117 -72 185t-203 67q-131 0 -258 -111t-172 -278l-147 -551q-12 -47 -56 -47q-22 0 -34 16t-6 41l253 957q13 47 56 47z" />
    <glyph glyph-name="ograve" unicode="&#xf2;" horiz-adv-x="1296" 
d="M827 1231q1 -19 -29 -19t-48 25l-125 164q-34 38 11 64q26 15 62 15t50 -36l73 -189q6 -18 6 -24zM213 442q1 -174 101 -273t280 -99t334 160t153 372q0 174 -100 274t-266 99q-199 0 -351 -162t-151 -371zM569 -25q-207 0 -336 130t-129 333q0 250 186 440t435 191
q207 0 336 -130t129 -333q0 -254 -188 -442t-433 -189z" />
    <glyph glyph-name="oacute" unicode="&#xf3;" horiz-adv-x="1296" 
d="M822 1212q-36 0 -36 21q0 12 11 22l180 195q35 35 61 35q26 1 58 -17q31 -18 31 -36t-23 -33l-211 -160q-35 -27 -71 -27zM213 442q1 -174 101 -273t280 -99t334 160t153 372q0 174 -100 274t-266 99q-199 0 -351 -162t-151 -371zM569 -25q-207 0 -336 130t-129 333
q0 250 186 440t435 191q207 0 336 -130t129 -333q0 -254 -188 -442t-433 -189z" />
    <glyph glyph-name="ocircumflex" unicode="&#xf4;" horiz-adv-x="1296" 
d="M1044 1233q0 -21 -36 -21t-58 29l-90 117l-168 -119q-40 -27 -68 -27t-28 21q0 12 16 29l193 176q37 37 67 37h13q28 0 51 -37l98 -178q10 -20 10 -27zM213 442q1 -174 101 -273t280 -99t334 160t153 372q0 174 -100 274t-266 99q-199 0 -351 -162t-151 -371zM569 -25
q-207 0 -336 130t-129 333q0 250 186 440t435 191q207 0 336 -130t129 -333q0 -254 -188 -442t-433 -189z" />
    <glyph glyph-name="otilde" unicode="&#xf5;" horiz-adv-x="1296" 
d="M578 1208q-43 0 -43 37q1 21 29 69q76 128 175 128q41 0 69 -16t80 -67q52 -50 93 -50t100 98q18 31 41 31q43 0 43 -37q-1 -21 -29 -69q-76 -128 -175 -128q-41 0 -69 16t-80 67q-52 50 -93 50t-101 -98q-17 -31 -40 -31zM213 442q1 -174 101 -273t280 -99t334 160
t153 372q0 174 -100 274t-266 99q-199 0 -351 -162t-151 -371zM569 -25q-207 0 -336 130t-129 333q0 250 186 440t435 191q207 0 336 -130t129 -333q0 -254 -188 -442t-433 -189z" />
    <glyph glyph-name="odieresis" unicode="&#xf6;" horiz-adv-x="1296" 
d="M1067 1262q-16 -55 -76 -56q-31 0 -48 20t-11 48l18 67q16 55 76 56q31 -1 49 -21t10 -47zM733 1262q-16 -55 -76 -56q-31 0 -48 20t-11 48l18 67q16 55 76 56q31 -1 49 -21t11 -47zM213 442q1 -174 101 -273t280 -99t334 160t153 372q0 174 -100 274t-266 99
q-199 0 -351 -162t-151 -371zM569 -25q-207 0 -336 130t-129 333q0 250 186 440t435 191q207 0 336 -130t129 -333q0 -254 -188 -442t-433 -189z" />
    <glyph glyph-name="divide" unicode="&#xf7;" horiz-adv-x="1269" 
d="M655 291q-20 -63 -90 -64q-35 0 -57 23t-12 55l16 57q20 63 90 64q34 0 56 -23t14 -55zM776 1016q-34 0 -56 22t-13 56l16 57q20 63 90 63q35 0 57 -22t13 -55l-17 -58q-20 -63 -90 -63zM236 672q-20 0 -35 14t-15 34t14 36q14 14 36 14h909q21 0 35 -14t14 -34t-14 -36
q-14 -14 -35 -14h-909z" />
    <glyph glyph-name="oslash" unicode="&#xf8;" horiz-adv-x="1296" 
d="M33 -18q-39 0 -39 36q0 25 22 43l154 125q-66 109 -66 252q0 250 186 440t435 191q215 0 346 -141l148 119q27 20 47 20q39 0 39 -37q0 -25 -23 -43l-158 -129q66 -109 66 -252q0 -254 -188 -442t-433 -189q-213 1 -346 144l-143 -117q-27 -20 -47 -20zM213 442
q0 -104 39 -188l743 610q-99 111 -289 111t-342 -162t-151 -371zM586 70q188 0 342 160t153 372q0 104 -39 189l-743 -611q99 -110 287 -110z" />
    <glyph glyph-name="ugrave" unicode="&#xf9;" horiz-adv-x="1247" 
d="M713 1237l-125 164q-34 38 11 64q25 15 61 15t51 -36l73 -189q6 -18 7 -24q0 -19 -30 -19t-48 25zM872 -8q-22 0 -34 16t-7 41l37 146q-182 -219 -395 -220q-156 -1 -249 91t-93 241q0 57 23 148l145 551q12 47 55 47q23 -1 35 -17t6 -41l-145 -549q-16 -61 -17 -129
q0 -117 72 -185t203 -66q131 0 258 110t172 279l147 551q12 47 56 47q23 -1 35 -17t6 -41l-254 -956q-13 -47 -56 -47z" />
    <glyph glyph-name="uacute" unicode="&#xfa;" horiz-adv-x="1247" 
d="M785 1212q-36 0 -35 21q0 12 10 22l180 195q36 35 62 35q26 1 57 -17t31 -36t-23 -33l-211 -160q-35 -27 -71 -27zM872 -8q-22 0 -34 16t-7 41l37 146q-182 -219 -395 -220q-156 -1 -249 91t-93 241q0 57 23 148l145 551q12 47 55 47q23 -1 35 -17t6 -41l-145 -549
q-16 -61 -17 -129q0 -117 72 -185t203 -66q131 0 258 110t172 279l147 551q12 47 56 47q23 -1 35 -17t6 -41l-254 -956q-13 -47 -56 -47z" />
    <glyph glyph-name="ucircumflex" unicode="&#xfb;" horiz-adv-x="1247" 
d="M590 1212q-28 0 -29 21q0 12 17 29l192 176q37 37 68 37h12q31 0 51 -37l98 -178q10 -20 11 -27q0 -21 -36 -21t-59 29l-90 117l-168 -119q-39 -27 -67 -27zM872 -8q-22 0 -34 16t-7 41l37 146q-182 -219 -395 -220q-156 -1 -249 91t-93 241q0 57 23 148l145 551
q12 47 55 47q23 -1 35 -17t6 -41l-145 -549q-16 -61 -17 -129q0 -117 72 -185t203 -66q131 0 258 110t172 279l147 551q12 47 56 47q23 -1 35 -17t6 -41l-254 -956q-13 -47 -56 -47z" />
    <glyph glyph-name="udieresis" unicode="&#xfc;" horiz-adv-x="1247" 
d="M1030 1262q-16 -55 -76 -56q-31 0 -48 20t-11 48l18 67q16 55 76 56q31 -1 49 -21t11 -47zM696 1262q-16 -55 -75 -56q-31 0 -49 20t-11 48l19 67q16 55 75 56q31 -1 49 -21t11 -47zM872 -8q-22 0 -34 16t-7 41l37 146q-182 -219 -395 -220q-156 -1 -249 91t-93 241
q0 57 23 148l145 551q12 47 55 47q23 -1 35 -17t6 -41l-145 -549q-16 -61 -17 -129q0 -117 72 -185t203 -66q131 0 258 110t172 279l147 551q12 47 56 47q23 -1 35 -17t6 -41l-254 -956q-13 -47 -56 -47z" />
    <glyph glyph-name="yacute" unicode="&#xfd;" horiz-adv-x="1163" 
d="M709 1212q-36 0 -35 21q0 12 10 22l180 195q35 35 62 35q28 1 58 -17t30 -36t-23 -33l-211 -160q-35 -27 -71 -27zM62 -240q152 0 325 246l-197 959q-4 20 -4 36q0 51 46 51t57 -53l174 -888l606 901q27 41 59 41q45 0 46 -43q0 -20 -13 -39l-692 -1008
q-111 -161 -212 -229t-205 -68t-197 49q-29 13 -29 39q0 52 47 53q17 0 33 -8q82 -39 156 -39z" />
    <glyph glyph-name="thorn" unicode="&#xfe;" horiz-adv-x="1339" 
d="M498 1503q22 0 34 -16t7 -41l-164 -606q193 229 434 229q182 0 301 -124t119 -316q0 -275 -176 -465t-414 -191q-162 0 -266 83t-150 210l-149 -555q-12 -47 -56 -47q-23 0 -35 16t-6 41l465 1735q12 47 56 47zM635 68q207 0 346 164t139 384q0 160 -90 260t-233 99
q-197 0 -360 -168t-163 -375q0 -154 102 -259t259 -105z" />
    <glyph glyph-name="ydieresis" unicode="&#xff;" horiz-adv-x="1163" 
d="M954 1262q-16 -55 -75 -56q-31 0 -49 20t-11 48l19 67q16 55 75 56q31 -1 49 -21t11 -47zM621 1262q-16 -55 -76 -56q-31 0 -48 20t-12 48l19 67q16 55 76 56q31 -1 49 -21t10 -47zM62 -240q152 0 325 246l-197 959q-4 20 -4 36q0 51 46 51t57 -53l174 -888l606 901
q27 41 59 41q45 0 46 -43q0 -20 -13 -39l-692 -1008q-111 -161 -212 -229t-205 -68t-197 49q-29 13 -29 39q0 52 47 53q17 0 33 -8q82 -39 156 -39z" />
    <glyph glyph-name="Amacron" unicode="&#x100;" horiz-adv-x="1517" 
d="M1376 1640h-540q-20 0 -34 14t-16 36q0 20 14 34t36 15h540q20 -1 34 -15t15 -34q-1 -20 -15 -35t-34 -15zM1358 40q0 -18 -14 -32q-14 -16 -37 -16q-45 0 -56 51l-65 358h-846l-268 -370q-32 -39 -54 -39q-47 0 -49 47q0 18 13 31l968 1327q39 51 80 51h4q54 0 64 -51
l256 -1323q4 -16 4 -34zM410 498h755l-153 829z" />
    <glyph glyph-name="amacron" unicode="&#x101;" horiz-adv-x="1169" 
d="M1028 1272h-541q-20 0 -34 14q-15 14 -15 34t14 36q14 14 35 14h541q20 0 34 -14t15 -34q0 -20 -14 -36q-15 -14 -35 -14zM815 -8q-23 0 -35 16t-6 41l35 131q-172 -205 -420 -205q-141 0 -242 77q-100 77 -100 216q0 172 131 276q132 104 328 103q196 0 414 -59l8 28
q14 53 14 105q0 119 -81 182t-225 63t-274 -42q-16 -4 -26 -4q-41 0 -41 45q0 35 39 47q147 49 319 49t280 -87t107 -239q0 -59 -20 -137l-150 -559q-12 -47 -55 -47zM426 68q136 0 272 97t176 251l25 92q-197 49 -374 49t-274 -77t-97 -186t68 -168q68 -58 204 -58z" />
    <glyph glyph-name="Abreve" unicode="&#x102;" horiz-adv-x="1517" 
d="M1084 1583q-97 0 -156 47q-60 48 -60 132t50 83q36 0 42 -49t36 -79t108 -29q127 0 207 120q25 37 46 37t33 -11q12 -12 13 -26q0 -14 -6 -26q-45 -94 -130 -147q-86 -52 -183 -52zM1358 40q0 -18 -14 -32q-14 -16 -37 -16q-45 0 -56 51l-65 358h-846l-268 -370
q-32 -39 -54 -39q-47 0 -49 47q0 18 13 31l968 1327q39 51 80 51h4q54 0 64 -51l256 -1323q4 -16 4 -34zM410 498h755l-153 829z" />
    <glyph glyph-name="abreve" unicode="&#x103;" horiz-adv-x="1169" 
d="M738 1214q-97 0 -156 48q-60 48 -60 131q0 84 49 84q35 0 42 -49t37 -79t108 -30q127 0 207 121q25 37 46 37t38 -16t2 -48q-45 -95 -131 -147t-182 -52zM815 -8q-23 0 -35 16t-6 41l35 131q-172 -205 -420 -205q-141 0 -242 77q-100 77 -100 216q0 172 131 276
q132 104 328 103q196 0 414 -59l8 28q14 53 14 105q0 119 -81 182t-225 63t-274 -42q-16 -4 -26 -4q-41 0 -41 45q0 35 39 47q147 49 319 49t280 -87t107 -239q0 -59 -20 -137l-150 -559q-12 -47 -55 -47zM426 68q136 0 272 97t176 251l25 92q-197 49 -374 49t-274 -77
t-97 -186t68 -168q68 -58 204 -58z" />
    <glyph glyph-name="Aogonek" unicode="&#x104;" horiz-adv-x="1517" 
d="M410 498h755l-153 829zM1266 -334q-96 0 -149 39q-52 39 -52 96t49 109t141 113l-69 378h-846l-268 -370q-32 -39 -54 -39q-47 0 -49 47q0 18 13 31l968 1327q39 51 80 51h4q53 0 64 -51l256 -1323q4 -16 4 -37t-23 -37q-166 -109 -166 -184q0 -29 24 -45t83 -29
q33 -6 33 -37q0 -39 -43 -39z" />
    <glyph glyph-name="aogonek" unicode="&#x105;" horiz-adv-x="1169" 
d="M426 68q136 0 272 97t176 251l25 92q-197 49 -374 49t-274 -77t-97 -186t68 -168q68 -58 204 -58zM682 -184q0 -29 24 -45t82 -29q33 -6 33 -37q0 -39 -43 -39q-96 0 -148 39t-52 94q0 104 194 228q0 14 2 22l35 131q-172 -205 -420 -205q-141 0 -242 77
q-100 77 -100 216q0 172 131 276q132 104 328 103q196 0 414 -59l8 28q14 53 14 105q0 119 -81 182t-225 63t-274 -42q-16 -4 -26 -4q-41 0 -41 45q0 35 39 47q147 49 319 49t280 -87t107 -239q0 -59 -20 -137l-150 -559q-7 -29 -30 -43q-158 -106 -158 -180z" />
    <glyph glyph-name="Cacute" unicode="&#x106;" horiz-adv-x="1511" 
d="M1080 1581q-36 0 -36 21q0 12 11 22l180 195q35 35 61 35t58 -18q31 -17 31 -35t-23 -34l-211 -159q-35 -27 -71 -27zM774 -27q-246 0 -416 159q-170 160 -170 406t114 455t313 337q200 128 429 128q168 0 296 -70t200 -186q27 -49 -2 -80q-14 -14 -40 -13t-40 24
q-70 109 -167 169t-253 60q-303 0 -521 -246t-218 -557q0 -223 136 -355t349 -132q256 0 457 188q39 39 74 4q14 -14 14 -35t-20 -41q-229 -215 -535 -215z" />
    <glyph glyph-name="cacute" unicode="&#x107;" horiz-adv-x="1153" 
d="M767 1212q-36 0 -36 21q0 12 10 22l181 195q36 35 62 35q26 1 56 -17q59 -34 9 -69l-211 -160q-35 -27 -71 -27zM570 -25q-194 0 -331 123q-136 123 -137 328q0 258 184 451t433 193q250 0 383 -208q14 -23 14 -41t-13 -31q-13 -14 -38 -14t-43 27q-118 172 -314 172
t-347 -164t-150 -379q0 -168 103 -265t258 -97t305 127q16 14 36 14q21 0 33 -13t12 -33t-18 -38q-176 -152 -370 -152z" />
    <glyph glyph-name="Cdotaccent" unicode="&#x10a;" horiz-adv-x="1511" 
d="M1083 1575q-31 0 -48 19t-11 48l18 68q16 55 76 55q31 0 49 -20t11 -47l-19 -68q-16 -55 -76 -55zM774 -27q-246 0 -416 159q-170 160 -170 406t114 455t313 337q200 128 429 128q168 0 296 -70t200 -186q27 -49 -2 -80q-14 -14 -40 -13t-40 24q-70 109 -167 169t-253 60
q-303 0 -521 -246t-218 -557q0 -223 136 -355t349 -132q256 0 457 188q39 39 74 4q14 -14 14 -35t-20 -41q-229 -215 -535 -215z" />
    <glyph glyph-name="cdotaccent" unicode="&#x10b;" horiz-adv-x="1153" 
d="M846 1262q-16 -55 -76 -56q-31 0 -48 20t-11 48l18 67q16 55 76 56q31 -1 49 -21t10 -47zM570 -25q-194 0 -331 123q-136 123 -137 328q0 258 184 451t433 193q250 0 383 -208q14 -23 14 -41t-13 -31q-13 -14 -38 -14t-43 27q-118 172 -314 172t-347 -164t-150 -379
q0 -168 103 -265t258 -97t305 127q16 14 36 14q21 0 33 -13t12 -33t-18 -38q-176 -152 -370 -152z" />
    <glyph glyph-name="Ccaron" unicode="&#x10c;" horiz-adv-x="1511" 
d="M920 1823q0 20 36 20t58 -28l90 -117l168 119q40 27 68 27t28 -21q0 -12 -16 -29l-193 -176q-37 -37 -67 -37h-13q-31 0 -51 37l-98 178q-10 20 -10 27zM774 -27q-246 0 -416 159q-170 160 -170 406t114 455t313 337q200 128 429 128q168 0 296 -70t200 -186
q27 -49 -2 -80q-14 -14 -40 -13t-40 24q-70 109 -167 169t-253 60q-303 0 -521 -246t-218 -557q0 -223 136 -355t349 -132q256 0 457 188q39 39 74 4q14 -14 14 -35t-20 -41q-229 -215 -535 -215z" />
    <glyph glyph-name="ccaron" unicode="&#x10d;" horiz-adv-x="1153" 
d="M606 1454q0 20 36 20t58 -28l91 -117l167 119q39 27 68 27t29 -21q0 -12 -17 -29l-192 -176q-37 -37 -68 -37h-12q-28 0 -51 37l-99 178q-10 20 -10 27zM570 -25q-194 0 -331 123q-136 123 -137 328q0 258 184 451t433 193q250 0 383 -208q14 -23 14 -41t-13 -31
q-13 -14 -38 -14t-43 27q-118 172 -314 172t-347 -164t-150 -379q0 -168 103 -265t258 -97t305 127q16 14 36 14q21 0 33 -13t12 -33t-18 -38q-176 -152 -370 -152z" />
    <glyph glyph-name="Dcaron" unicode="&#x10e;" horiz-adv-x="1579" 
d="M834 1802q0 20 36 20t58 -28l90 -117l168 119q40 27 68 27t28 -21q0 -12 -16 -28l-193 -177q-37 -37 -67 -36h-13q-31 -1 -51 36l-98 179q-10 20 -10 26zM506 1434h274q365 0 557 -193q158 -158 158 -410q0 -332 -223 -555q-130 -132 -320 -204t-409 -72h-410
q-23 0 -37 16t-8 37l356 1327q6 22 24 38t38 16zM557 98q389 0 635 246q193 193 192 479q0 221 -133 351q-162 162 -477 161h-235l-332 -1237h350z" />
    <glyph glyph-name="dcaron" unicode="&#x10f;" horiz-adv-x="1339" 
d="M1645 1501h26q29 0 29 -22q0 -16 -19 -45l-131 -217q-20 -35 -45 -35t-24 18q0 9 6 23l86 227q20 51 72 51zM965 -8q-23 0 -35 16t-6 41l39 154q-193 -229 -433 -230q-182 0 -301 124t-118 317q0 274 176 464t413 191q162 0 266 -83t150 -210l182 680q12 47 56 47
q23 0 35 -16t6 -41l-375 -1407q-12 -47 -55 -47zM543 68q197 0 359 168t163 374q0 154 -101 259t-259 106q-207 0 -347 -164t-139 -385q1 -160 91 -259t233 -99z" />
    <glyph glyph-name="Dcroat" unicode="&#x110;" horiz-adv-x="1640" 
d="M618 98q389 0 635 246q193 193 193 479q0 221 -133 351q-162 162 -477 161h-236l-151 -565h419q20 0 34 -14t16 -34q0 -20 -14 -36q-14 -14 -36 -14h-446l-154 -574h350zM567 1434h275q365 0 557 -193q158 -158 157 -410q0 -332 -223 -555q-131 -132 -320 -204t-409 -72
h-409q-23 0 -37 16t-8 37l165 619h-98q-20 0 -35 14q-14 14 -14 34t14 36q14 14 35 14h125l164 610q6 22 24 38t37 16z" />
    <glyph glyph-name="dcroat" unicode="&#x111;" horiz-adv-x="1339" 
d="M543 68q197 0 359 168t163 374q0 154 -101 259t-259 106q-207 0 -347 -164t-139 -385q1 -160 91 -259t233 -99zM965 -8q-23 0 -35 16t-6 41l39 154q-193 -229 -433 -230q-182 0 -301 124t-118 317q0 274 176 464t413 191q162 0 266 -83t150 -210l131 492h-329
q-18 0 -32 13t-14 31t14 32t32 14h354l26 98q12 47 56 47q23 0 35 -16t6 -41l-25 -88h96q18 0 32 -13t13 -31q0 -18 -13 -32t-32 -14h-118l-328 -1229q-12 -47 -55 -47z" />
    <glyph glyph-name="Emacron" unicode="&#x112;" horiz-adv-x="1329" 
d="M1286 1620h-541q-20 0 -34 14q-15 14 -15 34t14 36q14 14 35 14h541q20 0 34 -14t15 -34q0 -20 -14 -36q-15 -14 -35 -14zM1065 0h-932q-23 0 -37 16t-8 37l356 1327q6 23 24 38t38 16h907q21 0 35 -14t14 -36q0 -20 -14 -34t-35 -15h-874l-152 -563h756q21 0 35 -14
t14 -34t-14 -36q-14 -14 -35 -14h-783l-153 -576h858q21 0 35 -14t14 -34t-14 -36q-15 -14 -35 -14z" />
    <glyph glyph-name="emacron" unicode="&#x113;" horiz-adv-x="1193" 
d="M1073 1272h-541q-20 0 -34 14t-14 34t14 36q14 14 34 14h541q21 0 35 -14t14 -34t-14 -36q-15 -14 -35 -14zM572 70q169 0 315 118q41 32 69 2q12 -12 12 -34t-20 -37q-170 -143 -381 -143t-338 122q-127 123 -127 316q0 252 178 454t427 201q188 0 291 -115t104 -284
q0 -68 -15 -135q-10 -47 -61 -48h-811q-4 -45 -4 -69q0 -158 96 -253t265 -95zM999 664q0 135 -74 224q-75 89 -231 89q-156 -1 -286 -115q-128 -114 -175 -284h758q8 37 8 86z" />
    <glyph glyph-name="Ebreve" unicode="&#x114;" horiz-adv-x="1329" 
d="M994 1563q-97 0 -156 47q-60 47 -60 131t49 84q35 0 42 -49t37 -79t108 -30q127 0 207 121q25 37 46 37t38 -16t2 -48q-45 -94 -131 -146t-182 -52zM1065 0h-932q-23 0 -37 16t-8 37l356 1327q6 23 24 38t38 16h907q21 0 35 -14t14 -36q0 -20 -14 -34t-35 -15h-874
l-152 -563h756q21 0 35 -14t14 -34t-14 -36q-14 -14 -35 -14h-783l-153 -576h858q21 0 35 -14t14 -34t-14 -36q-15 -14 -35 -14z" />
    <glyph glyph-name="ebreve" unicode="&#x115;" horiz-adv-x="1193" 
d="M781 1214q-97 0 -156 48t-59 131q0 84 48 84q35 0 42 -49t37 -79t108 -30q127 0 207 121q25 37 46 37t38 -16t2 -48q-44 -95 -130 -147t-183 -52zM572 70q169 0 315 118q41 32 69 2q12 -12 12 -34t-20 -37q-170 -143 -381 -143t-338 122q-127 123 -127 316q0 252 178 454
t427 201q188 0 291 -115t104 -284q0 -68 -15 -135q-10 -47 -61 -48h-811q-4 -45 -4 -69q0 -158 96 -253t265 -95zM999 664q0 135 -74 224q-75 89 -231 89q-156 -1 -286 -115q-128 -114 -175 -284h758q8 37 8 86z" />
    <glyph glyph-name="Edotaccent" unicode="&#x116;" horiz-adv-x="1329" 
d="M1026 1745q31 -1 49 -21t10 -47l-18 -67q-16 -55 -76 -56q-31 0 -48 20t-11 48l18 68q16 55 76 55zM1065 0h-932q-23 0 -37 16t-8 37l356 1327q6 23 24 38t38 16h907q21 0 35 -14t14 -36q0 -20 -14 -34t-35 -15h-874l-152 -563h756q21 0 35 -14t14 -34t-14 -36
q-14 -14 -35 -14h-783l-153 -576h858q21 0 35 -14t14 -34t-14 -36q-15 -14 -35 -14z" />
    <glyph glyph-name="edotaccent" unicode="&#x117;" horiz-adv-x="1193" 
d="M854 1262q-16 -55 -76 -56q-31 0 -48 20t-11 48l18 67q16 55 76 56q31 -1 49 -21t10 -47zM572 70q169 0 315 118q41 32 69 2q12 -12 12 -34t-20 -37q-170 -143 -381 -143t-338 122q-127 123 -127 316q0 252 178 454t427 201q188 0 291 -115t104 -284q0 -68 -15 -135
q-10 -47 -61 -48h-811q-4 -45 -4 -69q0 -158 96 -253t265 -95zM999 664q0 135 -74 224q-75 89 -231 89q-156 -1 -286 -115q-128 -114 -175 -284h758q8 37 8 86z" />
    <glyph glyph-name="Eogonek" unicode="&#x118;" horiz-adv-x="1329" 
d="M915 -184q0 -29 24 -45t83 -29q33 -6 33 -37q0 -39 -43 -39q-96 0 -149 39q-52 39 -52 94q0 96 154 201h-832q-23 0 -37 16t-8 37l356 1327q6 23 24 38t38 16h907q21 0 35 -14t14 -36q0 -20 -14 -34t-35 -15h-874l-152 -563h756q21 0 35 -14t14 -34t-14 -36
q-14 -14 -35 -14h-783l-153 -576h856q51 0 51 -45q0 -31 -31 -51q-168 -111 -168 -186z" />
    <glyph glyph-name="eogonek" unicode="&#x119;" horiz-adv-x="1193" 
d="M999 664q0 135 -74 224q-75 89 -231 89q-156 -1 -286 -115q-128 -114 -175 -284h758q8 37 8 86zM637 -179q-1 -34 23 -50t83 -29q33 -6 33 -37q0 -39 -43 -39q-96 0 -148 39t-53 94q0 92 132 185q-70 -8 -107 -9q-201 0 -328 123t-127 316q0 252 178 454t427 201
q188 0 291 -115t104 -284q0 -68 -15 -135q-10 -47 -61 -48h-811q-4 -45 -4 -69q0 -158 96 -253t265 -95t315 118q41 32 69 2q12 -12 12 -34t-20 -37l-153 -117q-90 -70 -124 -108t-34 -73z" />
    <glyph glyph-name="Ecaron" unicode="&#x11a;" horiz-adv-x="1329" 
d="M1250 1823q28 0 28 -21q0 -12 -16 -28l-193 -177q-37 -37 -68 -36h-12q-31 -1 -51 36l-98 179q-10 20 -11 26q0 20 36 20t59 -28l90 -117l168 119q40 27 68 27zM1065 0h-932q-23 0 -37 16t-8 37l356 1327q6 23 24 38t38 16h907q21 0 35 -14t14 -36q0 -20 -14 -34t-35 -15
h-874l-152 -563h756q21 0 35 -14t14 -34t-14 -36q-14 -14 -35 -14h-783l-153 -576h858q21 0 35 -14t14 -34t-14 -36q-15 -14 -35 -14z" />
    <glyph glyph-name="ecaron" unicode="&#x11b;" horiz-adv-x="1193" 
d="M1034 1475q28 0 29 -21q0 -12 -16 -29l-193 -176q-37 -37 -68 -37h-12q-28 0 -51 37l-98 178q-10 20 -11 27q0 20 36 20t59 -28l90 -117l168 119q39 27 67 27zM572 70q169 0 315 118q41 32 69 2q12 -12 12 -34t-20 -37q-170 -143 -381 -143t-338 122q-127 123 -127 316
q0 252 178 454t427 201q188 0 291 -115t104 -284q0 -68 -15 -135q-10 -47 -61 -48h-811q-4 -45 -4 -69q0 -158 96 -253t265 -95zM999 664q0 135 -74 224q-75 89 -231 89q-156 -1 -286 -115q-128 -114 -175 -284h758q8 37 8 86z" />
    <glyph glyph-name="Gbreve" unicode="&#x11e;" horiz-adv-x="1609" 
d="M1113 1583q-97 0 -157 47q-59 48 -59 132t49 83q35 0 42 -49t37 -79t108 -29q127 0 206 120q25 37 47 37t39 -16q18 -16 0 -47q-45 -94 -130 -146t-182 -53zM797 -27q-256 0 -430 166t-174 439q1 220 113 422t316 330t445 128q317 0 487 -213q37 -46 8 -81
q-13 -15 -38 -15t-41 22q-133 190 -426 191q-209 0 -385 -115t-272 -293t-97 -372q0 -238 141 -375t376 -137t411 116l131 459h-428q-20 0 -35 14q-14 15 -14 35t14 34t35 15h496q25 -1 39 -19t8 -38l-148 -516q-12 -45 -51 -68q-225 -129 -481 -129z" />
    <glyph glyph-name="gbreve" unicode="&#x11f;" horiz-adv-x="1339" 
d="M857 1214q-97 0 -157 48t-59 131q0 84 49 84q35 0 42 -49t37 -79t108 -30q127 0 206 121q25 37 47 37t38 -17q17 -17 1 -47q-45 -95 -130 -147t-182 -52zM1235 1053q23 -1 35 -17t6 -41l-229 -866q-55 -203 -164 -311q-150 -150 -405 -150t-458 168q-22 18 -22 42t13 38
t35 14t40 -14q180 -154 393 -154t330 117q92 92 143 275l37 131q-195 -207 -430 -207q-176 0 -306 112t-130 293q0 252 180 419t412 167q286 1 407 -278l58 215q12 47 55 47zM578 172q196 0 348 144t151 323q0 133 -101 233t-278 100q-178 0 -322 -136q-144 -137 -145 -347
q0 -149 103 -233t244 -84z" />
    <glyph glyph-name="Gdotaccent" unicode="&#x120;" horiz-adv-x="1609" 
d="M1110 1575q-31 0 -48 19t-11 48l18 68q16 55 76 55q31 0 49 -20t10 -47l-18 -68q-16 -55 -76 -55zM797 -27q-256 0 -430 166t-174 439q1 220 113 422t316 330t445 128q317 0 487 -213q37 -46 8 -81q-13 -15 -38 -15t-41 22q-133 190 -426 191q-209 0 -385 -115t-272 -293
t-97 -372q0 -238 141 -375t376 -137t411 116l131 459h-428q-20 0 -35 14q-14 15 -14 35t14 34t35 15h496q25 -1 39 -19t8 -38l-148 -516q-12 -45 -51 -68q-225 -129 -481 -129z" />
    <glyph glyph-name="gdotaccent" unicode="&#x121;" horiz-adv-x="1339" 
d="M930 1262q-16 -55 -76 -56q-31 0 -48 20t-11 48l18 67q16 55 76 56q31 -1 49 -21t10 -47zM1235 1053q23 -1 35 -17t6 -41l-229 -866q-55 -203 -164 -311q-150 -150 -405 -150t-458 168q-22 18 -22 42t13 38t35 14t40 -14q180 -154 393 -154t330 117q92 92 143 275l37 131
q-195 -207 -430 -207q-176 0 -306 112t-130 293q0 252 180 419t412 167q286 1 407 -278l58 215q12 47 55 47zM578 172q196 0 348 144t151 323q0 133 -101 233t-278 100q-178 0 -322 -136q-144 -137 -145 -347q0 -149 103 -233t244 -84z" />
    <glyph glyph-name="Gcommaaccent" unicode="&#x122;" horiz-adv-x="1609" 
d="M561 -250q0 41 23 74t65 33q66 0 66 -66q0 -43 -23 -96q-67 -154 -221 -154q-25 0 -25 22q0 23 46 33q95 22 118 103q-49 10 -49 51zM797 -27q-256 0 -430 166t-174 439q1 220 113 422t316 330t445 128q317 0 487 -213q37 -46 8 -81q-13 -15 -38 -15t-41 22
q-133 190 -426 191q-209 0 -385 -115t-272 -293t-97 -372q0 -238 141 -375t376 -137t411 116l131 459h-428q-20 0 -35 14q-14 15 -14 35t14 34t35 15h496q25 -1 39 -19t8 -38l-148 -516q-12 -45 -51 -68q-225 -129 -481 -129z" />
    <glyph glyph-name="gcommaaccent" unicode="&#x123;" horiz-adv-x="1339" 
d="M940 1313q0 -41 -22 -74t-66 -33q-66 0 -66 66q0 43 23 96q67 154 221 154q25 0 25 -22t-46 -33q-96 -23 -118 -103q49 -10 49 -51zM1235 1053q23 -1 35 -17t6 -41l-229 -866q-55 -203 -164 -311q-150 -150 -405 -150t-458 168q-22 18 -22 42t13 38t35 14t40 -14
q180 -154 393 -154t330 117q92 92 143 275l37 131q-195 -207 -430 -207q-176 0 -306 112t-130 293q0 252 180 419t412 167q286 1 407 -278l58 215q12 47 55 47zM578 172q196 0 348 144t151 323q0 133 -101 233t-278 100q-178 0 -322 -136q-144 -137 -145 -347
q0 -149 103 -233t244 -84z" />
    <glyph glyph-name="Hbar" unicode="&#x126;" horiz-adv-x="1548" 
d="M387 770h907l74 272h-909zM1597 1137q21 -1 35 -15q33 -33 0 -65q-14 -14 -35 -15h-124l-269 -1003q-12 -47 -57 -47q-23 0 -38 17t-7 44l166 619h-908l-170 -633q-12 -47 -57 -47q-23 0 -38 17t-7 44l266 989h-98q-20 0 -34 14t-15 34q0 18 14 32t35 15h123l70 258
q12 47 57 47q23 0 38 -18t7 -44l-66 -243h908l69 258q12 47 58 47q23 0 38 -18t7 -44l-66 -243h98z" />
    <glyph glyph-name="hbar" unicode="&#x127;" horiz-adv-x="1247" 
d="M893 -8q-23 0 -35 16t-6 41l145 549q16 61 17 129q0 117 -72 185t-203 67q-131 0 -258 -111t-172 -278l-147 -551q-12 -47 -56 -47q-22 0 -34 16t-6 41l325 1219h-96q-18 0 -32 13q-13 13 -13 31t13 32t32 14h121l26 98q12 47 56 47q22 0 34 -16t7 -41l-25 -88h330
q18 0 32 -13t13 -31q0 -18 -13 -32t-32 -14h-355l-110 -418q182 219 395 219q156 0 249 -91t93 -241q1 -57 -22 -147l-146 -551q-12 -47 -55 -47z" />
    <glyph glyph-name="Imacron" unicode="&#x12a;" horiz-adv-x="561" 
d="M860 1620h-541q-20 0 -34 14q-15 14 -15 34t14 36q14 14 35 14h541q20 0 34 -14t15 -34q0 -20 -14 -36q-15 -14 -35 -14zM147 -8q-23 0 -37 17t-8 44l361 1342q12 47 57 47q23 0 38 -18t7 -44l-360 -1341q-12 -47 -58 -47z" />
    <glyph glyph-name="imacron" unicode="&#x12b;" horiz-adv-x="512" 
d="M741 1272h-540q-20 0 -35 14q-14 14 -14 34t14 36q14 14 35 14h540q21 0 35 -14t14 -34t-14 -36q-15 -14 -35 -14zM121 -8q-23 0 -35 16t-6 41l256 957q12 47 55 47q23 -1 35 -17t6 -41l-256 -956q-12 -47 -55 -47z" />
    <glyph glyph-name="Ibreve" unicode="&#x12c;" horiz-adv-x="561" 
d="M568 1563q-97 0 -156 47q-60 47 -60 131t49 84q35 0 42 -49t37 -79t108 -30q127 0 207 121q25 37 46 37t38 -16t2 -48q-45 -94 -131 -146t-182 -52zM147 -8q-23 0 -37 17t-8 44l361 1342q12 47 57 47q23 0 38 -18t7 -44l-360 -1341q-12 -47 -58 -47z" />
    <glyph glyph-name="ibreve" unicode="&#x12d;" horiz-adv-x="512" 
d="M449 1214q-97 0 -156 48t-59 131q0 84 49 84q35 0 42 -49t37 -79t107 -30q127 0 207 121q25 37 46 37q22 1 34 -11t12 -26t-6 -27q-44 -95 -130 -147t-183 -52zM121 -8q-23 0 -35 16t-6 41l256 957q12 47 55 47q23 -1 35 -17t6 -41l-256 -956q-12 -47 -55 -47z" />
    <glyph glyph-name="Iogonek" unicode="&#x12e;" horiz-adv-x="561" 
d="M111 -334q-96 0 -149 39q-52 39 -52 94q0 102 192 226q-2 14 0 28l361 1342q12 47 57 47q23 0 38 -18t7 -44l-360 -1341q-8 -27 -35 -45q-156 -109 -156 -178q0 -29 24 -45t83 -29q33 -6 33 -37q0 -39 -43 -39z" />
    <glyph glyph-name="iogonek" unicode="&#x12f;" horiz-adv-x="512" 
d="M473 1307q-29 0 -44 16t-9 41l14 53q12 47 70 47q29 0 44 -16t9 -41l-14 -53q-12 -47 -70 -47zM127 -295q0 -39 -43 -39q-96 0 -149 39q-52 39 -52 94q0 104 195 228q0 14 2 22l256 957q12 47 55 47q23 -1 35 -17t6 -41l-256 -956q-8 -29 -31 -43q-158 -106 -157 -180
q0 -29 24 -45t82 -29q33 -6 33 -37z" />
    <glyph glyph-name="Idotaccent" unicode="&#x130;" horiz-adv-x="561" 
d="M602 1745q31 -1 49 -21t11 -47l-19 -67q-16 -55 -76 -56q-31 0 -48 20t-11 48l18 68q16 55 76 55zM147 -8q-23 0 -37 17t-8 44l361 1342q12 47 57 47q23 0 38 -18t7 -44l-360 -1341q-12 -47 -58 -47z" />
    <glyph glyph-name="dotlessi" unicode="&#x131;" horiz-adv-x="512" 
d="M121 -8q-23 0 -35 16t-6 41l256 957q12 47 55 47q23 -1 35 -17t6 -41l-256 -956q-12 -47 -55 -47z" />
    <glyph glyph-name="Kcommaaccent" unicode="&#x136;" horiz-adv-x="1462" 
d="M496 -240q0 41 22 74q23 33 66 33q66 0 65 -66q-1 -43 -23 -96t-55 -86q-68 -68 -165 -68q-25 0 -25 22t46 33q96 23 118 103q-49 10 -49 51zM133 -8q-23 0 -38 17t-7 44l361 1342q12 47 57 47q23 0 38 -18t7 -44l-236 -878l1135 921q20 19 42 19t36 -14t14 -36t-24 -40
l-695 -559l389 -711q29 -48 -2 -76q-14 -14 -42 -14t-50 37l-383 702l-459 -373l-86 -319q-12 -47 -57 -47z" />
    <glyph glyph-name="kcommaaccent" unicode="&#x137;" horiz-adv-x="1146" 
d="M326 -250q0 41 22 74q23 33 66 33q66 0 65 -66q-1 -43 -23 -96t-55 -86q-68 -68 -165 -68q-25 0 -25 22q0 23 46 33q95 22 118 103q-49 10 -49 51zM1143 1012q0 -25 -23 -41l-489 -393l268 -498q14 -25 14 -42q0 -18 -14 -32t-42 -14t-46 35l-264 489l-328 -262l-57 -215
q-12 -47 -56 -47q-22 0 -34 16t-6 41l376 1407q12 47 56 47q23 0 35 -16t6 -41l-283 -1059l801 649q20 16 43 17q43 0 43 -41z" />
    <glyph glyph-name="Lacute" unicode="&#x139;" horiz-adv-x="1228" 
d="M786 1833q26 0 58 -17q31 -17 31 -35t-23 -34l-211 -160q-35 -27 -71 -27t-35 21q0 12 10 23l180 194q35 35 61 35zM993 0h-860q-23 0 -37 16t-8 37l361 1342q12 47 57 47q23 0 38 -18t7 -44l-344 -1282h786q21 0 35 -14t14 -34t-14 -36q-15 -14 -35 -14z" />
    <glyph glyph-name="lacute" unicode="&#x13a;" horiz-adv-x="512" 
d="M516 1628q0 12 10 23l181 194q35 35 61 35t58 -17q60 -33 8 -69l-211 -160q-35 -26 -71 -26t-36 20zM121 -8q-23 0 -35 16t-6 41l377 1407q12 47 55 47q23 0 35 -16t6 -41l-377 -1407q-12 -47 -55 -47z" />
    <glyph glyph-name="Lcommaaccent" unicode="&#x13b;" horiz-adv-x="1228" 
d="M387 -250q0 41 23 74t65 33q66 0 66 -66q0 -43 -23 -96q-67 -154 -221 -154q-25 0 -25 22q0 23 46 33q95 22 118 103q-49 10 -49 51zM993 0h-860q-23 0 -37 16t-8 37l361 1342q12 47 57 47q23 0 38 -18t7 -44l-344 -1282h786q21 0 35 -14t14 -34t-14 -36q-15 -14 -35 -14
z" />
    <glyph glyph-name="lcommaaccent" unicode="&#x13c;" horiz-adv-x="512" 
d="M-2 -250q0 41 22 74q23 33 66 33q66 0 66 -66q0 -43 -23 -96q-67 -154 -221 -154q-25 0 -25 22q0 23 46 33q95 22 118 103q-49 10 -49 51zM121 -8q-23 0 -35 16t-6 41l377 1407q12 47 55 47q23 0 35 -16t6 -41l-377 -1407q-12 -47 -55 -47z" />
    <glyph glyph-name="Lcaron" unicode="&#x13d;" horiz-adv-x="1228" 
d="M825 1440h27q29 0 29 -23q0 -16 -19 -45l-131 -217q-20 -35 -45 -35t-24 19q0 8 6 22l86 228q20 51 71 51zM993 0h-860q-23 0 -37 16t-8 37l361 1342q12 47 57 47q23 0 38 -18t7 -44l-344 -1282h786q21 0 35 -14t14 -34t-14 -36q-15 -14 -35 -14z" />
    <glyph glyph-name="lcaron" unicode="&#x13e;" horiz-adv-x="512" 
d="M766 1501h27q29 0 28 -22q0 -16 -18 -45l-131 -217q-20 -35 -45 -35t-25 18q0 9 6 23l86 227q20 51 72 51zM121 -8q-23 0 -35 16t-6 41l377 1407q12 47 55 47q23 0 35 -16t6 -41l-377 -1407q-12 -47 -55 -47z" />
    <glyph glyph-name="Ldot" unicode="&#x13f;" horiz-adv-x="1228" 
d="M993 0h-860q-23 0 -37 16t-8 37l361 1342q12 47 57 47q23 0 38 -18t7 -44l-344 -1282h786q21 0 35 -14t14 -34t-14 -36q-15 -14 -35 -14zM1063 711q-16 -59 -82 -60q-33 0 -51 22t-12 50l14 51q16 59 82 60q33 0 52 -22t11 -50z" />
    <glyph glyph-name="ldot" unicode="&#x140;" horiz-adv-x="634" 
d="M121 -8q-23 0 -35 16t-6 41l377 1407q12 47 55 47q23 0 35 -16t6 -41l-377 -1407q-12 -47 -55 -47zM698 717q-16 -59 -80 -60q-33 0 -51 22t-12 50l14 51q16 59 82 60q33 0 51 -22t11 -50z" />
    <glyph glyph-name="Lslash" unicode="&#x141;" horiz-adv-x="1331" 
d="M608 1442q23 0 38 -18t7 -44l-161 -604l417 121q25 6 37 6q39 0 39 -41q0 -33 -47 -47l-473 -135l-156 -582h787q20 0 34 -14t14 -34t-14 -36q-14 -14 -34 -14h-860q-23 0 -37 16t-9 37l158 592l-82 -22q-25 -6 -37 -7q-39 0 -39 41q1 34 48 48l137 38l176 652
q12 47 57 47z" />
    <glyph glyph-name="lslash" unicode="&#x142;" horiz-adv-x="632" 
d="M573 1503q23 0 35 -16t6 -41l-168 -629l89 27q25 6 32 6q41 0 41 -45q0 -33 -35 -43l-153 -45l-182 -678q-12 -47 -56 -47q-23 0 -35 16t-6 41l170 637l-82 -22q-25 -6 -32 -7q-41 0 -41 45q-1 33 34 43l148 41l180 670q12 47 55 47z" />
    <glyph glyph-name="Nacute" unicode="&#x143;" horiz-adv-x="1609" 
d="M1302 1833q26 0 58 -17q31 -17 31 -35t-23 -34l-211 -160q-35 -27 -71 -27t-35 21q0 12 10 23l180 194q35 35 61 35zM1585 1442q23 0 37 -16t6 -46l-360 -1341q-12 -45 -49 -45h-2q-33 0 -56 43l-641 1245l-334 -1243q-12 -47 -55 -47q-23 0 -37 16t-6 45l358 1333
q14 53 62 54h4q41 0 70 -54l620 -1208l328 1217q12 47 55 47z" />
    <glyph glyph-name="nacute" unicode="&#x144;" horiz-adv-x="1251" 
d="M810 1212q-36 0 -36 21q0 12 10 22l181 195q35 35 61 35q26 1 58 -17q59 -34 8 -69l-211 -160q-35 -27 -71 -27zM375 1053q23 -1 35 -17t6 -41l-37 -145q182 219 395 219q156 0 249 -91t93 -241q0 -57 -22 -147l-146 -551q-12 -47 -55 -47q-23 0 -35 16t-6 41l145 549
q16 61 17 129q0 117 -72 185t-203 67q-131 0 -258 -111t-172 -278l-147 -551q-12 -47 -56 -47q-22 0 -34 16t-6 41l253 957q13 47 56 47z" />
    <glyph glyph-name="Ncommaaccent" unicode="&#x145;" horiz-adv-x="1609" 
d="M549 -240q0 41 22 74q23 33 66 33q66 0 65 -66q0 -43 -22 -96q-65 -154 -221 -154q-25 0 -25 22t46 33q96 23 118 103q-49 10 -49 51zM1585 1442q23 0 37 -16t6 -46l-360 -1341q-12 -45 -49 -45h-2q-33 0 -56 43l-641 1245l-334 -1243q-12 -47 -55 -47q-23 0 -37 16
t-6 45l358 1333q14 53 62 54h4q41 0 70 -54l620 -1208l328 1217q12 47 55 47z" />
    <glyph glyph-name="ncommaaccent" unicode="&#x146;" horiz-adv-x="1251" 
d="M365 -250q0 41 22 74q23 33 66 33q66 0 65 -66q0 -43 -22 -96q-65 -154 -222 -154q-25 0 -24 21q0 24 46 34q95 22 118 103q-49 10 -49 51zM375 1053q23 -1 35 -17t6 -41l-37 -145q182 219 395 219q156 0 249 -91t93 -241q0 -57 -22 -147l-146 -551q-12 -47 -55 -47
q-23 0 -35 16t-6 41l145 549q16 61 17 129q0 117 -72 185t-203 67q-131 0 -258 -111t-172 -278l-147 -551q-12 -47 -56 -47q-22 0 -34 16t-6 41l253 957q13 47 56 47z" />
    <glyph glyph-name="Ncaron" unicode="&#x147;" horiz-adv-x="1609" 
d="M928 1802q0 20 36 20t58 -28l90 -117l168 119q39 27 68 27t28 -21q0 -12 -16 -28l-193 -177q-37 -37 -67 -36h-13q-31 -1 -51 36l-98 179q-10 20 -10 26zM1585 1442q23 0 37 -16t6 -46l-360 -1341q-12 -45 -49 -45h-2q-33 0 -56 43l-641 1245l-334 -1243q-12 -47 -55 -47
q-23 0 -37 16t-6 45l358 1333q14 53 62 54h4q41 0 70 -54l620 -1208l328 1217q12 47 55 47z" />
    <glyph glyph-name="ncaron" unicode="&#x148;" horiz-adv-x="1251" 
d="M1072 1475q28 0 28 -21q0 -12 -17 -29l-192 -176q-37 -37 -68 -37h-12q-28 0 -51 37l-98 178q-10 20 -11 27q0 20 36 20t58 -28l91 -117l168 119q40 27 68 27zM375 1053q23 -1 35 -17t6 -41l-37 -145q182 219 395 219q156 0 249 -91t93 -241q0 -57 -22 -147l-146 -551
q-12 -47 -55 -47q-23 0 -35 16t-6 41l145 549q16 61 17 129q0 117 -72 185t-203 67q-131 0 -258 -111t-172 -278l-147 -551q-12 -47 -56 -47q-22 0 -34 16t-6 41l253 957q13 47 56 47z" />
    <glyph glyph-name="Omacron" unicode="&#x14c;" horiz-adv-x="1732" 
d="M1423 1640h-540q-21 0 -35 14t-14 36q0 20 14 34t35 15h540q21 -1 35 -15t14 -34t-14 -35q-15 -15 -35 -15zM307 577q-1 -211 141 -359t353 -148t377 110t259 288q93 177 93 387t-141 358q-141 149 -353 149t-377 -111q-166 -111 -259 -287t-93 -387zM815 -27
q-268 -1 -443 177t-175 440q0 221 109 422q110 202 301 324t415 122q268 0 443 -177t175 -439q0 -221 -110 -422t-300 -324q-192 -123 -415 -123z" />
    <glyph glyph-name="omacron" unicode="&#x14d;" horiz-adv-x="1296" 
d="M1120 1272h-540q-20 0 -35 14t-15 34t14 36q14 14 36 14h540q20 0 34 -14t15 -34q0 -20 -14 -36q-15 -14 -35 -14zM213 442q1 -174 101 -273t280 -99t334 160t153 372q0 174 -100 274t-266 99q-199 0 -351 -162t-151 -371zM569 -25q-207 0 -336 130t-129 333
q0 250 186 440t435 191q207 0 336 -130t129 -333q0 -254 -188 -442t-433 -189z" />
    <glyph glyph-name="Obreve" unicode="&#x14e;" horiz-adv-x="1732" 
d="M1131 1583q-97 0 -156 47q-59 48 -59 132t49 83q35 0 42 -49t37 -79t107 -29q127 0 207 120q25 37 46 37q22 0 34 -11q12 -12 12 -26t-6 -26q-45 -94 -130 -147q-86 -52 -183 -52zM307 577q-1 -211 141 -359t353 -148t377 110t259 288q93 177 93 387t-141 358
q-141 149 -353 149t-377 -111q-166 -111 -259 -287t-93 -387zM815 -27q-268 -1 -443 177t-175 440q0 221 109 422q110 202 301 324t415 122q268 0 443 -177t175 -439q0 -221 -110 -422t-300 -324q-192 -123 -415 -123z" />
    <glyph glyph-name="obreve" unicode="&#x14f;" horiz-adv-x="1296" 
d="M828 1214q-97 0 -156 48q-60 48 -60 131q0 84 50 84q36 0 42 -49t36 -79t108 -30q127 0 207 121q25 37 46 37q21 1 33 -11t13 -26q0 -14 -6 -27q-45 -95 -131 -147t-182 -52zM213 442q1 -174 101 -273t280 -99t334 160t153 372q0 174 -100 274t-266 99q-199 0 -351 -162
t-151 -371zM569 -25q-207 0 -336 130t-129 333q0 250 186 440t435 191q207 0 336 -130t129 -333q0 -254 -188 -442t-433 -189z" />
    <glyph glyph-name="Ohungarumlaut" unicode="&#x150;" horiz-adv-x="1732" 
d="M1417 1853q25 0 40 -16q38 -40 -9 -74l-195 -155q-35 -27 -63 -27t-27 18q0 12 13 25l182 195q34 34 59 34zM1106 1853q25 0 40 -16t15 -36t-24 -38l-195 -155q-35 -27 -63 -27t-27 18q0 12 12 25l183 195q34 34 59 34zM307 577q-1 -211 141 -359t353 -148t377 110
t259 288q93 177 93 387t-141 358q-141 149 -353 149t-377 -111q-166 -111 -259 -287t-93 -387zM815 -27q-268 -1 -443 177t-175 440q0 221 109 422q110 202 301 324t415 122q268 0 443 -177t175 -439q0 -221 -110 -422t-300 -324q-192 -123 -415 -123z" />
    <glyph glyph-name="ohungarumlaut" unicode="&#x151;" horiz-adv-x="1296" 
d="M1114 1485q25 -1 40 -17t15 -36t-24 -37l-195 -156q-34 -27 -62 -27t-28 19q0 12 12 24l183 195q34 35 59 35zM803 1485q25 -1 40 -17t15 -36t-24 -37l-195 -156q-35 -27 -63 -27t-27 19q0 12 12 24l182 195q35 35 60 35zM213 442q1 -174 101 -273t280 -99t334 160
t153 372q0 174 -100 274t-266 99q-199 0 -351 -162t-151 -371zM569 -25q-207 0 -336 130t-129 333q0 250 186 440t435 191q207 0 336 -130t129 -333q0 -254 -188 -442t-433 -189z" />
    <glyph glyph-name="OE" unicode="&#x152;" horiz-adv-x="2363" 
d="M2066 0h-1163q-365 0 -557 193q-158 158 -158 409q0 332 224 555q131 131 320 204t409 73h1274q20 0 34 -14q15 -14 15 -36q0 -20 -14 -34t-35 -15h-852l-152 -563h733q20 0 34 -14t15 -34q0 -20 -14 -36q-14 -14 -35 -14h-760l-153 -576h835q20 0 34 -14t16 -34
q0 -20 -15 -36q-15 -14 -35 -14zM909 98h215l332 1237h-330q-389 0 -634 -245q-193 -193 -193 -480q0 -217 133 -350q162 -162 477 -162z" />
    <glyph glyph-name="oe" unicode="&#x153;" horiz-adv-x="2142" 
d="M1163 418q0 -158 96 -253t264 -95t316 118q40 32 70 2q12 -12 12 -34t-20 -37q-168 -143 -385 -144q-166 0 -283 87t-150 231q-84 -139 -217 -228q-134 -89 -318 -89t-314 130q-130 131 -130 332q0 250 186 440t435 191q172 0 285 -94t145 -240q180 334 504 334
q187 0 291 -115t104 -284q0 -72 -16 -142q-8 -41 -51 -41h-820q-4 -45 -4 -69zM213 442q1 -174 101 -273t280 -99t334 158t154 350q0 194 -101 295t-283 101t-334 -161q-152 -162 -151 -371zM1952 664q0 135 -75 224t-231 89q-156 -1 -285 -115q-128 -114 -175 -284h758
q8 37 8 86z" />
    <glyph glyph-name="Racute" unicode="&#x154;" horiz-adv-x="1460" 
d="M901 1581q0 12 10 23l181 194q36 35 62 35t56 -17q60 -33 9 -69l-211 -160q-35 -27 -71 -27t-36 21zM795 690q305 0 450 146q96 96 96 216t-63 185q-98 98 -309 98h-430l-174 -645h430zM133 -8q-23 0 -38 17t-7 44l356 1327q6 23 24 38t38 16h467q258 0 385 -127
q90 -90 90 -248t-133 -291t-416 -164l270 -518q28 -53 -1 -80q-15 -14 -44 -14t-45 33l-295 569h-444l-150 -555q-12 -47 -57 -47z" />
    <glyph glyph-name="racute" unicode="&#x155;" horiz-adv-x="811" 
d="M586 1212q-36 0 -35 21q0 12 10 22l180 195q35 35 62 35q27 1 57 -17t31 -36q0 -18 -23 -33l-211 -160q-35 -27 -71 -27zM829 1061q53 0 54 -51q0 -55 -74 -62q-176 -16 -329 -153t-214 -367l-104 -389q-12 -47 -56 -47q-22 0 -34 16t-6 41l253 957q12 47 56 47
q23 -1 35 -17t6 -41l-64 -247q94 141 226 227t251 86z" />
    <glyph glyph-name="Rcommaaccent" unicode="&#x156;" horiz-adv-x="1460" 
d="M471 -240q0 41 23 74t65 33q66 0 66 -66q0 -43 -23 -96q-67 -154 -221 -154q-25 0 -25 22t46 33q96 23 118 103q-49 10 -49 51zM795 690q305 0 450 146q96 96 96 216t-63 185q-98 98 -309 98h-430l-174 -645h430zM133 -8q-23 0 -38 17t-7 44l356 1327q6 23 24 38t38 16
h467q258 0 385 -127q90 -90 90 -248t-133 -291t-416 -164l270 -518q28 -53 -1 -80q-15 -14 -44 -14t-45 33l-295 569h-444l-150 -555q-12 -47 -57 -47z" />
    <glyph glyph-name="rcommaaccent" unicode="&#x157;" horiz-adv-x="811" 
d="M-4 -250q0 41 22 74q23 33 66 33q66 0 66 -66q0 -43 -23 -96q-67 -154 -221 -154q-25 0 -25 22q0 23 46 33q95 22 118 103q-49 10 -49 51zM829 1061q53 0 54 -51q0 -55 -74 -62q-176 -16 -329 -153t-214 -367l-104 -389q-12 -47 -56 -47q-22 0 -34 16t-6 41l253 957
q12 47 56 47q23 -1 35 -17t6 -41l-64 -247q94 141 226 227t251 86z" />
    <glyph glyph-name="Rcaron" unicode="&#x158;" horiz-adv-x="1460" 
d="M778 1802q0 20 36 20t58 -28l91 -117l167 119q39 27 68 27t29 -21q0 -12 -17 -28l-192 -177q-37 -37 -68 -36h-12q-28 -1 -51 36l-99 179q-10 20 -10 26zM795 690q305 0 450 146q96 96 96 216t-63 185q-98 98 -309 98h-430l-174 -645h430zM133 -8q-23 0 -38 17t-7 44
l356 1327q6 23 24 38t38 16h467q258 0 385 -127q90 -90 90 -248t-133 -291t-416 -164l270 -518q28 -53 -1 -80q-15 -14 -44 -14t-45 33l-295 569h-444l-150 -555q-12 -47 -57 -47z" />
    <glyph glyph-name="rcaron" unicode="&#x159;" horiz-adv-x="811" 
d="M426 1454q0 20 36 20t58 -28l90 -117l168 119q39 27 68 27t28 -21q0 -12 -16 -29l-192 -176q-37 -37 -68 -37h-12q-28 0 -51 37l-99 178q-10 20 -10 27zM829 1061q53 0 54 -51q0 -55 -74 -62q-176 -16 -329 -153t-214 -367l-104 -389q-12 -47 -56 -47q-22 0 -34 16t-6 41
l253 957q12 47 56 47q23 -1 35 -17t6 -41l-64 -247q94 141 226 227t251 86z" />
    <glyph glyph-name="Sacute" unicode="&#x15a;" horiz-adv-x="1306" 
d="M916 1581q-36 0 -35 21q0 12 10 22l180 195q35 35 61 35t58 -18q31 -17 31 -35t-23 -34l-211 -159q-35 -27 -71 -27zM623 76q176 0 295 89t118 224q0 94 -69 158q-71 63 -271 141t-292 160q-91 82 -91 211q-1 167 143 281t371 114q270 0 459 -176q23 -23 23 -44
q1 -20 -15 -36t-39 -16t-43 20q-156 156 -395 156q-178 0 -287 -86q-108 -86 -108 -194t78 -170t274 -137t283 -160q88 -85 88 -214q0 -176 -152 -297t-381 -120q-338 0 -538 231q-38 52 -6 82q14 14 38 14t41 -24q179 -207 476 -207z" />
    <glyph glyph-name="sacute" unicode="&#x15b;" horiz-adv-x="1013" 
d="M672 1212q-36 0 -35 21q0 12 10 22l180 195q35 35 62 35q27 1 57 -17t31 -36q0 -18 -23 -33l-211 -160q-35 -27 -71 -27zM457 70q104 0 187 58t83 148q0 62 -48 110q-47 48 -191 101t-213 115t-68 162q0 127 107 215q108 88 280 88q90 0 186 -34q181 -64 181 -124
q1 -20 -13 -33q-14 -14 -34 -14t-33 10q-147 102 -285 102t-210 -56q-73 -57 -73 -129t47 -115q47 -44 196 -102q150 -58 214 -121t64 -158q0 -135 -115 -225t-275 -91q-227 0 -407 148q-25 19 -25 43t14 38t32 15q19 0 46 -20q158 -131 353 -131z" />
    <glyph glyph-name="Scedilla" unicode="&#x15e;" horiz-adv-x="1306" 
d="M623 76q176 0 295 89t118 224q0 94 -69 158q-71 63 -271 141t-292 160q-91 82 -91 211q-1 167 143 281t371 114q270 0 459 -176q23 -23 23 -44q1 -20 -15 -36t-39 -16t-43 20q-156 156 -395 156q-178 0 -287 -86q-108 -86 -108 -194t78 -170t274 -137t283 -160
q88 -85 88 -214q0 -176 -152 -297t-381 -120h-22l-189 -248q-20 -25 -43 -25t-39 14t-16 35t21 43l176 189q-260 31 -426 223q-38 52 -6 82q14 14 38 14t41 -24q179 -207 476 -207z" />
    <glyph glyph-name="scedilla" unicode="&#x15f;" horiz-adv-x="1013" 
d="M457 70q104 0 187 58t83 148q0 62 -48 110q-47 48 -191 101t-213 115t-68 162q0 127 107 215q108 88 280 88q90 0 186 -34q181 -64 181 -124q1 -20 -13 -33q-14 -14 -34 -14t-33 10q-147 102 -285 102t-210 -56q-73 -57 -73 -129t47 -115q47 -44 196 -102
q150 -58 214 -121t64 -158q0 -135 -115 -225t-275 -91h-22l-186 -245q-20 -25 -43 -25t-39 14q-38 34 4 78l176 189q-160 25 -297 137q-25 19 -25 43t14 38t32 15q19 0 46 -20q158 -131 353 -131z" />
    <glyph glyph-name="Scaron" unicode="&#x160;" horiz-adv-x="1306" 
d="M756 1823q0 20 36 20t58 -28l90 -117l168 119q39 27 68 27t28 -21q0 -12 -16 -29l-193 -176q-37 -37 -67 -37h-13q-28 0 -51 37l-98 178q-10 20 -10 27zM623 76q176 0 295 89t118 224q0 94 -69 158q-71 63 -271 141t-292 160q-91 82 -91 211q-1 167 143 281t371 114
q270 0 459 -176q23 -23 23 -44q1 -20 -15 -36t-39 -16t-43 20q-156 156 -395 156q-178 0 -287 -86q-108 -86 -108 -194t78 -170t274 -137t283 -160q88 -85 88 -214q0 -176 -152 -297t-381 -120q-338 0 -538 231q-38 52 -6 82q14 14 38 14t41 -24q179 -207 476 -207z" />
    <glyph glyph-name="scaron" unicode="&#x161;" horiz-adv-x="1013" 
d="M512 1454q0 20 36 20t58 -28l90 -117l168 119q39 27 68 27t29 -21q0 -12 -17 -29l-192 -176q-37 -37 -68 -37h-12q-28 0 -51 37l-99 178q-10 20 -10 27zM457 70q104 0 187 58t83 148q0 62 -48 110q-47 48 -191 101t-213 115t-68 162q0 127 107 215q108 88 280 88
q90 0 186 -34q181 -64 181 -124q1 -20 -13 -33q-14 -14 -34 -14t-33 10q-147 102 -285 102t-210 -56q-73 -57 -73 -129t47 -115q47 -44 196 -102q150 -58 214 -121t64 -158q0 -135 -115 -225t-275 -91q-227 0 -407 148q-25 19 -25 43t14 38t32 15q19 0 46 -20
q158 -131 353 -131z" />
    <glyph glyph-name="Tcommaaccent" unicode="&#x162;" horiz-adv-x="1259" 
d="M451 -143q66 0 65 -66q0 -43 -22 -96q-65 -154 -222 -154q-25 0 -24 21q0 24 46 34q95 22 118 103q-50 10 -50 51t23 74t66 33zM487 -8q-23 0 -37 17t-8 44l344 1282h-444q-20 1 -34 15t-15 34q0 20 14 34t35 16h1022q20 0 34 -14t15 -36q0 -20 -14 -34t-35 -15h-471
l-348 -1296q-12 -47 -58 -47z" />
    <glyph glyph-name="tcommaaccent" unicode="&#x163;" horiz-adv-x="811" 
d="M209 -250q0 41 22 74q23 33 66 33q66 0 65 -66q0 -43 -22 -96q-65 -154 -221 -154q-25 0 -25 22q0 23 46 33q95 22 118 103q-49 10 -49 51zM592 49q0 -67 -190 -67q-92 0 -160 52q-70 52 -70 154q0 47 12 101l178 663h-98q-20 0 -34 14t-13 32q0 18 14 32t33 14h123
l80 295q12 47 55 47q23 0 35 -16t6 -41l-76 -285h308q20 0 33 -13q14 -13 14 -33t-14 -32q-14 -13 -33 -14h-332l-178 -665q-10 -45 -11 -88q0 -125 170 -125q43 0 78 10q68 19 70 -35z" />
    <glyph glyph-name="Tcaron" unicode="&#x164;" horiz-adv-x="1259" 
d="M1164 1823q28 0 28 -21q0 -12 -16 -28l-193 -177q-37 -37 -68 -36h-12q-31 -1 -51 36l-98 179q-10 20 -11 26q0 20 36 20t59 -28l90 -117l168 119q40 27 68 27zM487 -8q-23 0 -37 17t-8 44l344 1282h-444q-20 1 -34 15t-15 34q0 20 14 34t35 16h1022q20 0 34 -14t15 -36
q0 -20 -14 -34t-35 -15h-471l-348 -1296q-12 -47 -58 -47z" />
    <glyph glyph-name="tcaron" unicode="&#x165;" horiz-adv-x="811" 
d="M883 1513h26q29 0 29 -22q0 -16 -18 -45l-132 -217q-20 -35 -45 -35t-24 18q0 9 6 23l86 227q20 51 72 51zM592 49q0 -67 -190 -67q-92 0 -160 52q-70 52 -70 154q0 47 12 101l178 663h-98q-20 0 -34 14t-13 32q0 18 14 32t33 14h123l80 295q12 47 55 47q23 0 35 -16
t6 -41l-76 -285h308q20 0 33 -13q14 -13 14 -33t-14 -32q-14 -13 -33 -14h-332l-178 -665q-10 -45 -11 -88q0 -125 170 -125q43 0 78 10q68 19 70 -35z" />
    <glyph glyph-name="Umacron" unicode="&#x16a;" horiz-adv-x="1548" 
d="M1331 1620h-540q-20 0 -35 14q-14 14 -14 34t14 36q14 14 35 14h540q21 0 35 -14t14 -34t-14 -36q-15 -14 -35 -14zM197 428q0 111 28 221l199 746q12 47 57 47q23 0 38 -18t7 -44l-207 -780q-18 -74 -18 -164q1 -162 107 -262t311 -100t345 140t208 388l213 793
q12 47 57 47q23 0 38 -18t7 -44l-215 -800q-72 -266 -227 -422q-180 -180 -431 -180t-384 124q-133 125 -133 326z" />
    <glyph glyph-name="umacron" unicode="&#x16b;" horiz-adv-x="1247" 
d="M1083 1272h-540q-20 0 -35 14q-14 14 -14 34t14 36q14 14 35 14h540q21 0 35 -14t14 -34t-14 -36q-15 -14 -35 -14zM872 -8q-22 0 -34 16t-7 41l37 146q-182 -219 -395 -220q-156 -1 -249 91t-93 241q0 57 23 148l145 551q12 47 55 47q23 -1 35 -17t6 -41l-145 -549
q-16 -61 -17 -129q0 -117 72 -185t203 -66q131 0 258 110t172 279l147 551q12 47 56 47q23 -1 35 -17t6 -41l-254 -956q-13 -47 -56 -47z" />
    <glyph glyph-name="Ubreve" unicode="&#x16c;" horiz-adv-x="1548" 
d="M1041 1563q-97 0 -156 47t-59 131t48 84q35 0 42 -49t37 -79t108 -30q127 0 207 121q25 37 46 37q22 0 34 -11q12 -12 12 -26t-6 -27q-44 -94 -130 -146t-183 -52zM197 428q0 111 28 221l199 746q12 47 57 47q23 0 38 -18t7 -44l-207 -780q-18 -74 -18 -164
q1 -162 107 -262t311 -100t345 140t208 388l213 793q12 47 57 47q23 0 38 -18t7 -44l-215 -800q-72 -266 -227 -422q-180 -180 -431 -180t-384 124q-133 125 -133 326z" />
    <glyph glyph-name="ubreve" unicode="&#x16d;" horiz-adv-x="1247" 
d="M794 1214q-96 0 -156 48t-60 131q0 84 49 84q35 0 42 -49t37 -79t107 -30q127 0 207 121q25 37 46 37q22 1 34 -11t12 -26t-6 -27q-45 -95 -130 -147t-182 -52zM872 -8q-22 0 -34 16t-7 41l37 146q-182 -219 -395 -220q-156 -1 -249 91t-93 241q0 57 23 148l145 551
q12 47 55 47q23 -1 35 -17t6 -41l-145 -549q-16 -61 -17 -129q0 -117 72 -185t203 -66q131 0 258 110t172 279l147 551q12 47 56 47q23 -1 35 -17t6 -41l-254 -956q-13 -47 -56 -47z" />
    <glyph glyph-name="Uring" unicode="&#x16e;" horiz-adv-x="1548" 
d="M944 1722q0 -110 121 -110q59 0 102 41t43 94q0 111 -120 111q-58 0 -102 -41t-44 -95zM1284 1749q0 -79 -68 -141t-154 -62q-87 0 -139 47q-53 47 -53 127t68 142t155 61q87 0 139 -47t52 -127zM197 428q0 111 28 221l199 746q12 47 57 47q23 0 38 -18t7 -44l-207 -780
q-18 -74 -18 -164q1 -162 107 -262t311 -100t345 140t208 388l213 793q12 47 57 47q23 0 38 -18t7 -44l-215 -800q-72 -266 -227 -422q-180 -180 -431 -180t-384 124q-133 125 -133 326z" />
    <glyph glyph-name="uring" unicode="&#x16f;" horiz-adv-x="1247" 
d="M698 1384q0 -110 121 -110q59 0 103 41q43 41 43 94t-31 82t-90 29q-58 0 -102 -41t-44 -95zM1038 1411q0 -79 -68 -141t-154 -62q-87 0 -139 47t-52 127t67 142q68 61 155 61t139 -47t52 -127zM872 -8q-22 0 -34 16t-7 41l37 146q-182 -219 -395 -220q-156 -1 -249 91
t-93 241q0 57 23 148l145 551q12 47 55 47q23 -1 35 -17t6 -41l-145 -549q-16 -61 -17 -129q0 -117 72 -185t203 -66q131 0 258 110t172 279l147 551q12 47 56 47q23 -1 35 -17t6 -41l-254 -956q-13 -47 -56 -47z" />
    <glyph glyph-name="Uhungarumlaut" unicode="&#x170;" horiz-adv-x="1548" 
d="M1325 1833q25 0 40 -16t15 -36t-24 -38l-195 -156q-35 -27 -63 -27t-27 19q0 12 12 25l183 194q34 35 59 35zM1014 1833q25 0 40 -16t15 -36t-25 -38l-194 -156q-35 -27 -63 -27t-27 19q0 12 12 25l182 194q35 35 60 35zM197 428q0 111 28 221l199 746q12 47 57 47
q23 0 38 -18t7 -44l-207 -780q-18 -74 -18 -164q1 -162 107 -262t311 -100t345 140t208 388l213 793q12 47 57 47q23 0 38 -18t7 -44l-215 -800q-72 -266 -227 -422q-180 -180 -431 -180t-384 124q-133 125 -133 326z" />
    <glyph glyph-name="uhungarumlaut" unicode="&#x171;" horiz-adv-x="1247" 
d="M1077 1485q25 -1 40 -17q37 -41 -9 -73l-195 -156q-35 -27 -63 -27t-27 19q0 12 13 24l182 195q34 35 59 35zM766 1485q25 -1 40 -17t15 -36t-24 -37l-195 -156q-34 -27 -62 -27t-28 19q0 12 12 24l183 195q34 35 59 35zM872 -8q-22 0 -34 16t-7 41l37 146
q-182 -219 -395 -220q-156 -1 -249 91t-93 241q0 57 23 148l145 551q12 47 55 47q23 -1 35 -17t6 -41l-145 -549q-16 -61 -17 -129q0 -117 72 -185t203 -66q131 0 258 110t172 279l147 551q12 47 56 47q23 -1 35 -17t6 -41l-254 -956q-13 -47 -56 -47z" />
    <glyph glyph-name="Uogonek" unicode="&#x172;" horiz-adv-x="1548" 
d="M659 -334q-96 0 -148 39t-52 94q0 92 135 189q-195 30 -296 148t-101 292q0 111 28 221l199 746q12 47 57 47q23 0 38 -18t7 -44l-207 -780q-18 -74 -18 -164q1 -162 107 -262t311 -100t345 140t208 388l213 793q12 47 57 47q23 0 38 -18t7 -44l-215 -800
q-72 -266 -227 -422q-180 -180 -432 -181h-19q-131 -92 -131 -161q0 -29 24 -45t83 -29q33 -6 32 -37q0 -39 -43 -39z" />
    <glyph glyph-name="uogonek" unicode="&#x173;" horiz-adv-x="1247" 
d="M739 -184q0 -29 24 -45t83 -29q33 -6 33 -37q0 -39 -43 -39q-96 0 -149 39q-52 39 -52 94q0 104 194 228q0 14 2 22l37 146q-182 -219 -395 -220q-156 -1 -249 91t-93 241q0 57 23 148l145 551q12 47 55 47q23 -1 35 -17t6 -41l-145 -549q-16 -61 -17 -129
q0 -117 72 -185t203 -66q131 0 258 110t172 279l147 551q12 47 56 47q23 -1 35 -17t6 -41l-254 -956q-8 -29 -31 -43q-158 -106 -158 -180z" />
    <glyph glyph-name="Wcircumflex" unicode="&#x174;" horiz-adv-x="2199" 
d="M1583 1581q0 -20 -36 -20t-58 28l-90 117l-168 -119q-39 -27 -68 -27t-28 21q0 12 16 29l192 176q37 37 68 37h12q32 0 52 -37l98 -178q10 -20 10 -27zM1325 1442h2q41 0 45 -43l76 -1241l772 1243q25 41 64 41q18 0 30 -12t12 -31t-12 -37l-833 -1325q-32 -53 -68 -53
h-4q-43 0 -47 53l-82 1198l-725 -1198q-31 -53 -68 -53h-4q-43 0 -47 53l-123 1323l-2 29q1 23 17 37t39 16q51 0 55 -56l104 -1228l744 1249q20 35 55 35z" />
    <glyph glyph-name="wcircumflex" unicode="&#x175;" horiz-adv-x="1730" 
d="M1253 1233q1 -21 -35 -21t-59 29l-90 117l-168 -119q-39 -27 -67 -27t-29 21q0 12 16 29l193 176q37 37 67 37h13q28 0 51 -37l98 -178q10 -20 10 -27zM977 1053h2q41 0 45 -45l68 -873l544 879q23 39 54 39q43 0 43 -41q0 -18 -13 -39l-598 -946q-25 -41 -59 -41h-2
q-47 0 -53 57l-68 844l-530 -858q-25 -43 -60 -43h-2q-45 0 -49 57l-90 926l-2 28q0 55 53 56q45 0 49 -56l72 -862l539 881q25 37 57 37z" />
    <glyph glyph-name="Ycircumflex" unicode="&#x176;" horiz-adv-x="1368" 
d="M1159 1581q0 -20 -36 -20t-58 28l-90 117l-168 -119q-39 -27 -68 -27t-28 21q0 12 16 29l193 176q37 37 67 37h12q29 0 52 -37l98 -178q10 -20 10 -27zM539 -8q-23 0 -38 17t-7 44l141 529l-340 772q-8 18 -8 39t14 35t43 14t49 -47l314 -731l725 749q29 29 52 29
q24 0 38 -14t14 -34q0 -22 -25 -46l-778 -793l-137 -516q-12 -47 -57 -47z" />
    <glyph glyph-name="ycircumflex" unicode="&#x177;" horiz-adv-x="1163" 
d="M932 1233q0 -21 -36 -21t-58 29l-90 117l-168 -119q-39 -27 -68 -27t-29 21q0 12 17 29l192 176q37 37 68 37h12q31 0 51 -37l99 -178q10 -20 10 -27zM62 -240q152 0 325 246l-197 959q-4 20 -4 36q0 51 46 51t57 -53l174 -888l606 901q27 41 59 41q45 0 46 -43
q0 -20 -13 -39l-692 -1008q-111 -161 -212 -229t-205 -68t-197 49q-29 13 -29 39q0 52 47 53q17 0 33 -8q82 -39 156 -39z" />
    <glyph glyph-name="Ydieresis" unicode="&#x178;" horiz-adv-x="1368" 
d="M1139 1745q31 -1 49 -21t10 -47l-18 -67q-16 -55 -76 -56q-31 0 -48 20t-12 48l19 68q16 55 76 55zM805 1745q31 -1 49 -21t10 -47l-18 -67q-16 -55 -76 -56q-31 0 -48 20t-11 48l18 68q16 55 76 55zM539 -8q-23 0 -38 17t-7 44l141 529l-340 772q-8 18 -8 39t14 35
t43 14t49 -47l314 -731l725 749q29 29 52 29q24 0 38 -14t14 -34q0 -22 -25 -46l-778 -793l-137 -516q-12 -47 -57 -47z" />
    <glyph glyph-name="Zacute" unicode="&#x179;" horiz-adv-x="1355" 
d="M872 1581q0 12 11 23l180 194q35 35 61 35t58 -17q31 -17 31 -35t-23 -34l-211 -160q-35 -27 -71 -27t-36 21zM410 1337q-20 -1 -34 13t-16 34q0 20 14 34t36 16h1001q41 0 41 -35v-2q0 -27 -29 -56l-1269 -1245h911q21 0 35 -13t14 -33t-14 -36q-14 -14 -35 -14h-1042
q-41 0 -41 35v2q-1 26 28 55l1270 1245h-870z" />
    <glyph glyph-name="zacute" unicode="&#x17a;" horiz-adv-x="1118" 
d="M705 1212q-36 0 -35 21q0 12 10 22l180 195q35 35 62 35q28 1 58 -17t30 -36t-23 -33l-211 -160q-35 -27 -71 -27zM301 1044h778q43 0 43 -36v-2q0 -20 -20 -41l-948 -875h688q18 0 31 -13t13 -31t-12 -32q-14 -14 -32 -14h-813q-43 0 -43 37v2q0 20 20 41l948 874h-653
q-17 0 -31 14t-14 31q0 18 13 32q14 13 32 13z" />
    <glyph glyph-name="Zdotaccent" unicode="&#x17b;" horiz-adv-x="1355" 
d="M946 1745q31 -1 49 -21t11 -47l-19 -67q-16 -55 -76 -56q-31 0 -48 20t-11 48l18 68q16 55 76 55zM410 1337q-20 -1 -34 13t-16 34q0 20 14 34t36 16h1001q41 0 41 -35v-2q0 -27 -29 -56l-1269 -1245h911q21 0 35 -13t14 -33t-14 -36q-14 -14 -35 -14h-1042q-41 0 -41 35
v2q-1 26 28 55l1270 1245h-870z" />
    <glyph glyph-name="zdotaccent" unicode="&#x17c;" horiz-adv-x="1118" 
d="M784 1262q-16 -55 -75 -56q-31 0 -49 20t-11 48l19 67q16 55 75 56q31 -1 49 -21t11 -47zM301 1044h778q43 0 43 -36v-2q0 -20 -20 -41l-948 -875h688q18 0 31 -13t13 -31t-12 -32q-14 -14 -32 -14h-813q-43 0 -43 37v2q0 20 20 41l948 874h-653q-17 0 -31 14t-14 31
q0 18 13 32q14 13 32 13z" />
    <glyph glyph-name="Zcaron" unicode="&#x17d;" horiz-adv-x="1355" 
d="M750 1802q0 20 36 20t58 -28l90 -117l168 119q40 27 68 27t28 -21q0 -12 -16 -28l-193 -177q-37 -37 -67 -36h-13q-28 -1 -51 36l-98 179q-10 20 -10 26zM410 1337q-20 -1 -34 13t-16 34q0 20 14 34t36 16h1001q41 0 41 -35v-2q0 -27 -29 -56l-1269 -1245h911
q21 0 35 -13t14 -33t-14 -36q-14 -14 -35 -14h-1042q-41 0 -41 35v2q-1 26 28 55l1270 1245h-870z" />
    <glyph glyph-name="zcaron" unicode="&#x17e;" horiz-adv-x="1118" 
d="M545 1454q-1 20 35 20t59 -28l90 -117l168 119q39 27 68 27t28 -21q0 -12 -16 -29l-193 -176q-37 -37 -67 -37h-12q-32 0 -52 37l-98 178q-10 20 -10 27zM301 1044h778q43 0 43 -36v-2q0 -20 -20 -41l-948 -875h688q18 0 31 -13t13 -31t-12 -32q-14 -14 -32 -14h-813
q-43 0 -43 37v2q0 20 20 41l948 874h-653q-17 0 -31 14t-14 31q0 18 13 32q14 13 32 13z" />
    <glyph glyph-name="florin" unicode="&#x192;" horiz-adv-x="1077" 
d="M1051 1454q165 0 163 -61q0 -19 -12 -33t-22 -14t-52 9t-81 9q-164 0 -269 -236l-110 -249h280q18 -1 32 -15t15 -32q0 -18 -14 -32q-14 -13 -33 -14h-319l-230 -522q-69 -156 -147 -220t-167 -64t-89 45t74 45t129 49t108 170l219 497h-168q-18 0 -32 14t-14 32t14 32
t32 15h207l121 274q131 301 365 301z" />
    <glyph glyph-name="Aringacute" unicode="&#x1fa;" horiz-adv-x="1517" 
d="M1125 1810q-36 0 -35 21q0 12 10 22l180 195q36 35 62 35q26 1 57 -17t31 -36t-23 -33l-211 -160q-35 -27 -71 -27zM1053 1438q59 0 101 42t42 94t-32 81t-91 29t-101 -43q-42 -42 -42 -94q0 -53 32 -81t91 -28zM410 498h755l-153 829zM18 -8q-47 0 -49 47q0 18 13 31
l968 1325q-94 45 -94 138t65 155t151 61q86 0 142 -47t56 -121t-48 -131t-122 -74l254 -1302q4 -16 4 -34t-14 -32q-14 -16 -37 -16q-45 0 -56 51l-65 358h-846l-268 -370q-32 -39 -54 -39z" />
    <glyph glyph-name="aringacute" unicode="&#x1fb;" horiz-adv-x="1169" 
d="M826 1673q-36 0 -35 21q0 12 10 22l180 195q35 35 61 35t58 -18q31 -18 31 -34q0 -18 -23 -34l-211 -160q-35 -27 -71 -27zM913 1419q0 111 -120 111q-59 0 -103 -41t-43 -94q0 -53 31 -82t90 -29t102 41t43 94zM987 1421q1 -80 -67 -141t-155 -61t-139 47
q-52 46 -52 126t67 142q68 62 155 61q87 0 139 -47t52 -127zM815 -8q-23 0 -35 16t-6 41l35 131q-172 -205 -420 -205q-141 0 -242 77q-100 77 -100 216q0 172 131 276q132 104 328 103q196 0 414 -59l8 28q14 53 14 105q0 119 -81 182t-225 63t-274 -42q-16 -4 -26 -4
q-41 0 -41 45q0 35 39 47q147 49 319 49t280 -87t107 -239q0 -59 -20 -137l-150 -559q-12 -47 -55 -47zM426 68q136 0 272 97t176 251l25 92q-197 49 -374 49t-274 -77t-97 -186t68 -168q68 -58 204 -58z" />
    <glyph glyph-name="AEacute" unicode="&#x1fc;" horiz-adv-x="2187" 
d="M1511 1581q0 12 11 23l180 194q36 35 62 35t57 -17t31 -35t-23 -34l-211 -160q-35 -27 -71 -27t-36 21zM1223 1434h1015q20 0 34 -14t16 -36q0 -20 -14 -34t-36 -15h-854l-151 -563h735q20 0 34 -14t15 -34q0 -20 -14 -36q-14 -14 -35 -14h-762l-153 -576h837
q20 0 34 -14t15 -34q0 -20 -14 -36q-14 -14 -35 -14h-911q-23 0 -37 16t-8 37l94 348h-616l-320 -368q-35 -41 -65 -41q-43 0 -43 43q0 23 18 43l1139 1304q47 52 82 52zM496 498h557l225 839h-55z" />
    <glyph glyph-name="aeacute" unicode="&#x1fd;" horiz-adv-x="1976" 
d="M1125 1212q-36 0 -35 21q0 12 10 22l180 195q36 35 62 35q26 1 57 -17t31 -36t-23 -33l-211 -160q-35 -27 -71 -27zM1786 664q0 135 -75 224t-231 89q-156 -1 -285 -115q-128 -114 -175 -284h758q8 37 8 86zM1888 670q0 -68 -14 -135q-10 -47 -62 -48h-811q-4 -45 -4 -69
q1 -158 97 -253t264 -95t315 118q40 32 70 2q12 -12 12 -34t-20 -37q-166 -143 -389 -144q-152 0 -259 69q-106 69 -155 187q-246 -256 -522 -256q-158 0 -260 80t-102 236t134 256q135 100 339 100t399 -59l8 28q14 53 14 105q0 119 -81 182t-225 63t-274 -42
q-16 -4 -26 -4q-41 0 -41 45q0 35 39 47q147 49 306 49t262 -66t130 -182q86 117 206 187t255 69q187 -1 291 -115t104 -284zM512 557q-156 0 -257 -76t-101 -184t69 -169q70 -60 195 -60q252 0 487 256q-8 41 -8 92t6 94q-166 47 -391 47z" />
    <glyph glyph-name="Oslashacute" unicode="&#x1fe;" horiz-adv-x="1732" 
d="M1125 1581q-36 0 -35 21q0 12 10 22l180 195q36 35 62 35t57 -18q31 -17 31 -35t-23 -34l-211 -159q-35 -27 -71 -27zM31 20q0 25 22 43l234 195q-90 152 -90 352t109 402q110 202 301 324t415 122q287 0 465 -198l194 163q33 29 60 29q41 0 41 -37q0 -27 -23 -45
l-217 -182q98 -158 98 -362t-110 -406q-110 -201 -300 -324q-191 -123 -415 -123q-295 0 -475 211l-209 -174q-33 -29 -61 -28q-39 0 -39 38zM815 70q197 0 363 110t259 288t93 354t-70 298l-1042 -870q141 -180 397 -180zM307 615q0 -172 62 -289l1040 868
q-145 168 -387 168q-197 0 -363 -111t-259 -287t-93 -349z" />
    <glyph glyph-name="oslashacute" unicode="&#x1ff;" horiz-adv-x="1296" 
d="M836 1212q-36 0 -35 21q0 12 10 22l180 195q35 35 62 35q27 1 57 -17t31 -36q0 -18 -23 -33l-211 -160q-35 -27 -71 -27zM33 -18q-39 0 -39 36q0 25 22 43l154 125q-66 109 -66 252q0 250 186 440t435 191q215 0 346 -141l148 119q27 20 47 20q39 0 39 -37q0 -25 -23 -43
l-158 -129q66 -109 66 -252q0 -254 -188 -442t-433 -189q-213 1 -346 144l-143 -117q-27 -20 -47 -20zM213 442q0 -104 39 -188l743 610q-99 111 -289 111t-342 -162t-151 -371zM586 70q188 0 342 160t153 372q0 104 -39 189l-743 -611q99 -110 287 -110z" />
    <glyph glyph-name="Scommaaccent" unicode="&#x218;" horiz-adv-x="1306" 
d="M371 -250q0 41 22 74q23 33 66 33q66 0 65 -66q0 -43 -22 -96t-56 -86q-68 -68 -165 -68q-25 0 -25 22q0 23 46 33q95 22 118 103q-49 10 -49 51zM623 76q176 0 295 89t118 224q0 94 -69 158q-71 63 -271 141t-292 160q-91 82 -91 211q-1 167 143 281t371 114
q270 0 459 -176q23 -23 23 -44q1 -20 -15 -36t-39 -16t-43 20q-156 156 -395 156q-178 0 -287 -86q-108 -86 -108 -194t78 -170t274 -137t283 -160q88 -85 88 -214q0 -176 -152 -297t-381 -120q-338 0 -538 231q-38 52 -6 82q14 14 38 14t41 -24q179 -207 476 -207z" />
    <glyph glyph-name="scommaaccent" unicode="&#x219;" horiz-adv-x="1013" 
d="M225 -250q0 41 23 74t65 33q66 0 66 -66q0 -43 -23 -96q-67 -154 -221 -154q-25 0 -24 21q-1 24 45 34q95 22 118 103q-49 10 -49 51zM457 70q104 0 187 58t83 148q0 62 -48 110q-47 48 -191 101t-213 115t-68 162q0 127 107 215q108 88 280 88q90 0 186 -34
q181 -64 181 -124q1 -20 -13 -33q-14 -14 -34 -14t-33 10q-147 102 -285 102t-210 -56q-73 -57 -73 -129t47 -115q47 -44 196 -102q150 -58 214 -121t64 -158q0 -135 -115 -225t-275 -91q-227 0 -407 148q-25 19 -25 43t14 38t32 15q19 0 46 -20q158 -131 353 -131z" />
    <glyph glyph-name="schwa" unicode="&#x259;" horiz-adv-x="1193" 
d="M622 975q-169 0 -315 -119q-17 -14 -37 -14t-32 12t-12 34t20 38q170 143 381 143t338 -123t127 -315q0 -252 -178 -454t-427 -202q-188 0 -291 115t-104 285q0 68 14 135q10 47 62 47h811q4 45 4 70q0 158 -96 253t-265 95zM195 381q1 -135 75 -224t230 -89t286 114
q128 114 175 285h-758q-8 -37 -8 -86z" />
    <glyph glyph-name="circumflex" unicode="&#x2c6;" 
d="M934 1233q0 -21 -36 -21t-58 29l-90 117l-168 -119q-39 -27 -68 -27t-29 21q0 12 17 29l192 176q37 37 68 37h12q28 0 51 -37l99 -178q10 -20 10 -27z" />
    <glyph glyph-name="caron" unicode="&#x2c7;" 
d="M952 1475q28 0 29 -21q0 -12 -16 -29l-193 -176q-37 -37 -67 -37h-13q-28 0 -51 37l-98 178q-10 20 -11 27q0 20 36 20t59 -28l90 -117l168 119q39 27 67 27z" />
    <glyph glyph-name="breve" unicode="&#x2d8;" 
d="M697 1214q-97 0 -156 48t-59 131q0 84 48 84q35 0 42 -49t37 -79t108 -30q127 0 207 121q25 37 46 37q22 1 34 -11t12 -26t-6 -27q-44 -95 -130 -147t-183 -52z" />
    <glyph glyph-name="dotaccent" unicode="&#x2d9;" 
d="M778 1262q-16 -55 -76 -56q-31 0 -48 20t-11 48l19 67q16 55 75 56q31 -1 49 -21t11 -47z" />
    <glyph glyph-name="ring" unicode="&#x2da;" 
d="M733 1284q59 0 103 41q43 41 43 94t-31 82t-90 29q-58 0 -102 -41t-44 -94t31 -82t90 -29zM952 1421q0 -80 -68 -141t-154 -61q-87 0 -139 47q-52 46 -52 126t67 142q68 61 155 61t139 -47t52 -127z" />
    <glyph glyph-name="ogonek" unicode="&#x2db;" 
d="M410 -334q-96 0 -149 39q-52 39 -52 97t54 114t157 121l61 -35q-168 -111 -168 -186q0 -29 24 -45t83 -29q33 -6 33 -37q0 -39 -43 -39z" />
    <glyph glyph-name="tilde" unicode="&#x2dc;" 
d="M451 1208q-43 0 -43 37q0 21 28 69q76 128 176 128q41 0 69 -16t80 -67q52 -50 93 -50t100 98q18 31 41 31q43 0 43 -37q0 -21 -28 -69q-76 -128 -176 -128q-41 0 -69 16t-80 67q-52 50 -93 50t-100 -98q-18 -31 -41 -31z" />
    <glyph glyph-name="hungarumlaut" unicode="&#x2dd;" 
d="M981 1485q25 -1 40 -17t15 -36t-24 -37l-195 -156q-35 -27 -63 -27t-27 19q0 12 12 24l183 195q34 35 59 35zM670 1485q25 -1 40 -17t15 -36t-25 -37l-194 -156q-35 -27 -63 -27t-27 19q0 12 12 24l182 195q35 35 60 35z" />
    <glyph glyph-name="commaaccent" unicode="&#x326;" 
d="M236 -250q0 41 22 74q23 33 66 33q66 0 65 -66q-1 -43 -23 -96q-65 -154 -221 -154q-25 0 -24 21q0 24 46 34q95 22 118 103q-49 10 -49 51z" />
    <glyph glyph-name="Wgrave" unicode="&#x1e80;" horiz-adv-x="2199" 
d="M1147 1782q0 16 25 32q26 15 62 15t50 -37l74 -188q6 -18 6 -25q0 -19 -30 -19t-48 25l-125 164q-14 17 -14 33zM1325 1442h2q41 0 45 -43l76 -1241l772 1243q25 41 64 41q18 0 30 -12t12 -31t-12 -37l-833 -1325q-32 -53 -68 -53h-4q-43 0 -47 53l-82 1198l-725 -1198
q-31 -53 -68 -53h-4q-43 0 -47 53l-123 1323l-2 29q1 23 17 37t39 16q51 0 55 -56l104 -1228l744 1249q20 35 55 35z" />
    <glyph glyph-name="wgrave" unicode="&#x1e81;" horiz-adv-x="1730" 
d="M817 1434q0 16 26 31q25 15 61 15t50 -36l74 -189q6 -18 6 -24q0 -19 -30 -19t-48 25l-125 164q-14 17 -14 33zM977 1053h2q41 0 45 -45l68 -873l544 879q23 39 54 39q43 0 43 -41q0 -18 -13 -39l-598 -946q-25 -41 -59 -41h-2q-47 0 -53 57l-68 844l-530 -858
q-25 -43 -60 -43h-2q-45 0 -49 57l-90 926l-2 28q0 55 53 56q45 0 49 -56l72 -862l539 881q25 37 57 37z" />
    <glyph glyph-name="Wacute" unicode="&#x1e82;" horiz-adv-x="2199" 
d="M1323 1581q0 12 10 23l180 194q35 35 62 35t57 -17t31 -35q0 -18 -23 -34l-210 -160q-35 -27 -71 -27t-36 21zM1325 1442h2q41 0 45 -43l76 -1241l772 1243q25 41 64 41q18 0 30 -12t12 -31t-12 -37l-833 -1325q-32 -53 -68 -53h-4q-43 0 -47 53l-82 1198l-725 -1198
q-31 -53 -68 -53h-4q-43 0 -47 53l-123 1323l-2 29q1 23 17 37t39 16q51 0 55 -56l104 -1228l744 1249q20 35 55 35z" />
    <glyph glyph-name="wacute" unicode="&#x1e83;" horiz-adv-x="1730" 
d="M1029 1212q-36 0 -36 21q0 12 11 22l180 195q36 35 62 35q26 1 57 -17t31 -36t-23 -33l-211 -160q-35 -27 -71 -27zM977 1053h2q41 0 45 -45l68 -873l544 879q23 39 54 39q43 0 43 -41q0 -18 -13 -39l-598 -946q-25 -41 -59 -41h-2q-47 0 -53 57l-68 844l-530 -858
q-25 -43 -60 -43h-2q-45 0 -49 57l-90 926l-2 28q0 55 53 56q45 0 49 -56l72 -862l539 881q25 37 57 37z" />
    <glyph glyph-name="Wdieresis" unicode="&#x1e84;" horiz-adv-x="2199" 
d="M1563 1745q31 -1 49 -21t10 -47l-18 -67q-16 -55 -76 -56q-31 0 -48 20t-12 48l19 68q16 55 76 55zM1229 1745q31 -1 49 -21t10 -47l-18 -67q-16 -55 -76 -56q-31 0 -48 20t-11 48l18 68q16 55 76 55zM1325 1442h2q41 0 45 -43l76 -1241l772 1243q25 41 64 41
q18 0 30 -12t12 -31t-12 -37l-833 -1325q-32 -53 -68 -53h-4q-43 0 -47 53l-82 1198l-725 -1198q-31 -53 -68 -53h-4q-43 0 -47 53l-123 1323l-2 29q1 23 17 37t39 16q51 0 55 -56l104 -1228l744 1249q20 35 55 35z" />
    <glyph glyph-name="wdieresis" unicode="&#x1e85;" horiz-adv-x="1730" 
d="M1274 1262q-16 -55 -76 -56q-31 0 -48 20t-11 48l18 67q16 55 76 56q31 -1 49 -21t10 -47zM940 1262q-16 -55 -76 -56q-31 0 -48 20t-11 48l18 67q16 55 76 56q31 -1 49 -21t10 -47zM977 1053h2q41 0 45 -45l68 -873l544 879q23 39 54 39q43 0 43 -41q0 -18 -13 -39
l-598 -946q-25 -41 -59 -41h-2q-47 0 -53 57l-68 844l-530 -858q-25 -43 -60 -43h-2q-45 0 -49 57l-90 926l-2 28q0 55 53 56q45 0 49 -56l72 -862l539 881q25 37 57 37z" />
    <glyph glyph-name="Ygrave" unicode="&#x1ef2;" horiz-adv-x="1368" 
d="M723 1782q0 16 26 32q25 16 61 15q36 0 50 -37l74 -188q6 -18 6 -25q0 -19 -30 -19t-48 25l-125 164q-14 17 -14 33zM539 -8q-23 0 -38 17t-7 44l141 529l-340 772q-8 18 -8 39t14 35t43 14t49 -47l314 -731l725 749q29 29 52 29q24 0 38 -14t14 -34q0 -22 -25 -46
l-778 -793l-137 -516q-12 -47 -57 -47z" />
    <glyph glyph-name="ygrave" unicode="&#x1ef3;" horiz-adv-x="1163" 
d="M498 1434q0 16 25 31q26 15 62 15t50 -36l74 -189q6 -18 6 -24q0 -19 -30 -19t-48 25l-125 164q-14 17 -14 33zM62 -240q152 0 325 246l-197 959q-4 20 -4 36q0 51 46 51t57 -53l174 -888l606 901q27 41 59 41q45 0 46 -43q0 -20 -13 -39l-692 -1008q-111 -161 -212 -229
t-205 -68t-197 49q-29 13 -29 39q0 52 47 53q17 0 33 -8q82 -39 156 -39z" />
    <glyph glyph-name="enspace" unicode="&#x2002;" 
 />
    <glyph glyph-name="emspace" unicode="&#x2003;" horiz-adv-x="2048" 
 />
    <glyph glyph-name="threeperemspace" unicode="&#x2004;" horiz-adv-x="681" 
 />
    <glyph glyph-name="fourperemspace" unicode="&#x2005;" horiz-adv-x="512" 
 />
    <glyph glyph-name="thinspace" unicode="&#x2009;" horiz-adv-x="272" 
 />
    <glyph glyph-name="hairspace" unicode="&#x200a;" horiz-adv-x="153" 
 />
    <glyph glyph-name="endash" unicode="&#x2013;" horiz-adv-x="1081" 
d="M211 555q-23 0 -38 15t-15 38t15 38t38 16h704q23 0 38 -16t15 -38q0 -23 -14 -38q-16 -15 -39 -15h-704z" />
    <glyph glyph-name="emdash" unicode="&#x2014;" horiz-adv-x="1839" 
d="M211 555q-23 0 -38 15t-15 38t15 38t38 16h1462q23 0 38 -16t15 -38q0 -23 -15 -38t-38 -15h-1462z" />
    <glyph glyph-name="quoteleft" unicode="&#x2018;" horiz-adv-x="473" 
d="M573 1386q-65 -30 -99 -66t-46 -95q20 -3 32 -19t7 -43l-18 -67q-16 -53 -74 -54q-29 0 -47 20t-11 48l25 92q29 104 79 156t134 78q15 6 27 -1t12 -24t-21 -25z" />
    <glyph glyph-name="quoteright" unicode="&#x2019;" horiz-adv-x="473" 
d="M465 1442q29 0 47 -20t10 -48l-24 -92q-29 -104 -79 -154t-134 -79q-16 -6 -28 1q-11 8 -11 24t20 24q66 30 100 66t46 96q-20 2 -33 18q-12 16 -6 43l18 68q16 53 74 53z" />
    <glyph glyph-name="quotesinglbase" unicode="&#x201a;" horiz-adv-x="473" 
d="M137 182q29 0 47 -20t11 -47l-25 -92q-29 -103 -80 -155t-133 -79q-16 -6 -28 1q-11 8 -11 24t21 24q65 29 99 66t46 96q-20 2 -33 18q-12 16 -6 43l18 68q16 53 74 53z" />
    <glyph glyph-name="quotedblleft" unicode="&#x201c;" horiz-adv-x="841" 
d="M373 1042q-29 0 -47 20t-11 48l25 92q29 104 79 156t134 78q15 6 27 -1t12 -23t-21 -26q-65 -30 -99 -66t-46 -95q20 -3 32 -19t7 -43l-19 -67q-16 -54 -73 -54zM741 1042q-29 0 -47 20t-10 48l25 92q29 104 79 156t134 78q16 6 27 -1t11 -23t-20 -26q-66 -30 -100 -66
t-45 -95q20 -3 32 -19t7 -43l-19 -67q-17 -54 -74 -54z" />
    <glyph glyph-name="quotedblright" unicode="&#x201d;" horiz-adv-x="841" 
d="M831 1442q29 0 47 -20t11 -48l-25 -92q-29 -104 -80 -154t-133 -79q-16 -6 -27 1q-11 8 -11 24t20 24q65 30 99 66t46 96q-20 2 -33 18q-12 16 -6 43l19 68q16 53 73 53zM463 1442q29 0 47 -20t10 -48l-24 -92q-29 -104 -80 -154t-133 -79q-16 -6 -28 1q-11 8 -11 24
t20 24q66 30 100 66t46 96q-20 2 -33 18q-12 16 -6 43l18 68q16 53 74 53z" />
    <glyph glyph-name="quotedblbase" unicode="&#x201e;" horiz-adv-x="843" 
d="M506 182q29 0 47 -20t10 -47l-24 -92q-29 -103 -80 -155t-133 -79q-16 -6 -28 1q-11 8 -11 24t20 24q66 29 100 66t46 96q-20 2 -33 18q-12 16 -6 43l18 68q16 53 74 53zM137 182q29 0 47 -20t11 -47l-25 -92q-29 -103 -80 -155t-133 -79q-16 -6 -28 1q-11 8 -11 24
t21 24q65 29 99 66t46 96q-20 2 -33 18q-12 16 -6 43l18 68q16 53 74 53z" />
    <glyph glyph-name="dagger" unicode="&#x2020;" horiz-adv-x="839" 
d="M377 479q-21 -1 -31 15t-6 38l154 541l-207 -12q-18 -2 -33 11q-14 14 -14 32t14 32t33 13l223 -12l57 256q10 49 54 49q25 0 37 -18t4 -42l-78 -245l207 12q18 2 32 -12q15 -15 15 -33t-14 -32t-33 -11l-228 12l-137 -551q-10 -43 -49 -43z" />
    <glyph glyph-name="daggerdbl" unicode="&#x2021;" horiz-adv-x="880" 
d="M649 330q0 -18 -14 -32t-33 -13l-223 12l-57 -256q-10 -49 -54 -49q-25 0 -37 18t-4 41l78 246l-207 -12q-18 -2 -32 12q-14 15 -14 33t14 31t32 12l226 -13l86 357l104 356l-207 -12q-18 -2 -33 11q-14 14 -14 32t14 32t33 13l223 -12l58 256q10 49 53 49q25 0 37 -18
t4 -42l-78 -245l207 12q19 2 33 -12q14 -15 14 -33t-14 -32t-33 -11l-227 12l-84 -356l-107 -357l209 13q18 3 32 -11t15 -32z" />
    <glyph glyph-name="bullet" unicode="&#x2022;" horiz-adv-x="962" 
d="M488 455q-106 0 -167 60t-61 174t87 206t193 92t168 -60q60 -60 60 -174t-87 -206t-193 -92z" />
    <glyph glyph-name="ellipsis" unicode="&#x2026;" horiz-adv-x="1398" 
d="M1026 -8q-29 0 -46 17t-11 44l20 76q16 53 74 53q29 0 46 -18t11 -45l-20 -78q-12 -49 -74 -49zM563 -8q-29 0 -46 17t-11 44l20 76q16 53 74 53q29 0 46 -18t11 -45l-20 -78q-12 -49 -74 -49zM100 -8q-29 0 -46 17t-11 44l20 76q16 53 74 53q29 0 46 -18t12 -45l-21 -78
q-12 -49 -74 -49z" />
    <glyph glyph-name="perthousand" unicode="&#x2030;" horiz-adv-x="2463" 
d="M228 -8q-42 0 -44 41q0 20 23 43l1300 1335q33 33 53 33q42 0 44 -41q0 -20 -23 -43l-1300 -1335q-33 -33 -53 -33zM2277 408q-1 232 -201 231q-102 0 -186 -110t-84 -224q0 -231 202 -231q102 0 186 110t83 224zM1987 -14q-123 0 -202 85t-79 208q0 176 115 312t276 136
q123 0 202 -85t79 -208q0 -176 -114 -312t-277 -136zM1495 408q-1 232 -201 231q-102 0 -186 -110t-84 -224q0 -231 200 -231q102 0 187 110q84 110 84 224zM291 1028q1 -231 201 -231q102 -1 186 109t84 224q0 232 -201 232q-103 0 -187 -110t-83 -224zM1204 -14
q-123 0 -202 85t-78 208q0 176 114 312q115 136 277 136q123 0 202 -85t78 -208q-1 -176 -115 -312t-276 -136zM471 709q-123 0 -202 85t-79 207q0 177 115 313t277 136q124 0 202 -85t78 -208q0 -176 -114 -312t-277 -136z" />
    <glyph glyph-name="guilsinglleft" unicode="&#x2039;" horiz-adv-x="636" 
d="M600 909q0 -20 -18 -39l-363 -362l154 -340q8 -18 8 -36t-13 -30q-13 -14 -39 -14t-42 35l-181 362q-18 37 5 60l391 377q33 33 55 32q43 0 43 -45z" />
    <glyph glyph-name="guilsinglright" unicode="&#x203a;" horiz-adv-x="636" 
d="M78 88q-43 0 -43 45q0 20 18 39l363 363l-154 339q-8 18 -8 36t13 30q13 14 39 14t42 -34l180 -363q10 -21 10 -33t-14 -26l-391 -377q-33 -33 -55 -33z" />
    <glyph glyph-name="fraction" unicode="&#x2044;" horiz-adv-x="1126" 
d="M-84 -209q-43 0 -43 39q0 23 18 45l1344 1649q29 37 57 37q43 0 43 -39q0 -22 -18 -45l-1344 -1649q-29 -37 -57 -37z" />
    <glyph glyph-name="Euro" unicode="&#x20ac;" horiz-adv-x="1400" 
d="M1018 950q20 0 34 -14t15 -34q0 -20 -14 -36q-14 -14 -35 -14h-598q-39 -127 -45 -252h551q20 0 34 -14t15 -34q0 -20 -14 -36q-14 -14 -35 -14h-551q10 -195 112 -313t277 -117q215 0 391 178q21 20 41 20t34 -12t13 -33q0 -21 -24 -45q-99 -100 -205 -152t-252 -53
q-211 1 -349 143t-149 384h-133q-20 0 -35 14q-14 14 -14 34t14 36q14 14 35 14h135q6 133 43 252h-86q-20 0 -35 14q-14 14 -14 34t14 36q14 14 35 14h121q90 228 267 368t399 140q303 0 430 -278q10 -24 10 -44t-14 -33t-41 -13t-41 32q-109 240 -363 240
q-168 0 -310 -113t-224 -299h561z" />
    <glyph glyph-name="published" unicode="&#x2117;" horiz-adv-x="1699" 
d="M748 705h186q98 0 156 41q57 42 57 118v4q0 156 -207 156h-192v-319zM657 395v668q-1 17 13 31t32 14h244q135 0 214 -61t79 -175v-4q0 -120 -88 -184t-219 -63h-184v-226q0 -18 -14 -31q-14 -14 -32 -14t-32 14t-13 31zM899 33q289 1 485 201t197 485q0 285 -195 483
q-196 198 -484 199q-288 0 -484 -201q-196 -202 -197 -486q1 -284 195 -482t483 -199zM899 -25q-309 -1 -524 217t-215 523t217 524t526 219t524 -217t215 -522t-217 -525t-526 -219z" />
    <glyph glyph-name="servicemark" unicode="&#x2120;" horiz-adv-x="1449" 
d="M735 1335q0 -33 -33 -35q-18 0 -34 17q-68 63 -148 63t-123 -34t-43 -74q0 -41 32 -66q32 -26 113 -56t121 -69t39 -96q-1 -82 -69 -137t-170 -55q-150 0 -246 106q-10 13 -10 27t10 23q11 9 25 9t26 -12q82 -90 201 -90q70 0 115 34t45 78t-28 70t-112 59t-124 69
q-41 36 -41 105t66 121q67 52 181 52t195 -82q12 -12 12 -27zM1548 1434h2q43 0 31 -50l-160 -559q-11 -31 -33 -31q-47 1 -34 46l131 452l-297 -321q-18 -23 -41 -23t-33 25l-127 319l-135 -467q-10 -31 -32 -31q-48 1 -36 46l160 557q10 37 39 37h2q27 0 39 -33l141 -357
l334 365q24 25 49 25z" />
    <glyph glyph-name="trademark" unicode="&#x2122;" horiz-adv-x="1413" 
d="M1511 1434h2q43 0 31 -50l-160 -559q-10 -31 -32 -31q-48 1 -35 46l131 452l-297 -321q-18 -23 -41 -23t-33 25l-127 319l-135 -467q-11 -31 -33 -31q-47 1 -34 46l159 557q10 37 39 37h2q27 0 39 -33l141 -357l334 365q24 25 49 25zM305 1364q-14 0 -24 10
q-11 10 -11 24t10 25q10 10 25 11h432q15 0 25 -10t10 -23t-10 -25t-25 -12h-190l-154 -539q-11 -31 -33 -31q-47 1 -34 46l149 524h-170z" />
    <glyph glyph-name="minus" unicode="&#x2212;" horiz-adv-x="1269" 
d="M1143 670h-905q-20 0 -36 15t-16 35t16 36t36 16h905q19 0 35 -15t16 -35t-15 -37q-16 -15 -36 -15z" />
    <glyph glyph-name="Q.alt" horiz-adv-x="1732" 
d="M803 -27q-256 -1 -431 177t-175 440q0 221 109 422q110 202 301 324t415 122q268 0 443 -177t175 -439q0 -184 -80 -358t-219 -300l117 -127q25 -29 25 -47q0 -47 -49 -47q-28 0 -48 25l-116 137q-211 -152 -467 -152zM1530 842q0 223 -141 371q-141 149 -353 149
t-377 -111q-166 -111 -259 -287t-93 -387q-1 -211 141 -359t360 -148t396 129l-200 223q-27 31 -27 49q0 51 49 51q25 1 45 -24l205 -240q118 112 186 266t68 318z" />
    <glyph glyph-name="aring.alt" horiz-adv-x="1169" 
d="M598 1168q0 -110 121 -111q59 0 102 41t43 94q0 111 -119 111q-61 0 -104 -41q-43 -40 -43 -94zM426 68q136 0 272 97t176 251l25 92q-197 49 -374 49t-274 -77t-97 -186t68 -168q68 -58 204 -58zM815 -8q-23 0 -35 16t-6 41l35 131q-172 -205 -420 -205q-141 0 -242 77
q-100 77 -100 216q0 172 131 276q132 104 328 103q196 0 414 -59l8 28q14 53 14 105q0 119 -81 182t-225 63t-274 -42q-16 -4 -26 -4q-41 0 -41 45q0 35 39 47q121 39 225 47q-35 41 -35 113t68 134t155 62t139 -47t52 -121q0 -113 -107 -172q209 -76 209 -293
q0 -59 -20 -137l-150 -559q-12 -47 -55 -47z" />
    <glyph glyph-name="aringacute.alt" horiz-adv-x="1169" 
d="M777 1446q-36 0 -36 20q0 12 11 23l180 194q36 35 62 35t57 -17t31 -35t-23 -34l-211 -159q-35 -27 -71 -27zM598 1168q0 -110 121 -111q59 0 102 41t43 94q0 111 -119 111q-61 0 -104 -41q-43 -40 -43 -94zM426 68q136 0 272 97t176 251l25 92q-197 49 -374 49t-274 -77
t-97 -186t68 -168q68 -58 204 -58zM815 -8q-23 0 -35 16t-6 41l35 131q-172 -205 -420 -205q-141 0 -242 77q-100 77 -100 216q0 172 131 276q132 104 328 103q196 0 414 -59l8 28q14 53 14 105q0 119 -81 182t-225 63t-274 -42q-16 -4 -26 -4q-41 0 -41 45q0 35 39 47
q121 39 225 47q-35 41 -35 113t68 134t155 62t139 -47t52 -121q0 -113 -107 -172q209 -76 209 -293q0 -59 -20 -137l-150 -559q-12 -47 -55 -47z" />
    <glyph glyph-name="three.alt" horiz-adv-x="1228" 
d="M358 1221q-43 0 -45 47q0 27 29 47q190 139 420 139q188 0 318 -95t130 -256t-114 -258t-318 -130q127 -37 207 -118t80 -206q0 -176 -155 -296t-378 -120q-324 0 -493 222q-16 21 -16 41t15 35t41 15t46 -26q143 -190 414 -190q182 0 298 91q115 91 115 230t-123 211
t-319 72h-10q-20 0 -34 13q-13 13 -13 33t13 34t34 14h55q254 0 398 86t145 238q0 120 -94 192t-242 72q-195 0 -359 -119q-27 -18 -45 -18z" />
    <glyph glyph-name="registered.alt" horiz-adv-x="1699" 
d="M705 745h233q88 0 143 38q55 39 55 105t-50 103t-138 37h-243v-283zM616 397v672q0 19 12 31t31 12h293q143 0 219 -76q57 -57 58 -139v-4q0 -86 -55 -142t-150 -73l197 -248q12 -16 12 -34t-13 -29q-13 -13 -34 -13t-37 21l-227 289h-217v-267q1 -18 -13 -30
q-14 -13 -32 -13t-32 12q-12 12 -12 31zM899 33q289 1 485 201t197 485q0 285 -195 483q-196 198 -484 199q-288 0 -484 -201q-196 -202 -197 -486q1 -284 195 -482t483 -199zM899 -25q-309 -1 -524 217t-215 523t217 524t526 219t524 -217t215 -522t-217 -525t-526 -219z
" />
    <glyph glyph-name="hfjslug" horiz-adv-x="1421" 
d="M872 580q-33 0 -32 34q0 12 9 24t23 11q14 0 24 -11t9 -24q0 -34 -33 -34zM997 612h-22v35h22q20 0 21 -16q-1 -19 -21 -19zM659 823q-33 0 -33 45t33 78l41 -80q-16 -43 -41 -43zM645 1056q0 30 29 29q27 -1 27 -35t-31 -69q-25 45 -25 75zM494 662l28 -97h17l22 70h2
l23 -70h16l29 97h-17l-20 -72h-2l-23 72h-14l-23 -72h-2l-20 72h-16zM270 662v-95h17v66l51 -66h14v95h-16v-66l-51 66h-15zM395 662v-95h70v15h-53v26h47v15h-47v24h53v15h-70zM750 567h16v35l37 60h-19l-26 -46l-27 46h-18l37 -60v-35zM872 565q20 1 34 15q33 33 1 68
q-15 16 -35 16t-34 -16t-14 -34q0 -20 14 -34t34 -15zM1034 631q0 31 -35 31h-41v-95h17v31h24l21 -31h18l-24 35q20 8 20 29zM1071 662v-95h16v25l17 16l31 -41h20l-41 54l37 41h-21l-40 -50h-3v50h-16zM729 1047q0 63 -55 63q-25 0 -41 -18q-35 -39 12 -125
q-47 -37 -47 -83q0 -91 59 -89q39 0 60 49h2l24 -49l25 12l-35 65q13 29 27 80l-27 6q-8 -37 -16 -61h-2l-33 64q47 43 47 86zM985 799q63 0 64 73v281h-33v-281q0 -45 -33 -45q-16 0 -41 11v-31q20 -8 43 -8zM377 1153v-352h31v162h96v-162h31v352h-31v-162h-96v162h-31z
M819 1153v-352h31v160h78v28h-78v135h88v29h-119zM1319 -410h-426l-16 29h-334l-17 -29h-424v621q29 0 48 19q18 19 18 46q0 26 -20 46t-46 20v1135h205l62 161h684l59 -161h207v-1887z" />
    <glyph glyph-name="caron.alt" 
d="M784 1501h27q29 0 29 -22q0 -16 -19 -45l-131 -217q-20 -35 -45 -35t-24 18q0 9 6 23l86 227q20 51 71 51z" />
    <glyph glyph-name="NUL" horiz-adv-x="0" 
 />
    </font>
</defs>
</svg>
